M48
;GenerationSoftware,Autodesk,EAGLE,9.4.2*%
;CreationDate,2019-09-03T08:20:56Z*%
FMAT,2
ICI,OFF
METRIC,TZ,000.000
T7C0.350
T6C0.700
T5C0.800
T4C0.900
T3C1.000
T2C1.016
T1C4.000
%
G90
M71
T1
X19170Y4040
T2
X19950Y16940
X2170Y16940
X4710Y16940
X7250Y16940
X9790Y16940
X12330Y16940
X14870Y16940
X17410Y16940
T3
X1900Y22800
X9520Y21784
X9520Y23816
T4
X5620Y41660
X5620Y37260
T5
X54155Y63207
X52155Y63207
T6
X7773Y55203
X40310Y53542
X40310Y55042
X40310Y56542
X40310Y58042
X40310Y59542
X40310Y61042
X7773Y53703
X7773Y56703
X7773Y58203
X7773Y59703
X7773Y61203
T7
X34600Y37600
X39700Y44000
X22500Y34400
X39000Y32400
X33400Y34600
X34700Y28600
X25300Y16500
X23800Y42600
X22268Y58900
X24600Y43800
X23200Y54100
X26400Y40700
X25300Y49900
X28300Y41500
X25700Y62100
X30700Y29932
X23200Y14000
X10800Y55600
X3100Y19000
X19700Y29800
X43600Y34500
X41216Y35000
X5200Y33000
X11200Y40500
X5500Y29500
X10900Y37900
X14900Y30500
X10900Y29300
X21400Y43000
X29400Y47500
X35200Y38600
X52100Y12800
X17500Y43100
X24700Y37000
X21100Y37300
X5400Y19900
X11000Y20600
X54300Y31800
X51000Y34300
X40500Y29800
X43000Y29200
X34300Y39600
X37300Y40400
X31700Y38900
X39500Y40700
X4000Y25000
X49400Y36400
X49600Y33000
X29950Y38750
X41400Y30600
X13800Y19200
X23700Y34400
X25800Y26300
X18800Y33100
X17800Y35600
X45200Y35200
X43900Y32300
X38300Y28300
X38450Y33550
X12700Y26300
X34700Y34700
X37100Y27300
X43300Y52300
X27000Y56000
X33400Y57900
X44900Y46700
X51200Y48500
X44700Y29100
X49100Y50800
X32000Y31000
X31100Y18800
X45250Y18250
X54000Y15000
X32188Y29830
X33100Y23900
X43750Y23350
X20000Y46000
X30300Y35500
X27000Y32600
X24200Y49300
X36300Y43600
X25750Y58650
X27000Y38500
X26600Y49900
X35200Y43600
X11700Y59000
X12000Y57000
X23268Y44800
X28800Y43900
X32700Y42700
X37100Y33000
M30