G04 EAGLE Gerber RS-274X export*
G75*
%MOMM*%
%FSLAX34Y34*%
%LPD*%
%INBottom Copper*%
%IPPOS*%
%AMOC8*
5,1,8,0,0,1.08239X$1,22.5*%
G01*
%ADD10C,1.208000*%
%ADD11C,1.308000*%
%ADD12R,1.778000X1.778000*%
%ADD13C,0.756400*%
%ADD14C,0.203200*%
%ADD15C,0.609600*%

G36*
X431057Y6526D02*
X431057Y6526D01*
X431116Y6524D01*
X431197Y6545D01*
X431280Y6557D01*
X431334Y6581D01*
X431391Y6596D01*
X431463Y6638D01*
X431540Y6673D01*
X431585Y6711D01*
X431636Y6741D01*
X431693Y6802D01*
X431757Y6856D01*
X431790Y6905D01*
X431830Y6948D01*
X431868Y7023D01*
X431915Y7092D01*
X431933Y7149D01*
X431960Y7202D01*
X431971Y7269D01*
X432001Y7363D01*
X432004Y7464D01*
X432015Y7533D01*
X432015Y85985D01*
X659824Y85985D01*
X659882Y85993D01*
X659940Y85991D01*
X660022Y86013D01*
X660106Y86025D01*
X660159Y86048D01*
X660215Y86063D01*
X660288Y86106D01*
X660365Y86141D01*
X660410Y86179D01*
X660460Y86208D01*
X660518Y86270D01*
X660582Y86324D01*
X660614Y86373D01*
X660654Y86416D01*
X660693Y86491D01*
X660740Y86561D01*
X660757Y86617D01*
X660784Y86669D01*
X660795Y86737D01*
X660825Y86832D01*
X660828Y86932D01*
X660839Y87000D01*
X660839Y671824D01*
X660831Y671882D01*
X660833Y671940D01*
X660811Y672022D01*
X660799Y672106D01*
X660776Y672159D01*
X660761Y672215D01*
X660718Y672288D01*
X660683Y672365D01*
X660645Y672410D01*
X660616Y672460D01*
X660554Y672518D01*
X660500Y672582D01*
X660451Y672614D01*
X660408Y672654D01*
X660333Y672693D01*
X660263Y672740D01*
X660207Y672757D01*
X660155Y672784D01*
X660087Y672795D01*
X659992Y672825D01*
X659892Y672828D01*
X659824Y672839D01*
X0Y672839D01*
X-58Y672831D01*
X-116Y672833D01*
X-198Y672811D01*
X-282Y672799D01*
X-335Y672776D01*
X-391Y672761D01*
X-464Y672718D01*
X-541Y672683D01*
X-586Y672645D01*
X-636Y672616D01*
X-694Y672554D01*
X-758Y672500D01*
X-790Y672451D01*
X-830Y672408D01*
X-869Y672333D01*
X-916Y672263D01*
X-933Y672207D01*
X-960Y672155D01*
X-971Y672087D01*
X-1001Y671992D01*
X-1004Y671892D01*
X-1015Y671824D01*
X-1015Y8173D01*
X-1007Y8116D01*
X-1009Y8058D01*
X-987Y7976D01*
X-975Y7891D01*
X-952Y7839D01*
X-937Y7783D01*
X-894Y7710D01*
X-859Y7632D01*
X-822Y7588D01*
X-792Y7538D01*
X-730Y7480D01*
X-676Y7415D01*
X-628Y7383D01*
X-585Y7344D01*
X-510Y7305D01*
X-439Y7257D01*
X-384Y7240D01*
X-333Y7214D01*
X-264Y7202D01*
X-168Y7172D01*
X-69Y7169D01*
X-2Y7158D01*
X430999Y6517D01*
X431057Y6526D01*
G37*
%LPC*%
G36*
X129585Y117887D02*
X129585Y117887D01*
X126971Y118970D01*
X124827Y121114D01*
X112870Y133071D01*
X111787Y135685D01*
X111787Y166398D01*
X111779Y166456D01*
X111781Y166514D01*
X111759Y166596D01*
X111747Y166680D01*
X111724Y166733D01*
X111709Y166789D01*
X111666Y166862D01*
X111631Y166939D01*
X111593Y166984D01*
X111564Y167034D01*
X111502Y167092D01*
X111448Y167156D01*
X111399Y167188D01*
X111356Y167228D01*
X111281Y167267D01*
X111211Y167314D01*
X111155Y167331D01*
X111103Y167358D01*
X111035Y167369D01*
X110940Y167399D01*
X110840Y167402D01*
X110772Y167413D01*
X108797Y167413D01*
X106589Y168328D01*
X106504Y168350D01*
X106422Y168381D01*
X106367Y168385D01*
X106313Y168399D01*
X106226Y168397D01*
X106139Y168404D01*
X106091Y168393D01*
X106029Y168391D01*
X105888Y168346D01*
X105811Y168328D01*
X103603Y167413D01*
X83397Y167413D01*
X81189Y168328D01*
X81104Y168350D01*
X81022Y168381D01*
X80967Y168385D01*
X80913Y168399D01*
X80826Y168397D01*
X80739Y168404D01*
X80691Y168393D01*
X80629Y168391D01*
X80488Y168346D01*
X80411Y168328D01*
X78203Y167413D01*
X57997Y167413D01*
X55789Y168328D01*
X55704Y168350D01*
X55622Y168381D01*
X55567Y168385D01*
X55513Y168399D01*
X55426Y168397D01*
X55339Y168404D01*
X55291Y168393D01*
X55229Y168391D01*
X55088Y168346D01*
X55011Y168328D01*
X52803Y167413D01*
X32597Y167413D01*
X30356Y168341D01*
X28641Y170056D01*
X27713Y172297D01*
X27713Y192503D01*
X28641Y194744D01*
X30356Y196459D01*
X32597Y197387D01*
X42113Y197387D01*
X42227Y197403D01*
X42341Y197413D01*
X42367Y197423D01*
X42395Y197427D01*
X42499Y197474D01*
X42606Y197515D01*
X42629Y197531D01*
X42654Y197543D01*
X42742Y197617D01*
X42833Y197686D01*
X42850Y197709D01*
X42871Y197726D01*
X42935Y197822D01*
X43003Y197914D01*
X43013Y197940D01*
X43029Y197963D01*
X43063Y198073D01*
X43104Y198180D01*
X43106Y198208D01*
X43114Y198234D01*
X43117Y198349D01*
X43126Y198463D01*
X43121Y198488D01*
X43122Y198518D01*
X43055Y198775D01*
X43051Y198791D01*
X42121Y201035D01*
X42121Y204965D01*
X43625Y208596D01*
X46404Y211375D01*
X50035Y212879D01*
X52872Y212879D01*
X52930Y212887D01*
X52988Y212885D01*
X53070Y212907D01*
X53154Y212919D01*
X53207Y212942D01*
X53263Y212957D01*
X53336Y213000D01*
X53413Y213035D01*
X53458Y213073D01*
X53508Y213102D01*
X53566Y213164D01*
X53630Y213218D01*
X53662Y213267D01*
X53702Y213310D01*
X53741Y213385D01*
X53788Y213455D01*
X53805Y213511D01*
X53832Y213563D01*
X53843Y213631D01*
X53873Y213726D01*
X53876Y213826D01*
X53887Y213894D01*
X53887Y230996D01*
X53883Y231025D01*
X53886Y231054D01*
X53863Y231165D01*
X53847Y231277D01*
X53835Y231304D01*
X53830Y231333D01*
X53778Y231433D01*
X53731Y231537D01*
X53712Y231559D01*
X53699Y231585D01*
X53621Y231667D01*
X53548Y231754D01*
X53523Y231770D01*
X53503Y231791D01*
X53405Y231848D01*
X53311Y231911D01*
X53283Y231920D01*
X53258Y231935D01*
X53148Y231963D01*
X53040Y231997D01*
X53010Y231998D01*
X52982Y232005D01*
X52869Y232001D01*
X52756Y232004D01*
X52727Y231997D01*
X52698Y231996D01*
X52590Y231961D01*
X52481Y231933D01*
X52455Y231918D01*
X52427Y231909D01*
X52364Y231863D01*
X52236Y231787D01*
X52193Y231742D01*
X52154Y231714D01*
X48588Y228147D01*
X43016Y225839D01*
X36984Y225839D01*
X31412Y228147D01*
X27147Y232412D01*
X24839Y237984D01*
X24839Y244016D01*
X27147Y249588D01*
X31412Y253853D01*
X36984Y256161D01*
X43016Y256161D01*
X48588Y253853D01*
X52154Y250286D01*
X52178Y250269D01*
X52197Y250246D01*
X52291Y250184D01*
X52381Y250115D01*
X52409Y250105D01*
X52433Y250089D01*
X52541Y250055D01*
X52647Y250014D01*
X52676Y250012D01*
X52704Y250003D01*
X52818Y250000D01*
X52930Y249991D01*
X52959Y249996D01*
X52988Y249996D01*
X53098Y250024D01*
X53209Y250047D01*
X53235Y250060D01*
X53263Y250067D01*
X53361Y250125D01*
X53461Y250178D01*
X53483Y250198D01*
X53508Y250213D01*
X53585Y250295D01*
X53667Y250373D01*
X53682Y250399D01*
X53702Y250420D01*
X53754Y250521D01*
X53811Y250619D01*
X53818Y250647D01*
X53832Y250673D01*
X53845Y250751D01*
X53881Y250894D01*
X53879Y250957D01*
X53887Y251004D01*
X53887Y255722D01*
X53875Y255808D01*
X53872Y255896D01*
X53855Y255948D01*
X53847Y256003D01*
X53812Y256083D01*
X53785Y256166D01*
X53757Y256205D01*
X53731Y256262D01*
X53635Y256376D01*
X53590Y256439D01*
X52625Y257404D01*
X51121Y261035D01*
X51121Y264965D01*
X52625Y268596D01*
X55404Y271375D01*
X59035Y272879D01*
X62965Y272879D01*
X66596Y271375D01*
X69375Y268596D01*
X70879Y264965D01*
X70879Y261035D01*
X69375Y257404D01*
X68410Y256439D01*
X68358Y256370D01*
X68298Y256306D01*
X68272Y256256D01*
X68239Y256212D01*
X68208Y256130D01*
X68168Y256053D01*
X68160Y256005D01*
X68138Y255947D01*
X68126Y255799D01*
X68113Y255722D01*
X68113Y212128D01*
X68121Y212070D01*
X68119Y212012D01*
X68141Y211930D01*
X68153Y211846D01*
X68176Y211793D01*
X68191Y211737D01*
X68234Y211664D01*
X68269Y211587D01*
X68307Y211542D01*
X68336Y211492D01*
X68398Y211434D01*
X68452Y211370D01*
X68501Y211338D01*
X68544Y211298D01*
X68619Y211259D01*
X68689Y211212D01*
X68745Y211195D01*
X68797Y211168D01*
X68865Y211157D01*
X68960Y211127D01*
X69060Y211124D01*
X69128Y211113D01*
X150722Y211113D01*
X150808Y211125D01*
X150896Y211128D01*
X150948Y211145D01*
X151003Y211153D01*
X151083Y211188D01*
X151166Y211215D01*
X151205Y211243D01*
X151262Y211269D01*
X151376Y211365D01*
X151439Y211410D01*
X153404Y213375D01*
X157035Y214879D01*
X160965Y214879D01*
X164596Y213375D01*
X167375Y210596D01*
X168879Y206965D01*
X168879Y206128D01*
X168887Y206070D01*
X168885Y206012D01*
X168907Y205930D01*
X168919Y205846D01*
X168942Y205793D01*
X168957Y205737D01*
X169000Y205664D01*
X169035Y205587D01*
X169073Y205542D01*
X169102Y205492D01*
X169164Y205434D01*
X169218Y205370D01*
X169267Y205338D01*
X169310Y205298D01*
X169385Y205259D01*
X169455Y205212D01*
X169511Y205195D01*
X169563Y205168D01*
X169631Y205157D01*
X169726Y205127D01*
X169826Y205124D01*
X169894Y205113D01*
X170633Y205113D01*
X170720Y205125D01*
X170807Y205128D01*
X170860Y205145D01*
X170915Y205153D01*
X170995Y205188D01*
X171078Y205215D01*
X171117Y205243D01*
X171174Y205269D01*
X171287Y205365D01*
X171351Y205410D01*
X177590Y211649D01*
X177642Y211719D01*
X177702Y211783D01*
X177728Y211832D01*
X177761Y211876D01*
X177792Y211958D01*
X177832Y212036D01*
X177840Y212083D01*
X177862Y212142D01*
X177874Y212289D01*
X177887Y212367D01*
X177887Y291377D01*
X177883Y291406D01*
X177886Y291436D01*
X177863Y291547D01*
X177847Y291659D01*
X177835Y291686D01*
X177830Y291714D01*
X177778Y291815D01*
X177731Y291918D01*
X177712Y291941D01*
X177699Y291967D01*
X177621Y292049D01*
X177548Y292135D01*
X177523Y292152D01*
X177503Y292173D01*
X177405Y292230D01*
X177311Y292293D01*
X177283Y292302D01*
X177258Y292316D01*
X177148Y292344D01*
X177040Y292379D01*
X177010Y292379D01*
X176982Y292387D01*
X176869Y292383D01*
X176756Y292386D01*
X176727Y292378D01*
X176698Y292378D01*
X176590Y292343D01*
X176481Y292314D01*
X176455Y292299D01*
X176427Y292290D01*
X176364Y292245D01*
X176236Y292169D01*
X176193Y292123D01*
X176154Y292095D01*
X157869Y273810D01*
X157851Y273786D01*
X157827Y273766D01*
X157786Y273699D01*
X157698Y273583D01*
X157676Y273523D01*
X157649Y273481D01*
X156375Y270404D01*
X153596Y267625D01*
X149965Y266121D01*
X146035Y266121D01*
X142404Y267625D01*
X139625Y270404D01*
X138121Y274035D01*
X138121Y277965D01*
X139625Y281596D01*
X142404Y284375D01*
X146035Y285879D01*
X149399Y285879D01*
X149486Y285891D01*
X149573Y285894D01*
X149626Y285911D01*
X149681Y285919D01*
X149761Y285954D01*
X149844Y285981D01*
X149883Y286009D01*
X149940Y286035D01*
X150053Y286131D01*
X150117Y286176D01*
X159633Y295692D01*
X159685Y295760D01*
X159744Y295823D01*
X159770Y295874D01*
X159804Y295919D01*
X159834Y295999D01*
X159874Y296076D01*
X159885Y296132D01*
X159905Y296185D01*
X159912Y296270D01*
X159929Y296355D01*
X159924Y296411D01*
X159929Y296468D01*
X159912Y296552D01*
X159904Y296638D01*
X159884Y296691D01*
X159873Y296747D01*
X159833Y296823D01*
X159802Y296903D01*
X159768Y296949D01*
X159742Y296999D01*
X159683Y297061D01*
X159631Y297130D01*
X159585Y297164D01*
X159546Y297205D01*
X159472Y297249D01*
X159403Y297300D01*
X159350Y297320D01*
X159301Y297349D01*
X159218Y297370D01*
X159137Y297401D01*
X159080Y297405D01*
X159025Y297419D01*
X158940Y297416D01*
X158854Y297423D01*
X158805Y297412D01*
X158741Y297410D01*
X158603Y297365D01*
X158527Y297348D01*
X157415Y296887D01*
X134016Y296887D01*
X133986Y296883D01*
X133955Y296885D01*
X133878Y296868D01*
X133735Y296847D01*
X133717Y296839D01*
X133714Y296839D01*
X133673Y296820D01*
X133628Y296810D01*
X131965Y296121D01*
X128035Y296121D01*
X124404Y297625D01*
X121625Y300404D01*
X120121Y304035D01*
X120121Y307965D01*
X121625Y311596D01*
X124404Y314375D01*
X128035Y315879D01*
X131965Y315879D01*
X135596Y314375D01*
X138436Y311534D01*
X138460Y311495D01*
X138461Y311494D01*
X138462Y311492D01*
X138565Y311395D01*
X138666Y311300D01*
X138668Y311299D01*
X138669Y311298D01*
X138798Y311232D01*
X138919Y311169D01*
X138921Y311169D01*
X138922Y311168D01*
X138939Y311165D01*
X139198Y311114D01*
X139228Y311117D01*
X139253Y311113D01*
X152633Y311113D01*
X152720Y311125D01*
X152807Y311128D01*
X152860Y311145D01*
X152915Y311153D01*
X152995Y311188D01*
X153078Y311215D01*
X153117Y311243D01*
X153174Y311269D01*
X153287Y311365D01*
X153351Y311410D01*
X159824Y317883D01*
X159876Y317953D01*
X159936Y318017D01*
X159962Y318066D01*
X159995Y318110D01*
X160026Y318192D01*
X160066Y318270D01*
X160074Y318317D01*
X160096Y318376D01*
X160108Y318523D01*
X160121Y318601D01*
X160121Y319965D01*
X161625Y323596D01*
X162590Y324561D01*
X162642Y324630D01*
X162702Y324694D01*
X162728Y324744D01*
X162761Y324788D01*
X162792Y324869D01*
X162832Y324947D01*
X162840Y324995D01*
X162862Y325053D01*
X162868Y325120D01*
X162873Y325138D01*
X162875Y325205D01*
X162887Y325278D01*
X162887Y381415D01*
X163970Y384029D01*
X166114Y386173D01*
X225131Y445190D01*
X225149Y445214D01*
X225173Y445234D01*
X225215Y445301D01*
X225302Y445417D01*
X225324Y445477D01*
X225351Y445519D01*
X226625Y448596D01*
X229404Y451375D01*
X233035Y452879D01*
X236965Y452879D01*
X240596Y451375D01*
X243375Y448596D01*
X244879Y444965D01*
X244879Y441035D01*
X243375Y437404D01*
X240596Y434625D01*
X236965Y433121D01*
X233601Y433121D01*
X233514Y433109D01*
X233427Y433106D01*
X233374Y433089D01*
X233319Y433081D01*
X233239Y433046D01*
X233156Y433019D01*
X233117Y432991D01*
X233060Y432965D01*
X232947Y432869D01*
X232883Y432824D01*
X181606Y381547D01*
X181537Y381456D01*
X181463Y381367D01*
X181452Y381342D01*
X181435Y381320D01*
X181394Y381213D01*
X181347Y381108D01*
X181344Y381080D01*
X181334Y381054D01*
X181324Y380940D01*
X181308Y380826D01*
X181312Y380798D01*
X181310Y380771D01*
X181333Y380658D01*
X181349Y380545D01*
X181361Y380519D01*
X181366Y380492D01*
X181419Y380390D01*
X181466Y380285D01*
X181484Y380264D01*
X181497Y380240D01*
X181576Y380156D01*
X181651Y380069D01*
X181672Y380056D01*
X181693Y380034D01*
X181922Y379899D01*
X181935Y379891D01*
X185596Y378375D01*
X188375Y375596D01*
X189879Y371965D01*
X189879Y368035D01*
X188375Y364404D01*
X187733Y363762D01*
X187698Y363715D01*
X187655Y363675D01*
X187612Y363602D01*
X187562Y363535D01*
X187541Y363480D01*
X187511Y363430D01*
X187491Y363348D01*
X187461Y363269D01*
X187456Y363211D01*
X187441Y363154D01*
X187444Y363070D01*
X187437Y362986D01*
X187449Y362929D01*
X187450Y362870D01*
X187476Y362790D01*
X187493Y362707D01*
X187520Y362655D01*
X187538Y362600D01*
X187578Y362543D01*
X187624Y362455D01*
X187693Y362382D01*
X187733Y362326D01*
X190649Y359410D01*
X190719Y359358D01*
X190783Y359298D01*
X190832Y359272D01*
X190876Y359239D01*
X190958Y359208D01*
X191036Y359168D01*
X191083Y359160D01*
X191142Y359138D01*
X191289Y359126D01*
X191367Y359113D01*
X205984Y359113D01*
X206014Y359117D01*
X206045Y359115D01*
X206122Y359132D01*
X206265Y359153D01*
X206324Y359179D01*
X206372Y359190D01*
X208035Y359879D01*
X211965Y359879D01*
X215596Y358375D01*
X218238Y355733D01*
X218285Y355697D01*
X218325Y355655D01*
X218398Y355612D01*
X218465Y355562D01*
X218520Y355541D01*
X218570Y355511D01*
X218652Y355491D01*
X218731Y355461D01*
X218789Y355456D01*
X218846Y355441D01*
X218930Y355444D01*
X219014Y355437D01*
X219071Y355448D01*
X219130Y355450D01*
X219210Y355476D01*
X219293Y355493D01*
X219345Y355520D01*
X219400Y355538D01*
X219457Y355578D01*
X219545Y355624D01*
X219618Y355693D01*
X219674Y355733D01*
X237827Y373886D01*
X239971Y376030D01*
X242585Y377113D01*
X274415Y377113D01*
X277029Y376030D01*
X279030Y374029D01*
X280113Y371415D01*
X280113Y321623D01*
X280117Y321594D01*
X280114Y321564D01*
X280137Y321453D01*
X280153Y321341D01*
X280165Y321314D01*
X280170Y321286D01*
X280222Y321185D01*
X280269Y321082D01*
X280288Y321059D01*
X280301Y321033D01*
X280379Y320951D01*
X280452Y320865D01*
X280477Y320849D01*
X280497Y320827D01*
X280595Y320770D01*
X280689Y320707D01*
X280717Y320698D01*
X280742Y320684D01*
X280852Y320656D01*
X280960Y320621D01*
X280990Y320621D01*
X281018Y320613D01*
X281131Y320617D01*
X281244Y320614D01*
X281273Y320622D01*
X281302Y320622D01*
X281410Y320657D01*
X281519Y320686D01*
X281545Y320701D01*
X281573Y320710D01*
X281636Y320755D01*
X281764Y320831D01*
X281807Y320877D01*
X281846Y320905D01*
X285767Y324826D01*
X285802Y324873D01*
X285845Y324913D01*
X285888Y324986D01*
X285938Y325053D01*
X285959Y325108D01*
X285989Y325159D01*
X286009Y325240D01*
X286039Y325319D01*
X286044Y325377D01*
X286059Y325434D01*
X286056Y325518D01*
X286063Y325602D01*
X286052Y325660D01*
X286050Y325718D01*
X286024Y325798D01*
X286007Y325881D01*
X285980Y325933D01*
X285962Y325989D01*
X285922Y326045D01*
X285876Y326133D01*
X285807Y326206D01*
X285767Y326262D01*
X284625Y327404D01*
X283121Y331035D01*
X283121Y334965D01*
X284625Y338596D01*
X287404Y341375D01*
X291035Y342879D01*
X292399Y342879D01*
X292486Y342891D01*
X292573Y342894D01*
X292626Y342911D01*
X292681Y342919D01*
X292761Y342954D01*
X292844Y342981D01*
X292883Y343009D01*
X292940Y343035D01*
X293053Y343131D01*
X293117Y343176D01*
X304223Y354282D01*
X304258Y354329D01*
X304301Y354369D01*
X304343Y354442D01*
X304394Y354509D01*
X304415Y354564D01*
X304444Y354614D01*
X304465Y354696D01*
X304495Y354775D01*
X304500Y354833D01*
X304515Y354890D01*
X304512Y354974D01*
X304519Y355058D01*
X304507Y355115D01*
X304506Y355174D01*
X304480Y355254D01*
X304463Y355337D01*
X304436Y355389D01*
X304418Y355445D01*
X304378Y355501D01*
X304332Y355589D01*
X304263Y355662D01*
X304223Y355718D01*
X276114Y383827D01*
X273970Y385971D01*
X272887Y388585D01*
X272887Y440106D01*
X272879Y440164D01*
X272881Y440222D01*
X272859Y440304D01*
X272847Y440388D01*
X272824Y440441D01*
X272809Y440497D01*
X272766Y440570D01*
X272731Y440647D01*
X272693Y440692D01*
X272664Y440742D01*
X272602Y440800D01*
X272548Y440864D01*
X272499Y440896D01*
X272456Y440936D01*
X272381Y440975D01*
X272311Y441022D01*
X272255Y441039D01*
X272203Y441066D01*
X272135Y441077D01*
X272040Y441107D01*
X271940Y441110D01*
X271872Y441121D01*
X269894Y441121D01*
X269836Y441113D01*
X269778Y441115D01*
X269696Y441093D01*
X269612Y441081D01*
X269559Y441058D01*
X269503Y441043D01*
X269430Y441000D01*
X269353Y440965D01*
X269308Y440927D01*
X269258Y440898D01*
X269200Y440836D01*
X269136Y440782D01*
X269104Y440733D01*
X269064Y440690D01*
X269025Y440615D01*
X268978Y440545D01*
X268961Y440489D01*
X268934Y440437D01*
X268923Y440369D01*
X268893Y440274D01*
X268890Y440174D01*
X268879Y440106D01*
X268879Y437035D01*
X267375Y433404D01*
X264596Y430625D01*
X260965Y429121D01*
X257035Y429121D01*
X253404Y430625D01*
X250625Y433404D01*
X249121Y437035D01*
X249121Y440965D01*
X250625Y444596D01*
X253466Y447436D01*
X253505Y447460D01*
X253506Y447461D01*
X253508Y447462D01*
X253605Y447565D01*
X253700Y447666D01*
X253701Y447668D01*
X253702Y447669D01*
X253768Y447797D01*
X253831Y447919D01*
X253831Y447921D01*
X253832Y447922D01*
X253835Y447939D01*
X253886Y448198D01*
X253883Y448228D01*
X253887Y448253D01*
X253887Y451106D01*
X253879Y451164D01*
X253881Y451222D01*
X253859Y451304D01*
X253847Y451388D01*
X253824Y451441D01*
X253809Y451497D01*
X253766Y451570D01*
X253731Y451647D01*
X253693Y451692D01*
X253664Y451742D01*
X253602Y451800D01*
X253548Y451864D01*
X253499Y451896D01*
X253456Y451936D01*
X253381Y451975D01*
X253311Y452022D01*
X253255Y452039D01*
X253203Y452066D01*
X253135Y452077D01*
X253040Y452107D01*
X252940Y452110D01*
X252872Y452121D01*
X249713Y452121D01*
X246082Y453625D01*
X245117Y454590D01*
X245048Y454642D01*
X244984Y454702D01*
X244934Y454728D01*
X244890Y454761D01*
X244808Y454792D01*
X244731Y454832D01*
X244683Y454840D01*
X244625Y454862D01*
X244477Y454874D01*
X244400Y454887D01*
X239585Y454887D01*
X236971Y455970D01*
X233970Y458971D01*
X232887Y461585D01*
X232887Y470780D01*
X232875Y470865D01*
X232873Y470951D01*
X232855Y471005D01*
X232847Y471062D01*
X232812Y471140D01*
X232786Y471222D01*
X232754Y471269D01*
X232731Y471321D01*
X232676Y471387D01*
X232628Y471458D01*
X232584Y471495D01*
X232548Y471538D01*
X232476Y471586D01*
X232410Y471641D01*
X232358Y471664D01*
X232311Y471696D01*
X232229Y471722D01*
X232150Y471756D01*
X232094Y471764D01*
X232040Y471781D01*
X231954Y471784D01*
X231869Y471795D01*
X231813Y471787D01*
X231756Y471789D01*
X231673Y471767D01*
X231588Y471755D01*
X231536Y471731D01*
X231481Y471717D01*
X231407Y471673D01*
X231328Y471638D01*
X231285Y471601D01*
X231236Y471572D01*
X231177Y471509D01*
X231112Y471453D01*
X231086Y471411D01*
X231042Y471364D01*
X230976Y471235D01*
X230934Y471169D01*
X229375Y467404D01*
X227235Y465264D01*
X227217Y465240D01*
X227193Y465220D01*
X227151Y465153D01*
X227064Y465037D01*
X227044Y464986D01*
X221029Y458970D01*
X218415Y457887D01*
X136278Y457887D01*
X136192Y457875D01*
X136104Y457872D01*
X136052Y457855D01*
X135997Y457847D01*
X135917Y457812D01*
X135834Y457785D01*
X135795Y457757D01*
X135738Y457731D01*
X135624Y457635D01*
X135561Y457590D01*
X134596Y456625D01*
X130965Y455121D01*
X127035Y455121D01*
X123404Y456625D01*
X120625Y459404D01*
X119121Y463035D01*
X119121Y466965D01*
X120625Y470596D01*
X123404Y473375D01*
X127035Y474879D01*
X130965Y474879D01*
X134596Y473375D01*
X135561Y472410D01*
X135630Y472358D01*
X135694Y472298D01*
X135744Y472272D01*
X135788Y472239D01*
X135869Y472208D01*
X135947Y472168D01*
X135995Y472160D01*
X136053Y472138D01*
X136201Y472126D01*
X136278Y472113D01*
X140377Y472113D01*
X140406Y472117D01*
X140436Y472114D01*
X140547Y472137D01*
X140659Y472153D01*
X140686Y472165D01*
X140714Y472170D01*
X140815Y472223D01*
X140918Y472269D01*
X140941Y472288D01*
X140967Y472301D01*
X141049Y472379D01*
X141135Y472452D01*
X141151Y472477D01*
X141173Y472497D01*
X141230Y472595D01*
X141293Y472689D01*
X141302Y472717D01*
X141316Y472742D01*
X141344Y472852D01*
X141379Y472960D01*
X141379Y472990D01*
X141387Y473018D01*
X141383Y473131D01*
X141386Y473244D01*
X141378Y473273D01*
X141378Y473302D01*
X141343Y473410D01*
X141314Y473519D01*
X141299Y473545D01*
X141290Y473573D01*
X141244Y473637D01*
X141169Y473764D01*
X141123Y473807D01*
X141095Y473846D01*
X139827Y475114D01*
X128114Y486827D01*
X125970Y488971D01*
X124887Y491585D01*
X124887Y516415D01*
X125970Y519029D01*
X141590Y534649D01*
X141642Y534719D01*
X141702Y534783D01*
X141728Y534832D01*
X141761Y534876D01*
X141792Y534958D01*
X141832Y535036D01*
X141840Y535083D01*
X141862Y535142D01*
X141874Y535289D01*
X141887Y535367D01*
X141887Y571633D01*
X141875Y571720D01*
X141872Y571807D01*
X141855Y571860D01*
X141847Y571915D01*
X141812Y571995D01*
X141785Y572078D01*
X141757Y572117D01*
X141731Y572174D01*
X141635Y572287D01*
X141590Y572351D01*
X141117Y572824D01*
X141047Y572876D01*
X140983Y572936D01*
X140934Y572962D01*
X140890Y572995D01*
X140808Y573026D01*
X140730Y573066D01*
X140683Y573074D01*
X140624Y573096D01*
X140477Y573108D01*
X140399Y573121D01*
X139505Y573121D01*
X139391Y573105D01*
X139277Y573095D01*
X139251Y573085D01*
X139223Y573081D01*
X139119Y573034D01*
X139012Y572993D01*
X138989Y572977D01*
X138964Y572965D01*
X138876Y572891D01*
X138785Y572822D01*
X138768Y572799D01*
X138747Y572782D01*
X138683Y572686D01*
X138615Y572594D01*
X138605Y572568D01*
X138589Y572545D01*
X138555Y572435D01*
X138514Y572328D01*
X138512Y572300D01*
X138504Y572274D01*
X138501Y572159D01*
X138492Y572045D01*
X138497Y572020D01*
X138496Y571990D01*
X138563Y571733D01*
X138567Y571717D01*
X138879Y570965D01*
X138879Y567035D01*
X138222Y565450D01*
X138214Y565420D01*
X138200Y565392D01*
X138187Y565315D01*
X138151Y565174D01*
X138153Y565110D01*
X138145Y565061D01*
X138145Y548213D01*
X136753Y544852D01*
X134180Y542280D01*
X130819Y540887D01*
X107166Y540887D01*
X107079Y540875D01*
X106992Y540872D01*
X106939Y540855D01*
X106884Y540848D01*
X106804Y540812D01*
X106721Y540785D01*
X106682Y540757D01*
X106625Y540731D01*
X106512Y540636D01*
X106448Y540590D01*
X105601Y539743D01*
X101140Y537895D01*
X96312Y537895D01*
X91851Y539743D01*
X88437Y543157D01*
X86589Y547618D01*
X86589Y552446D01*
X88465Y556975D01*
X88515Y557041D01*
X88536Y557096D01*
X88565Y557147D01*
X88586Y557228D01*
X88616Y557307D01*
X88621Y557365D01*
X88636Y557422D01*
X88633Y557506D01*
X88640Y557590D01*
X88628Y557648D01*
X88627Y557706D01*
X88601Y557786D01*
X88584Y557869D01*
X88557Y557921D01*
X88539Y557977D01*
X88499Y558033D01*
X88453Y558121D01*
X88451Y558124D01*
X86589Y562618D01*
X86589Y567446D01*
X88465Y571975D01*
X88515Y572041D01*
X88536Y572096D01*
X88565Y572147D01*
X88586Y572228D01*
X88616Y572307D01*
X88621Y572365D01*
X88636Y572422D01*
X88633Y572506D01*
X88640Y572590D01*
X88628Y572648D01*
X88627Y572706D01*
X88601Y572786D01*
X88584Y572869D01*
X88557Y572921D01*
X88539Y572977D01*
X88499Y573033D01*
X88453Y573121D01*
X88451Y573124D01*
X86589Y577618D01*
X86589Y582446D01*
X88465Y586975D01*
X88515Y587041D01*
X88536Y587096D01*
X88565Y587147D01*
X88586Y587228D01*
X88616Y587307D01*
X88621Y587365D01*
X88636Y587422D01*
X88633Y587506D01*
X88640Y587590D01*
X88628Y587648D01*
X88627Y587706D01*
X88601Y587786D01*
X88584Y587869D01*
X88557Y587921D01*
X88539Y587977D01*
X88499Y588033D01*
X88453Y588121D01*
X88451Y588124D01*
X86589Y592618D01*
X86589Y597446D01*
X88437Y601907D01*
X91084Y604554D01*
X91145Y604635D01*
X91212Y604710D01*
X91230Y604748D01*
X91255Y604781D01*
X91291Y604876D01*
X91334Y604967D01*
X91341Y605008D01*
X91356Y605047D01*
X91364Y605147D01*
X91381Y605247D01*
X91376Y605289D01*
X91379Y605330D01*
X91360Y605429D01*
X91348Y605530D01*
X91333Y605563D01*
X91324Y605609D01*
X91238Y605773D01*
X91210Y605836D01*
X91122Y605968D01*
X90475Y607529D01*
X90325Y608283D01*
X97992Y608283D01*
X98050Y608291D01*
X98108Y608290D01*
X98190Y608311D01*
X98273Y608323D01*
X98327Y608347D01*
X98383Y608361D01*
X98456Y608404D01*
X98533Y608439D01*
X98577Y608477D01*
X98628Y608507D01*
X98685Y608568D01*
X98729Y608605D01*
X98730Y608605D01*
X98785Y608540D01*
X98833Y608508D01*
X98876Y608468D01*
X98951Y608429D01*
X99021Y608383D01*
X99077Y608365D01*
X99129Y608338D01*
X99197Y608327D01*
X99292Y608297D01*
X99392Y608294D01*
X99460Y608283D01*
X107127Y608283D01*
X106977Y607529D01*
X106330Y605968D01*
X106242Y605836D01*
X106198Y605745D01*
X106147Y605657D01*
X106137Y605617D01*
X106119Y605580D01*
X106102Y605480D01*
X106077Y605382D01*
X106078Y605340D01*
X106071Y605299D01*
X106083Y605199D01*
X106086Y605098D01*
X106099Y605058D01*
X106103Y605017D01*
X106142Y604924D01*
X106173Y604827D01*
X106195Y604797D01*
X106213Y604755D01*
X106328Y604610D01*
X106368Y604554D01*
X109015Y601907D01*
X110863Y597446D01*
X110863Y592618D01*
X108987Y588089D01*
X108937Y588023D01*
X108916Y587968D01*
X108886Y587918D01*
X108866Y587836D01*
X108836Y587757D01*
X108831Y587699D01*
X108816Y587642D01*
X108819Y587558D01*
X108812Y587474D01*
X108824Y587416D01*
X108826Y587358D01*
X108851Y587278D01*
X108868Y587195D01*
X108895Y587143D01*
X108913Y587087D01*
X108953Y587031D01*
X108999Y586943D01*
X109001Y586941D01*
X110863Y582446D01*
X110863Y577618D01*
X108987Y573089D01*
X108937Y573023D01*
X108916Y572968D01*
X108886Y572918D01*
X108866Y572836D01*
X108836Y572757D01*
X108831Y572699D01*
X108816Y572642D01*
X108819Y572558D01*
X108812Y572474D01*
X108824Y572416D01*
X108826Y572358D01*
X108851Y572278D01*
X108868Y572195D01*
X108895Y572143D01*
X108913Y572087D01*
X108953Y572031D01*
X108999Y571943D01*
X109001Y571941D01*
X110863Y567446D01*
X110863Y562618D01*
X110019Y560581D01*
X109990Y560470D01*
X109956Y560360D01*
X109955Y560332D01*
X109948Y560305D01*
X109951Y560191D01*
X109948Y560076D01*
X109955Y560049D01*
X109956Y560021D01*
X109991Y559912D01*
X110020Y559801D01*
X110034Y559777D01*
X110043Y559750D01*
X110107Y559655D01*
X110165Y559556D01*
X110186Y559537D01*
X110201Y559514D01*
X110289Y559441D01*
X110373Y559362D01*
X110397Y559349D01*
X110419Y559331D01*
X110523Y559285D01*
X110626Y559232D01*
X110650Y559228D01*
X110678Y559216D01*
X110942Y559179D01*
X110957Y559177D01*
X118840Y559177D01*
X118898Y559185D01*
X118956Y559184D01*
X119038Y559205D01*
X119122Y559217D01*
X119175Y559241D01*
X119231Y559255D01*
X119304Y559299D01*
X119381Y559333D01*
X119426Y559371D01*
X119476Y559401D01*
X119534Y559462D01*
X119598Y559517D01*
X119630Y559565D01*
X119670Y559608D01*
X119709Y559683D01*
X119756Y559753D01*
X119773Y559809D01*
X119800Y559861D01*
X119811Y559929D01*
X119841Y560024D01*
X119844Y560124D01*
X119855Y560192D01*
X119855Y565061D01*
X119851Y565092D01*
X119853Y565122D01*
X119836Y565199D01*
X119815Y565343D01*
X119789Y565401D01*
X119778Y565450D01*
X119121Y567035D01*
X119121Y570965D01*
X120625Y574596D01*
X123404Y577375D01*
X127035Y578879D01*
X130495Y578879D01*
X130609Y578895D01*
X130723Y578905D01*
X130749Y578915D01*
X130776Y578919D01*
X130881Y578965D01*
X130988Y579007D01*
X131011Y579023D01*
X131036Y579035D01*
X131124Y579109D01*
X131215Y579178D01*
X131232Y579201D01*
X131253Y579218D01*
X131316Y579314D01*
X131385Y579406D01*
X131395Y579432D01*
X131410Y579455D01*
X131445Y579565D01*
X131486Y579672D01*
X131488Y579700D01*
X131496Y579726D01*
X131499Y579841D01*
X131508Y579955D01*
X131503Y579980D01*
X131504Y580010D01*
X131436Y580267D01*
X131433Y580283D01*
X131121Y581035D01*
X131121Y584965D01*
X132625Y588596D01*
X135404Y591375D01*
X135563Y591441D01*
X135589Y591456D01*
X135617Y591465D01*
X135710Y591528D01*
X135808Y591585D01*
X135828Y591607D01*
X135853Y591623D01*
X135926Y591710D01*
X136003Y591792D01*
X136017Y591818D01*
X136036Y591840D01*
X136082Y591944D01*
X136133Y592045D01*
X136139Y592073D01*
X136151Y592100D01*
X136167Y592212D01*
X136189Y592323D01*
X136186Y592353D01*
X136190Y592382D01*
X136174Y592494D01*
X136164Y592607D01*
X136154Y592634D01*
X136149Y592663D01*
X136103Y592766D01*
X136062Y592872D01*
X136044Y592896D01*
X136032Y592922D01*
X135959Y593008D01*
X135891Y593099D01*
X135867Y593116D01*
X135848Y593139D01*
X135781Y593180D01*
X135663Y593269D01*
X135604Y593291D01*
X135563Y593317D01*
X132404Y594625D01*
X129625Y597404D01*
X128121Y601035D01*
X128121Y604965D01*
X129625Y608596D01*
X130590Y609561D01*
X130642Y609630D01*
X130702Y609694D01*
X130728Y609744D01*
X130761Y609788D01*
X130792Y609869D01*
X130832Y609947D01*
X130840Y609995D01*
X130862Y610053D01*
X130874Y610201D01*
X130887Y610278D01*
X130887Y657415D01*
X131970Y660029D01*
X140971Y669030D01*
X143585Y670113D01*
X282415Y670113D01*
X285029Y669030D01*
X306030Y648029D01*
X307113Y645415D01*
X307113Y619585D01*
X306030Y616971D01*
X296029Y606970D01*
X293415Y605887D01*
X288066Y605887D01*
X287953Y605871D01*
X287838Y605861D01*
X287812Y605851D01*
X287785Y605847D01*
X287680Y605800D01*
X287573Y605759D01*
X287551Y605743D01*
X287525Y605731D01*
X287438Y605657D01*
X287346Y605588D01*
X287330Y605565D01*
X287308Y605548D01*
X287245Y605452D01*
X287176Y605360D01*
X287166Y605334D01*
X287151Y605311D01*
X287116Y605201D01*
X287076Y605094D01*
X287073Y605066D01*
X287065Y605040D01*
X287062Y604925D01*
X287053Y604811D01*
X287059Y604786D01*
X287058Y604756D01*
X287125Y604499D01*
X287128Y604483D01*
X288379Y601465D01*
X288379Y598762D01*
X288383Y598733D01*
X288380Y598704D01*
X288403Y598593D01*
X288419Y598481D01*
X288431Y598454D01*
X288436Y598425D01*
X288489Y598325D01*
X288535Y598221D01*
X288554Y598199D01*
X288567Y598173D01*
X288645Y598091D01*
X288718Y598004D01*
X288743Y597988D01*
X288763Y597967D01*
X288861Y597910D01*
X288955Y597847D01*
X288983Y597838D01*
X289008Y597823D01*
X289118Y597795D01*
X289226Y597761D01*
X289256Y597760D01*
X289284Y597753D01*
X289397Y597757D01*
X289510Y597754D01*
X289539Y597761D01*
X289568Y597762D01*
X289676Y597797D01*
X289785Y597826D01*
X289811Y597841D01*
X289839Y597850D01*
X289902Y597895D01*
X290030Y597971D01*
X290073Y598016D01*
X290112Y598044D01*
X291820Y599753D01*
X295181Y601145D01*
X351061Y601145D01*
X351092Y601149D01*
X351122Y601147D01*
X351199Y601164D01*
X351343Y601185D01*
X351401Y601211D01*
X351450Y601222D01*
X353035Y601879D01*
X356965Y601879D01*
X360596Y600375D01*
X363375Y597596D01*
X364879Y593965D01*
X364879Y590035D01*
X363375Y586404D01*
X360596Y583625D01*
X356965Y582121D01*
X353035Y582121D01*
X351450Y582778D01*
X351420Y582786D01*
X351392Y582800D01*
X351315Y582813D01*
X351174Y582849D01*
X351110Y582847D01*
X351061Y582855D01*
X301208Y582855D01*
X301122Y582843D01*
X301034Y582840D01*
X300982Y582823D01*
X300927Y582815D01*
X300847Y582780D01*
X300764Y582753D01*
X300725Y582725D01*
X300668Y582699D01*
X300554Y582603D01*
X300534Y582589D01*
X300524Y582583D01*
X300521Y582579D01*
X300491Y582558D01*
X300442Y582509D01*
X300390Y582440D01*
X300330Y582376D01*
X300304Y582326D01*
X300271Y582282D01*
X300240Y582201D01*
X300200Y582123D01*
X300192Y582075D01*
X300170Y582017D01*
X300158Y581869D01*
X300145Y581792D01*
X300145Y576939D01*
X300149Y576908D01*
X300147Y576878D01*
X300164Y576801D01*
X300185Y576657D01*
X300211Y576599D01*
X300222Y576550D01*
X300879Y574965D01*
X300879Y571035D01*
X299375Y567404D01*
X296596Y564625D01*
X292935Y563109D01*
X292836Y563050D01*
X292734Y562998D01*
X292714Y562979D01*
X292690Y562964D01*
X292612Y562881D01*
X292528Y562802D01*
X292514Y562778D01*
X292495Y562758D01*
X292443Y562656D01*
X292385Y562557D01*
X292378Y562530D01*
X292365Y562505D01*
X292343Y562392D01*
X292314Y562281D01*
X292315Y562253D01*
X292310Y562226D01*
X292320Y562112D01*
X292324Y561997D01*
X292332Y561970D01*
X292334Y561943D01*
X292376Y561836D01*
X292411Y561726D01*
X292425Y561706D01*
X292436Y561678D01*
X292597Y561465D01*
X292606Y561453D01*
X392897Y461162D01*
X392921Y461144D01*
X392941Y461120D01*
X393008Y461078D01*
X393124Y460991D01*
X393184Y460968D01*
X393226Y460942D01*
X394596Y460375D01*
X395154Y459817D01*
X395178Y459799D01*
X395197Y459776D01*
X395291Y459714D01*
X395381Y459646D01*
X395409Y459635D01*
X395433Y459619D01*
X395541Y459585D01*
X395647Y459544D01*
X395676Y459542D01*
X395704Y459533D01*
X395818Y459530D01*
X395930Y459521D01*
X395959Y459527D01*
X395988Y459526D01*
X396098Y459554D01*
X396209Y459577D01*
X396235Y459590D01*
X396263Y459598D01*
X396361Y459655D01*
X396461Y459708D01*
X396483Y459728D01*
X396508Y459743D01*
X396585Y459826D01*
X396667Y459903D01*
X396682Y459929D01*
X396702Y459950D01*
X396754Y460051D01*
X396811Y460149D01*
X396818Y460177D01*
X396832Y460203D01*
X396845Y460281D01*
X396881Y460424D01*
X396879Y460487D01*
X396887Y460534D01*
X396887Y575415D01*
X397970Y578029D01*
X411669Y591728D01*
X411722Y591798D01*
X411782Y591862D01*
X411807Y591911D01*
X411840Y591955D01*
X411871Y592037D01*
X411911Y592115D01*
X411919Y592163D01*
X411941Y592221D01*
X411954Y592369D01*
X411967Y592446D01*
X411967Y595837D01*
X413814Y600297D01*
X416461Y602944D01*
X416522Y603025D01*
X416589Y603101D01*
X416607Y603138D01*
X416632Y603171D01*
X416668Y603266D01*
X416712Y603357D01*
X416718Y603398D01*
X416733Y603437D01*
X416742Y603538D01*
X416758Y603638D01*
X416753Y603679D01*
X416757Y603720D01*
X416737Y603819D01*
X416725Y603920D01*
X416710Y603954D01*
X416701Y603999D01*
X416616Y604164D01*
X416587Y604226D01*
X416499Y604358D01*
X415852Y605920D01*
X415703Y606673D01*
X423369Y606673D01*
X423427Y606681D01*
X423486Y606680D01*
X423567Y606701D01*
X423651Y606713D01*
X423704Y606737D01*
X423761Y606752D01*
X423833Y606795D01*
X423910Y606829D01*
X423955Y606867D01*
X424005Y606897D01*
X424063Y606959D01*
X424107Y606996D01*
X424108Y606995D01*
X424162Y606931D01*
X424211Y606898D01*
X424253Y606858D01*
X424329Y606820D01*
X424399Y606773D01*
X424455Y606755D01*
X424507Y606729D01*
X424575Y606717D01*
X424670Y606687D01*
X424770Y606685D01*
X424838Y606673D01*
X432504Y606673D01*
X432354Y605920D01*
X431708Y604358D01*
X431619Y604226D01*
X431576Y604135D01*
X431524Y604048D01*
X431514Y604008D01*
X431496Y603970D01*
X431479Y603870D01*
X431454Y603772D01*
X431456Y603731D01*
X431449Y603690D01*
X431460Y603589D01*
X431463Y603488D01*
X431476Y603449D01*
X431481Y603407D01*
X431520Y603314D01*
X431551Y603218D01*
X431572Y603188D01*
X431590Y603145D01*
X431706Y603000D01*
X431746Y602944D01*
X434392Y600297D01*
X436240Y595837D01*
X436240Y591008D01*
X434364Y586480D01*
X434314Y586413D01*
X434293Y586358D01*
X434264Y586308D01*
X434243Y586226D01*
X434213Y586148D01*
X434208Y586089D01*
X434194Y586032D01*
X434197Y585948D01*
X434190Y585864D01*
X434201Y585807D01*
X434203Y585748D01*
X434229Y585668D01*
X434245Y585586D01*
X434272Y585534D01*
X434290Y585478D01*
X434331Y585422D01*
X434376Y585333D01*
X434379Y585331D01*
X436240Y580837D01*
X436240Y576008D01*
X434364Y571480D01*
X434314Y571413D01*
X434293Y571358D01*
X434264Y571308D01*
X434243Y571226D01*
X434213Y571148D01*
X434208Y571089D01*
X434194Y571032D01*
X434197Y570948D01*
X434190Y570864D01*
X434201Y570807D01*
X434203Y570748D01*
X434229Y570668D01*
X434245Y570586D01*
X434272Y570534D01*
X434290Y570478D01*
X434331Y570422D01*
X434376Y570333D01*
X434379Y570331D01*
X436240Y565837D01*
X436240Y564239D01*
X436252Y564153D01*
X436255Y564065D01*
X436272Y564013D01*
X436280Y563958D01*
X436316Y563878D01*
X436343Y563795D01*
X436371Y563756D01*
X436396Y563698D01*
X436492Y563585D01*
X436538Y563521D01*
X453883Y546176D01*
X453953Y546124D01*
X454017Y546064D01*
X454066Y546038D01*
X454110Y546005D01*
X454192Y545974D01*
X454270Y545934D01*
X454317Y545926D01*
X454376Y545904D01*
X454523Y545892D01*
X454601Y545879D01*
X455965Y545879D01*
X459596Y544375D01*
X462375Y541596D01*
X463879Y537965D01*
X463879Y534035D01*
X462375Y530404D01*
X459596Y527625D01*
X455965Y526121D01*
X452035Y526121D01*
X448404Y527625D01*
X445625Y530404D01*
X444121Y534035D01*
X444121Y535399D01*
X444109Y535486D01*
X444106Y535573D01*
X444089Y535626D01*
X444081Y535681D01*
X444046Y535761D01*
X444019Y535844D01*
X443991Y535883D01*
X443965Y535940D01*
X443869Y536053D01*
X443824Y536117D01*
X436639Y543302D01*
X436564Y543359D01*
X436520Y543400D01*
X436503Y543409D01*
X436459Y543445D01*
X436434Y543457D01*
X436412Y543473D01*
X436304Y543514D01*
X436199Y543561D01*
X436172Y543565D01*
X436146Y543575D01*
X436031Y543584D01*
X435918Y543600D01*
X435890Y543596D01*
X435863Y543598D01*
X435750Y543576D01*
X435636Y543559D01*
X435611Y543548D01*
X435584Y543542D01*
X435482Y543489D01*
X435377Y543442D01*
X435356Y543424D01*
X435331Y543411D01*
X435248Y543332D01*
X435161Y543258D01*
X435148Y543237D01*
X435125Y543215D01*
X435040Y543070D01*
X434999Y543008D01*
X434993Y542990D01*
X434991Y542986D01*
X434983Y542973D01*
X434392Y541548D01*
X430978Y538134D01*
X426518Y536286D01*
X421689Y536286D01*
X418517Y537600D01*
X418405Y537629D01*
X418296Y537663D01*
X418268Y537664D01*
X418241Y537671D01*
X418127Y537668D01*
X418012Y537671D01*
X417985Y537664D01*
X417957Y537663D01*
X417848Y537628D01*
X417737Y537599D01*
X417713Y537585D01*
X417686Y537576D01*
X417591Y537512D01*
X417492Y537454D01*
X417473Y537433D01*
X417450Y537418D01*
X417376Y537330D01*
X417298Y537246D01*
X417285Y537222D01*
X417267Y537200D01*
X417221Y537096D01*
X417168Y536993D01*
X417164Y536969D01*
X417152Y536941D01*
X417115Y536677D01*
X417113Y536662D01*
X417113Y464367D01*
X417120Y464313D01*
X417119Y464279D01*
X417126Y464254D01*
X417128Y464193D01*
X417145Y464140D01*
X417153Y464085D01*
X417188Y464005D01*
X417215Y463922D01*
X417243Y463883D01*
X417269Y463826D01*
X417365Y463713D01*
X417410Y463649D01*
X417883Y463176D01*
X417953Y463124D01*
X418017Y463064D01*
X418066Y463038D01*
X418110Y463005D01*
X418192Y462974D01*
X418270Y462934D01*
X418317Y462926D01*
X418376Y462904D01*
X418523Y462892D01*
X418601Y462879D01*
X419965Y462879D01*
X423596Y461375D01*
X426375Y458596D01*
X427879Y454965D01*
X427879Y451035D01*
X426375Y447404D01*
X423596Y444625D01*
X419965Y443121D01*
X416035Y443121D01*
X412517Y444579D01*
X412405Y444607D01*
X412296Y444642D01*
X412268Y444643D01*
X412241Y444650D01*
X412127Y444646D01*
X412012Y444649D01*
X411985Y444642D01*
X411957Y444641D01*
X411848Y444606D01*
X411737Y444577D01*
X411713Y444563D01*
X411686Y444555D01*
X411591Y444491D01*
X411492Y444432D01*
X411473Y444412D01*
X411450Y444397D01*
X411376Y444309D01*
X411298Y444225D01*
X411285Y444200D01*
X411267Y444179D01*
X411220Y444074D01*
X411168Y443972D01*
X411164Y443947D01*
X411152Y443919D01*
X411115Y443656D01*
X411113Y443641D01*
X411113Y430188D01*
X411129Y430074D01*
X411139Y429960D01*
X411149Y429934D01*
X411153Y429906D01*
X411200Y429801D01*
X411241Y429694D01*
X411257Y429672D01*
X411269Y429647D01*
X411343Y429559D01*
X411412Y429468D01*
X411435Y429451D01*
X411452Y429430D01*
X411548Y429366D01*
X411640Y429297D01*
X411666Y429288D01*
X411689Y429272D01*
X411799Y429238D01*
X411906Y429197D01*
X411934Y429195D01*
X411960Y429186D01*
X412075Y429183D01*
X412189Y429174D01*
X412214Y429180D01*
X412244Y429179D01*
X412501Y429246D01*
X412517Y429250D01*
X414035Y429879D01*
X417965Y429879D01*
X421596Y428375D01*
X424375Y425596D01*
X425879Y421965D01*
X425879Y418035D01*
X424375Y414404D01*
X422410Y412439D01*
X422358Y412370D01*
X422298Y412306D01*
X422272Y412256D01*
X422239Y412212D01*
X422208Y412131D01*
X422168Y412053D01*
X422160Y412005D01*
X422138Y411947D01*
X422126Y411799D01*
X422113Y411722D01*
X422113Y399585D01*
X421030Y396971D01*
X418886Y394827D01*
X404905Y380846D01*
X404888Y380823D01*
X404866Y380805D01*
X404866Y380804D01*
X404865Y380803D01*
X404802Y380709D01*
X404734Y380619D01*
X404723Y380591D01*
X404707Y380567D01*
X404673Y380459D01*
X404633Y380353D01*
X404630Y380324D01*
X404621Y380296D01*
X404618Y380182D01*
X404609Y380070D01*
X404615Y380041D01*
X404614Y380012D01*
X404643Y379902D01*
X404665Y379791D01*
X404679Y379765D01*
X404686Y379737D01*
X404744Y379639D01*
X404796Y379539D01*
X404816Y379517D01*
X404831Y379492D01*
X404914Y379415D01*
X404992Y379333D01*
X405017Y379318D01*
X405038Y379298D01*
X405139Y379246D01*
X405237Y379189D01*
X405265Y379182D01*
X405292Y379168D01*
X405369Y379155D01*
X405513Y379119D01*
X405575Y379121D01*
X405623Y379113D01*
X414415Y379113D01*
X417029Y378030D01*
X443030Y352029D01*
X444113Y349415D01*
X444113Y323278D01*
X444124Y323201D01*
X444123Y323159D01*
X444127Y323144D01*
X444128Y323104D01*
X444145Y323052D01*
X444153Y322997D01*
X444182Y322931D01*
X444194Y322884D01*
X444205Y322867D01*
X444215Y322834D01*
X444243Y322795D01*
X444269Y322738D01*
X444311Y322688D01*
X444340Y322640D01*
X444383Y322599D01*
X444410Y322561D01*
X445375Y321596D01*
X446879Y317965D01*
X446879Y314035D01*
X445375Y310404D01*
X442596Y307625D01*
X438965Y306121D01*
X435035Y306121D01*
X431404Y307625D01*
X428625Y310404D01*
X427121Y314035D01*
X427121Y317965D01*
X428625Y321596D01*
X429590Y322561D01*
X429606Y322583D01*
X429627Y322600D01*
X429659Y322648D01*
X429702Y322694D01*
X429728Y322744D01*
X429761Y322788D01*
X429773Y322819D01*
X429784Y322836D01*
X429800Y322884D01*
X429832Y322947D01*
X429840Y322995D01*
X429862Y323053D01*
X429865Y323092D01*
X429870Y323107D01*
X429872Y323171D01*
X429874Y323201D01*
X429887Y323278D01*
X429887Y344633D01*
X429880Y344685D01*
X429881Y344712D01*
X429875Y344735D01*
X429872Y344807D01*
X429855Y344860D01*
X429847Y344915D01*
X429812Y344995D01*
X429785Y345078D01*
X429757Y345117D01*
X429731Y345174D01*
X429635Y345287D01*
X429590Y345351D01*
X410351Y364590D01*
X410281Y364642D01*
X410217Y364702D01*
X410168Y364728D01*
X410124Y364761D01*
X410042Y364792D01*
X409964Y364832D01*
X409917Y364840D01*
X409858Y364862D01*
X409711Y364874D01*
X409633Y364887D01*
X383894Y364887D01*
X383836Y364879D01*
X383778Y364881D01*
X383696Y364859D01*
X383612Y364847D01*
X383559Y364824D01*
X383503Y364809D01*
X383430Y364766D01*
X383353Y364731D01*
X383308Y364693D01*
X383258Y364664D01*
X383200Y364602D01*
X383136Y364548D01*
X383104Y364499D01*
X383064Y364456D01*
X383025Y364381D01*
X382978Y364311D01*
X382961Y364255D01*
X382934Y364203D01*
X382923Y364135D01*
X382893Y364040D01*
X382890Y363940D01*
X382879Y363872D01*
X382879Y360035D01*
X381375Y356404D01*
X378596Y353625D01*
X374965Y352121D01*
X371035Y352121D01*
X367404Y353625D01*
X364625Y356404D01*
X363856Y358261D01*
X363855Y358262D01*
X363855Y358263D01*
X363787Y358379D01*
X363712Y358505D01*
X363711Y358506D01*
X363710Y358508D01*
X363606Y358605D01*
X363505Y358701D01*
X363504Y358701D01*
X363502Y358702D01*
X363377Y358767D01*
X363252Y358831D01*
X363251Y358831D01*
X363249Y358832D01*
X363235Y358834D01*
X362973Y358886D01*
X362943Y358883D01*
X362918Y358887D01*
X360894Y358887D01*
X360836Y358879D01*
X360778Y358881D01*
X360696Y358859D01*
X360612Y358847D01*
X360559Y358824D01*
X360503Y358809D01*
X360430Y358766D01*
X360353Y358731D01*
X360308Y358693D01*
X360258Y358664D01*
X360200Y358602D01*
X360136Y358548D01*
X360104Y358499D01*
X360064Y358456D01*
X360025Y358381D01*
X359978Y358311D01*
X359961Y358255D01*
X359934Y358203D01*
X359923Y358135D01*
X359893Y358040D01*
X359890Y357940D01*
X359879Y357872D01*
X359879Y356035D01*
X358375Y352404D01*
X355596Y349625D01*
X351965Y348121D01*
X349601Y348121D01*
X349514Y348109D01*
X349427Y348106D01*
X349374Y348089D01*
X349319Y348081D01*
X349239Y348046D01*
X349156Y348019D01*
X349117Y347991D01*
X349060Y347965D01*
X348947Y347869D01*
X348883Y347824D01*
X324906Y323847D01*
X324855Y323779D01*
X324796Y323716D01*
X324769Y323666D01*
X324735Y323620D01*
X324705Y323540D01*
X324665Y323463D01*
X324654Y323408D01*
X324634Y323354D01*
X324627Y323269D01*
X324610Y323184D01*
X324615Y323128D01*
X324611Y323071D01*
X324627Y322987D01*
X324635Y322901D01*
X324655Y322848D01*
X324666Y322792D01*
X324706Y322716D01*
X324737Y322636D01*
X324771Y322591D01*
X324797Y322540D01*
X324857Y322478D01*
X324908Y322409D01*
X324954Y322375D01*
X324993Y322334D01*
X325067Y322290D01*
X325136Y322239D01*
X325189Y322219D01*
X325238Y322190D01*
X325322Y322169D01*
X325402Y322139D01*
X325459Y322134D01*
X325514Y322120D01*
X325600Y322123D01*
X325686Y322116D01*
X325734Y322127D01*
X325798Y322129D01*
X325936Y322174D01*
X326013Y322191D01*
X326035Y322201D01*
X330106Y322201D01*
X330164Y322209D01*
X330222Y322207D01*
X330304Y322229D01*
X330388Y322241D01*
X330441Y322264D01*
X330497Y322279D01*
X330570Y322322D01*
X330647Y322357D01*
X330692Y322395D01*
X330742Y322424D01*
X330800Y322486D01*
X330864Y322540D01*
X330896Y322589D01*
X330936Y322632D01*
X330975Y322707D01*
X331022Y322777D01*
X331039Y322833D01*
X331066Y322885D01*
X331077Y322953D01*
X331107Y323048D01*
X331110Y323148D01*
X331121Y323216D01*
X331121Y324965D01*
X332625Y328596D01*
X335404Y331375D01*
X339035Y332879D01*
X342965Y332879D01*
X346596Y331375D01*
X347561Y330410D01*
X347630Y330358D01*
X347694Y330298D01*
X347744Y330272D01*
X347788Y330239D01*
X347869Y330208D01*
X347947Y330168D01*
X347995Y330160D01*
X348053Y330138D01*
X348201Y330126D01*
X348278Y330113D01*
X380415Y330113D01*
X383029Y329030D01*
X383154Y328905D01*
X383178Y328887D01*
X383197Y328865D01*
X383291Y328802D01*
X383381Y328734D01*
X383409Y328723D01*
X383433Y328707D01*
X383541Y328673D01*
X383647Y328633D01*
X383676Y328630D01*
X383704Y328621D01*
X383817Y328618D01*
X383930Y328609D01*
X383959Y328615D01*
X383988Y328614D01*
X384098Y328643D01*
X384209Y328665D01*
X384235Y328679D01*
X384263Y328686D01*
X384361Y328744D01*
X384461Y328796D01*
X384483Y328816D01*
X384508Y328831D01*
X384585Y328914D01*
X384667Y328992D01*
X384682Y329017D01*
X384702Y329038D01*
X384754Y329139D01*
X384811Y329237D01*
X384818Y329266D01*
X384832Y329292D01*
X384845Y329369D01*
X384881Y329513D01*
X384879Y329575D01*
X384887Y329623D01*
X384887Y335722D01*
X384875Y335808D01*
X384872Y335896D01*
X384855Y335948D01*
X384847Y336003D01*
X384812Y336083D01*
X384785Y336166D01*
X384757Y336205D01*
X384731Y336262D01*
X384635Y336376D01*
X384590Y336439D01*
X383625Y337404D01*
X382121Y341035D01*
X382121Y344965D01*
X383625Y348596D01*
X386404Y351375D01*
X390035Y352879D01*
X393965Y352879D01*
X395294Y352328D01*
X395351Y352314D01*
X395404Y352290D01*
X395488Y352278D01*
X395569Y352257D01*
X395628Y352259D01*
X395686Y352251D01*
X395769Y352263D01*
X395854Y352265D01*
X395909Y352283D01*
X395967Y352292D01*
X396044Y352326D01*
X396124Y352352D01*
X396173Y352385D01*
X396226Y352409D01*
X396290Y352463D01*
X396360Y352510D01*
X396398Y352555D01*
X396443Y352593D01*
X396479Y352652D01*
X396543Y352728D01*
X396584Y352819D01*
X396621Y352878D01*
X397125Y354096D01*
X399904Y356875D01*
X403535Y358379D01*
X407465Y358379D01*
X411096Y356875D01*
X413875Y354096D01*
X415379Y350465D01*
X415379Y347800D01*
X415379Y347798D01*
X415379Y347797D01*
X415399Y347657D01*
X415419Y347518D01*
X415419Y347517D01*
X415419Y347515D01*
X415476Y347390D01*
X415535Y347259D01*
X415536Y347258D01*
X415537Y347256D01*
X415628Y347149D01*
X415718Y347042D01*
X415720Y347041D01*
X415721Y347040D01*
X415734Y347032D01*
X415955Y346884D01*
X415984Y346875D01*
X416005Y346862D01*
X419596Y345375D01*
X422375Y342596D01*
X423879Y338965D01*
X423879Y335035D01*
X422375Y331404D01*
X419596Y328625D01*
X419073Y328409D01*
X419071Y328408D01*
X419070Y328407D01*
X418951Y328337D01*
X418828Y328264D01*
X418827Y328263D01*
X418826Y328262D01*
X418728Y328158D01*
X418633Y328057D01*
X418632Y328056D01*
X418631Y328055D01*
X418568Y327931D01*
X418503Y327805D01*
X418502Y327803D01*
X418502Y327802D01*
X418499Y327787D01*
X418448Y327526D01*
X418450Y327495D01*
X418446Y327471D01*
X418446Y261919D01*
X417363Y259304D01*
X415220Y257161D01*
X277029Y118970D01*
X274415Y117887D01*
X129585Y117887D01*
G37*
%LPD*%
%LPC*%
G36*
X481035Y293121D02*
X481035Y293121D01*
X477404Y294625D01*
X474625Y297404D01*
X473121Y301035D01*
X473121Y304965D01*
X474625Y308596D01*
X477404Y311375D01*
X481120Y312914D01*
X481154Y312919D01*
X481207Y312942D01*
X481263Y312957D01*
X481336Y313000D01*
X481413Y313035D01*
X481458Y313073D01*
X481508Y313102D01*
X481566Y313164D01*
X481630Y313218D01*
X481662Y313267D01*
X481702Y313310D01*
X481741Y313385D01*
X481788Y313455D01*
X481805Y313511D01*
X481832Y313563D01*
X481843Y313631D01*
X481873Y313726D01*
X481876Y313826D01*
X481887Y313894D01*
X481887Y328466D01*
X481883Y328495D01*
X481886Y328524D01*
X481863Y328635D01*
X481847Y328747D01*
X481835Y328774D01*
X481830Y328803D01*
X481777Y328903D01*
X481731Y329007D01*
X481712Y329029D01*
X481699Y329055D01*
X481621Y329137D01*
X481548Y329224D01*
X481523Y329240D01*
X481503Y329261D01*
X481405Y329318D01*
X481311Y329381D01*
X481283Y329390D01*
X481258Y329405D01*
X481148Y329433D01*
X481040Y329467D01*
X481010Y329468D01*
X480982Y329475D01*
X480869Y329471D01*
X480756Y329474D01*
X480727Y329467D01*
X480698Y329466D01*
X480590Y329431D01*
X480481Y329402D01*
X480455Y329387D01*
X480427Y329378D01*
X480363Y329333D01*
X480236Y329257D01*
X480193Y329211D01*
X480154Y329183D01*
X478596Y327625D01*
X474965Y326121D01*
X471035Y326121D01*
X467404Y327625D01*
X464625Y330404D01*
X463121Y334035D01*
X463121Y337965D01*
X464625Y341596D01*
X465590Y342561D01*
X465642Y342630D01*
X465702Y342694D01*
X465728Y342744D01*
X465761Y342788D01*
X465792Y342870D01*
X465832Y342947D01*
X465840Y342995D01*
X465862Y343053D01*
X465874Y343201D01*
X465887Y343278D01*
X465887Y364415D01*
X466970Y367029D01*
X469824Y369883D01*
X469876Y369953D01*
X469936Y370017D01*
X469962Y370066D01*
X469995Y370110D01*
X470026Y370192D01*
X470066Y370270D01*
X470074Y370317D01*
X470096Y370376D01*
X470108Y370523D01*
X470121Y370601D01*
X470121Y371965D01*
X471625Y375596D01*
X474404Y378375D01*
X478035Y379879D01*
X480872Y379879D01*
X480930Y379887D01*
X480988Y379885D01*
X481070Y379907D01*
X481154Y379919D01*
X481207Y379942D01*
X481263Y379957D01*
X481336Y380000D01*
X481413Y380035D01*
X481458Y380073D01*
X481508Y380102D01*
X481566Y380164D01*
X481630Y380218D01*
X481662Y380267D01*
X481702Y380310D01*
X481741Y380385D01*
X481788Y380455D01*
X481805Y380511D01*
X481832Y380563D01*
X481843Y380631D01*
X481873Y380726D01*
X481876Y380826D01*
X481887Y380894D01*
X481887Y428633D01*
X481875Y428720D01*
X481872Y428807D01*
X481855Y428860D01*
X481847Y428915D01*
X481812Y428995D01*
X481785Y429078D01*
X481757Y429117D01*
X481731Y429174D01*
X481635Y429287D01*
X481590Y429351D01*
X457970Y452971D01*
X456887Y455585D01*
X456887Y476722D01*
X456875Y476808D01*
X456872Y476896D01*
X456855Y476948D01*
X456847Y477003D01*
X456812Y477083D01*
X456785Y477166D01*
X456757Y477205D01*
X456731Y477262D01*
X456635Y477376D01*
X456590Y477439D01*
X455625Y478404D01*
X454121Y482035D01*
X454121Y485965D01*
X455625Y489596D01*
X458404Y492375D01*
X462035Y493879D01*
X465965Y493879D01*
X469596Y492375D01*
X472375Y489596D01*
X473879Y485965D01*
X473879Y482601D01*
X473885Y482553D01*
X473891Y482514D01*
X473894Y482427D01*
X473911Y482374D01*
X473919Y482319D01*
X473954Y482239D01*
X473981Y482156D01*
X474009Y482117D01*
X474035Y482060D01*
X474131Y481947D01*
X474176Y481883D01*
X476649Y479410D01*
X476719Y479358D01*
X476783Y479298D01*
X476832Y479272D01*
X476876Y479239D01*
X476958Y479208D01*
X477036Y479168D01*
X477083Y479160D01*
X477142Y479138D01*
X477289Y479126D01*
X477367Y479113D01*
X495872Y479113D01*
X495930Y479121D01*
X495988Y479119D01*
X496070Y479141D01*
X496154Y479153D01*
X496207Y479176D01*
X496263Y479191D01*
X496336Y479234D01*
X496413Y479269D01*
X496458Y479307D01*
X496508Y479336D01*
X496566Y479398D01*
X496630Y479452D01*
X496662Y479501D01*
X496702Y479544D01*
X496741Y479619D01*
X496788Y479689D01*
X496805Y479745D01*
X496832Y479797D01*
X496843Y479865D01*
X496873Y479960D01*
X496876Y480060D01*
X496887Y480128D01*
X496887Y494415D01*
X497970Y497029D01*
X503971Y503030D01*
X506585Y504113D01*
X524722Y504113D01*
X524808Y504125D01*
X524896Y504128D01*
X524948Y504145D01*
X525003Y504153D01*
X525083Y504188D01*
X525166Y504215D01*
X525205Y504243D01*
X525262Y504269D01*
X525376Y504365D01*
X525439Y504410D01*
X525590Y504561D01*
X525642Y504630D01*
X525702Y504694D01*
X525728Y504744D01*
X525761Y504788D01*
X525792Y504869D01*
X525832Y504947D01*
X525840Y504995D01*
X525862Y505053D01*
X525874Y505201D01*
X525887Y505278D01*
X525887Y505872D01*
X525879Y505930D01*
X525881Y505988D01*
X525859Y506070D01*
X525847Y506154D01*
X525824Y506207D01*
X525809Y506263D01*
X525766Y506336D01*
X525731Y506413D01*
X525693Y506458D01*
X525664Y506508D01*
X525602Y506566D01*
X525548Y506630D01*
X525499Y506662D01*
X525456Y506702D01*
X525381Y506741D01*
X525311Y506788D01*
X525255Y506805D01*
X525203Y506832D01*
X525135Y506843D01*
X525040Y506873D01*
X524940Y506876D01*
X524872Y506887D01*
X514585Y506887D01*
X511971Y507970D01*
X510117Y509824D01*
X510047Y509876D01*
X509983Y509936D01*
X509934Y509962D01*
X509890Y509995D01*
X509808Y510026D01*
X509730Y510066D01*
X509683Y510074D01*
X509624Y510096D01*
X509477Y510108D01*
X509399Y510121D01*
X508035Y510121D01*
X504404Y511625D01*
X501625Y514404D01*
X500121Y518035D01*
X500121Y521965D01*
X501625Y525596D01*
X504404Y528375D01*
X508035Y529879D01*
X511965Y529879D01*
X515596Y528375D01*
X518375Y525596D01*
X519914Y521880D01*
X519919Y521846D01*
X519942Y521793D01*
X519957Y521737D01*
X520000Y521664D01*
X520035Y521587D01*
X520073Y521542D01*
X520102Y521492D01*
X520164Y521434D01*
X520218Y521370D01*
X520267Y521338D01*
X520310Y521298D01*
X520385Y521259D01*
X520455Y521212D01*
X520511Y521195D01*
X520563Y521168D01*
X520631Y521157D01*
X520726Y521127D01*
X520826Y521124D01*
X520894Y521113D01*
X531415Y521113D01*
X534029Y520030D01*
X539030Y515029D01*
X540113Y512415D01*
X540113Y505278D01*
X540125Y505192D01*
X540128Y505104D01*
X540145Y505052D01*
X540153Y504997D01*
X540188Y504917D01*
X540215Y504834D01*
X540243Y504795D01*
X540269Y504738D01*
X540365Y504624D01*
X540410Y504561D01*
X541375Y503596D01*
X542879Y499965D01*
X542879Y496035D01*
X541375Y492404D01*
X538596Y489625D01*
X534965Y488121D01*
X531035Y488121D01*
X527378Y489636D01*
X527370Y489642D01*
X527306Y489702D01*
X527257Y489728D01*
X527212Y489761D01*
X527131Y489792D01*
X527053Y489832D01*
X527005Y489840D01*
X526947Y489862D01*
X526799Y489874D01*
X526722Y489887D01*
X512128Y489887D01*
X512070Y489879D01*
X512012Y489881D01*
X511930Y489859D01*
X511846Y489847D01*
X511793Y489824D01*
X511737Y489809D01*
X511664Y489766D01*
X511587Y489731D01*
X511542Y489693D01*
X511492Y489664D01*
X511434Y489602D01*
X511370Y489548D01*
X511338Y489499D01*
X511298Y489456D01*
X511259Y489381D01*
X511212Y489311D01*
X511195Y489255D01*
X511168Y489203D01*
X511157Y489135D01*
X511127Y489040D01*
X511124Y488940D01*
X511113Y488872D01*
X511113Y470585D01*
X510030Y467971D01*
X508029Y465970D01*
X505415Y464887D01*
X472585Y464887D01*
X472517Y464916D01*
X472405Y464944D01*
X472296Y464979D01*
X472268Y464980D01*
X472241Y464987D01*
X472126Y464983D01*
X472012Y464986D01*
X471985Y464979D01*
X471957Y464979D01*
X471847Y464943D01*
X471737Y464915D01*
X471713Y464900D01*
X471686Y464892D01*
X471591Y464828D01*
X471492Y464769D01*
X471473Y464749D01*
X471450Y464734D01*
X471376Y464646D01*
X471298Y464562D01*
X471285Y464537D01*
X471267Y464516D01*
X471221Y464411D01*
X471168Y464309D01*
X471164Y464284D01*
X471152Y464256D01*
X471115Y463992D01*
X471113Y463978D01*
X471113Y460367D01*
X471125Y460280D01*
X471128Y460193D01*
X471145Y460140D01*
X471153Y460085D01*
X471188Y460005D01*
X471215Y459922D01*
X471243Y459883D01*
X471269Y459826D01*
X471351Y459729D01*
X471369Y459698D01*
X471386Y459682D01*
X471410Y459649D01*
X495030Y436029D01*
X496113Y433415D01*
X496113Y307585D01*
X495030Y304971D01*
X493176Y303117D01*
X493124Y303047D01*
X493064Y302983D01*
X493038Y302934D01*
X493005Y302890D01*
X492974Y302808D01*
X492934Y302730D01*
X492926Y302683D01*
X492904Y302624D01*
X492892Y302477D01*
X492879Y302399D01*
X492879Y301035D01*
X491375Y297404D01*
X488596Y294625D01*
X484965Y293121D01*
X481035Y293121D01*
G37*
%LPD*%
%LPC*%
G36*
X540035Y131121D02*
X540035Y131121D01*
X536404Y132625D01*
X535439Y133590D01*
X535370Y133642D01*
X535306Y133702D01*
X535256Y133728D01*
X535212Y133761D01*
X535131Y133792D01*
X535053Y133832D01*
X535005Y133840D01*
X534947Y133862D01*
X534799Y133874D01*
X534722Y133887D01*
X496085Y133887D01*
X493471Y134970D01*
X452470Y175971D01*
X451387Y178585D01*
X451387Y239222D01*
X451375Y239308D01*
X451372Y239396D01*
X451355Y239448D01*
X451347Y239503D01*
X451312Y239583D01*
X451285Y239666D01*
X451257Y239705D01*
X451231Y239762D01*
X451135Y239876D01*
X451090Y239939D01*
X450125Y240904D01*
X448621Y244535D01*
X448621Y248465D01*
X450125Y252096D01*
X452904Y254875D01*
X456535Y256379D01*
X460465Y256379D01*
X464096Y254875D01*
X466875Y252096D01*
X468379Y248465D01*
X468379Y244535D01*
X466875Y240904D01*
X465910Y239939D01*
X465858Y239870D01*
X465798Y239806D01*
X465772Y239756D01*
X465739Y239712D01*
X465708Y239631D01*
X465668Y239553D01*
X465660Y239505D01*
X465638Y239447D01*
X465626Y239299D01*
X465613Y239222D01*
X465613Y204034D01*
X465617Y204005D01*
X465614Y203976D01*
X465637Y203865D01*
X465653Y203753D01*
X465665Y203726D01*
X465670Y203697D01*
X465723Y203597D01*
X465769Y203493D01*
X465788Y203471D01*
X465801Y203445D01*
X465879Y203363D01*
X465952Y203276D01*
X465977Y203260D01*
X465997Y203239D01*
X466095Y203182D01*
X466189Y203119D01*
X466217Y203110D01*
X466242Y203095D01*
X466352Y203067D01*
X466460Y203033D01*
X466490Y203032D01*
X466518Y203025D01*
X466631Y203029D01*
X466744Y203026D01*
X466773Y203033D01*
X466802Y203034D01*
X466910Y203069D01*
X467019Y203098D01*
X467045Y203113D01*
X467073Y203122D01*
X467137Y203167D01*
X467264Y203243D01*
X467307Y203289D01*
X467346Y203317D01*
X467904Y203875D01*
X471535Y205379D01*
X475465Y205379D01*
X479096Y203875D01*
X480061Y202910D01*
X480130Y202858D01*
X480194Y202798D01*
X480244Y202772D01*
X480288Y202739D01*
X480369Y202708D01*
X480447Y202668D01*
X480495Y202660D01*
X480553Y202638D01*
X480701Y202626D01*
X480778Y202613D01*
X529915Y202613D01*
X532529Y201530D01*
X560883Y173176D01*
X560953Y173124D01*
X561017Y173064D01*
X561066Y173038D01*
X561110Y173005D01*
X561192Y172974D01*
X561270Y172934D01*
X561317Y172926D01*
X561376Y172904D01*
X561523Y172892D01*
X561601Y172879D01*
X562965Y172879D01*
X566596Y171375D01*
X569375Y168596D01*
X570879Y164965D01*
X570879Y161035D01*
X569375Y157404D01*
X566596Y154625D01*
X562965Y153121D01*
X559035Y153121D01*
X555404Y154625D01*
X552625Y157404D01*
X551121Y161035D01*
X551121Y162399D01*
X551109Y162486D01*
X551106Y162573D01*
X551089Y162626D01*
X551081Y162681D01*
X551046Y162761D01*
X551019Y162844D01*
X550991Y162883D01*
X550965Y162940D01*
X550869Y163053D01*
X550824Y163117D01*
X525851Y188090D01*
X525781Y188142D01*
X525717Y188202D01*
X525668Y188228D01*
X525624Y188261D01*
X525542Y188292D01*
X525464Y188332D01*
X525417Y188340D01*
X525358Y188362D01*
X525211Y188374D01*
X525133Y188387D01*
X480778Y188387D01*
X480692Y188375D01*
X480604Y188372D01*
X480552Y188355D01*
X480497Y188347D01*
X480417Y188312D01*
X480334Y188285D01*
X480295Y188257D01*
X480238Y188231D01*
X480124Y188135D01*
X480061Y188090D01*
X479096Y187125D01*
X475465Y185621D01*
X471535Y185621D01*
X467904Y187125D01*
X467346Y187683D01*
X467322Y187701D01*
X467303Y187724D01*
X467209Y187786D01*
X467119Y187854D01*
X467091Y187865D01*
X467067Y187881D01*
X466959Y187915D01*
X466853Y187956D01*
X466824Y187958D01*
X466796Y187967D01*
X466682Y187970D01*
X466570Y187979D01*
X466541Y187973D01*
X466512Y187974D01*
X466402Y187946D01*
X466291Y187923D01*
X466265Y187910D01*
X466237Y187902D01*
X466139Y187845D01*
X466039Y187792D01*
X466017Y187772D01*
X465992Y187757D01*
X465915Y187674D01*
X465833Y187597D01*
X465818Y187571D01*
X465798Y187550D01*
X465746Y187449D01*
X465689Y187351D01*
X465682Y187323D01*
X465668Y187297D01*
X465655Y187219D01*
X465619Y187076D01*
X465621Y187013D01*
X465613Y186966D01*
X465613Y183367D01*
X465625Y183280D01*
X465628Y183193D01*
X465645Y183140D01*
X465653Y183085D01*
X465688Y183005D01*
X465715Y182922D01*
X465743Y182883D01*
X465769Y182826D01*
X465865Y182713D01*
X465910Y182649D01*
X500149Y148410D01*
X500219Y148358D01*
X500283Y148298D01*
X500332Y148272D01*
X500376Y148239D01*
X500458Y148208D01*
X500536Y148168D01*
X500583Y148160D01*
X500642Y148138D01*
X500789Y148126D01*
X500867Y148113D01*
X534722Y148113D01*
X534808Y148125D01*
X534896Y148128D01*
X534948Y148145D01*
X535003Y148153D01*
X535083Y148188D01*
X535166Y148215D01*
X535205Y148243D01*
X535262Y148269D01*
X535376Y148365D01*
X535439Y148410D01*
X536404Y149375D01*
X540035Y150879D01*
X543965Y150879D01*
X547596Y149375D01*
X550375Y146596D01*
X551879Y142965D01*
X551879Y139035D01*
X550375Y135404D01*
X547596Y132625D01*
X543965Y131121D01*
X540035Y131121D01*
G37*
%LPD*%
%LPC*%
G36*
X74035Y298121D02*
X74035Y298121D01*
X70404Y299625D01*
X67625Y302404D01*
X66121Y306035D01*
X66121Y309965D01*
X67625Y313596D01*
X70404Y316375D01*
X74035Y317879D01*
X77965Y317879D01*
X81622Y316364D01*
X81630Y316358D01*
X81694Y316298D01*
X81743Y316272D01*
X81788Y316239D01*
X81869Y316208D01*
X81947Y316168D01*
X81995Y316160D01*
X82053Y316138D01*
X82201Y316126D01*
X82278Y316113D01*
X86633Y316113D01*
X86720Y316125D01*
X86807Y316128D01*
X86860Y316145D01*
X86915Y316153D01*
X86995Y316188D01*
X87078Y316215D01*
X87117Y316243D01*
X87174Y316269D01*
X87287Y316365D01*
X87351Y316410D01*
X96590Y325649D01*
X96642Y325719D01*
X96702Y325783D01*
X96728Y325832D01*
X96761Y325876D01*
X96792Y325958D01*
X96832Y326036D01*
X96840Y326083D01*
X96862Y326142D01*
X96874Y326289D01*
X96887Y326367D01*
X96887Y360415D01*
X97970Y363029D01*
X100114Y365173D01*
X121064Y386122D01*
X121065Y386124D01*
X121066Y386125D01*
X121148Y386235D01*
X121234Y386350D01*
X121235Y386351D01*
X121236Y386352D01*
X121286Y386484D01*
X121336Y386615D01*
X121336Y386617D01*
X121336Y386618D01*
X121348Y386763D01*
X121359Y386899D01*
X121359Y386900D01*
X121359Y386902D01*
X121355Y386917D01*
X121303Y387177D01*
X121289Y387204D01*
X121284Y387229D01*
X120121Y390035D01*
X120121Y390611D01*
X120117Y390640D01*
X120120Y390670D01*
X120097Y390781D01*
X120081Y390893D01*
X120069Y390920D01*
X120064Y390948D01*
X120012Y391049D01*
X119965Y391152D01*
X119946Y391175D01*
X119933Y391201D01*
X119855Y391283D01*
X119782Y391369D01*
X119757Y391386D01*
X119737Y391407D01*
X119639Y391464D01*
X119545Y391527D01*
X119517Y391536D01*
X119492Y391550D01*
X119382Y391578D01*
X119274Y391613D01*
X119244Y391613D01*
X119216Y391621D01*
X119103Y391617D01*
X118990Y391620D01*
X118961Y391612D01*
X118932Y391612D01*
X118824Y391577D01*
X118715Y391548D01*
X118689Y391533D01*
X118661Y391524D01*
X118598Y391479D01*
X118470Y391403D01*
X118427Y391357D01*
X118388Y391329D01*
X80410Y353351D01*
X80358Y353281D01*
X80298Y353217D01*
X80272Y353168D01*
X80239Y353124D01*
X80208Y353042D01*
X80168Y352964D01*
X80160Y352917D01*
X80138Y352858D01*
X80126Y352711D01*
X80113Y352633D01*
X80113Y350278D01*
X80125Y350192D01*
X80128Y350104D01*
X80145Y350052D01*
X80153Y349997D01*
X80188Y349917D01*
X80215Y349834D01*
X80243Y349795D01*
X80269Y349738D01*
X80365Y349624D01*
X80410Y349561D01*
X81375Y348596D01*
X82879Y344965D01*
X82879Y341035D01*
X81375Y337404D01*
X78596Y334625D01*
X74965Y333121D01*
X71035Y333121D01*
X67404Y334625D01*
X64625Y337404D01*
X63121Y341035D01*
X63121Y344965D01*
X64625Y348596D01*
X65590Y349561D01*
X65642Y349630D01*
X65702Y349694D01*
X65728Y349744D01*
X65761Y349788D01*
X65792Y349869D01*
X65832Y349947D01*
X65840Y349995D01*
X65862Y350053D01*
X65874Y350201D01*
X65887Y350278D01*
X65887Y357415D01*
X66970Y360029D01*
X69114Y362173D01*
X76147Y369206D01*
X76165Y369230D01*
X76187Y369249D01*
X76250Y369343D01*
X76318Y369433D01*
X76329Y369461D01*
X76345Y369485D01*
X76379Y369593D01*
X76419Y369699D01*
X76422Y369728D01*
X76431Y369756D01*
X76434Y369870D01*
X76443Y369982D01*
X76437Y370011D01*
X76438Y370040D01*
X76409Y370150D01*
X76387Y370261D01*
X76373Y370287D01*
X76366Y370315D01*
X76308Y370413D01*
X76256Y370513D01*
X76236Y370535D01*
X76221Y370560D01*
X76138Y370637D01*
X76060Y370719D01*
X76035Y370734D01*
X76014Y370754D01*
X75913Y370806D01*
X75815Y370863D01*
X75787Y370870D01*
X75760Y370884D01*
X75683Y370897D01*
X75539Y370933D01*
X75477Y370931D01*
X75429Y370939D01*
X74284Y370939D01*
X68895Y373171D01*
X64771Y377295D01*
X62539Y382684D01*
X62539Y388516D01*
X64771Y393905D01*
X68895Y398029D01*
X74284Y400261D01*
X80116Y400261D01*
X85505Y398029D01*
X89629Y393905D01*
X91861Y388516D01*
X91861Y387371D01*
X91865Y387342D01*
X91862Y387312D01*
X91885Y387201D01*
X91901Y387089D01*
X91913Y387062D01*
X91918Y387034D01*
X91970Y386933D01*
X92017Y386830D01*
X92036Y386807D01*
X92049Y386781D01*
X92127Y386699D01*
X92200Y386613D01*
X92225Y386596D01*
X92245Y386575D01*
X92343Y386518D01*
X92437Y386455D01*
X92465Y386446D01*
X92490Y386432D01*
X92600Y386404D01*
X92708Y386369D01*
X92738Y386369D01*
X92766Y386361D01*
X92879Y386365D01*
X92992Y386362D01*
X93021Y386370D01*
X93050Y386370D01*
X93158Y386405D01*
X93267Y386434D01*
X93293Y386449D01*
X93321Y386458D01*
X93384Y386503D01*
X93512Y386579D01*
X93555Y386625D01*
X93594Y386653D01*
X122824Y415883D01*
X122876Y415953D01*
X122936Y416017D01*
X122962Y416066D01*
X122995Y416110D01*
X123026Y416192D01*
X123066Y416270D01*
X123074Y416317D01*
X123096Y416376D01*
X123107Y416510D01*
X123107Y416512D01*
X123108Y416523D01*
X123121Y416601D01*
X123121Y419965D01*
X124625Y423596D01*
X127404Y426375D01*
X131035Y427879D01*
X134965Y427879D01*
X138596Y426375D01*
X141375Y423596D01*
X142879Y419965D01*
X142879Y416035D01*
X141375Y412404D01*
X138596Y409625D01*
X135519Y408351D01*
X135492Y408335D01*
X135463Y408325D01*
X135399Y408280D01*
X135274Y408206D01*
X135230Y408159D01*
X135190Y408131D01*
X130671Y403612D01*
X130653Y403588D01*
X130631Y403569D01*
X130568Y403475D01*
X130500Y403385D01*
X130489Y403357D01*
X130473Y403333D01*
X130439Y403225D01*
X130399Y403119D01*
X130396Y403090D01*
X130387Y403062D01*
X130384Y402948D01*
X130375Y402836D01*
X130381Y402807D01*
X130380Y402778D01*
X130409Y402668D01*
X130431Y402557D01*
X130445Y402531D01*
X130452Y402503D01*
X130510Y402405D01*
X130562Y402305D01*
X130582Y402283D01*
X130597Y402258D01*
X130680Y402181D01*
X130758Y402099D01*
X130783Y402084D01*
X130804Y402064D01*
X130905Y402012D01*
X131003Y401955D01*
X131031Y401948D01*
X131058Y401934D01*
X131135Y401921D01*
X131279Y401885D01*
X131341Y401887D01*
X131389Y401879D01*
X131965Y401879D01*
X135596Y400375D01*
X138375Y397596D01*
X139879Y393965D01*
X139879Y390035D01*
X138375Y386404D01*
X137410Y385439D01*
X137358Y385370D01*
X137298Y385306D01*
X137272Y385256D01*
X137239Y385212D01*
X137208Y385130D01*
X137168Y385053D01*
X137160Y385005D01*
X137138Y384947D01*
X137126Y384799D01*
X137113Y384722D01*
X137113Y383585D01*
X136030Y380971D01*
X111410Y356351D01*
X111358Y356281D01*
X111298Y356217D01*
X111272Y356168D01*
X111239Y356124D01*
X111208Y356042D01*
X111168Y355964D01*
X111160Y355917D01*
X111138Y355858D01*
X111126Y355711D01*
X111113Y355633D01*
X111113Y321585D01*
X110030Y318971D01*
X96173Y305114D01*
X94029Y302970D01*
X91415Y301887D01*
X84278Y301887D01*
X84192Y301875D01*
X84104Y301872D01*
X84052Y301855D01*
X83997Y301847D01*
X83917Y301812D01*
X83834Y301785D01*
X83795Y301757D01*
X83738Y301731D01*
X83624Y301635D01*
X83561Y301590D01*
X81596Y299625D01*
X77965Y298121D01*
X74035Y298121D01*
G37*
%LPD*%
%LPC*%
G36*
X201299Y18310D02*
X201299Y18310D01*
X191013Y23551D01*
X182851Y31713D01*
X177610Y41999D01*
X175805Y53400D01*
X177610Y64801D01*
X182851Y75087D01*
X191013Y83249D01*
X201299Y88490D01*
X212700Y90295D01*
X224101Y88490D01*
X234387Y83249D01*
X242549Y75087D01*
X247790Y64801D01*
X249595Y53400D01*
X247790Y41999D01*
X242549Y31713D01*
X234387Y23551D01*
X224101Y18310D01*
X212700Y16505D01*
X201299Y18310D01*
G37*
%LPD*%
%LPC*%
G36*
X113184Y215679D02*
X113184Y215679D01*
X107612Y217987D01*
X103347Y222252D01*
X101039Y227824D01*
X101039Y233856D01*
X103347Y239428D01*
X104202Y240282D01*
X104237Y240329D01*
X104279Y240369D01*
X104322Y240442D01*
X104373Y240509D01*
X104393Y240564D01*
X104423Y240614D01*
X104444Y240696D01*
X104474Y240775D01*
X104479Y240833D01*
X104493Y240890D01*
X104490Y240974D01*
X104497Y241058D01*
X104486Y241116D01*
X104484Y241174D01*
X104458Y241254D01*
X104441Y241337D01*
X104414Y241389D01*
X104396Y241445D01*
X104356Y241501D01*
X104310Y241589D01*
X104247Y241656D01*
X104235Y241676D01*
X104224Y241686D01*
X104202Y241718D01*
X103347Y242572D01*
X101039Y248144D01*
X101039Y254176D01*
X103347Y259748D01*
X107612Y264013D01*
X113184Y266321D01*
X119216Y266321D01*
X124788Y264013D01*
X129053Y259748D01*
X131361Y254176D01*
X131361Y248144D01*
X129053Y242572D01*
X128198Y241718D01*
X128163Y241671D01*
X128121Y241631D01*
X128078Y241558D01*
X128027Y241491D01*
X128007Y241436D01*
X127977Y241386D01*
X127956Y241304D01*
X127926Y241225D01*
X127921Y241167D01*
X127907Y241110D01*
X127910Y241026D01*
X127903Y240942D01*
X127914Y240884D01*
X127916Y240826D01*
X127942Y240746D01*
X127959Y240663D01*
X127986Y240611D01*
X128004Y240555D01*
X128044Y240499D01*
X128090Y240411D01*
X128158Y240338D01*
X128198Y240282D01*
X129053Y239428D01*
X131361Y233856D01*
X131361Y227824D01*
X129053Y222252D01*
X124788Y217987D01*
X119216Y215679D01*
X113184Y215679D01*
G37*
%LPD*%
%LPC*%
G36*
X540037Y625895D02*
X540037Y625895D01*
X535392Y627819D01*
X531838Y631374D01*
X529914Y636018D01*
X529914Y654126D01*
X531838Y658770D01*
X535392Y662325D01*
X540037Y664249D01*
X545064Y664249D01*
X549709Y662325D01*
X553263Y658770D01*
X553741Y657616D01*
X553778Y657554D01*
X553806Y657487D01*
X553850Y657432D01*
X553886Y657371D01*
X553938Y657321D01*
X553984Y657265D01*
X554041Y657224D01*
X554093Y657176D01*
X554157Y657143D01*
X554216Y657101D01*
X554283Y657078D01*
X554345Y657046D01*
X554416Y657032D01*
X554485Y657008D01*
X554555Y657004D01*
X554624Y656991D01*
X554696Y656997D01*
X554768Y656993D01*
X554837Y657009D01*
X554907Y657015D01*
X554975Y657041D01*
X555045Y657058D01*
X555107Y657092D01*
X555173Y657117D01*
X555231Y657161D01*
X555294Y657196D01*
X555335Y657240D01*
X555399Y657289D01*
X555442Y657346D01*
X556762Y658665D01*
X558249Y659659D01*
X559902Y660344D01*
X560551Y660473D01*
X560551Y646056D01*
X560558Y646009D01*
X560558Y646008D01*
X560559Y645998D01*
X560558Y645940D01*
X560579Y645858D01*
X560591Y645775D01*
X560615Y645721D01*
X560630Y645665D01*
X560673Y645592D01*
X560707Y645515D01*
X560745Y645471D01*
X560775Y645420D01*
X560836Y645363D01*
X560891Y645298D01*
X560939Y645266D01*
X560982Y645226D01*
X561057Y645187D01*
X561127Y645141D01*
X561183Y645123D01*
X561235Y645096D01*
X561303Y645085D01*
X561345Y645072D01*
X561285Y645063D01*
X561231Y645039D01*
X561175Y645025D01*
X561103Y644982D01*
X561025Y644947D01*
X560981Y644909D01*
X560931Y644879D01*
X560873Y644818D01*
X560808Y644763D01*
X560776Y644715D01*
X560736Y644672D01*
X560698Y644597D01*
X560651Y644527D01*
X560633Y644471D01*
X560607Y644419D01*
X560595Y644351D01*
X560565Y644256D01*
X560563Y644156D01*
X560551Y644088D01*
X560551Y629671D01*
X559902Y629800D01*
X558249Y630485D01*
X556762Y631479D01*
X555460Y632780D01*
X555435Y632817D01*
X555381Y632863D01*
X555334Y632915D01*
X555273Y632954D01*
X555218Y633000D01*
X555153Y633029D01*
X555093Y633067D01*
X555024Y633087D01*
X554958Y633116D01*
X554888Y633126D01*
X554820Y633145D01*
X554748Y633145D01*
X554676Y633155D01*
X554606Y633145D01*
X554536Y633145D01*
X554466Y633124D01*
X554395Y633114D01*
X554331Y633085D01*
X554263Y633065D01*
X554202Y633027D01*
X554136Y632997D01*
X554082Y632951D01*
X554022Y632914D01*
X553974Y632860D01*
X553919Y632813D01*
X553888Y632762D01*
X553834Y632701D01*
X553782Y632592D01*
X553741Y632528D01*
X553263Y631374D01*
X549709Y627819D01*
X545064Y625895D01*
X540037Y625895D01*
G37*
%LPD*%
%LPC*%
G36*
X521035Y334121D02*
X521035Y334121D01*
X517404Y335625D01*
X514625Y338404D01*
X513121Y342035D01*
X513121Y345399D01*
X513109Y345486D01*
X513106Y345573D01*
X513089Y345626D01*
X513081Y345681D01*
X513046Y345761D01*
X513019Y345844D01*
X512991Y345883D01*
X512965Y345940D01*
X512869Y346053D01*
X512824Y346117D01*
X510970Y347971D01*
X509887Y350585D01*
X509887Y367747D01*
X509887Y367748D01*
X509887Y367750D01*
X509867Y367890D01*
X509847Y368028D01*
X509847Y368030D01*
X509846Y368032D01*
X509788Y368161D01*
X509731Y368288D01*
X509730Y368289D01*
X509729Y368291D01*
X509637Y368399D01*
X509548Y368505D01*
X509546Y368506D01*
X509545Y368507D01*
X509531Y368516D01*
X509479Y368550D01*
X506625Y371404D01*
X505121Y375035D01*
X505121Y378965D01*
X506625Y382596D01*
X509404Y385375D01*
X513035Y386879D01*
X516965Y386879D01*
X520596Y385375D01*
X523375Y382596D01*
X524879Y378965D01*
X524879Y375035D01*
X524190Y373372D01*
X524182Y373342D01*
X524168Y373315D01*
X524155Y373237D01*
X524145Y373197D01*
X524143Y373190D01*
X524143Y373189D01*
X524119Y373097D01*
X524121Y373033D01*
X524113Y372984D01*
X524113Y355367D01*
X524125Y355280D01*
X524128Y355193D01*
X524145Y355140D01*
X524153Y355085D01*
X524188Y355005D01*
X524215Y354922D01*
X524243Y354883D01*
X524269Y354826D01*
X524365Y354713D01*
X524410Y354649D01*
X525190Y353869D01*
X525214Y353851D01*
X525234Y353827D01*
X525301Y353786D01*
X525417Y353698D01*
X525477Y353675D01*
X525519Y353649D01*
X528596Y352375D01*
X531375Y349596D01*
X532879Y345965D01*
X532879Y342035D01*
X531375Y338404D01*
X528596Y335625D01*
X524965Y334121D01*
X521035Y334121D01*
G37*
%LPD*%
%LPC*%
G36*
X74284Y414939D02*
X74284Y414939D01*
X68895Y417171D01*
X64771Y421295D01*
X62539Y426684D01*
X62539Y432516D01*
X64771Y437905D01*
X68895Y442029D01*
X74284Y444261D01*
X80116Y444261D01*
X85505Y442029D01*
X89629Y437905D01*
X91861Y432516D01*
X91861Y426684D01*
X89629Y421295D01*
X85505Y417171D01*
X80116Y414939D01*
X74284Y414939D01*
G37*
%LPD*%
%LPC*%
G36*
X98722Y611460D02*
X98722Y611460D01*
X98667Y611524D01*
X98619Y611557D01*
X98576Y611597D01*
X98501Y611635D01*
X98431Y611682D01*
X98375Y611699D01*
X98323Y611726D01*
X98255Y611737D01*
X98160Y611768D01*
X98060Y611770D01*
X97992Y611781D01*
X90325Y611781D01*
X90475Y612535D01*
X91122Y614097D01*
X91210Y614229D01*
X91254Y614320D01*
X91305Y614407D01*
X91315Y614447D01*
X91333Y614485D01*
X91350Y614585D01*
X91375Y614683D01*
X91374Y614724D01*
X91381Y614765D01*
X91369Y614866D01*
X91366Y614967D01*
X91353Y615006D01*
X91349Y615048D01*
X91310Y615141D01*
X91279Y615237D01*
X91257Y615267D01*
X91239Y615310D01*
X91123Y615455D01*
X91084Y615511D01*
X88437Y618157D01*
X86589Y622618D01*
X86589Y627446D01*
X88437Y631907D01*
X91851Y635321D01*
X96312Y637169D01*
X101140Y637169D01*
X105601Y635321D01*
X109015Y631907D01*
X110863Y627446D01*
X110863Y622618D01*
X109015Y618157D01*
X106368Y615511D01*
X106308Y615430D01*
X106240Y615354D01*
X106222Y615316D01*
X106197Y615283D01*
X106161Y615189D01*
X106118Y615098D01*
X106111Y615056D01*
X106096Y615018D01*
X106088Y614917D01*
X106071Y614817D01*
X106076Y614776D01*
X106073Y614734D01*
X106092Y614635D01*
X106104Y614535D01*
X106119Y614501D01*
X106129Y614456D01*
X106214Y614291D01*
X106242Y614229D01*
X106330Y614097D01*
X106977Y612535D01*
X107127Y611781D01*
X99460Y611781D01*
X99402Y611773D01*
X99344Y611775D01*
X99262Y611753D01*
X99179Y611742D01*
X99125Y611718D01*
X99069Y611703D01*
X98996Y611660D01*
X98919Y611625D01*
X98875Y611588D01*
X98824Y611558D01*
X98767Y611496D01*
X98723Y611459D01*
X98722Y611460D01*
G37*
%LPD*%
%LPC*%
G36*
X424099Y609850D02*
X424099Y609850D01*
X424045Y609914D01*
X423996Y609947D01*
X423953Y609987D01*
X423878Y610025D01*
X423808Y610072D01*
X423752Y610090D01*
X423700Y610116D01*
X423632Y610128D01*
X423537Y610158D01*
X423437Y610160D01*
X423369Y610172D01*
X415703Y610172D01*
X415852Y610926D01*
X416499Y612487D01*
X416587Y612619D01*
X416631Y612710D01*
X416682Y612797D01*
X416693Y612838D01*
X416711Y612875D01*
X416728Y612975D01*
X416753Y613073D01*
X416751Y613114D01*
X416758Y613155D01*
X416747Y613256D01*
X416743Y613357D01*
X416731Y613397D01*
X416726Y613438D01*
X416687Y613531D01*
X416656Y613628D01*
X416635Y613658D01*
X416617Y613700D01*
X416501Y613845D01*
X416461Y613901D01*
X413814Y616548D01*
X411967Y621008D01*
X411967Y625837D01*
X413814Y630298D01*
X417228Y633712D01*
X421689Y635559D01*
X426518Y635559D01*
X430978Y633712D01*
X434392Y630298D01*
X436240Y625837D01*
X436240Y621008D01*
X434392Y616548D01*
X431746Y613901D01*
X431685Y613820D01*
X431618Y613744D01*
X431600Y613707D01*
X431575Y613674D01*
X431539Y613579D01*
X431495Y613488D01*
X431488Y613447D01*
X431474Y613408D01*
X431465Y613307D01*
X431449Y613207D01*
X431453Y613166D01*
X431450Y613125D01*
X431470Y613026D01*
X431482Y612925D01*
X431497Y612891D01*
X431506Y612846D01*
X431591Y612682D01*
X431619Y612619D01*
X431708Y612487D01*
X432354Y610926D01*
X432504Y610172D01*
X424838Y610172D01*
X424780Y610164D01*
X424721Y610165D01*
X424640Y610144D01*
X424556Y610132D01*
X424503Y610108D01*
X424446Y610093D01*
X424374Y610050D01*
X424297Y610016D01*
X424252Y609978D01*
X424202Y609948D01*
X424144Y609887D01*
X424100Y609849D01*
X424099Y609850D01*
G37*
%LPD*%
G36*
X217720Y163125D02*
X217720Y163125D01*
X217807Y163128D01*
X217860Y163145D01*
X217915Y163153D01*
X217995Y163188D01*
X218078Y163215D01*
X218117Y163243D01*
X218174Y163269D01*
X218287Y163365D01*
X218351Y163410D01*
X220621Y165680D01*
X220639Y165704D01*
X220661Y165723D01*
X220724Y165817D01*
X220792Y165907D01*
X220803Y165935D01*
X220819Y165959D01*
X220853Y166067D01*
X220893Y166173D01*
X220896Y166202D01*
X220905Y166230D01*
X220908Y166344D01*
X220917Y166456D01*
X220911Y166485D01*
X220912Y166514D01*
X220883Y166624D01*
X220861Y166735D01*
X220847Y166761D01*
X220840Y166789D01*
X220782Y166887D01*
X220730Y166987D01*
X220710Y167009D01*
X220695Y167034D01*
X220612Y167111D01*
X220534Y167193D01*
X220509Y167208D01*
X220488Y167228D01*
X220387Y167280D01*
X220289Y167337D01*
X220261Y167344D01*
X220234Y167358D01*
X220157Y167371D01*
X220013Y167407D01*
X219951Y167405D01*
X219903Y167413D01*
X210397Y167413D01*
X208189Y168328D01*
X208104Y168350D01*
X208022Y168381D01*
X207967Y168385D01*
X207913Y168399D01*
X207826Y168397D01*
X207739Y168404D01*
X207691Y168393D01*
X207629Y168391D01*
X207488Y168346D01*
X207411Y168328D01*
X205203Y167413D01*
X184997Y167413D01*
X182756Y168341D01*
X181041Y170056D01*
X180830Y170566D01*
X180762Y170682D01*
X180696Y170798D01*
X180690Y170804D01*
X180686Y170811D01*
X180588Y170903D01*
X180492Y170997D01*
X180485Y171000D01*
X180479Y171006D01*
X180360Y171067D01*
X180242Y171131D01*
X180234Y171133D01*
X180226Y171136D01*
X180095Y171162D01*
X179964Y171190D01*
X179956Y171190D01*
X179948Y171191D01*
X179664Y171167D01*
X179646Y171160D01*
X179630Y171158D01*
X178924Y170969D01*
X171731Y170969D01*
X171731Y181384D01*
X171723Y181442D01*
X171725Y181500D01*
X171703Y181582D01*
X171691Y181665D01*
X171667Y181719D01*
X171653Y181775D01*
X171610Y181848D01*
X171575Y181925D01*
X171537Y181969D01*
X171507Y182020D01*
X171446Y182077D01*
X171391Y182142D01*
X171343Y182174D01*
X171300Y182214D01*
X171225Y182253D01*
X171155Y182299D01*
X171099Y182317D01*
X171047Y182344D01*
X170979Y182355D01*
X170884Y182385D01*
X170784Y182388D01*
X170716Y182399D01*
X168684Y182399D01*
X168626Y182391D01*
X168568Y182392D01*
X168486Y182371D01*
X168403Y182359D01*
X168349Y182335D01*
X168293Y182321D01*
X168220Y182278D01*
X168143Y182243D01*
X168098Y182205D01*
X168048Y182175D01*
X167990Y182114D01*
X167926Y182059D01*
X167894Y182011D01*
X167854Y181968D01*
X167815Y181893D01*
X167769Y181823D01*
X167751Y181767D01*
X167724Y181715D01*
X167713Y181647D01*
X167683Y181552D01*
X167680Y181452D01*
X167669Y181384D01*
X167669Y170969D01*
X160476Y170969D01*
X159770Y171158D01*
X159637Y171174D01*
X159504Y171193D01*
X159496Y171192D01*
X159488Y171193D01*
X159356Y171171D01*
X159223Y171152D01*
X159216Y171149D01*
X159208Y171147D01*
X159086Y171090D01*
X158964Y171035D01*
X158958Y171030D01*
X158950Y171026D01*
X158850Y170938D01*
X158748Y170851D01*
X158744Y170844D01*
X158737Y170838D01*
X158584Y170599D01*
X158578Y170580D01*
X158570Y170566D01*
X158359Y170056D01*
X156644Y168341D01*
X154403Y167413D01*
X154097Y167413D01*
X154068Y167409D01*
X154038Y167412D01*
X153927Y167389D01*
X153815Y167373D01*
X153788Y167361D01*
X153760Y167356D01*
X153659Y167303D01*
X153556Y167257D01*
X153533Y167238D01*
X153507Y167225D01*
X153425Y167147D01*
X153339Y167074D01*
X153323Y167049D01*
X153301Y167029D01*
X153244Y166931D01*
X153181Y166837D01*
X153172Y166809D01*
X153158Y166784D01*
X153130Y166674D01*
X153095Y166566D01*
X153095Y166536D01*
X153087Y166508D01*
X153091Y166395D01*
X153088Y166282D01*
X153096Y166253D01*
X153096Y166224D01*
X153131Y166116D01*
X153160Y166007D01*
X153175Y165981D01*
X153184Y165953D01*
X153229Y165890D01*
X153305Y165762D01*
X153351Y165719D01*
X153379Y165680D01*
X155649Y163410D01*
X155719Y163358D01*
X155783Y163298D01*
X155832Y163272D01*
X155876Y163239D01*
X155958Y163208D01*
X156036Y163168D01*
X156083Y163160D01*
X156142Y163138D01*
X156289Y163126D01*
X156367Y163113D01*
X217633Y163113D01*
X217720Y163125D01*
G37*
%LPC*%
G36*
X564550Y647071D02*
X564550Y647071D01*
X564550Y660473D01*
X565199Y660344D01*
X566852Y659659D01*
X568339Y658665D01*
X569604Y657401D01*
X570598Y655913D01*
X571282Y654261D01*
X571631Y652506D01*
X571631Y647071D01*
X564550Y647071D01*
G37*
%LPD*%
%LPC*%
G36*
X564550Y643073D02*
X564550Y643073D01*
X571631Y643073D01*
X571631Y637638D01*
X571282Y635883D01*
X570598Y634231D01*
X569604Y632743D01*
X568339Y631479D01*
X566852Y630485D01*
X565199Y629800D01*
X564550Y629671D01*
X564550Y643073D01*
G37*
%LPD*%
D10*
X424103Y548423D03*
X424103Y563423D03*
X424103Y578423D03*
X424103Y593423D03*
X424103Y608423D03*
X424103Y623423D03*
X98726Y550032D03*
X98726Y565032D03*
X98726Y580032D03*
X98726Y595032D03*
X98726Y610032D03*
X98726Y625032D03*
D11*
X562550Y638532D02*
X562550Y651612D01*
X542550Y651612D02*
X542550Y638532D01*
D12*
X42700Y182400D03*
X68100Y182400D03*
X93500Y182400D03*
X118900Y182400D03*
X144300Y182400D03*
X169700Y182400D03*
X195100Y182400D03*
X220500Y182400D03*
D13*
X146500Y499500D03*
D14*
X148000Y501000D01*
X195000Y501000D01*
X195000Y504000D01*
D13*
X195000Y504000D03*
D14*
X427000Y563000D02*
X454000Y536000D01*
X427000Y563000D02*
X424964Y563000D01*
D15*
X424103Y563423D01*
D13*
X454000Y536000D03*
X291000Y573000D03*
D15*
X291000Y586000D02*
X297000Y592000D01*
X291000Y586000D02*
X291000Y573000D01*
D13*
X355000Y592000D03*
D15*
X297000Y592000D01*
D14*
X532000Y497000D02*
X533000Y498000D01*
X532000Y497000D02*
X508000Y497000D01*
X504000Y493000D01*
X504000Y472000D01*
X474000Y472000D01*
X464000Y482000D01*
X464000Y484000D01*
X489000Y309000D02*
X483000Y303000D01*
X464000Y457000D02*
X464000Y484000D01*
X464000Y457000D02*
X489000Y432000D01*
X489000Y309000D01*
D13*
X464000Y484000D03*
X533000Y498000D03*
X483000Y303000D03*
X510000Y520000D03*
D14*
X516000Y514000D01*
X530000Y514000D01*
X533000Y511000D01*
X533000Y498000D01*
D13*
X341000Y323000D03*
D14*
X379000Y323000D01*
X383000Y319000D01*
X383000Y253000D01*
X333000Y203000D01*
X332000Y203000D01*
X332000Y201000D01*
D13*
X332000Y201000D03*
X473500Y195500D03*
D14*
X528500Y195500D01*
D13*
X561000Y163000D03*
D14*
X528500Y195500D01*
D13*
X342878Y311296D03*
X352000Y252000D03*
X458500Y246500D03*
D14*
X458500Y180000D02*
X497500Y141000D01*
X458500Y180000D02*
X458500Y246500D01*
X497500Y141000D02*
X542000Y141000D01*
D13*
X542000Y141000D03*
D14*
X369704Y314296D02*
X345878Y314296D01*
X342878Y311296D01*
X377000Y277000D02*
X352000Y252000D01*
X377000Y307000D02*
X369704Y314296D01*
X377000Y307000D02*
X377000Y277000D01*
X315000Y355000D02*
X293000Y333000D01*
X315000Y355000D02*
X324000Y364000D01*
X324000Y368000D01*
X280000Y390000D02*
X280000Y488000D01*
X280000Y390000D02*
X315000Y355000D01*
D13*
X324000Y368000D03*
X293000Y333000D03*
X257000Y516000D03*
D14*
X257000Y511000D02*
X280000Y488000D01*
X257000Y511000D02*
X257000Y516000D01*
D13*
X389000Y452000D03*
D14*
X389000Y455000D01*
X279000Y565000D01*
X279000Y599000D02*
X278500Y599500D01*
X279000Y599000D02*
X279000Y565000D01*
D13*
X278500Y599500D03*
D14*
X298000Y402000D02*
X294000Y398000D01*
X291000Y398000D01*
X298000Y502000D02*
X283000Y517000D01*
X298000Y502000D02*
X298000Y402000D01*
D13*
X291000Y398000D03*
X283000Y517000D03*
X369000Y451000D03*
D14*
X369000Y460000D01*
X268000Y561000D01*
D13*
X138000Y603000D03*
D14*
X281000Y663000D02*
X300000Y644000D01*
X281000Y663000D02*
X145000Y663000D01*
X300000Y644000D02*
X300000Y621000D01*
X145000Y663000D02*
X138000Y656000D01*
X138000Y603000D01*
X268000Y604000D02*
X268000Y561000D01*
X292000Y613000D02*
X300000Y621000D01*
X277000Y613000D02*
X268000Y604000D01*
X277000Y613000D02*
X292000Y613000D01*
D13*
X141000Y583000D03*
D14*
X132000Y515000D02*
X132000Y493000D01*
X132000Y515000D02*
X149000Y532000D01*
X149000Y575000D01*
X141000Y583000D01*
X240000Y488000D02*
X240000Y463000D01*
D13*
X251678Y462000D03*
X314000Y450000D03*
D14*
X332000Y450000D02*
X334000Y448000D01*
X332000Y450000D02*
X314000Y450000D01*
D13*
X343000Y448000D03*
D14*
X334000Y448000D01*
X251678Y462000D02*
X241000Y462000D01*
X240000Y463000D01*
X240000Y488000D02*
X235000Y493000D01*
X203000Y490000D02*
X203000Y479000D01*
X203000Y490000D02*
X206000Y493000D01*
X235000Y493000D01*
X146000Y479000D02*
X132000Y493000D01*
X146000Y479000D02*
X203000Y479000D01*
X384000Y384000D02*
X404000Y404000D01*
X384000Y384000D02*
X359000Y384000D01*
X358000Y385000D01*
X404000Y404000D02*
X404000Y574000D01*
X423423Y593423D02*
X424103Y593423D01*
X423423Y593423D02*
X404000Y574000D01*
D13*
X358000Y385000D03*
D14*
X418000Y453000D02*
X410000Y461000D01*
X410000Y565000D01*
X422423Y577423D01*
X423103Y577423D02*
X424103Y578423D01*
X423103Y577423D02*
X422423Y577423D01*
D13*
X418000Y453000D03*
D14*
X194000Y268000D02*
X194000Y183500D01*
X195100Y182400D01*
X229000Y338000D02*
X243000Y352000D01*
X229000Y338000D02*
X229000Y303000D01*
X194000Y268000D01*
D13*
X243000Y352000D03*
D14*
X411333Y334333D02*
X414000Y337000D01*
X411333Y334333D02*
X411333Y263333D01*
D13*
X414000Y337000D03*
D14*
X118900Y182400D02*
X118900Y137100D01*
X131000Y125000D01*
X273000Y125000D01*
X411333Y263333D01*
X350000Y358000D02*
X349000Y358000D01*
X316000Y325000D01*
X316000Y251000D01*
D13*
X350000Y358000D03*
D14*
X144300Y182400D02*
X144300Y164700D01*
X153000Y156000D01*
X221000Y156000D01*
X316000Y251000D01*
D13*
X368000Y300000D03*
D14*
X341000Y273000D01*
X341000Y232000D01*
D13*
X274000Y178000D03*
D14*
X287000Y178000D02*
X341000Y232000D01*
X287000Y178000D02*
X274000Y178000D01*
D13*
X259000Y439000D03*
D14*
X261000Y441000D02*
X261000Y481000D01*
X261000Y441000D02*
X259000Y439000D01*
X261000Y481000D02*
X234000Y508000D01*
X234000Y592322D02*
X243678Y602000D01*
X234000Y592322D02*
X234000Y508000D01*
D13*
X243678Y602000D03*
X270000Y451000D03*
D14*
X270000Y485000D01*
X247000Y508000D02*
X247000Y549000D01*
X250000Y552000D01*
D13*
X250000Y552000D03*
D14*
X247000Y508000D02*
X270000Y485000D01*
X289000Y492000D02*
X271000Y510000D01*
X271000Y526000D02*
X268000Y529000D01*
X271000Y526000D02*
X271000Y510000D01*
X289000Y492000D02*
X289000Y418000D01*
D13*
X289000Y418000D03*
X268000Y529000D03*
X307000Y420000D03*
D14*
X304000Y428000D02*
X304000Y513000D01*
X304000Y428000D02*
X307000Y425000D01*
X307000Y420000D01*
D13*
X278000Y634000D03*
D14*
X271000Y634000D02*
X261000Y624000D01*
X271000Y634000D02*
X278000Y634000D01*
X261000Y556000D02*
X304000Y513000D01*
X261000Y556000D02*
X261000Y624000D01*
D13*
X328000Y312322D03*
D14*
X326571Y312322D01*
X326571Y243571D01*
X263000Y180000D02*
X263000Y163000D01*
X253000Y153000D01*
D13*
X253000Y153000D03*
D14*
X263000Y180000D02*
X326571Y243571D01*
D15*
X129000Y550032D02*
X98726Y550032D01*
X129000Y550032D02*
X129000Y569000D01*
D13*
X129000Y569000D03*
X52000Y203000D03*
D14*
X57000Y198000D01*
X185000Y209000D02*
X185000Y293000D01*
X203000Y311000D01*
X218000Y311000D01*
D13*
X218000Y311000D03*
D14*
X174000Y198000D02*
X57000Y198000D01*
X174000Y198000D02*
X185000Y209000D01*
D13*
X73000Y343000D03*
X133000Y418000D03*
D14*
X133000Y416000D01*
X73000Y356000D01*
X73000Y343000D01*
X77000Y309000D02*
X90000Y309000D01*
X77000Y309000D02*
X76000Y308000D01*
D13*
X76000Y308000D03*
X130000Y392000D03*
D14*
X130000Y385000D01*
X104000Y359000D01*
X104000Y323000D01*
X90000Y309000D01*
X156000Y304000D02*
X170000Y318000D01*
X156000Y304000D02*
X132000Y304000D01*
X130000Y306000D01*
X233000Y443000D02*
X235000Y443000D01*
X233000Y443000D02*
X170000Y380000D01*
X170000Y318000D01*
D13*
X170000Y318000D03*
X130000Y306000D03*
X235000Y443000D03*
D14*
X324000Y487000D02*
X353000Y458000D01*
X324000Y487000D02*
X322000Y487000D01*
X320000Y489000D01*
X353000Y458000D02*
X353000Y404000D01*
X365000Y392000D02*
X374000Y392000D01*
X365000Y392000D02*
X353000Y404000D01*
D13*
X320000Y489000D03*
X374000Y392000D03*
X221000Y473000D03*
D14*
X221000Y469000D01*
X217000Y465000D01*
D13*
X129000Y465000D03*
D14*
X217000Y465000D01*
D13*
X270000Y381000D03*
D14*
X246000Y381000D01*
D13*
X232000Y395000D03*
D14*
X246000Y381000D01*
D13*
X75000Y212000D03*
D14*
X127000Y212000D01*
X130000Y215000D01*
X130000Y218000D01*
X131000Y219000D01*
D13*
X131000Y219000D03*
X560000Y331000D03*
X538000Y358000D03*
X423000Y306000D03*
D14*
X433000Y296000D01*
X442000Y296000D02*
X451000Y305000D01*
X442000Y296000D02*
X433000Y296000D01*
D13*
X451000Y305000D03*
D14*
X538000Y356000D02*
X561500Y332500D01*
X538000Y356000D02*
X538000Y358000D01*
X561500Y332500D02*
X560000Y331000D01*
X533000Y362000D02*
X533000Y403000D01*
X537000Y358000D02*
X538000Y358000D01*
X537000Y358000D02*
X533000Y362000D01*
X554000Y424000D02*
X554000Y425000D01*
D13*
X554000Y425000D03*
D14*
X554000Y424000D02*
X533000Y403000D01*
D13*
X124000Y344000D03*
D14*
X125000Y344000D02*
X142000Y327000D01*
X125000Y344000D02*
X124000Y344000D01*
X150000Y327000D02*
X158000Y335000D01*
D13*
X158000Y335000D03*
D14*
X150000Y327000D02*
X142000Y327000D01*
X461000Y320000D02*
X466000Y315000D01*
X466000Y277000D01*
X356000Y167000D01*
X349000Y167000D01*
D13*
X349000Y167000D03*
X462000Y349000D03*
X414000Y389000D03*
D14*
X416000Y389000D01*
X447000Y358000D01*
X461000Y348000D02*
X462000Y349000D01*
X461000Y348000D02*
X461000Y320000D01*
X457000Y358000D02*
X447000Y358000D01*
X457000Y358000D02*
X462000Y353000D01*
X462000Y349000D01*
D13*
X462000Y376000D03*
D14*
X462000Y387000D01*
X472000Y397000D01*
X472000Y399000D01*
X471000Y400000D01*
D13*
X471000Y400000D03*
X361000Y409000D03*
D14*
X386000Y409000D01*
D13*
X395000Y418000D03*
D14*
X386000Y409000D01*
D13*
X338000Y403000D03*
D14*
X338000Y389000D01*
X349322Y377678D02*
X391678Y377678D01*
X415000Y419000D02*
X416000Y420000D01*
D13*
X416000Y420000D03*
D14*
X349322Y377678D02*
X338000Y389000D01*
X391678Y377678D02*
X415000Y401000D01*
X415000Y419000D01*
D13*
X61000Y263000D03*
X515000Y377000D03*
X523000Y344000D03*
X320500Y402500D03*
D14*
X320500Y391500D01*
X340000Y372000D01*
X437000Y348000D02*
X437000Y316000D01*
D13*
X437000Y316000D03*
D14*
X413000Y372000D02*
X340000Y372000D01*
X413000Y372000D02*
X437000Y348000D01*
D13*
X159000Y205000D03*
D14*
X515000Y377000D02*
X517000Y375000D01*
X517000Y352000D01*
X523000Y346000D02*
X523000Y344000D01*
X523000Y346000D02*
X517000Y352000D01*
X65000Y204000D02*
X61000Y208000D01*
X65000Y204000D02*
X159000Y204000D01*
X159000Y205000D01*
X61000Y208000D02*
X61000Y263000D01*
X271000Y276000D02*
X279000Y276000D01*
X271000Y276000D02*
X257000Y290000D01*
X257000Y361000D01*
D13*
X257000Y361000D03*
X279000Y276000D03*
X210000Y350000D03*
D14*
X208000Y352000D01*
X188000Y352000D01*
X180000Y360000D01*
X180000Y370000D01*
D13*
X180000Y370000D03*
D14*
X473000Y363000D02*
X480000Y370000D01*
X473000Y363000D02*
X473000Y336000D01*
D13*
X480000Y370000D03*
X473000Y336000D03*
X404000Y296000D03*
D14*
X402000Y296000D02*
X402000Y342000D01*
X402000Y296000D02*
X404000Y296000D01*
X405500Y345500D02*
X405500Y348500D01*
X405500Y345500D02*
X402000Y342000D01*
D13*
X405500Y348500D03*
D14*
X244000Y370000D02*
X150000Y276000D01*
X148000Y276000D01*
X244000Y370000D02*
X273000Y370000D01*
X273000Y311000D01*
X277500Y306500D01*
X337000Y366000D01*
X369000Y366000D02*
X373000Y362000D01*
X369000Y366000D02*
X337000Y366000D01*
D13*
X148000Y276000D03*
X373000Y362000D03*
D14*
X392000Y343000D02*
X392000Y286000D01*
D13*
X392000Y286000D03*
X392000Y343000D03*
M02*
