G04 EAGLE Gerber RS-274X export*
G75*
%MOMM*%
%FSLAX34Y34*%
%LPD*%
%INSolderpaste Top*%
%IPPOS*%
%AMOC8*
5,1,8,0,0,1.08239X$1,22.5*%
G01*
%ADD10R,1.000000X1.000000*%
%ADD11R,1.100000X1.000000*%
%ADD12R,1.000000X1.100000*%
%ADD13R,1.400000X1.600000*%
%ADD14R,1.803000X1.600000*%
%ADD15R,1.400000X1.200000*%
%ADD16R,0.630000X0.830000*%
%ADD17R,6.200000X5.400000*%
%ADD18R,1.600000X1.000000*%
%ADD19R,0.800000X0.900000*%
%ADD20R,2.200000X0.600000*%
%ADD21R,1.900000X1.100000*%
%ADD22R,1.000000X1.400000*%
%ADD23R,4.500000X5.000000*%
%ADD24R,1.500000X1.000000*%
%ADD25R,1.000000X1.500000*%
%ADD26R,0.254000X1.000000*%
%ADD27R,1.000000X0.254000*%
%ADD28R,2.500000X0.500000*%
%ADD29R,2.500000X2.000000*%


D10*
X632700Y400600D03*
X632700Y384600D03*
X590700Y400600D03*
X590700Y384600D03*
D11*
X600777Y612074D03*
X617777Y612074D03*
D12*
X460777Y646074D03*
X460777Y629074D03*
X168177Y585574D03*
X168177Y568574D03*
D13*
X440077Y280074D03*
X468077Y280074D03*
D12*
X360077Y573574D03*
X360077Y556574D03*
X148977Y652574D03*
X148977Y635574D03*
D11*
X367777Y636574D03*
X350777Y636574D03*
X490677Y531574D03*
X473677Y531574D03*
D12*
X494426Y577577D03*
X494426Y594577D03*
X50426Y619477D03*
X50426Y636477D03*
X171426Y505377D03*
X171426Y488377D03*
D14*
X51126Y555797D03*
X51126Y527357D03*
D15*
X333477Y274774D03*
X333477Y244774D03*
D16*
X490377Y481074D03*
X513377Y481074D03*
D17*
X606238Y554293D03*
D18*
X533238Y577093D03*
X533238Y531493D03*
D19*
X565277Y379074D03*
X574777Y358074D03*
X555777Y358074D03*
X607077Y496074D03*
X616577Y475074D03*
X597577Y475074D03*
D20*
X220164Y630431D03*
X312164Y554231D03*
X220164Y643131D03*
X220164Y617731D03*
X220164Y605031D03*
X312164Y566931D03*
X312164Y541531D03*
X312164Y528831D03*
X220164Y579631D03*
X220164Y541531D03*
X220164Y592331D03*
X220164Y566931D03*
X220164Y528831D03*
X220164Y554231D03*
X312164Y579631D03*
X312164Y592331D03*
X312164Y605031D03*
X312164Y617731D03*
X312164Y630431D03*
X312164Y643131D03*
D12*
X554777Y472074D03*
X554777Y455074D03*
D21*
X437900Y428500D03*
X474900Y451500D03*
X437900Y451500D03*
X474900Y428500D03*
D22*
X219900Y439300D03*
X229400Y417300D03*
X210400Y417300D03*
X197277Y332774D03*
X206777Y310774D03*
X187777Y310774D03*
D11*
X433926Y508677D03*
X450926Y508677D03*
X350077Y526574D03*
X367077Y526574D03*
X268977Y334574D03*
X251977Y334574D03*
D12*
X269377Y52074D03*
X269377Y69074D03*
D10*
X553200Y407600D03*
X553200Y391600D03*
X511200Y407600D03*
X511200Y391600D03*
D23*
X383556Y221403D03*
X383556Y46403D03*
D24*
X627700Y104596D03*
X627700Y119596D03*
X627700Y134596D03*
X627700Y149596D03*
X627700Y164596D03*
X627700Y179596D03*
X627700Y194596D03*
X627700Y209596D03*
X627700Y224596D03*
X627700Y239596D03*
X627700Y254596D03*
X627700Y269596D03*
X627700Y284596D03*
D25*
X616700Y299596D03*
X601700Y299596D03*
X586700Y299596D03*
X571700Y299596D03*
X556700Y299596D03*
X541700Y299596D03*
X526700Y299596D03*
X511700Y299596D03*
D24*
X501700Y104596D03*
X501700Y119596D03*
X501700Y134596D03*
X501700Y149596D03*
X501700Y164596D03*
X501700Y179596D03*
X501700Y194596D03*
X501700Y209596D03*
X501700Y224596D03*
X501700Y239596D03*
X501700Y254596D03*
X501700Y269596D03*
X501700Y284596D03*
D26*
X374200Y423100D03*
X369200Y423100D03*
X364200Y423100D03*
X359200Y423100D03*
X354200Y423100D03*
X349200Y423100D03*
X344200Y423100D03*
X339200Y423100D03*
X334200Y423100D03*
X329200Y423100D03*
X324200Y423100D03*
X319200Y423100D03*
D27*
X304200Y408100D03*
X304200Y403100D03*
X304200Y398100D03*
X304200Y393100D03*
X304200Y388100D03*
X304200Y383100D03*
X304200Y378100D03*
X304200Y373100D03*
X304200Y368100D03*
X304200Y363100D03*
X304200Y358100D03*
X304200Y353100D03*
D26*
X319200Y338100D03*
X324200Y338100D03*
X329200Y338100D03*
X334200Y338100D03*
X339200Y338100D03*
X344200Y338100D03*
X349200Y338100D03*
X354200Y338100D03*
X359200Y338100D03*
X364200Y338100D03*
X369200Y338100D03*
X374200Y338100D03*
D27*
X389200Y353100D03*
X389200Y358100D03*
X389200Y363100D03*
X389200Y368100D03*
X389200Y373100D03*
X389200Y378100D03*
X389200Y383100D03*
X389200Y388100D03*
X389200Y393100D03*
X389200Y398100D03*
X389200Y403100D03*
X389200Y408100D03*
D28*
X102200Y407600D03*
X102200Y415600D03*
X102200Y391600D03*
X102200Y399600D03*
D29*
X47200Y362600D03*
X47200Y452600D03*
X102200Y362600D03*
X102200Y452600D03*
D28*
X102200Y423600D03*
D22*
X50000Y298000D03*
X40500Y320000D03*
X59500Y320000D03*
D11*
X511500Y428000D03*
X528500Y428000D03*
X510500Y451000D03*
X527500Y451000D03*
X144500Y360000D03*
X161500Y360000D03*
X164500Y448000D03*
X147500Y448000D03*
X524500Y326000D03*
X541500Y326000D03*
X620500Y437000D03*
X603500Y437000D03*
X434500Y402000D03*
X451500Y402000D03*
X385500Y316000D03*
X402500Y316000D03*
X430500Y376000D03*
X447500Y376000D03*
X325500Y462000D03*
X342500Y462000D03*
X257500Y402000D03*
X274500Y402000D03*
X628500Y343000D03*
X611500Y343000D03*
X445500Y348000D03*
X428500Y348000D03*
X166500Y392000D03*
X149500Y392000D03*
X167500Y420000D03*
X150500Y420000D03*
X217500Y492000D03*
X234500Y492000D03*
X211500Y380000D03*
X228500Y380000D03*
X64500Y281000D03*
X81500Y281000D03*
X162500Y283000D03*
X179500Y283000D03*
X109500Y323000D03*
X92500Y323000D03*
X504500Y348000D03*
X487500Y348000D03*
D12*
X491000Y383500D03*
X491000Y400500D03*
M02*
