G04 EAGLE Gerber RS-274X export*
G75*
%MOMM*%
%FSLAX34Y34*%
%LPD*%
%INSoldermask Bottom*%
%IPPOS*%
%AMOC8*
5,1,8,0,0,1.08239X$1,22.5*%
G01*
%ADD10C,1.411200*%
%ADD11C,1.511200*%
%ADD12R,1.981200X1.981200*%
%ADD13C,4.203200*%
%ADD14C,1.103200*%
%ADD15C,1.203200*%
%ADD16C,0.959600*%


D10*
X424103Y548423D03*
X424103Y563423D03*
X424103Y578423D03*
X424103Y593423D03*
X424103Y608423D03*
X424103Y623423D03*
X98726Y550032D03*
X98726Y565032D03*
X98726Y580032D03*
X98726Y595032D03*
X98726Y610032D03*
X98726Y625032D03*
D11*
X562550Y638532D02*
X562550Y651612D01*
X542550Y651612D02*
X542550Y638532D01*
D12*
X42700Y182400D03*
X68100Y182400D03*
X93500Y182400D03*
X118900Y182400D03*
X144300Y182400D03*
X169700Y182400D03*
X195100Y182400D03*
X220500Y182400D03*
D13*
X212700Y53400D03*
D14*
X77200Y429600D03*
X77200Y385600D03*
D15*
X40000Y241000D03*
X116200Y230840D03*
X116200Y251160D03*
D16*
X146500Y499500D03*
X195000Y504000D03*
X454000Y536000D03*
X291000Y573000D03*
X355000Y592000D03*
X464000Y484000D03*
X533000Y498000D03*
X483000Y303000D03*
X510000Y520000D03*
X341000Y323000D03*
X332000Y201000D03*
X473500Y195500D03*
X561000Y163000D03*
X342878Y311296D03*
X352000Y252000D03*
X458500Y246500D03*
X542000Y141000D03*
X324000Y368000D03*
X293000Y333000D03*
X257000Y516000D03*
X389000Y452000D03*
X278500Y599500D03*
X291000Y398000D03*
X283000Y517000D03*
X369000Y451000D03*
X138000Y603000D03*
X141000Y583000D03*
X251678Y462000D03*
X314000Y450000D03*
X343000Y448000D03*
X358000Y385000D03*
X418000Y453000D03*
X243000Y352000D03*
X414000Y337000D03*
X350000Y358000D03*
X368000Y300000D03*
X274000Y178000D03*
X259000Y439000D03*
X243678Y602000D03*
X270000Y451000D03*
X250000Y552000D03*
X289000Y418000D03*
X268000Y529000D03*
X307000Y420000D03*
X278000Y634000D03*
X328000Y312322D03*
X253000Y153000D03*
X129000Y569000D03*
X52000Y203000D03*
X218000Y311000D03*
X73000Y343000D03*
X133000Y418000D03*
X76000Y308000D03*
X130000Y392000D03*
X170000Y318000D03*
X130000Y306000D03*
X235000Y443000D03*
X320000Y489000D03*
X374000Y392000D03*
X221000Y473000D03*
X129000Y465000D03*
X270000Y381000D03*
X232000Y395000D03*
X75000Y212000D03*
X131000Y219000D03*
X560000Y331000D03*
X538000Y358000D03*
X423000Y306000D03*
X451000Y305000D03*
X554000Y425000D03*
X124000Y344000D03*
X158000Y335000D03*
X349000Y167000D03*
X462000Y349000D03*
X414000Y389000D03*
X462000Y376000D03*
X471000Y400000D03*
X361000Y409000D03*
X395000Y418000D03*
X338000Y403000D03*
X416000Y420000D03*
X61000Y263000D03*
X515000Y377000D03*
X523000Y344000D03*
X320500Y402500D03*
X437000Y316000D03*
X159000Y205000D03*
X257000Y361000D03*
X279000Y276000D03*
X210000Y350000D03*
X180000Y370000D03*
X480000Y370000D03*
X473000Y336000D03*
X404000Y296000D03*
X405500Y348500D03*
X148000Y276000D03*
X373000Y362000D03*
X392000Y286000D03*
X392000Y343000D03*
M02*
