G04 EAGLE Gerber RS-274X export*
G75*
%MOMM*%
%FSLAX34Y34*%
%LPD*%
%INSoldermask Top*%
%IPPOS*%
%AMOC8*
5,1,8,0,0,1.08239X$1,22.5*%
G01*
%ADD10R,1.203200X1.203200*%
%ADD11R,1.303200X1.203200*%
%ADD12R,1.203200X1.303200*%
%ADD13R,1.603200X1.803200*%
%ADD14C,1.411200*%
%ADD15R,2.006200X1.803200*%
%ADD16R,1.603200X1.403200*%
%ADD17R,0.833200X1.033200*%
%ADD18R,6.403200X5.603200*%
%ADD19R,1.803200X1.203200*%
%ADD20R,1.003200X1.103200*%
%ADD21R,2.403200X0.803200*%
%ADD22C,1.511200*%
%ADD23R,2.103200X1.303200*%
%ADD24R,1.203200X1.603200*%
%ADD25R,4.703200X5.203200*%
%ADD26R,1.703200X1.203200*%
%ADD27R,1.203200X1.703200*%
%ADD28R,1.981200X1.981200*%
%ADD29C,4.203200*%
%ADD30R,0.457200X1.203200*%
%ADD31R,1.203200X0.457200*%
%ADD32R,2.703200X0.703200*%
%ADD33R,2.703200X2.203200*%
%ADD34C,1.103200*%
%ADD35C,0.990600*%
%ADD36C,1.203200*%
%ADD37C,1.473200*%
%ADD38C,0.959600*%


D10*
X632700Y400600D03*
X632700Y384600D03*
X590700Y400600D03*
X590700Y384600D03*
D11*
X600777Y612074D03*
X617777Y612074D03*
D12*
X460777Y646074D03*
X460777Y629074D03*
X168177Y585574D03*
X168177Y568574D03*
D13*
X440077Y280074D03*
X468077Y280074D03*
D12*
X360077Y573574D03*
X360077Y556574D03*
X148977Y652574D03*
X148977Y635574D03*
D11*
X367777Y636574D03*
X350777Y636574D03*
X490677Y531574D03*
X473677Y531574D03*
D12*
X494426Y577577D03*
X494426Y594577D03*
X50426Y619477D03*
X50426Y636477D03*
X171426Y505377D03*
X171426Y488377D03*
D14*
X424103Y548423D03*
X424103Y563423D03*
X424103Y578423D03*
X424103Y593423D03*
X424103Y608423D03*
X424103Y623423D03*
X98726Y550032D03*
X98726Y565032D03*
X98726Y580032D03*
X98726Y595032D03*
X98726Y610032D03*
X98726Y625032D03*
D15*
X51126Y555797D03*
X51126Y527357D03*
D16*
X333477Y274774D03*
X333477Y244774D03*
D17*
X490377Y481074D03*
X513377Y481074D03*
D18*
X606238Y554293D03*
D19*
X533238Y577093D03*
X533238Y531493D03*
D20*
X565277Y379074D03*
X574777Y358074D03*
X555777Y358074D03*
X607077Y496074D03*
X616577Y475074D03*
X597577Y475074D03*
D21*
X220164Y630431D03*
X312164Y554231D03*
X220164Y643131D03*
X220164Y617731D03*
X220164Y605031D03*
X312164Y566931D03*
X312164Y541531D03*
X312164Y528831D03*
X220164Y579631D03*
X220164Y541531D03*
X220164Y592331D03*
X220164Y566931D03*
X220164Y528831D03*
X220164Y554231D03*
X312164Y579631D03*
X312164Y592331D03*
X312164Y605031D03*
X312164Y617731D03*
X312164Y630431D03*
X312164Y643131D03*
D12*
X554777Y472074D03*
X554777Y455074D03*
D22*
X562550Y638532D02*
X562550Y651612D01*
X542550Y651612D02*
X542550Y638532D01*
D23*
X437900Y428500D03*
X474900Y451500D03*
X437900Y451500D03*
X474900Y428500D03*
D24*
X219900Y439300D03*
X229400Y417300D03*
X210400Y417300D03*
X197277Y332774D03*
X206777Y310774D03*
X187777Y310774D03*
D11*
X433926Y508677D03*
X450926Y508677D03*
X350077Y526574D03*
X367077Y526574D03*
X268977Y334574D03*
X251977Y334574D03*
D12*
X269377Y52074D03*
X269377Y69074D03*
D10*
X553200Y407600D03*
X553200Y391600D03*
X511200Y407600D03*
X511200Y391600D03*
D25*
X383556Y221403D03*
X383556Y46403D03*
D26*
X627700Y104596D03*
X627700Y119596D03*
X627700Y134596D03*
X627700Y149596D03*
X627700Y164596D03*
X627700Y179596D03*
X627700Y194596D03*
X627700Y209596D03*
X627700Y224596D03*
X627700Y239596D03*
X627700Y254596D03*
X627700Y269596D03*
X627700Y284596D03*
D27*
X616700Y299596D03*
X601700Y299596D03*
X586700Y299596D03*
X571700Y299596D03*
X556700Y299596D03*
X541700Y299596D03*
X526700Y299596D03*
X511700Y299596D03*
D26*
X501700Y104596D03*
X501700Y119596D03*
X501700Y134596D03*
X501700Y149596D03*
X501700Y164596D03*
X501700Y179596D03*
X501700Y194596D03*
X501700Y209596D03*
X501700Y224596D03*
X501700Y239596D03*
X501700Y254596D03*
X501700Y269596D03*
X501700Y284596D03*
D28*
X42700Y182400D03*
X68100Y182400D03*
X93500Y182400D03*
X118900Y182400D03*
X144300Y182400D03*
X169700Y182400D03*
X195100Y182400D03*
X220500Y182400D03*
D29*
X212700Y53400D03*
D30*
X374200Y423100D03*
X369200Y423100D03*
X364200Y423100D03*
X359200Y423100D03*
X354200Y423100D03*
X349200Y423100D03*
X344200Y423100D03*
X339200Y423100D03*
X334200Y423100D03*
X329200Y423100D03*
X324200Y423100D03*
X319200Y423100D03*
D31*
X304200Y408100D03*
X304200Y403100D03*
X304200Y398100D03*
X304200Y393100D03*
X304200Y388100D03*
X304200Y383100D03*
X304200Y378100D03*
X304200Y373100D03*
X304200Y368100D03*
X304200Y363100D03*
X304200Y358100D03*
X304200Y353100D03*
D30*
X319200Y338100D03*
X324200Y338100D03*
X329200Y338100D03*
X334200Y338100D03*
X339200Y338100D03*
X344200Y338100D03*
X349200Y338100D03*
X354200Y338100D03*
X359200Y338100D03*
X364200Y338100D03*
X369200Y338100D03*
X374200Y338100D03*
D31*
X389200Y353100D03*
X389200Y358100D03*
X389200Y363100D03*
X389200Y368100D03*
X389200Y373100D03*
X389200Y378100D03*
X389200Y383100D03*
X389200Y388100D03*
X389200Y393100D03*
X389200Y398100D03*
X389200Y403100D03*
X389200Y408100D03*
D32*
X102200Y407600D03*
X102200Y415600D03*
X102200Y391600D03*
X102200Y399600D03*
D33*
X47200Y362600D03*
X47200Y452600D03*
X102200Y362600D03*
X102200Y452600D03*
D32*
X102200Y423600D03*
D34*
X77200Y429600D03*
X77200Y385600D03*
D35*
X52700Y247350D03*
X65400Y247350D03*
X78100Y247350D03*
X78100Y234650D03*
X65400Y234650D03*
X52700Y234650D03*
X90800Y247350D03*
X103500Y247350D03*
X90800Y234650D03*
X103500Y234650D03*
D36*
X40000Y241000D03*
X116200Y230840D03*
X116200Y251160D03*
D24*
X50000Y298000D03*
X40500Y320000D03*
X59500Y320000D03*
D37*
X36000Y206000D03*
X477000Y251000D03*
X391000Y527000D03*
X188000Y633000D03*
X193000Y141000D03*
X340000Y567000D03*
X168000Y541000D03*
X46000Y490000D03*
D11*
X511500Y428000D03*
X528500Y428000D03*
X510500Y451000D03*
X527500Y451000D03*
X144500Y360000D03*
X161500Y360000D03*
X164500Y448000D03*
X147500Y448000D03*
X524500Y326000D03*
X541500Y326000D03*
X620500Y437000D03*
X603500Y437000D03*
X434500Y402000D03*
X451500Y402000D03*
X385500Y316000D03*
X402500Y316000D03*
X430500Y376000D03*
X447500Y376000D03*
X325500Y462000D03*
X342500Y462000D03*
X257500Y402000D03*
X274500Y402000D03*
X628500Y343000D03*
X611500Y343000D03*
X445500Y348000D03*
X428500Y348000D03*
X166500Y392000D03*
X149500Y392000D03*
X167500Y420000D03*
X150500Y420000D03*
X217500Y492000D03*
X234500Y492000D03*
X211500Y380000D03*
X228500Y380000D03*
X64500Y281000D03*
X81500Y281000D03*
X162500Y283000D03*
X179500Y283000D03*
X109500Y323000D03*
X92500Y323000D03*
X504500Y348000D03*
X487500Y348000D03*
D12*
X491000Y383500D03*
X491000Y400500D03*
D38*
X146500Y499500D03*
X195000Y504000D03*
X454000Y536000D03*
X291000Y573000D03*
X355000Y592000D03*
X464000Y484000D03*
X533000Y498000D03*
X483000Y303000D03*
X510000Y520000D03*
X341000Y323000D03*
X332000Y201000D03*
X473500Y195500D03*
X561000Y163000D03*
X342878Y311296D03*
X352000Y252000D03*
X458500Y246500D03*
X542000Y141000D03*
X324000Y368000D03*
X293000Y333000D03*
X257000Y516000D03*
X389000Y452000D03*
X278500Y599500D03*
X291000Y398000D03*
X283000Y517000D03*
X369000Y451000D03*
X138000Y603000D03*
X141000Y583000D03*
X251678Y462000D03*
X314000Y450000D03*
X343000Y448000D03*
X358000Y385000D03*
X418000Y453000D03*
X243000Y352000D03*
X414000Y337000D03*
X350000Y358000D03*
X368000Y300000D03*
X274000Y178000D03*
X259000Y439000D03*
X243678Y602000D03*
X270000Y451000D03*
X250000Y552000D03*
X289000Y418000D03*
X268000Y529000D03*
X307000Y420000D03*
X278000Y634000D03*
X328000Y312322D03*
X253000Y153000D03*
X129000Y569000D03*
X52000Y203000D03*
X218000Y311000D03*
X73000Y343000D03*
X133000Y418000D03*
X76000Y308000D03*
X130000Y392000D03*
X170000Y318000D03*
X130000Y306000D03*
X235000Y443000D03*
X320000Y489000D03*
X374000Y392000D03*
X221000Y473000D03*
X129000Y465000D03*
X270000Y381000D03*
X232000Y395000D03*
X75000Y212000D03*
X131000Y219000D03*
X560000Y331000D03*
X538000Y358000D03*
X423000Y306000D03*
X451000Y305000D03*
X554000Y425000D03*
X124000Y344000D03*
X158000Y335000D03*
X349000Y167000D03*
X462000Y349000D03*
X414000Y389000D03*
X462000Y376000D03*
X471000Y400000D03*
X361000Y409000D03*
X395000Y418000D03*
X338000Y403000D03*
X416000Y420000D03*
X61000Y263000D03*
X515000Y377000D03*
X523000Y344000D03*
X320500Y402500D03*
X437000Y316000D03*
X159000Y205000D03*
X257000Y361000D03*
X279000Y276000D03*
X210000Y350000D03*
X180000Y370000D03*
X480000Y370000D03*
X473000Y336000D03*
X404000Y296000D03*
X405500Y348500D03*
X148000Y276000D03*
X373000Y362000D03*
X392000Y286000D03*
X392000Y343000D03*
M02*
