M48
;GenerationSoftware,Autodesk,EAGLE,9.4.2*%
;CreationDate,2019-09-05T08:43:20Z*%
FMAT,2
ICI,OFF
METRIC,TZ,000.000
T7C0.350
T6C0.700
T5C0.800
T4C0.900
T3C1.000
T2C1.016
T1C4.000
%
G90
M71
T1
X21270Y5340
T2
X22050Y18240
X4270Y18240
X6810Y18240
X9350Y18240
X11890Y18240
X14430Y18240
X16970Y18240
X19510Y18240
T3
X4000Y24100
X11620Y23084
X11620Y25116
T4
X7720Y42960
X7720Y38560
T5
X56255Y64507
X54255Y64507
T6
X9873Y55003
X42410Y54842
X42410Y56342
X42410Y57842
X42410Y59342
X42410Y60842
X42410Y62342
X9873Y56503
X9873Y58003
X9873Y59503
X9873Y61003
X9873Y62503
T7
X31400Y45000
X34300Y44800
X35800Y38500
X41800Y45300
X24300Y35200
X41400Y33700
X35000Y35800
X36800Y30000
X27400Y17800
X25900Y43900
X24368Y60200
X27000Y45100
X25000Y55200
X28900Y41800
X26800Y52900
X30700Y42000
X27800Y63400
X32800Y31232
X25300Y15300
X12900Y56900
X5200Y20300
X21800Y31100
X7300Y34300
X13300Y41800
X7600Y30800
X13000Y39200
X17000Y31800
X13000Y30600
X23500Y44300
X32000Y48900
X37400Y39200
X22100Y47300
X12900Y46500
X27000Y38100
X23200Y39500
X45850Y24650
X13100Y21900
X56000Y33100
X53800Y35800
X42300Y30600
X45100Y30500
X55400Y42500
X12400Y34400
X15800Y33500
X34900Y16700
X46200Y34900
X41400Y38900
X46200Y37600
X47100Y40000
X36100Y40900
X39500Y41800
X33800Y40300
X41600Y42000
X6100Y26300
X51500Y37700
X52300Y34400
X32050Y40250
X43700Y31600
X15900Y20500
X25700Y36100
X27900Y27600
X21000Y35000
X18000Y37000
X48000Y37000
X47300Y33600
X40400Y29600
X40550Y34850
X14800Y27600
X14650Y49950
X39200Y28600
X39200Y34300
X19500Y50400
X45400Y53600
X29100Y57300
X35500Y59200
X46400Y48400
X53300Y49800
X48300Y30300
X51000Y52000
X34100Y32300
X33200Y20100
X47350Y19550
X56100Y16300
X7500Y21200
X34288Y31130
X35200Y25200
X54200Y14100
X32400Y36800
X29300Y33300
X25700Y51600
X38900Y45200
X27850Y59950
X29100Y39800
X28300Y51700
X36900Y45100
X13800Y60300
X14100Y58300
X25168Y46200
X37300Y36200
M30