<?xml version="1.0" standalone="no"?>
 <!DOCTYPE svg PUBLIC "-//W3C//DTD SVG 1.1//EN" 
 "http://www.w3.org/Graphics/SVG/1.1/DTD/svg11.dtd"> 
<svg
  xmlns:svg="http://www.w3.org/2000/svg"
  xmlns="http://www.w3.org/2000/svg"
  xmlns:xlink="http://www.w3.org/1999/xlink"
  version="1.1"
  width="29.700220cm" height="21.000720cm" viewBox="0 0 116930 82680">
<title>SVG Picture created as driver_moteur-F_SilkS.svg date 2021/06/29 14:21:01 </title>
  <desc>Picture generated by PCBNEW </desc>
<g style="fill:#000000; fill-opacity:1;stroke:#000000; stroke-opacity:1;
stroke-linecap:round; stroke-linejoin:round;"
 transform="translate(0 0) scale(1 1)">
</g>
<g style="fill:#000000; fill-opacity:0.0; 
stroke:#000000; stroke-width:-0.000393701; stroke-opacity:1; 
stroke-linecap:round; stroke-linejoin:round;">
</g>
<g style="fill:#000000; fill-opacity:0.0; 
stroke:#000000; stroke-width:39.3701; stroke-opacity:1; 
stroke-linecap:round; stroke-linejoin:round;">
</g>
<g style="fill:#000000; fill-opacity:0.0; 
stroke:#000000; stroke-width:59.0551; stroke-opacity:1; 
stroke-linecap:round; stroke-linejoin:round;">
<rect x="69685.9" y="65357.2" width="42519.7" height="12598.4" rx="0" />
</g>
<g style="fill:#000000; fill-opacity:0.0; 
stroke:#000000; stroke-width:39.3701; stroke-opacity:1; 
stroke-linecap:round; stroke-linejoin:round;">
</g>
<g style="fill:#000000; fill-opacity:0.0; 
stroke:#000000; stroke-width:59.0551; stroke-opacity:1; 
stroke-linecap:round; stroke-linejoin:round;">
<rect x="3937.01" y="3937.01" width="109056" height="74806" rx="0" />
</g>
<g style="fill:#000000; fill-opacity:0.0; 
stroke:#000000; stroke-width:39.3701; stroke-opacity:1; 
stroke-linecap:round; stroke-linejoin:round;">
</g>
<g style="fill:#000000; fill-opacity:0.0; 
stroke:#000000; stroke-width:59.0551; stroke-opacity:1; 
stroke-linecap:round; stroke-linejoin:round;">
<rect x="4724.41" y="4724.41" width="107481" height="73231.2" rx="0" />
</g>
<g style="fill:#000000; fill-opacity:0.0; 
stroke:#000000; stroke-width:39.3701; stroke-opacity:1; 
stroke-linecap:round; stroke-linejoin:round;">
</g>
<g style="fill:#000000; fill-opacity:0.0; 
stroke:#000000; stroke-width:59.0551; stroke-opacity:1; 
stroke-linecap:round; stroke-linejoin:round;">
<path d="M23622 4724
L23622 3937
" />
</g>
<g style="fill:#000000; fill-opacity:0.0; 
stroke:#000000; stroke-width:39.3701; stroke-opacity:1; 
stroke-linecap:round; stroke-linejoin:round;">
</g>
<g style="fill:#000000; fill-opacity:0.0; 
stroke:#000000; stroke-width:59.0551; stroke-opacity:1; 
stroke-linecap:round; stroke-linejoin:round;">
<path d="M43307 4724
L43307 3937
" />
</g>
<g style="fill:#000000; fill-opacity:0.0; 
stroke:#000000; stroke-width:39.3701; stroke-opacity:1; 
stroke-linecap:round; stroke-linejoin:round;">
</g>
<g style="fill:#000000; fill-opacity:0.0; 
stroke:#000000; stroke-width:59.0551; stroke-opacity:1; 
stroke-linecap:round; stroke-linejoin:round;">
<path d="M62992 4724
L62992 3937
" />
</g>
<g style="fill:#000000; fill-opacity:0.0; 
stroke:#000000; stroke-width:39.3701; stroke-opacity:1; 
stroke-linecap:round; stroke-linejoin:round;">
</g>
<g style="fill:#000000; fill-opacity:0.0; 
stroke:#000000; stroke-width:59.0551; stroke-opacity:1; 
stroke-linecap:round; stroke-linejoin:round;">
<path d="M82677 4724
L82677 3937
" />
</g>
<g style="fill:#000000; fill-opacity:0.0; 
stroke:#000000; stroke-width:39.3701; stroke-opacity:1; 
stroke-linecap:round; stroke-linejoin:round;">
</g>
<g style="fill:#000000; fill-opacity:0.0; 
stroke:#000000; stroke-width:59.0551; stroke-opacity:1; 
stroke-linecap:round; stroke-linejoin:round;">
<path d="M102362 4724
L102362 3937
" />
</g>
<g style="fill:#000000; fill-opacity:0.0; 
stroke:#000000; stroke-width:39.3701; stroke-opacity:1; 
stroke-linecap:round; stroke-linejoin:round;">
</g>
<g style="fill:#000000; fill-opacity:0.0; 
stroke:#000000; stroke-width:59.0551; stroke-opacity:1; 
stroke-linecap:round; stroke-linejoin:round;">
<text x="13779.5" y="4586.61"
textLength="546.494" font-size="682.415" lengthAdjust="spacingAndGlyphs"
text-anchor="start" opacity="0">1</text>
<path d="M14199 4562
L13906 4562
" />
<path d="M14052 4562
L14052 4050
L14004 4123
L13955 4172
L13906 4196
" />
</g>
<g style="fill:#000000; fill-opacity:0.0; 
stroke:#000000; stroke-width:39.3701; stroke-opacity:1; 
stroke-linecap:round; stroke-linejoin:round;">
</g>
<g style="fill:#000000; fill-opacity:0.0; 
stroke:#000000; stroke-width:59.0551; stroke-opacity:1; 
stroke-linecap:round; stroke-linejoin:round;">
<text x="33464.6" y="4586.61"
textLength="546.494" font-size="682.415" lengthAdjust="spacingAndGlyphs"
text-anchor="start" opacity="0">2</text>
<path d="M33591 4099
L33615 4074
L33664 4050
L33786 4050
L33835 4074
L33859 4099
L33884 4147
L33884 4196
L33859 4269
L33567 4562
L33884 4562
" />
</g>
<g style="fill:#000000; fill-opacity:0.0; 
stroke:#000000; stroke-width:39.3701; stroke-opacity:1; 
stroke-linecap:round; stroke-linejoin:round;">
</g>
<g style="fill:#000000; fill-opacity:0.0; 
stroke:#000000; stroke-width:59.0551; stroke-opacity:1; 
stroke-linecap:round; stroke-linejoin:round;">
<text x="53149.6" y="4586.61"
textLength="546.494" font-size="682.415" lengthAdjust="spacingAndGlyphs"
text-anchor="start" opacity="0">3</text>
<path d="M53252 4050
L53569 4050
L53398 4245
L53471 4245
L53520 4269
L53544 4294
L53569 4342
L53569 4464
L53544 4513
L53520 4537
L53471 4562
L53325 4562
L53276 4537
L53252 4513
" />
</g>
<g style="fill:#000000; fill-opacity:0.0; 
stroke:#000000; stroke-width:39.3701; stroke-opacity:1; 
stroke-linecap:round; stroke-linejoin:round;">
</g>
<g style="fill:#000000; fill-opacity:0.0; 
stroke:#000000; stroke-width:59.0551; stroke-opacity:1; 
stroke-linecap:round; stroke-linejoin:round;">
<text x="72834.6" y="4586.61"
textLength="546.494" font-size="682.415" lengthAdjust="spacingAndGlyphs"
text-anchor="start" opacity="0">4</text>
<path d="M73205 4221
L73205 4562
" />
<path d="M73083 4026
L72961 4391
L73278 4391
" />
</g>
<g style="fill:#000000; fill-opacity:0.0; 
stroke:#000000; stroke-width:39.3701; stroke-opacity:1; 
stroke-linecap:round; stroke-linejoin:round;">
</g>
<g style="fill:#000000; fill-opacity:0.0; 
stroke:#000000; stroke-width:59.0551; stroke-opacity:1; 
stroke-linecap:round; stroke-linejoin:round;">
<text x="92519.7" y="4586.61"
textLength="546.494" font-size="682.415" lengthAdjust="spacingAndGlyphs"
text-anchor="start" opacity="0">5</text>
<path d="M92914 4050
L92671 4050
L92646 4294
L92671 4269
L92719 4245
L92841 4245
L92890 4269
L92914 4294
L92939 4342
L92939 4464
L92914 4513
L92890 4537
L92841 4562
L92719 4562
L92671 4537
L92646 4513
" />
</g>
<g style="fill:#000000; fill-opacity:0.0; 
stroke:#000000; stroke-width:39.3701; stroke-opacity:1; 
stroke-linecap:round; stroke-linejoin:round;">
</g>
<g style="fill:#000000; fill-opacity:0.0; 
stroke:#000000; stroke-width:59.0551; stroke-opacity:1; 
stroke-linecap:round; stroke-linejoin:round;">
<text x="112205" y="4586.61"
textLength="546.494" font-size="682.415" lengthAdjust="spacingAndGlyphs"
text-anchor="start" opacity="0">6</text>
<path d="M112575 4050
L112477 4050
L112429 4074
L112404 4099
L112356 4172
L112331 4269
L112331 4464
L112356 4513
L112380 4537
L112429 4562
L112526 4562
L112575 4537
L112599 4513
L112624 4464
L112624 4342
L112599 4294
L112575 4269
L112526 4245
L112429 4245
L112380 4269
L112356 4294
L112331 4342
" />
</g>
<g style="fill:#000000; fill-opacity:0.0; 
stroke:#000000; stroke-width:39.3701; stroke-opacity:1; 
stroke-linecap:round; stroke-linejoin:round;">
</g>
<g style="fill:#000000; fill-opacity:0.0; 
stroke:#000000; stroke-width:59.0551; stroke-opacity:1; 
stroke-linecap:round; stroke-linejoin:round;">
<path d="M23622 77955
L23622 78742
" />
</g>
<g style="fill:#000000; fill-opacity:0.0; 
stroke:#000000; stroke-width:39.3701; stroke-opacity:1; 
stroke-linecap:round; stroke-linejoin:round;">
</g>
<g style="fill:#000000; fill-opacity:0.0; 
stroke:#000000; stroke-width:59.0551; stroke-opacity:1; 
stroke-linecap:round; stroke-linejoin:round;">
<path d="M43307 77955
L43307 78742
" />
</g>
<g style="fill:#000000; fill-opacity:0.0; 
stroke:#000000; stroke-width:39.3701; stroke-opacity:1; 
stroke-linecap:round; stroke-linejoin:round;">
</g>
<g style="fill:#000000; fill-opacity:0.0; 
stroke:#000000; stroke-width:59.0551; stroke-opacity:1; 
stroke-linecap:round; stroke-linejoin:round;">
<path d="M62992 77955
L62992 78742
" />
</g>
<g style="fill:#000000; fill-opacity:0.0; 
stroke:#000000; stroke-width:39.3701; stroke-opacity:1; 
stroke-linecap:round; stroke-linejoin:round;">
</g>
<g style="fill:#000000; fill-opacity:0.0; 
stroke:#000000; stroke-width:59.0551; stroke-opacity:1; 
stroke-linecap:round; stroke-linejoin:round;">
<path d="M82677 77955
L82677 78742
" />
</g>
<g style="fill:#000000; fill-opacity:0.0; 
stroke:#000000; stroke-width:39.3701; stroke-opacity:1; 
stroke-linecap:round; stroke-linejoin:round;">
</g>
<g style="fill:#000000; fill-opacity:0.0; 
stroke:#000000; stroke-width:59.0551; stroke-opacity:1; 
stroke-linecap:round; stroke-linejoin:round;">
<path d="M102362 77955
L102362 78742
" />
</g>
<g style="fill:#000000; fill-opacity:0.0; 
stroke:#000000; stroke-width:39.3701; stroke-opacity:1; 
stroke-linecap:round; stroke-linejoin:round;">
</g>
<g style="fill:#000000; fill-opacity:0.0; 
stroke:#000000; stroke-width:59.0551; stroke-opacity:1; 
stroke-linecap:round; stroke-linejoin:round;">
<text x="13779.5" y="78605.2"
textLength="546.494" font-size="682.415" lengthAdjust="spacingAndGlyphs"
text-anchor="start" opacity="0">1</text>
<path d="M14199 78580
L13906 78580
" />
<path d="M14052 78580
L14052 78069
L14004 78142
L13955 78190
L13906 78215
" />
</g>
<g style="fill:#000000; fill-opacity:0.0; 
stroke:#000000; stroke-width:39.3701; stroke-opacity:1; 
stroke-linecap:round; stroke-linejoin:round;">
</g>
<g style="fill:#000000; fill-opacity:0.0; 
stroke:#000000; stroke-width:59.0551; stroke-opacity:1; 
stroke-linecap:round; stroke-linejoin:round;">
<text x="33464.6" y="78605.2"
textLength="546.494" font-size="682.415" lengthAdjust="spacingAndGlyphs"
text-anchor="start" opacity="0">2</text>
<path d="M33591 78117
L33615 78093
L33664 78069
L33786 78069
L33835 78093
L33859 78117
L33884 78166
L33884 78215
L33859 78288
L33567 78580
L33884 78580
" />
</g>
<g style="fill:#000000; fill-opacity:0.0; 
stroke:#000000; stroke-width:39.3701; stroke-opacity:1; 
stroke-linecap:round; stroke-linejoin:round;">
</g>
<g style="fill:#000000; fill-opacity:0.0; 
stroke:#000000; stroke-width:59.0551; stroke-opacity:1; 
stroke-linecap:round; stroke-linejoin:round;">
<text x="53149.6" y="78605.2"
textLength="546.494" font-size="682.415" lengthAdjust="spacingAndGlyphs"
text-anchor="start" opacity="0">3</text>
<path d="M53252 78069
L53569 78069
L53398 78263
L53471 78263
L53520 78288
L53544 78312
L53569 78361
L53569 78483
L53544 78532
L53520 78556
L53471 78580
L53325 78580
L53276 78556
L53252 78532
" />
</g>
<g style="fill:#000000; fill-opacity:0.0; 
stroke:#000000; stroke-width:39.3701; stroke-opacity:1; 
stroke-linecap:round; stroke-linejoin:round;">
</g>
<g style="fill:#000000; fill-opacity:0.0; 
stroke:#000000; stroke-width:59.0551; stroke-opacity:1; 
stroke-linecap:round; stroke-linejoin:round;">
<text x="72834.6" y="78605.2"
textLength="546.494" font-size="682.415" lengthAdjust="spacingAndGlyphs"
text-anchor="start" opacity="0">4</text>
<path d="M73205 78239
L73205 78580
" />
<path d="M73083 78044
L72961 78410
L73278 78410
" />
</g>
<g style="fill:#000000; fill-opacity:0.0; 
stroke:#000000; stroke-width:39.3701; stroke-opacity:1; 
stroke-linecap:round; stroke-linejoin:round;">
</g>
<g style="fill:#000000; fill-opacity:0.0; 
stroke:#000000; stroke-width:59.0551; stroke-opacity:1; 
stroke-linecap:round; stroke-linejoin:round;">
<text x="92519.7" y="78605.2"
textLength="546.494" font-size="682.415" lengthAdjust="spacingAndGlyphs"
text-anchor="start" opacity="0">5</text>
<path d="M92914 78069
L92671 78069
L92646 78312
L92671 78288
L92719 78263
L92841 78263
L92890 78288
L92914 78312
L92939 78361
L92939 78483
L92914 78532
L92890 78556
L92841 78580
L92719 78580
L92671 78556
L92646 78532
" />
</g>
<g style="fill:#000000; fill-opacity:0.0; 
stroke:#000000; stroke-width:39.3701; stroke-opacity:1; 
stroke-linecap:round; stroke-linejoin:round;">
</g>
<g style="fill:#000000; fill-opacity:0.0; 
stroke:#000000; stroke-width:59.0551; stroke-opacity:1; 
stroke-linecap:round; stroke-linejoin:round;">
<text x="112205" y="78605.2"
textLength="546.494" font-size="682.415" lengthAdjust="spacingAndGlyphs"
text-anchor="start" opacity="0">6</text>
<path d="M112575 78069
L112477 78069
L112429 78093
L112404 78117
L112356 78190
L112331 78288
L112331 78483
L112356 78532
L112380 78556
L112429 78580
L112526 78580
L112575 78556
L112599 78532
L112624 78483
L112624 78361
L112599 78312
L112575 78288
L112526 78263
L112429 78263
L112380 78288
L112356 78312
L112331 78361
" />
</g>
<g style="fill:#000000; fill-opacity:0.0; 
stroke:#000000; stroke-width:39.3701; stroke-opacity:1; 
stroke-linecap:round; stroke-linejoin:round;">
</g>
<g style="fill:#000000; fill-opacity:0.0; 
stroke:#000000; stroke-width:59.0551; stroke-opacity:1; 
stroke-linecap:round; stroke-linejoin:round;">
<path d="M3937 23622
L4724 23622
" />
</g>
<g style="fill:#000000; fill-opacity:0.0; 
stroke:#000000; stroke-width:39.3701; stroke-opacity:1; 
stroke-linecap:round; stroke-linejoin:round;">
</g>
<g style="fill:#000000; fill-opacity:0.0; 
stroke:#000000; stroke-width:59.0551; stroke-opacity:1; 
stroke-linecap:round; stroke-linejoin:round;">
<path d="M3937 43307
L4724 43307
" />
</g>
<g style="fill:#000000; fill-opacity:0.0; 
stroke:#000000; stroke-width:39.3701; stroke-opacity:1; 
stroke-linecap:round; stroke-linejoin:round;">
</g>
<g style="fill:#000000; fill-opacity:0.0; 
stroke:#000000; stroke-width:59.0551; stroke-opacity:1; 
stroke-linecap:round; stroke-linejoin:round;">
<path d="M3937 62992
L4724 62992
" />
</g>
<g style="fill:#000000; fill-opacity:0.0; 
stroke:#000000; stroke-width:39.3701; stroke-opacity:1; 
stroke-linecap:round; stroke-linejoin:round;">
</g>
<g style="fill:#000000; fill-opacity:0.0; 
stroke:#000000; stroke-width:59.0551; stroke-opacity:1; 
stroke-linecap:round; stroke-linejoin:round;">
<text x="4330.71" y="14035.4"
textLength="497.75" font-size="682.415" lengthAdjust="spacingAndGlyphs"
text-anchor="middle" opacity="0">A</text>
<path d="M4208 13864
L4452 13864
" />
<path d="M4160 14011
L4330 13499
L4501 14011
" />
</g>
<g style="fill:#000000; fill-opacity:0.0; 
stroke:#000000; stroke-width:39.3701; stroke-opacity:1; 
stroke-linecap:round; stroke-linejoin:round;">
</g>
<g style="fill:#000000; fill-opacity:0.0; 
stroke:#000000; stroke-width:59.0551; stroke-opacity:1; 
stroke-linecap:round; stroke-linejoin:round;">
<text x="4330.71" y="33720.5"
textLength="570.866" font-size="682.415" lengthAdjust="spacingAndGlyphs"
text-anchor="middle" opacity="0">B</text>
<path d="M4367 33428
L4440 33452
L4464 33476
L4489 33525
L4489 33598
L4464 33647
L4440 33671
L4391 33696
L4196 33696
L4196 33184
L4367 33184
L4416 33208
L4440 33233
L4464 33281
L4464 33330
L4440 33379
L4416 33403
L4367 33428
L4196 33428
" />
</g>
<g style="fill:#000000; fill-opacity:0.0; 
stroke:#000000; stroke-width:39.3701; stroke-opacity:1; 
stroke-linecap:round; stroke-linejoin:round;">
</g>
<g style="fill:#000000; fill-opacity:0.0; 
stroke:#000000; stroke-width:59.0551; stroke-opacity:1; 
stroke-linecap:round; stroke-linejoin:round;">
<text x="4330.71" y="53405.5"
textLength="570.866" font-size="682.415" lengthAdjust="spacingAndGlyphs"
text-anchor="middle" opacity="0">C</text>
<path d="M4489 53332
L4464 53356
L4391 53381
L4342 53381
L4269 53356
L4221 53308
L4196 53259
L4172 53161
L4172 53088
L4196 52991
L4221 52942
L4269 52893
L4342 52869
L4391 52869
L4464 52893
L4489 52918
" />
</g>
<g style="fill:#000000; fill-opacity:0.0; 
stroke:#000000; stroke-width:39.3701; stroke-opacity:1; 
stroke-linecap:round; stroke-linejoin:round;">
</g>
<g style="fill:#000000; fill-opacity:0.0; 
stroke:#000000; stroke-width:59.0551; stroke-opacity:1; 
stroke-linecap:round; stroke-linejoin:round;">
<text x="4330.71" y="73090.6"
textLength="570.866" font-size="682.415" lengthAdjust="spacingAndGlyphs"
text-anchor="middle" opacity="0">D</text>
<path d="M4196 73066
L4196 72554
L4318 72554
L4391 72578
L4440 72627
L4464 72676
L4489 72773
L4489 72846
L4464 72944
L4440 72993
L4391 73041
L4318 73066
L4196 73066
" />
</g>
<g style="fill:#000000; fill-opacity:0.0; 
stroke:#000000; stroke-width:39.3701; stroke-opacity:1; 
stroke-linecap:round; stroke-linejoin:round;">
</g>
<g style="fill:#000000; fill-opacity:0.0; 
stroke:#000000; stroke-width:59.0551; stroke-opacity:1; 
stroke-linecap:round; stroke-linejoin:round;">
<path d="M112992 23622
L112205 23622
" />
</g>
<g style="fill:#000000; fill-opacity:0.0; 
stroke:#000000; stroke-width:39.3701; stroke-opacity:1; 
stroke-linecap:round; stroke-linejoin:round;">
</g>
<g style="fill:#000000; fill-opacity:0.0; 
stroke:#000000; stroke-width:59.0551; stroke-opacity:1; 
stroke-linecap:round; stroke-linejoin:round;">
<path d="M112992 43307
L112205 43307
" />
</g>
<g style="fill:#000000; fill-opacity:0.0; 
stroke:#000000; stroke-width:39.3701; stroke-opacity:1; 
stroke-linecap:round; stroke-linejoin:round;">
</g>
<g style="fill:#000000; fill-opacity:0.0; 
stroke:#000000; stroke-width:59.0551; stroke-opacity:1; 
stroke-linecap:round; stroke-linejoin:round;">
<path d="M112992 62992
L112205 62992
" />
</g>
<g style="fill:#000000; fill-opacity:0.0; 
stroke:#000000; stroke-width:39.3701; stroke-opacity:1; 
stroke-linecap:round; stroke-linejoin:round;">
</g>
<g style="fill:#000000; fill-opacity:0.0; 
stroke:#000000; stroke-width:59.0551; stroke-opacity:1; 
stroke-linecap:round; stroke-linejoin:round;">
<text x="112599" y="14035.4"
textLength="497.75" font-size="682.415" lengthAdjust="spacingAndGlyphs"
text-anchor="middle" opacity="0">A</text>
<path d="M112477 13864
L112721 13864
" />
<path d="M112428 14011
L112599 13499
L112769 14011
" />
</g>
<g style="fill:#000000; fill-opacity:0.0; 
stroke:#000000; stroke-width:39.3701; stroke-opacity:1; 
stroke-linecap:round; stroke-linejoin:round;">
</g>
<g style="fill:#000000; fill-opacity:0.0; 
stroke:#000000; stroke-width:59.0551; stroke-opacity:1; 
stroke-linecap:round; stroke-linejoin:round;">
<text x="112599" y="33720.5"
textLength="570.866" font-size="682.415" lengthAdjust="spacingAndGlyphs"
text-anchor="middle" opacity="0">B</text>
<path d="M112635 33428
L112708 33452
L112733 33476
L112757 33525
L112757 33598
L112733 33647
L112708 33671
L112660 33696
L112465 33696
L112465 33184
L112635 33184
L112684 33208
L112708 33233
L112733 33281
L112733 33330
L112708 33379
L112684 33403
L112635 33428
L112465 33428
" />
</g>
<g style="fill:#000000; fill-opacity:0.0; 
stroke:#000000; stroke-width:39.3701; stroke-opacity:1; 
stroke-linecap:round; stroke-linejoin:round;">
</g>
<g style="fill:#000000; fill-opacity:0.0; 
stroke:#000000; stroke-width:59.0551; stroke-opacity:1; 
stroke-linecap:round; stroke-linejoin:round;">
<text x="112599" y="53405.5"
textLength="570.866" font-size="682.415" lengthAdjust="spacingAndGlyphs"
text-anchor="middle" opacity="0">C</text>
<path d="M112757 53332
L112733 53356
L112660 53381
L112611 53381
L112538 53356
L112489 53308
L112465 53259
L112440 53161
L112440 53088
L112465 52991
L112489 52942
L112538 52893
L112611 52869
L112660 52869
L112733 52893
L112757 52918
" />
</g>
<g style="fill:#000000; fill-opacity:0.0; 
stroke:#000000; stroke-width:39.3701; stroke-opacity:1; 
stroke-linecap:round; stroke-linejoin:round;">
</g>
<g style="fill:#000000; fill-opacity:0.0; 
stroke:#000000; stroke-width:59.0551; stroke-opacity:1; 
stroke-linecap:round; stroke-linejoin:round;">
<text x="112599" y="73090.6"
textLength="570.866" font-size="682.415" lengthAdjust="spacingAndGlyphs"
text-anchor="middle" opacity="0">D</text>
<path d="M112465 73066
L112465 72554
L112587 72554
L112660 72578
L112708 72627
L112733 72676
L112757 72773
L112757 72846
L112733 72944
L112708 72993
L112660 73041
L112587 73066
L112465 73066
" />
</g>
<g style="fill:#000000; fill-opacity:0.0; 
stroke:#000000; stroke-width:39.3701; stroke-opacity:1; 
stroke-linecap:round; stroke-linejoin:round;">
</g>
<g style="fill:#000000; fill-opacity:0.0; 
stroke:#000000; stroke-width:59.0551; stroke-opacity:1; 
stroke-linecap:round; stroke-linejoin:round;">
<text x="78741" y="76321.7"
textLength="2758.72" font-size="787.402" lengthAdjust="spacingAndGlyphs"
text-anchor="start" opacity="0">Date: </text>
<path d="M78911 76293
L78911 75703
L79051 75703
L79136 75731
L79192 75787
L79220 75843
L79248 75956
L79248 76040
L79220 76153
L79192 76209
L79136 76265
L79051 76293
L78911 76293
" />
<path d="M79754 76293
L79754 75984
L79726 75928
L79670 75899
L79557 75899
L79501 75928
" />
<path d="M79754 76265
L79698 76293
L79557 76293
L79501 76265
L79473 76209
L79473 76153
L79501 76096
L79557 76068
L79698 76068
L79754 76040
" />
<path d="M79951 75899
L80176 75899
" />
<path d="M80036 75703
L80036 76209
L80064 76265
L80120 76293
L80176 76293
" />
<path d="M80598 76265
L80542 76293
L80429 76293
L80373 76265
L80345 76209
L80345 75984
L80373 75928
L80429 75899
L80542 75899
L80598 75928
L80626 75984
L80626 76040
L80345 76096
" />
<path d="M80879 76237
L80907 76265
L80879 76293
L80851 76265
L80879 76237
L80879 76293
" />
<path d="M80879 75928
L80907 75956
L80879 75984
L80851 75956
L80879 75928
L80879 75984
" />
</g>
<g style="fill:#000000; fill-opacity:0.0; 
stroke:#000000; stroke-width:39.3701; stroke-opacity:1; 
stroke-linecap:round; stroke-linejoin:round;">
</g>
<g style="fill:#000000; fill-opacity:0.0; 
stroke:#000000; stroke-width:59.0551; stroke-opacity:1; 
stroke-linecap:round; stroke-linejoin:round;">
<path d="M69685 76577
L112205 76577
" />
</g>
<g style="fill:#000000; fill-opacity:0.0; 
stroke:#000000; stroke-width:39.3701; stroke-opacity:1; 
stroke-linecap:round; stroke-linejoin:round;">
</g>
<g style="fill:#000000; fill-opacity:0.0; 
stroke:#000000; stroke-width:59.0551; stroke-opacity:1; 
stroke-linecap:round; stroke-linejoin:round;">
<text x="70079.6" y="77424.1"
textLength="25790.2" font-size="787.402" lengthAdjust="spacingAndGlyphs"
text-anchor="start" opacity="0">KiCad E.D.A.  kicad 5.1.10-88a1d61d58~88~ubuntu20.04.1</text>
<path d="M70249 77395
L70249 76805
" />
<path d="M70587 77395
L70334 77058
" />
<path d="M70587 76805
L70249 77142
" />
<path d="M70840 77395
L70840 77002
" />
<path d="M70840 76805
L70812 76833
L70840 76861
L70868 76833
L70840 76805
L70840 76861
" />
<path d="M71458 77339
L71430 77367
L71346 77395
L71290 77395
L71205 77367
L71149 77311
L71121 77255
L71093 77142
L71093 77058
L71121 76946
L71149 76889
L71205 76833
L71290 76805
L71346 76805
L71430 76833
L71458 76861
" />
<path d="M71965 77395
L71965 77086
L71937 77030
L71880 77002
L71768 77002
L71712 77030
" />
<path d="M71965 77367
L71908 77395
L71768 77395
L71712 77367
L71683 77311
L71683 77255
L71712 77199
L71768 77171
L71908 77171
L71965 77142
" />
<path d="M72499 77395
L72499 76805
" />
<path d="M72499 77367
L72443 77395
L72330 77395
L72274 77367
L72246 77339
L72218 77283
L72218 77114
L72246 77058
L72274 77030
L72330 77002
L72443 77002
L72499 77030
" />
<path d="M73230 77086
L73427 77086
" />
<path d="M73511 77395
L73230 77395
L73230 76805
L73511 76805
" />
<path d="M73764 77339
L73793 77367
L73764 77395
L73736 77367
L73764 77339
L73764 77395
" />
<path d="M74046 77395
L74046 76805
L74186 76805
L74271 76833
L74327 76889
L74355 76946
L74383 77058
L74383 77142
L74355 77255
L74327 77311
L74271 77367
L74186 77395
L74046 77395
" />
<path d="M74636 77339
L74664 77367
L74636 77395
L74608 77367
L74636 77339
L74636 77395
" />
<path d="M74889 77227
L75171 77227
" />
<path d="M74833 77395
L75030 76805
L75227 77395
" />
<path d="M75424 77339
L75452 77367
L75424 77395
L75395 77367
L75424 77339
L75424 77395
" />
<path d="M76605 77395
L76605 76805
" />
<path d="M76661 77171
L76830 77395
" />
<path d="M76830 77002
L76605 77227
" />
<path d="M77083 77395
L77083 77002
" />
<path d="M77083 76805
L77055 76833
L77083 76861
L77111 76833
L77083 76805
L77083 76861
" />
<path d="M77617 77367
L77561 77395
L77448 77395
L77392 77367
L77364 77339
L77336 77283
L77336 77114
L77364 77058
L77392 77030
L77448 77002
L77561 77002
L77617 77030
" />
<path d="M78123 77395
L78123 77086
L78095 77030
L78039 77002
L77926 77002
L77870 77030
" />
<path d="M78123 77367
L78067 77395
L77926 77395
L77870 77367
L77842 77311
L77842 77255
L77870 77199
L77926 77171
L78067 77171
L78123 77142
" />
<path d="M78658 77395
L78658 76805
" />
<path d="M78658 77367
L78601 77395
L78489 77395
L78433 77367
L78404 77339
L78376 77283
L78376 77114
L78404 77058
L78433 77030
L78489 77002
L78601 77002
L78658 77030
" />
<path d="M79670 76805
L79389 76805
L79361 77086
L79389 77058
L79445 77030
L79586 77030
L79642 77058
L79670 77086
L79698 77142
L79698 77283
L79670 77339
L79642 77367
L79586 77395
L79445 77395
L79389 77367
L79361 77339
" />
<path d="M79951 77339
L79979 77367
L79951 77395
L79923 77367
L79951 77339
L79951 77395
" />
<path d="M80542 77395
L80204 77395
" />
<path d="M80373 77395
L80373 76805
L80317 76889
L80260 76946
L80204 76974
" />
<path d="M80795 77339
L80823 77367
L80795 77395
L80767 77367
L80795 77339
L80795 77395
" />
<path d="M81385 77395
L81048 77395
" />
<path d="M81217 77395
L81217 76805
L81160 76889
L81104 76946
L81048 76974
" />
<path d="M81751 76805
L81807 76805
L81863 76833
L81892 76861
L81920 76917
L81948 77030
L81948 77171
L81920 77283
L81892 77339
L81863 77367
L81807 77395
L81751 77395
L81695 77367
L81667 77339
L81638 77283
L81610 77171
L81610 77030
L81638 76917
L81667 76861
L81695 76833
L81751 76805
" />
<path d="M82201 77171
L82651 77171
" />
<path d="M83016 77058
L82960 77030
L82932 77002
L82904 76946
L82904 76917
L82932 76861
L82960 76833
L83016 76805
L83129 76805
L83185 76833
L83213 76861
L83241 76917
L83241 76946
L83213 77002
L83185 77030
L83129 77058
L83016 77058
L82960 77086
L82932 77114
L82904 77171
L82904 77283
L82932 77339
L82960 77367
L83016 77395
L83129 77395
L83185 77367
L83213 77339
L83241 77283
L83241 77171
L83213 77114
L83185 77086
L83129 77058
" />
<path d="M83579 77058
L83523 77030
L83494 77002
L83466 76946
L83466 76917
L83494 76861
L83523 76833
L83579 76805
L83691 76805
L83748 76833
L83776 76861
L83804 76917
L83804 76946
L83776 77002
L83748 77030
L83691 77058
L83579 77058
L83523 77086
L83494 77114
L83466 77171
L83466 77283
L83494 77339
L83523 77367
L83579 77395
L83691 77395
L83748 77367
L83776 77339
L83804 77283
L83804 77171
L83776 77114
L83748 77086
L83691 77058
" />
<path d="M84310 77395
L84310 77086
L84282 77030
L84226 77002
L84113 77002
L84057 77030
" />
<path d="M84310 77367
L84254 77395
L84113 77395
L84057 77367
L84029 77311
L84029 77255
L84057 77199
L84113 77171
L84254 77171
L84310 77142
" />
<path d="M84901 77395
L84563 77395
" />
<path d="M84732 77395
L84732 76805
L84676 76889
L84619 76946
L84563 76974
" />
<path d="M85407 77395
L85407 76805
" />
<path d="M85407 77367
L85350 77395
L85238 77395
L85182 77367
L85154 77339
L85126 77283
L85126 77114
L85154 77058
L85182 77030
L85238 77002
L85350 77002
L85407 77030
" />
<path d="M85941 76805
L85829 76805
L85772 76833
L85744 76861
L85688 76946
L85660 77058
L85660 77283
L85688 77339
L85716 77367
L85772 77395
L85885 77395
L85941 77367
L85969 77339
L85997 77283
L85997 77142
L85969 77086
L85941 77058
L85885 77030
L85772 77030
L85716 77058
L85688 77086
L85660 77142
" />
<path d="M86560 77395
L86222 77395
" />
<path d="M86391 77395
L86391 76805
L86335 76889
L86278 76946
L86222 76974
" />
<path d="M87066 77395
L87066 76805
" />
<path d="M87066 77367
L87010 77395
L86897 77395
L86841 77367
L86813 77339
L86785 77283
L86785 77114
L86813 77058
L86841 77030
L86897 77002
L87010 77002
L87066 77030
" />
<path d="M87628 76805
L87347 76805
L87319 77086
L87347 77058
L87403 77030
L87544 77030
L87600 77058
L87628 77086
L87656 77142
L87656 77283
L87628 77339
L87600 77367
L87544 77395
L87403 77395
L87347 77367
L87319 77339
" />
<path d="M87994 77058
L87938 77030
L87910 77002
L87881 76946
L87881 76917
L87910 76861
L87938 76833
L87994 76805
L88106 76805
L88163 76833
L88191 76861
L88219 76917
L88219 76946
L88191 77002
L88163 77030
L88106 77058
L87994 77058
L87938 77086
L87910 77114
L87881 77171
L87881 77283
L87910 77339
L87938 77367
L87994 77395
L88106 77395
L88163 77367
L88191 77339
L88219 77283
L88219 77171
L88191 77114
L88163 77086
L88106 77058
" />
<path d="M88331 76644
L88894 76644
" />
<path d="M88556 77058
L88500 77030
L88472 77002
L88444 76946
L88444 76917
L88472 76861
L88500 76833
L88556 76805
L88669 76805
L88725 76833
L88753 76861
L88781 76917
L88781 76946
L88753 77002
L88725 77030
L88669 77058
L88556 77058
L88500 77086
L88472 77114
L88444 77171
L88444 77283
L88472 77339
L88500 77367
L88556 77395
L88669 77395
L88725 77367
L88753 77339
L88781 77283
L88781 77171
L88753 77114
L88725 77086
L88669 77058
" />
<path d="M88894 76644
L89456 76644
" />
<path d="M89119 77058
L89063 77030
L89034 77002
L89006 76946
L89006 76917
L89034 76861
L89063 76833
L89119 76805
L89231 76805
L89287 76833
L89316 76861
L89344 76917
L89344 76946
L89316 77002
L89287 77030
L89231 77058
L89119 77058
L89063 77086
L89034 77114
L89006 77171
L89006 77283
L89034 77339
L89063 77367
L89119 77395
L89231 77395
L89287 77367
L89316 77339
L89344 77283
L89344 77171
L89316 77114
L89287 77086
L89231 77058
" />
<path d="M89850 77002
L89850 77395
" />
<path d="M89597 77002
L89597 77311
L89625 77367
L89681 77395
L89766 77395
L89822 77367
L89850 77339
" />
<path d="M90131 77395
L90131 76805
" />
<path d="M90131 77030
L90187 77002
L90300 77002
L90356 77030
L90384 77058
L90412 77114
L90412 77283
L90384 77339
L90356 77367
L90300 77395
L90187 77395
L90131 77367
" />
<path d="M90919 77002
L90919 77395
" />
<path d="M90665 77002
L90665 77311
L90694 77367
L90750 77395
L90834 77395
L90890 77367
L90919 77339
" />
<path d="M91200 77002
L91200 77395
" />
<path d="M91200 77058
L91228 77030
L91284 77002
L91368 77002
L91425 77030
L91453 77086
L91453 77395
" />
<path d="M91650 77002
L91875 77002
" />
<path d="M91734 76805
L91734 77311
L91762 77367
L91818 77395
L91875 77395
" />
<path d="M92325 77002
L92325 77395
" />
<path d="M92072 77002
L92072 77311
L92100 77367
L92156 77395
L92240 77395
L92296 77367
L92325 77339
" />
<path d="M92578 76861
L92606 76833
L92662 76805
L92803 76805
L92859 76833
L92887 76861
L92915 76917
L92915 76974
L92887 77058
L92550 77395
L92915 77395
" />
<path d="M93281 76805
L93337 76805
L93393 76833
L93421 76861
L93449 76917
L93478 77030
L93478 77171
L93449 77283
L93421 77339
L93393 77367
L93337 77395
L93281 77395
L93224 77367
L93196 77339
L93168 77283
L93140 77171
L93140 77030
L93168 76917
L93196 76861
L93224 76833
L93281 76805
" />
<path d="M93731 77339
L93759 77367
L93731 77395
L93703 77367
L93731 77339
L93731 77395
" />
<path d="M94124 76805
L94181 76805
L94237 76833
L94265 76861
L94293 76917
L94321 77030
L94321 77171
L94293 77283
L94265 77339
L94237 77367
L94181 77395
L94124 77395
L94068 77367
L94040 77339
L94012 77283
L93984 77171
L93984 77030
L94012 76917
L94040 76861
L94068 76833
L94124 76805
" />
<path d="M94827 77002
L94827 77395
" />
<path d="M94687 76777
L94546 77199
L94912 77199
" />
<path d="M95137 77339
L95165 77367
L95137 77395
L95109 77367
L95137 77339
L95137 77395
" />
<path d="M95727 77395
L95390 77395
" />
<path d="M95559 77395
L95559 76805
L95502 76889
L95446 76946
L95390 76974
" />
</g>
<g style="fill:#000000; fill-opacity:0.0; 
stroke:#000000; stroke-width:39.3701; stroke-opacity:1; 
stroke-linecap:round; stroke-linejoin:round;">
</g>
<g style="fill:#000000; fill-opacity:0.0; 
stroke:#000000; stroke-width:59.0551; stroke-opacity:1; 
stroke-linecap:round; stroke-linejoin:round;">
<path d="M69685 75396
L112205 75396
" />
</g>
<g style="fill:#000000; fill-opacity:0.0; 
stroke:#000000; stroke-width:39.3701; stroke-opacity:1; 
stroke-linecap:round; stroke-linejoin:round;">
</g>
<g style="fill:#000000; fill-opacity:0.0; 
stroke:#000000; stroke-width:118.11; stroke-opacity:1; 
stroke-linecap:round; stroke-linejoin:round;">
<text x="103544" y="76321.7"
textLength="2336.9" font-size="787.402" lengthAdjust="spacingAndGlyphs"
text-anchor="start" opacity="0">Rev: </text>
<path d="M104099 76293
L103902 76012
" />
<path d="M103761 76293
L103761 75703
L103986 75703
L104042 75731
L104070 75759
L104099 75815
L104099 75899
L104070 75956
L104042 75984
L103986 76012
L103761 76012
" />
<path d="M104577 76265
L104520 76293
L104408 76293
L104352 76265
L104323 76209
L104323 75984
L104352 75928
L104408 75899
L104520 75899
L104577 75928
L104605 75984
L104605 76040
L104323 76096
" />
<path d="M104802 75899
L104942 76293
L105083 75899
" />
<path d="M105308 76237
L105336 76265
L105308 76293
L105280 76265
L105308 76237
L105308 76293
" />
<path d="M105308 75928
L105336 75956
L105308 75984
L105280 75956
L105308 75928
L105308 75984
" />
</g>
<g style="fill:#000000; fill-opacity:0.0; 
stroke:#000000; stroke-width:39.3701; stroke-opacity:1; 
stroke-linecap:round; stroke-linejoin:round;">
</g>
<g style="fill:#000000; fill-opacity:0.0; 
stroke:#000000; stroke-width:59.0551; stroke-opacity:1; 
stroke-linecap:round; stroke-linejoin:round;">
<text x="70079.6" y="76321.7"
textLength="3781.21" font-size="787.402" lengthAdjust="spacingAndGlyphs"
text-anchor="start" opacity="0">Size: A4</text>
<path d="M70221 76265
L70305 76293
L70446 76293
L70502 76265
L70530 76237
L70559 76181
L70559 76124
L70530 76068
L70502 76040
L70446 76012
L70334 75984
L70277 75956
L70249 75928
L70221 75871
L70221 75815
L70249 75759
L70277 75731
L70334 75703
L70474 75703
L70559 75731
" />
<path d="M70812 76293
L70812 75899
" />
<path d="M70812 75703
L70784 75731
L70812 75759
L70840 75731
L70812 75703
L70812 75759
" />
<path d="M71037 75899
L71346 75899
L71037 76293
L71346 76293
" />
<path d="M71796 76265
L71740 76293
L71627 76293
L71571 76265
L71543 76209
L71543 75984
L71571 75928
L71627 75899
L71740 75899
L71796 75928
L71824 75984
L71824 76040
L71543 76096
" />
<path d="M72077 76237
L72105 76265
L72077 76293
L72049 76265
L72077 76237
L72077 76293
" />
<path d="M72077 75928
L72105 75956
L72077 75984
L72049 75956
L72077 75928
L72077 75984
" />
<path d="M72780 76124
L73061 76124
" />
<path d="M72724 76293
L72921 75703
L73118 76293
" />
<path d="M73568 75899
L73568 76293
" />
<path d="M73427 75674
L73286 76096
L73652 76096
" />
</g>
<g style="fill:#000000; fill-opacity:0.0; 
stroke:#000000; stroke-width:39.3701; stroke-opacity:1; 
stroke-linecap:round; stroke-linejoin:round;">
</g>
<g style="fill:#000000; fill-opacity:0.0; 
stroke:#000000; stroke-width:59.0551; stroke-opacity:1; 
stroke-linecap:round; stroke-linejoin:round;">
<text x="103544" y="77424.1"
textLength="3349.27" font-size="787.402" lengthAdjust="spacingAndGlyphs"
text-anchor="start" opacity="0">Id: 1/1</text>
<path d="M103714 77395
L103714 76805
" />
<path d="M104248 77395
L104248 76805
" />
<path d="M104248 77367
L104192 77395
L104079 77395
L104023 77367
L103995 77339
L103967 77283
L103967 77114
L103995 77058
L104023 77030
L104079 77002
L104192 77002
L104248 77030
" />
<path d="M104529 77339
L104557 77367
L104529 77395
L104501 77367
L104529 77339
L104529 77395
" />
<path d="M104529 77030
L104557 77058
L104529 77086
L104501 77058
L104529 77030
L104529 77086
" />
<path d="M105570 77395
L105232 77395
" />
<path d="M105401 77395
L105401 76805
L105345 76889
L105289 76946
L105232 76974
" />
<path d="M106245 76777
L105739 77536
" />
<path d="M106751 77395
L106413 77395
" />
<path d="M106582 77395
L106582 76805
L106526 76889
L106470 76946
L106413 76974
" />
</g>
<g style="fill:#000000; fill-opacity:0.0; 
stroke:#000000; stroke-width:39.3701; stroke-opacity:1; 
stroke-linecap:round; stroke-linejoin:round;">
</g>
<g style="fill:#000000; fill-opacity:0.0; 
stroke:#000000; stroke-width:59.0551; stroke-opacity:1; 
stroke-linecap:round; stroke-linejoin:round;">
<path d="M69685 73821
L112205 73821
" />
</g>
<g style="fill:#000000; fill-opacity:0.0; 
stroke:#000000; stroke-width:39.3701; stroke-opacity:1; 
stroke-linecap:round; stroke-linejoin:round;">
</g>
<g style="fill:#000000; fill-opacity:0.0; 
stroke:#000000; stroke-width:157.48; stroke-opacity:1; 
stroke-linecap:round; stroke-linejoin:round;">
<text x="70079.6" y="74924.1"
textLength="3701.14" font-size="1049.87" lengthAdjust="spacingAndGlyphs"
text-anchor="start" opacity="0">Title: </text>
<path d="M70360 74099
L70810 74099
" />
<path d="M70486 74886
L70585 74099
" />
<path d="M70974 74886
L71039 74361
" />
<path d="M71072 74099
L71030 74136
L71063 74174
L71105 74136
L71072 74099
L71063 74174
" />
<path d="M71302 74361
L71602 74361
" />
<path d="M71447 74099
L71363 74774
L71391 74849
L71461 74886
L71536 74886
" />
<path d="M71911 74886
L71841 74849
L71813 74774
L71897 74099
" />
<path d="M72516 74849
L72436 74886
L72286 74886
L72216 74849
L72187 74774
L72225 74474
L72272 74399
L72352 74361
L72501 74361
L72572 74399
L72600 74474
L72591 74549
L72206 74624
" />
<path d="M72895 74811
L72928 74849
L72886 74886
L72853 74849
L72895 74811
L72886 74886
" />
<path d="M72947 74399
L72980 74436
L72937 74474
L72905 74436
L72947 74399
L72937 74474
" />
</g>
<g style="fill:#000000; fill-opacity:0.0; 
stroke:#000000; stroke-width:39.3701; stroke-opacity:1; 
stroke-linecap:round; stroke-linejoin:round;">
</g>
<g style="fill:#000000; fill-opacity:0.0; 
stroke:#000000; stroke-width:59.0551; stroke-opacity:1; 
stroke-linecap:round; stroke-linejoin:round;">
<text x="70079.6" y="73408.3"
textLength="13196.9" font-size="787.402" lengthAdjust="spacingAndGlyphs"
text-anchor="start" opacity="0">File: driver_moteur.kicad_pcb</text>
<path d="M70446 73070
L70249 73070
" />
<path d="M70249 73380
L70249 72789
L70530 72789
" />
<path d="M70755 73380
L70755 72986
" />
<path d="M70755 72789
L70727 72817
L70755 72845
L70784 72817
L70755 72789
L70755 72845
" />
<path d="M71121 73380
L71065 73352
L71037 73295
L71037 72789
" />
<path d="M71571 73352
L71515 73380
L71402 73380
L71346 73352
L71318 73295
L71318 73070
L71346 73014
L71402 72986
L71515 72986
L71571 73014
L71599 73070
L71599 73127
L71318 73183
" />
<path d="M71852 73323
L71880 73352
L71852 73380
L71824 73352
L71852 73323
L71852 73380
" />
<path d="M71852 73014
L71880 73042
L71852 73070
L71824 73042
L71852 73014
L71852 73070
" />
<path d="M72836 73380
L72836 72789
" />
<path d="M72836 73352
L72780 73380
L72668 73380
L72611 73352
L72583 73323
L72555 73267
L72555 73099
L72583 73042
L72611 73014
L72668 72986
L72780 72986
L72836 73014
" />
<path d="M73118 73380
L73118 72986
" />
<path d="M73118 73099
L73146 73042
L73174 73014
L73230 72986
L73286 72986
" />
<path d="M73483 73380
L73483 72986
" />
<path d="M73483 72789
L73455 72817
L73483 72845
L73511 72817
L73483 72789
L73483 72845
" />
<path d="M73708 72986
L73849 73380
L73989 72986
" />
<path d="M74439 73352
L74383 73380
L74271 73380
L74214 73352
L74186 73295
L74186 73070
L74214 73014
L74271 72986
L74383 72986
L74439 73014
L74467 73070
L74467 73127
L74186 73183
" />
<path d="M74721 73380
L74721 72986
" />
<path d="M74721 73099
L74749 73042
L74777 73014
L74833 72986
L74889 72986
" />
<path d="M74946 73436
L75395 73436
" />
<path d="M75536 73380
L75536 72986
" />
<path d="M75536 73042
L75564 73014
L75620 72986
L75705 72986
L75761 73014
L75789 73070
L75789 73380
" />
<path d="M75789 73070
L75817 73014
L75874 72986
L75958 72986
L76014 73014
L76042 73070
L76042 73380
" />
<path d="M76408 73380
L76352 73352
L76323 73323
L76295 73267
L76295 73099
L76323 73042
L76352 73014
L76408 72986
L76492 72986
L76548 73014
L76577 73042
L76605 73099
L76605 73267
L76577 73323
L76548 73352
L76492 73380
L76408 73380
" />
<path d="M76773 72986
L76998 72986
" />
<path d="M76858 72789
L76858 73295
L76886 73352
L76942 73380
L76998 73380
" />
<path d="M77420 73352
L77364 73380
L77251 73380
L77195 73352
L77167 73295
L77167 73070
L77195 73014
L77251 72986
L77364 72986
L77420 73014
L77448 73070
L77448 73127
L77167 73183
" />
<path d="M77955 72986
L77955 73380
" />
<path d="M77701 72986
L77701 73295
L77730 73352
L77786 73380
L77870 73380
L77926 73352
L77955 73323
" />
<path d="M78236 73380
L78236 72986
" />
<path d="M78236 73099
L78264 73042
L78292 73014
L78348 72986
L78404 72986
" />
<path d="M78601 73323
L78629 73352
L78601 73380
L78573 73352
L78601 73323
L78601 73380
" />
<path d="M78883 73380
L78883 72789
" />
<path d="M78939 73155
L79108 73380
" />
<path d="M79108 72986
L78883 73211
" />
<path d="M79361 73380
L79361 72986
" />
<path d="M79361 72789
L79332 72817
L79361 72845
L79389 72817
L79361 72789
L79361 72845
" />
<path d="M79895 73352
L79839 73380
L79726 73380
L79670 73352
L79642 73323
L79614 73267
L79614 73099
L79642 73042
L79670 73014
L79726 72986
L79839 72986
L79895 73014
" />
<path d="M80401 73380
L80401 73070
L80373 73014
L80317 72986
L80204 72986
L80148 73014
" />
<path d="M80401 73352
L80345 73380
L80204 73380
L80148 73352
L80120 73295
L80120 73239
L80148 73183
L80204 73155
L80345 73155
L80401 73127
" />
<path d="M80935 73380
L80935 72789
" />
<path d="M80935 73352
L80879 73380
L80767 73380
L80710 73352
L80682 73323
L80654 73267
L80654 73099
L80682 73042
L80710 73014
L80767 72986
L80879 72986
L80935 73014
" />
<path d="M81076 73436
L81526 73436
" />
<path d="M81667 72986
L81667 73577
" />
<path d="M81667 73014
L81723 72986
L81835 72986
L81892 73014
L81920 73042
L81948 73099
L81948 73267
L81920 73323
L81892 73352
L81835 73380
L81723 73380
L81667 73352
" />
<path d="M82454 73352
L82398 73380
L82285 73380
L82229 73352
L82201 73323
L82173 73267
L82173 73099
L82201 73042
L82229 73014
L82285 72986
L82398 72986
L82454 73014
" />
<path d="M82707 73380
L82707 72789
" />
<path d="M82707 73014
L82763 72986
L82876 72986
L82932 73014
L82960 73042
L82988 73099
L82988 73267
L82960 73323
L82932 73352
L82876 73380
L82763 73380
L82707 73352
" />
</g>
<g style="fill:#000000; fill-opacity:0.0; 
stroke:#000000; stroke-width:39.3701; stroke-opacity:1; 
stroke-linecap:round; stroke-linejoin:round;">
</g>
<g style="fill:#000000; fill-opacity:0.0; 
stroke:#000000; stroke-width:59.0551; stroke-opacity:1; 
stroke-linecap:round; stroke-linejoin:round;">
<path d="M69685 71459
L112205 71459
" />
</g>
<g style="fill:#000000; fill-opacity:0.0; 
stroke:#000000; stroke-width:39.3701; stroke-opacity:1; 
stroke-linecap:round; stroke-linejoin:round;">
</g>
<g style="fill:#000000; fill-opacity:0.0; 
stroke:#000000; stroke-width:59.0551; stroke-opacity:1; 
stroke-linecap:round; stroke-linejoin:round;">
<text x="70079.6" y="72345.4"
textLength="3236.78" font-size="787.402" lengthAdjust="spacingAndGlyphs"
text-anchor="start" opacity="0">Sheet: </text>
<path d="M70221 72289
L70305 72317
L70446 72317
L70502 72289
L70530 72260
L70559 72204
L70559 72148
L70530 72092
L70502 72064
L70446 72036
L70334 72007
L70277 71979
L70249 71951
L70221 71895
L70221 71839
L70249 71782
L70277 71754
L70334 71726
L70474 71726
L70559 71754
" />
<path d="M70812 72317
L70812 71726
" />
<path d="M71065 72317
L71065 72007
L71037 71951
L70980 71923
L70896 71923
L70840 71951
L70812 71979
" />
<path d="M71571 72289
L71515 72317
L71402 72317
L71346 72289
L71318 72232
L71318 72007
L71346 71951
L71402 71923
L71515 71923
L71571 71951
L71599 72007
L71599 72064
L71318 72120
" />
<path d="M72077 72289
L72021 72317
L71908 72317
L71852 72289
L71824 72232
L71824 72007
L71852 71951
L71908 71923
L72021 71923
L72077 71951
L72105 72007
L72105 72064
L71824 72120
" />
<path d="M72274 71923
L72499 71923
" />
<path d="M72358 71726
L72358 72232
L72386 72289
L72443 72317
L72499 72317
" />
<path d="M72696 72260
L72724 72289
L72696 72317
L72668 72289
L72696 72260
L72696 72317
" />
<path d="M72696 71951
L72724 71979
L72696 72007
L72668 71979
L72696 71951
L72696 72007
" />
</g>
<g style="fill:#000000; fill-opacity:0.0; 
stroke:#000000; stroke-width:39.3701; stroke-opacity:1; 
stroke-linecap:round; stroke-linejoin:round;">
</g>
<g style="fill:#000000; fill-opacity:0.0; 
stroke:#000000; stroke-width:59.0551; stroke-opacity:1; 
stroke-linecap:round; stroke-linejoin:round;">
<path d="M77559 75396
L77559 76577
" />
</g>
<g style="fill:#000000; fill-opacity:0.0; 
stroke:#000000; stroke-width:39.3701; stroke-opacity:1; 
stroke-linecap:round; stroke-linejoin:round;">
</g>
<g style="fill:#000000; fill-opacity:0.0; 
stroke:#000000; stroke-width:59.0551; stroke-opacity:1; 
stroke-linecap:round; stroke-linejoin:round;">
<path d="M102756 75396
L102756 77955
" />
</g>
<g style="fill:#008484; fill-opacity:0.0; 
stroke:#008484; stroke-width:59.0551; stroke-opacity:1; 
stroke-linecap:round; stroke-linejoin:round;">
</g>
<g style="fill:#008484; fill-opacity:0.0; 
stroke:#008484; stroke-width:98.4252; stroke-opacity:1; 
stroke-linecap:round; stroke-linejoin:round;">
<text x="43031.5" y="22283.5"
textLength="434.008" font-size="524.934" lengthAdjust="spacingAndGlyphs"
text-anchor="middle" opacity="0">1</text>
<path d="M43143 22264
L42919 22264
" />
<path d="M43031 22264
L43031 21871
L42994 21927
L42956 21964
L42919 21983
" />
</g>
<g style="fill:#008484; fill-opacity:0.0; 
stroke:#008484; stroke-width:47.2441; stroke-opacity:1; 
stroke-linecap:round; stroke-linejoin:round;">
<path d="M39731 18608
L49151 18598
" />
<path d="M39741 21598
L49171 21508
" />
<path d="M40501 19118
L40501 21008
" />
<path d="M40491 21018
L47891 21038
" />
<path d="M40521 19098
L47861 19118
" />
<path d="M47891.6 21038.7 A960.469 960.469 0.0 1 0 47884.5 19119" />
<path d="M39731.6 18618.7 A1481.22 1481.22 0.0 1 0 39702 21579.6" />
<path d="M49121.6 21515.4 A1456.69 1456.69 0.0 0 0 49121.6 18602" />
<path d="M39731 28844
L49151 28834
" />
<path d="M39741 31834
L49171 31744
" />
<path d="M40501 29354
L40501 31244
" />
<path d="M40491 31254
L47891 31274
" />
<path d="M40521 29334
L47861 29354
" />
<path d="M47891.6 31275 A960.469 960.469 0.0 1 0 47884.5 29355.2" />
<path d="M39731.6 28855 A1481.22 1481.22 0.0 1 0 39702 31815.9" />
<path d="M49121.6 31751.7 A1456.69 1456.69 0.0 0 0 49121.6 28838.3" />
<path d="M54948 23515
L54948 22468
" />
<path d="M53925 23515
L54948 23515
" />
<path d="M53925 22468
L54948 22468
" />
<path d="M53925 23515
L53925 22468
" />
<path d="M53425 23515
L52901 23515
" />
<path d="M52901 23515
L52901 22992
" />
<path d="M54948 25090
L54948 24043
" />
<path d="M53925 25090
L54948 25090
" />
<path d="M53925 24043
L54948 24043
" />
<path d="M53925 25090
L53925 24043
" />
<path d="M53425 25090
L52901 25090
" />
<path d="M52901 25090
L52901 24566
" />
<path d="M54948 26665
L54948 25618
" />
<path d="M53925 26665
L54948 26665
" />
<path d="M53925 25618
L54948 25618
" />
<path d="M53925 26665
L53925 25618
" />
<path d="M53425 26665
L52901 26665
" />
<path d="M52901 26665
L52901 26141
" />
<path d="M54948 28240
L54948 27192
" />
<path d="M53925 28240
L54948 28240
" />
<path d="M53925 27192
L54948 27192
" />
<path d="M53925 28240
L53925 27192
" />
<path d="M53425 28240
L52901 28240
" />
<path d="M52901 28240
L52901 27716
" />
</g>
<g style="fill:#008484; fill-opacity:0.0; 
stroke:#008484; stroke-width:78.7402; stroke-opacity:1; 
stroke-linecap:round; stroke-linejoin:round;">
<circle cx="34724.4" cy="26348.4" r="39.3701" /> 
</g>
<g style="fill:#008484; fill-opacity:0.0; 
stroke:#008484; stroke-width:50; stroke-opacity:1; 
stroke-linecap:round; stroke-linejoin:round;">
<path d="M32775 26594
L35688 26594
" />
<path d="M32775 28858
L32775 26594
" />
<path d="M35688 28858
L32775 28858
" />
<path d="M35688 26594
L35688 28858
" />
</g>
<g style="fill:#008484; fill-opacity:0.0; 
stroke:#008484; stroke-width:80; stroke-opacity:1; 
stroke-linecap:round; stroke-linejoin:round;">
<path d="M32663 22174
L35023 22174
" />
<path d="M35023 22174
L35023 24754
" />
<path d="M35023 24754
L32663 24754
" />
</g>
<g style="fill:#008484; fill-opacity:1.0; 
stroke:#008484; stroke-width:0; stroke-opacity:1; 
stroke-linecap:round; stroke-linejoin:round;">
<path style="fill:#008484; fill-opacity:1.0; 
stroke:#008484; stroke-width:0; stroke-opacity:1; 
stroke-linecap:round; stroke-linejoin:round;fill-rule:evenodd;"
d="M 35363.2,23634.6
35363.2,23294.6
35063.2,23294.6
35063.2,23634.6
" /> 
</g>
<g style="fill:#008484; fill-opacity:1.0; 
stroke:#008484; stroke-width:80; stroke-opacity:1; 
stroke-linecap:round; stroke-linejoin:round;">
</g>
<g style="fill:#008484; fill-opacity:0.0; 
stroke:#008484; stroke-width:80; stroke-opacity:1; 
stroke-linecap:round; stroke-linejoin:round;">
<path d="M34511 21123
L34511 20373
" />
</g>
<g style="fill:#008484; fill-opacity:0.0; 
stroke:#008484; stroke-width:50; stroke-opacity:1; 
stroke-linecap:round; stroke-linejoin:round;">
<path d="M39909 23031
L39909 27165
" />
<path d="M39909 27165
L38531 27165
" />
<path d="M38531 27165
L38531 23031
" />
<path d="M38531 23031
L39909 23031
" />
<path d="M50444 27165
L49066 27165
" />
<path d="M50444 23031
L50444 27165
" />
<path d="M49066 23031
L50444 23031
" />
<path d="M49066 27165
L49066 23031
" />
</g>
<g style="fill:#008484; fill-opacity:0.0; 
stroke:#008484; stroke-width:59.0551; stroke-opacity:1; 
stroke-linecap:round; stroke-linejoin:round;">
<g transform="rotate(-90 51023.6 20078.7)">
<text x="51023.6" y="20275.6"
textLength="2115.2" font-size="524.934" lengthAdjust="spacingAndGlyphs"
text-anchor="middle" opacity="0">POGO1</text>
</g>
<path d="M51201 20978
L50808 20978
L50808 20828
L50826 20791
L50845 20772
L50883 20753
L50939 20753
L50976 20772
L50995 20791
L51014 20828
L51014 20978
" />
<path d="M50808 20509
L50808 20434
L50826 20397
L50864 20359
L50939 20341
L51070 20341
L51145 20359
L51182 20397
L51201 20434
L51201 20509
L51182 20547
L51145 20584
L51070 20603
L50939 20603
L50864 20584
L50826 20547
L50808 20509
" />
<path d="M50826 19966
L50808 20003
L50808 20059
L50826 20116
L50864 20153
L50901 20172
L50976 20191
L51032 20191
L51107 20172
L51145 20153
L51182 20116
L51201 20059
L51201 20022
L51182 19966
L51164 19947
L51032 19947
L51032 20022
" />
<path d="M50808 19703
L50808 19628
L50826 19591
L50864 19553
L50939 19535
L51070 19535
L51145 19553
L51182 19591
L51201 19628
L51201 19703
L51182 19741
L51145 19778
L51070 19797
L50939 19797
L50864 19778
L50826 19741
L50808 19703
" />
<path d="M51201 19160
L51201 19385
" />
<path d="M51201 19272
L50808 19272
L50864 19310
L50901 19347
L50920 19385
" />
<g transform="rotate(-90 50984.3 30590.6)">
<text x="50984.3" y="30787.4"
textLength="2064.02" font-size="524.934" lengthAdjust="spacingAndGlyphs"
text-anchor="middle" opacity="0">POGO2</text>
</g>
<path d="M51162 31490
L50768 31490
L50768 31340
L50787 31302
L50806 31284
L50843 31265
L50899 31265
L50937 31284
L50956 31302
L50974 31340
L50974 31490
" />
<path d="M50768 31021
L50768 30946
L50787 30909
L50824 30871
L50899 30853
L51031 30853
L51106 30871
L51143 30909
L51162 30946
L51162 31021
L51143 31059
L51106 31096
L51031 31115
L50899 31115
L50824 31096
L50787 31059
L50768 31021
" />
<path d="M50787 30478
L50768 30515
L50768 30571
L50787 30628
L50824 30665
L50862 30684
L50937 30703
L50993 30703
L51068 30684
L51106 30665
L51143 30628
L51162 30571
L51162 30534
L51143 30478
L51124 30459
L50993 30459
L50993 30534
" />
<path d="M50768 30215
L50768 30140
L50787 30103
L50824 30065
L50899 30046
L51031 30046
L51106 30065
L51143 30103
L51162 30140
L51162 30215
L51143 30253
L51106 30290
L51031 30309
L50899 30309
L50824 30290
L50787 30253
L50768 30215
" />
<path d="M50806 29896
L50787 29878
L50768 29840
L50768 29746
L50787 29709
L50806 29690
L50843 29671
L50881 29671
L50937 29690
L51162 29915
L51162 29671
" />
</g>
<g style="fill:#008484; fill-opacity:0.0; 
stroke:#008484; stroke-width:47.5; stroke-opacity:1; 
stroke-linecap:round; stroke-linejoin:round;">
<g transform="rotate(-90 38228.3 29055.1)">
<text x="38228.3" y="29055.1"
textLength="2071.52" font-size="419.947" lengthAdjust="spacingAndGlyphs"
text-anchor="start" opacity="0">TP_OUT2</text>
</g>
<path d="M37898 28994
L37898 28814
" />
<path d="M38213 28904
L37898 28904
" />
<path d="M38213 28709
L37898 28709
L37898 28589
L37913 28559
L37928 28544
L37958 28529
L38003 28529
L38033 28544
L38048 28559
L38063 28589
L38063 28709
" />
<path d="M38243 28469
L38243 28229
" />
<path d="M37898 28094
L37898 28034
L37913 28004
L37943 27974
L38003 27959
L38108 27959
L38168 27974
L38198 28004
L38213 28034
L38213 28094
L38198 28124
L38168 28154
L38108 28169
L38003 28169
L37943 28154
L37913 28124
L37898 28094
" />
<path d="M37898 27824
L38153 27824
L38183 27809
L38198 27794
L38213 27764
L38213 27704
L38198 27674
L38183 27659
L38153 27644
L37898 27644
" />
<path d="M37898 27539
L37898 27359
" />
<path d="M38213 27449
L37898 27449
" />
<path d="M37928 27269
L37913 27254
L37898 27224
L37898 27149
L37913 27119
L37928 27104
L37958 27089
L37988 27089
L38033 27104
L38213 27284
L38213 27089
" />
<text x="40748" y="23149.6"
textLength="2056.5" font-size="419.947" lengthAdjust="spacingAndGlyphs"
text-anchor="start" opacity="0">TP_OUT1</text>
<path d="M40808 22819
L40988 22819
" />
<path d="M40898 23134
L40898 22819
" />
<path d="M41093 23134
L41093 22819
L41213 22819
L41243 22834
L41258 22849
L41273 22879
L41273 22924
L41258 22954
L41243 22969
L41213 22984
L41093 22984
" />
<path d="M41333 23164
L41573 23164
" />
<path d="M41708 22819
L41768 22819
L41798 22834
L41828 22864
L41843 22924
L41843 23029
L41828 23089
L41798 23119
L41768 23134
L41708 23134
L41678 23119
L41648 23089
L41633 23029
L41633 22924
L41648 22864
L41678 22834
L41708 22819
" />
<path d="M41978 22819
L41978 23074
L41993 23104
L42008 23119
L42038 23134
L42098 23134
L42128 23119
L42143 23104
L42158 23074
L42158 22819
" />
<path d="M42263 22819
L42443 22819
" />
<path d="M42353 23134
L42353 22819
" />
<path d="M42713 23134
L42533 23134
" />
<path d="M42623 23134
L42623 22819
L42593 22864
L42563 22894
L42533 22909
" />
<g transform="rotate(-90 32322.8 28582.7)">
<text x="32322.8" y="28582.7"
textLength="2116.49" font-size="419.947" lengthAdjust="spacingAndGlyphs"
text-anchor="start" opacity="0">TP_GND1</text>
</g>
<path d="M31992 28521
L31992 28341
" />
<path d="M32307 28431
L31992 28431
" />
<path d="M32307 28236
L31992 28236
L31992 28116
L32007 28086
L32022 28071
L32052 28056
L32097 28056
L32127 28071
L32142 28086
L32157 28116
L32157 28236
" />
<path d="M32337 27996
L32337 27756
" />
<path d="M32007 27516
L31992 27546
L31992 27591
L32007 27636
L32037 27666
L32067 27681
L32127 27696
L32172 27696
L32232 27681
L32262 27666
L32292 27636
L32307 27591
L32307 27561
L32292 27516
L32277 27501
L32172 27501
L32172 27561
" />
<path d="M32307 27366
L31992 27366
L32307 27186
L31992 27186
" />
<path d="M32307 27036
L31992 27036
L31992 26962
L32007 26917
L32037 26887
L32067 26872
L32127 26857
L32172 26857
L32232 26872
L32262 26887
L32292 26917
L32307 26962
L32307 27036
" />
<path d="M32307 26557
L32307 26737
" />
<path d="M32307 26647
L31992 26647
L32037 26677
L32067 26707
L32082 26737
" />
<text x="35196.9" y="30866.1"
textLength="1891.52" font-size="419.947" lengthAdjust="spacingAndGlyphs"
text-anchor="start" opacity="0">TP_DIV1</text>
<path d="M35257 30536
L35437 30536
" />
<path d="M35347 30851
L35347 30536
" />
<path d="M35542 30851
L35542 30536
L35662 30536
L35692 30551
L35707 30566
L35722 30596
L35722 30641
L35707 30671
L35692 30686
L35662 30701
L35542 30701
" />
<path d="M35782 30881
L36022 30881
" />
<path d="M36097 30851
L36097 30536
L36172 30536
L36217 30551
L36247 30581
L36262 30611
L36277 30671
L36277 30716
L36262 30776
L36247 30806
L36217 30836
L36172 30851
L36097 30851
" />
<path d="M36412 30851
L36412 30536
" />
<path d="M36517 30536
L36622 30851
L36727 30536
" />
<path d="M36997 30851
L36817 30851
" />
<path d="M36907 30851
L36907 30536
L36877 30581
L36847 30611
L36817 30626
" />
</g>
<g style="fill:#008484; fill-opacity:0.0; 
stroke:#008484; stroke-width:59.0551; stroke-opacity:1; 
stroke-linecap:round; stroke-linejoin:round;">
<text x="53897.6" y="22086.6"
textLength="2105.24" font-size="524.934" lengthAdjust="spacingAndGlyphs"
text-anchor="middle" opacity="0">J_LED4</text>
<path d="M53082 21674
L53082 21955
L53063 22011
L53025 22049
L52969 22067
L52932 22067
" />
<path d="M53175 22105
L53475 22105
" />
<path d="M53757 22067
L53569 22067
L53569 21674
" />
<path d="M53888 21861
L54019 21861
" />
<path d="M54075 22067
L53888 22067
L53888 21674
L54075 21674
" />
<path d="M54244 22067
L54244 21674
L54338 21674
L54394 21692
L54431 21730
L54450 21767
L54469 21842
L54469 21899
L54450 21974
L54431 22011
L54394 22049
L54338 22067
L54244 22067
" />
<path d="M54806 21805
L54806 22067
" />
<path d="M54713 21655
L54619 21936
L54863 21936
" />
<g transform="rotate(-90 55511.8 24173.2)">
<text x="55511.8" y="24370.1"
textLength="2120.27" font-size="524.934" lengthAdjust="spacingAndGlyphs"
text-anchor="middle" opacity="0">J_LED3</text>
</g>
<path d="M55296 24988
L55577 24988
L55633 25007
L55671 25044
L55689 25101
L55689 25138
" />
<path d="M55727 24895
L55727 24595
" />
<path d="M55689 24313
L55689 24501
L55296 24501
" />
<path d="M55483 24182
L55483 24051
" />
<path d="M55689 23995
L55689 24182
L55296 24182
L55296 23995
" />
<path d="M55689 23826
L55296 23826
L55296 23732
L55314 23676
L55352 23638
L55389 23620
L55464 23601
L55521 23601
L55596 23620
L55633 23638
L55671 23676
L55689 23732
L55689 23826
" />
<path d="M55296 23470
L55296 23226
L55446 23357
L55446 23301
L55464 23263
L55483 23245
L55521 23226
L55614 23226
L55652 23245
L55671 23263
L55689 23301
L55689 23413
L55671 23451
L55652 23470
" />
<g transform="rotate(-90 55511.8 26417.3)">
<text x="55511.8" y="26614.2"
textLength="2120.27" font-size="524.934" lengthAdjust="spacingAndGlyphs"
text-anchor="middle" opacity="0">J_LED2</text>
</g>
<path d="M55296 27232
L55577 27232
L55633 27251
L55671 27289
L55689 27345
L55689 27382
" />
<path d="M55727 27139
L55727 26839
" />
<path d="M55689 26557
L55689 26745
L55296 26745
" />
<path d="M55483 26426
L55483 26295
" />
<path d="M55689 26239
L55689 26426
L55296 26426
L55296 26239
" />
<path d="M55689 26070
L55296 26070
L55296 25976
L55314 25920
L55352 25883
L55389 25864
L55464 25845
L55521 25845
L55596 25864
L55633 25883
L55671 25920
L55689 25976
L55689 26070
" />
<path d="M55333 25695
L55314 25676
L55296 25639
L55296 25545
L55314 25508
L55333 25489
L55371 25470
L55408 25470
L55464 25489
L55689 25714
L55689 25470
" />
<text x="53858.3" y="28976.4"
textLength="2120.27" font-size="524.934" lengthAdjust="spacingAndGlyphs"
text-anchor="middle" opacity="0">J_LED1</text>
<path d="M53042 28563
L53042 28845
L53023 28901
L52986 28938
L52930 28957
L52892 28957
" />
<path d="M53136 28995
L53436 28995
" />
<path d="M53717 28957
L53530 28957
L53530 28563
" />
<path d="M53848 28751
L53980 28751
" />
<path d="M54036 28957
L53848 28957
L53848 28563
L54036 28563
" />
<path d="M54205 28957
L54205 28563
L54298 28563
L54355 28582
L54392 28620
L54411 28657
L54430 28732
L54430 28788
L54411 28863
L54392 28901
L54355 28938
L54298 28957
L54205 28957
" />
<path d="M54805 28957
L54580 28957
" />
<path d="M54692 28957
L54692 28563
L54655 28620
L54617 28657
L54580 28676
" />
</g>
<g style="fill:#008484; fill-opacity:0.0; 
stroke:#008484; stroke-width:45.6; stroke-opacity:1; 
stroke-linecap:round; stroke-linejoin:round;">
<text x="51771.7" y="22652.8"
textLength="1314.49" font-size="304" lengthAdjust="spacingAndGlyphs"
text-anchor="middle" opacity="0">R_LED4</text>
<path d="M51337 22641
L51261 22533
" />
<path d="M51207 22641
L51207 22413
L51293 22413
L51315 22424
L51326 22435
L51337 22457
L51337 22489
L51326 22511
L51315 22522
L51293 22533
L51207 22533
" />
<path d="M51380 22663
L51554 22663
" />
<path d="M51717 22641
L51608 22641
L51608 22413
" />
<path d="M51793 22522
L51869 22522
" />
<path d="M51901 22641
L51793 22641
L51793 22413
L51901 22413
" />
<path d="M51999 22641
L51999 22413
L52053 22413
L52086 22424
L52108 22446
L52119 22468
L52129 22511
L52129 22544
L52119 22587
L52108 22609
L52086 22631
L52053 22641
L51999 22641
" />
<path d="M52325 22489
L52325 22641
" />
<path d="M52271 22403
L52216 22565
L52357 22565
" />
<text x="51791.3" y="24212.6"
textLength="1296.99" font-size="304" lengthAdjust="spacingAndGlyphs"
text-anchor="middle" opacity="0">R_LED3</text>
<path d="M51357 24201
L51281 24093
" />
<path d="M51226 24201
L51226 23973
L51313 23973
L51335 23984
L51346 23995
L51357 24017
L51357 24049
L51346 24071
L51335 24082
L51313 24093
L51226 24093
" />
<path d="M51400 24223
L51574 24223
" />
<path d="M51737 24201
L51628 24201
L51628 23973
" />
<path d="M51813 24082
L51889 24082
" />
<path d="M51921 24201
L51813 24201
L51813 23973
L51921 23973
" />
<path d="M52019 24201
L52019 23973
L52073 23973
L52106 23984
L52127 24006
L52138 24028
L52149 24071
L52149 24104
L52138 24147
L52127 24169
L52106 24190
L52073 24201
L52019 24201
" />
<path d="M52225 23973
L52366 23973
L52290 24060
L52323 24060
L52345 24071
L52355 24082
L52366 24104
L52366 24158
L52355 24180
L52345 24190
L52323 24201
L52258 24201
L52236 24190
L52225 24180
" />
<text x="51771.7" y="25826.8"
textLength="1296.99" font-size="304" lengthAdjust="spacingAndGlyphs"
text-anchor="middle" opacity="0">R_LED2</text>
<path d="M51337 25815
L51261 25707
" />
<path d="M51207 25815
L51207 25587
L51293 25587
L51315 25598
L51326 25609
L51337 25631
L51337 25663
L51326 25685
L51315 25696
L51293 25707
L51207 25707
" />
<path d="M51380 25837
L51554 25837
" />
<path d="M51717 25815
L51608 25815
L51608 25587
" />
<path d="M51793 25696
L51869 25696
" />
<path d="M51901 25815
L51793 25815
L51793 25587
L51901 25587
" />
<path d="M51999 25815
L51999 25587
L52053 25587
L52086 25598
L52108 25620
L52119 25642
L52129 25685
L52129 25718
L52119 25761
L52108 25783
L52086 25805
L52053 25815
L51999 25815
" />
<path d="M52216 25609
L52227 25598
L52249 25587
L52303 25587
L52325 25598
L52336 25609
L52347 25631
L52347 25653
L52336 25685
L52205 25815
L52347 25815
" />
<g transform="rotate(-90 51826 28110.2)">
<text x="51826" y="28110.2"
textLength="1296.99" font-size="304" lengthAdjust="spacingAndGlyphs"
text-anchor="middle" opacity="0">R_LED1</text>
</g>
<path d="M51815 28544
L51706 28620
" />
<path d="M51815 28674
L51587 28674
L51587 28587
L51597 28566
L51608 28555
L51630 28544
L51663 28544
L51684 28555
L51695 28566
L51706 28587
L51706 28674
" />
<path d="M51836 28501
L51836 28327
" />
<path d="M51815 28164
L51815 28273
L51587 28273
" />
<path d="M51695 28088
L51695 28012
" />
<path d="M51815 27979
L51815 28088
L51587 28088
L51587 27979
" />
<path d="M51815 27882
L51587 27882
L51587 27827
L51597 27795
L51619 27773
L51641 27762
L51684 27751
L51717 27751
L51760 27762
L51782 27773
L51804 27795
L51815 27827
L51815 27882
" />
<path d="M51815 27534
L51815 27665
" />
<path d="M51815 27599
L51587 27599
L51619 27621
L51641 27643
L51652 27665
" />
</g>
<g style="fill:#008484; fill-opacity:0.0; 
stroke:#008484; stroke-width:47.5; stroke-opacity:1; 
stroke-linecap:round; stroke-linejoin:round;">
<text x="48346.5" y="22086.6"
textLength="3067.61" font-size="633.333" lengthAdjust="spacingAndGlyphs"
text-anchor="start" opacity="0">TP_OUT4</text>
<path d="M48422 21588
L48693 21588
" />
<path d="M48558 22063
L48558 21588
" />
<path d="M48852 22063
L48852 21588
L49033 21588
L49078 21611
L49101 21634
L49123 21679
L49123 21747
L49101 21792
L49078 21815
L49033 21837
L48852 21837
" />
<path d="M49214 22109
L49576 22109
" />
<path d="M49779 21588
L49870 21588
L49915 21611
L49960 21656
L49983 21747
L49983 21905
L49960 21996
L49915 22041
L49870 22063
L49779 22063
L49734 22041
L49689 21996
L49666 21905
L49666 21747
L49689 21656
L49734 21611
L49779 21588
" />
<path d="M50186 21588
L50186 21973
L50209 22018
L50232 22041
L50277 22063
L50367 22063
L50413 22041
L50435 22018
L50458 21973
L50458 21588
" />
<path d="M50616 21588
L50888 21588
" />
<path d="M50752 22063
L50752 21588
" />
<path d="M51249 21747
L51249 22063
" />
<path d="M51136 21566
L51023 21905
L51317 21905
" />
<text x="47322.8" y="27913.4"
textLength="2056.5" font-size="419.947" lengthAdjust="spacingAndGlyphs"
text-anchor="start" opacity="0">TP_OUT3</text>
<path d="M47383 27583
L47563 27583
" />
<path d="M47473 27898
L47473 27583
" />
<path d="M47668 27898
L47668 27583
L47788 27583
L47818 27598
L47833 27613
L47848 27643
L47848 27688
L47833 27718
L47818 27733
L47788 27748
L47668 27748
" />
<path d="M47908 27928
L48148 27928
" />
<path d="M48283 27583
L48343 27583
L48373 27598
L48403 27628
L48418 27688
L48418 27793
L48403 27853
L48373 27883
L48343 27898
L48283 27898
L48253 27883
L48223 27853
L48208 27793
L48208 27688
L48223 27628
L48253 27598
L48283 27583
" />
<path d="M48553 27583
L48553 27838
L48568 27868
L48583 27883
L48613 27898
L48673 27898
L48703 27883
L48718 27868
L48733 27838
L48733 27583
" />
<path d="M48838 27583
L49018 27583
" />
<path d="M48928 27898
L48928 27583
" />
<path d="M49093 27583
L49288 27583
L49183 27703
L49228 27703
L49258 27718
L49273 27733
L49288 27763
L49288 27838
L49273 27868
L49258 27883
L49228 27898
L49138 27898
L49108 27883
L49093 27868
" />
<g transform="rotate(-90 37346.5 26334.6)">
<text x="37346.5" y="26334.6"
textLength="1981.51" font-size="419.947" lengthAdjust="spacingAndGlyphs"
text-anchor="start" opacity="0">TP_BAT1</text>
</g>
<path d="M37016 26273
L37016 26093
" />
<path d="M37331 26183
L37016 26183
" />
<path d="M37331 25988
L37016 25988
L37016 25868
L37031 25838
L37046 25823
L37076 25808
L37121 25808
L37151 25823
L37166 25838
L37181 25868
L37181 25988
" />
<path d="M37361 25748
L37361 25508
" />
<path d="M37166 25328
L37181 25283
L37196 25268
L37226 25253
L37271 25253
L37301 25268
L37316 25283
L37331 25313
L37331 25433
L37016 25433
L37016 25328
L37031 25298
L37046 25283
L37076 25268
L37106 25268
L37136 25283
L37151 25298
L37166 25328
L37166 25433
" />
<path d="M37241 25133
L37241 24983
" />
<path d="M37331 25163
L37016 25058
L37331 24953
" />
<path d="M37016 24893
L37016 24713
" />
<path d="M37331 24803
L37016 24803
" />
<path d="M37331 24444
L37331 24623
" />
<path d="M37331 24533
L37016 24533
L37061 24563
L37091 24593
L37106 24623
" />
<g transform="rotate(-90 37362.2 21338.6)">
<text x="37362.2" y="21338.6"
textLength="1726.54" font-size="419.947" lengthAdjust="spacingAndGlyphs"
text-anchor="start" opacity="0">TP_5V1</text>
</g>
<path d="M37032 21277
L37032 21097
" />
<path d="M37347 21187
L37032 21187
" />
<path d="M37347 20992
L37032 20992
L37032 20872
L37047 20842
L37062 20827
L37092 20812
L37137 20812
L37167 20827
L37182 20842
L37197 20872
L37197 20992
" />
<path d="M37377 20752
L37377 20512
" />
<path d="M37032 20287
L37032 20437
L37182 20452
L37167 20437
L37152 20407
L37152 20332
L37167 20302
L37182 20287
L37212 20272
L37287 20272
L37317 20287
L37332 20302
L37347 20332
L37347 20407
L37332 20437
L37317 20452
" />
<path d="M37032 20182
L37347 20077
L37032 19972
" />
<path d="M37347 19702
L37347 19882
" />
<path d="M37347 19792
L37032 19792
L37077 19822
L37107 19852
L37122 19882
" />
</g>
<g style="fill:#008484; fill-opacity:0.0; 
stroke:#008484; stroke-width:45.6; stroke-opacity:1; 
stroke-linecap:round; stroke-linejoin:round;">
<text x="35905.5" y="29252"
textLength="1212.61" font-size="304" lengthAdjust="spacingAndGlyphs"
text-anchor="middle" opacity="0">R_DIV2</text>
<path d="M35514 29241
L35438 29132
" />
<path d="M35384 29241
L35384 29013
L35471 29013
L35492 29023
L35503 29034
L35514 29056
L35514 29089
L35503 29110
L35492 29121
L35471 29132
L35384 29132
" />
<path d="M35558 29262
L35731 29262
" />
<path d="M35786 29241
L35786 29013
L35840 29013
L35872 29023
L35894 29045
L35905 29067
L35916 29110
L35916 29143
L35905 29186
L35894 29208
L35872 29230
L35840 29241
L35786 29241
" />
<path d="M36014 29241
L36014 29013
" />
<path d="M36090 29013
L36166 29241
L36242 29013
" />
<path d="M36307 29034
L36318 29023
L36339 29013
L36394 29013
L36415 29023
L36426 29034
L36437 29056
L36437 29078
L36426 29110
L36296 29241
L36437 29241
" />
<g transform="rotate(-90 36834.6 29263.8)">
<text x="36834.6" y="29263.8"
textLength="1210.14" font-size="304" lengthAdjust="spacingAndGlyphs"
text-anchor="middle" opacity="0">R_DIV1</text>
</g>
<path d="M36823 29654
L36715 29730
" />
<path d="M36823 29784
L36595 29784
L36595 29698
L36606 29676
L36617 29665
L36639 29654
L36671 29654
L36693 29665
L36704 29676
L36715 29698
L36715 29784
" />
<path d="M36845 29611
L36845 29437
" />
<path d="M36823 29383
L36595 29383
L36595 29328
L36606 29296
L36628 29274
L36650 29263
L36693 29252
L36726 29252
L36769 29263
L36791 29274
L36812 29296
L36823 29328
L36823 29383
" />
<path d="M36823 29155
L36595 29155
" />
<path d="M36595 29079
L36823 29003
L36595 28927
" />
<path d="M36823 28731
L36823 28862
" />
<path d="M36823 28796
L36595 28796
L36628 28818
L36650 28840
L36660 28862
" />
<text x="33385.8" y="20315"
textLength="1742.14" font-size="304" lengthAdjust="spacingAndGlyphs"
text-anchor="middle" opacity="0">R_D_REG1</text>
<path d="M32728 20304
L32652 20195
" />
<path d="M32598 20304
L32598 20076
L32685 20076
L32707 20086
L32718 20097
L32728 20119
L32728 20152
L32718 20173
L32707 20184
L32685 20195
L32598 20195
" />
<path d="M32772 20325
L32946 20325
" />
<path d="M33000 20304
L33000 20076
L33054 20076
L33087 20086
L33108 20108
L33119 20130
L33130 20173
L33130 20206
L33119 20249
L33108 20271
L33087 20293
L33054 20304
L33000 20304
" />
<path d="M33174 20325
L33347 20325
" />
<path d="M33532 20304
L33456 20195
" />
<path d="M33402 20304
L33402 20076
L33488 20076
L33510 20086
L33521 20097
L33532 20119
L33532 20152
L33521 20173
L33510 20184
L33488 20195
L33402 20195
" />
<path d="M33630 20184
L33706 20184
" />
<path d="M33738 20304
L33630 20304
L33630 20076
L33738 20076
" />
<path d="M33955 20086
L33934 20076
L33901 20076
L33868 20086
L33847 20108
L33836 20130
L33825 20173
L33825 20206
L33836 20249
L33847 20271
L33868 20293
L33901 20304
L33923 20304
L33955 20293
L33966 20282
L33966 20206
L33923 20206
" />
<path d="M34183 20304
L34053 20304
" />
<path d="M34118 20304
L34118 20076
L34096 20108
L34075 20130
L34053 20141
" />
</g>
<g style="fill:#008484; fill-opacity:0.0; 
stroke:#008484; stroke-width:59.0551; stroke-opacity:1; 
stroke-linecap:round; stroke-linejoin:round;">
<text x="33228.3" y="29606.3"
textLength="734.196" font-size="524.934" lengthAdjust="spacingAndGlyphs"
text-anchor="middle" opacity="0">J1</text>
<path d="M33097 29193
L33097 29475
L33078 29531
L33040 29568
L32984 29587
L32947 29587
" />
<path d="M33490 29587
L33265 29587
" />
<path d="M33378 29587
L33378 29193
L33340 29250
L33303 29287
L33265 29306
" />
</g>
<g style="fill:#008484; fill-opacity:0.0; 
stroke:#008484; stroke-width:38; stroke-opacity:1; 
stroke-linecap:round; stroke-linejoin:round;">
<text x="33228.3" y="25393.7"
textLength="1230.34" font-size="633.333" lengthAdjust="spacingAndGlyphs"
text-anchor="end" opacity="0">IC2</text>
<path d="M32163 25371
L32163 24896
" />
<path d="M32660 25325
L32638 25348
L32570 25371
L32525 25371
L32457 25348
L32411 25303
L32389 25257
L32366 25167
L32366 25099
L32389 25009
L32411 24963
L32457 24918
L32525 24896
L32570 24896
L32638 24918
L32660 24941
" />
<path d="M32841 24941
L32864 24918
L32909 24896
L33022 24896
L33067 24918
L33090 24941
L33113 24986
L33113 25031
L33090 25099
L32819 25371
L33113 25371
" />
</g>
<g style="fill:#008484; fill-opacity:0.0; 
stroke:#008484; stroke-width:45.6; stroke-opacity:1; 
stroke-linecap:round; stroke-linejoin:round;">
<text x="35551.2" y="20196.9"
textLength="1330.54" font-size="304" lengthAdjust="spacingAndGlyphs"
text-anchor="middle" opacity="0">D_REG1</text>
<path d="M34964 20185
L34964 19957
L35019 19957
L35051 19968
L35073 19990
L35084 20012
L35095 20055
L35095 20088
L35084 20131
L35073 20153
L35051 20175
L35019 20185
L34964 20185
" />
<path d="M35138 20207
L35312 20207
" />
<path d="M35496 20185
L35420 20077
" />
<path d="M35366 20185
L35366 19957
L35453 19957
L35475 19968
L35486 19979
L35496 20001
L35496 20033
L35486 20055
L35475 20066
L35453 20077
L35366 20077
" />
<path d="M35594 20066
L35670 20066
" />
<path d="M35703 20185
L35594 20185
L35594 19957
L35703 19957
" />
<path d="M35920 19968
L35898 19957
L35866 19957
L35833 19968
L35811 19990
L35800 20012
L35790 20055
L35790 20088
L35800 20131
L35811 20153
L35833 20175
L35866 20185
L35887 20185
L35920 20175
L35931 20164
L35931 20088
L35887 20088
" />
<path d="M36148 20185
L36018 20185
" />
<path d="M36083 20185
L36083 19957
L36061 19990
L36039 20012
L36018 20023
" />
</g>
<g style="fill:#008484; fill-opacity:0.0; 
stroke:#008484; stroke-width:38; stroke-opacity:1; 
stroke-linecap:round; stroke-linejoin:round;">
<g transform="rotate(-90 38385.8 24015.7)">
<text x="38385.8" y="24015.7"
textLength="4583.09" font-size="633.333" lengthAdjust="spacingAndGlyphs"
text-anchor="middle" opacity="0">CON_MOT_G1</text>
</g>
<path d="M38317 25893
L38340 25915
L38363 25983
L38363 26028
L38340 26096
L38295 26141
L38250 26164
L38159 26187
L38091 26187
L38001 26164
L37956 26141
L37910 26096
L37888 26028
L37888 25983
L37910 25915
L37933 25893
" />
<path d="M37888 25599
L37888 25508
L37910 25463
L37956 25418
L38046 25395
L38204 25395
L38295 25418
L38340 25463
L38363 25508
L38363 25599
L38340 25644
L38295 25689
L38204 25712
L38046 25712
L37956 25689
L37910 25644
L37888 25599
" />
<path d="M38363 25191
L37888 25191
L38363 24920
L37888 24920
" />
<path d="M38408 24807
L38408 24445
" />
<path d="M38363 24332
L37888 24332
L38227 24174
L37888 24015
L38363 24015
" />
<path d="M37888 23699
L37888 23608
L37910 23563
L37956 23518
L38046 23495
L38204 23495
L38295 23518
L38340 23563
L38363 23608
L38363 23699
L38340 23744
L38295 23789
L38204 23812
L38046 23812
L37956 23789
L37910 23744
L37888 23699
" />
<path d="M37888 23359
L37888 23088
" />
<path d="M38363 23224
L37888 23224
" />
<path d="M38408 23043
L38408 22681
" />
<path d="M37910 22319
L37888 22364
L37888 22432
L37910 22500
L37956 22545
L38001 22568
L38091 22590
L38159 22590
L38250 22568
L38295 22545
L38340 22500
L38363 22432
L38363 22387
L38340 22319
L38317 22296
L38159 22296
L38159 22387
" />
<path d="M38363 21844
L38363 22115
" />
<path d="M38363 21980
L37888 21980
L37956 22025
L38001 22070
L38023 22115
" />
</g>
<g style="fill:#008484; fill-opacity:0.0; 
stroke:#008484; stroke-width:45.6; stroke-opacity:1; 
stroke-linecap:round; stroke-linejoin:round;">
<text x="34744.1" y="21992.9"
textLength="2155.69" font-size="304" lengthAdjust="spacingAndGlyphs"
text-anchor="middle" opacity="0">C_OUT_REG1</text>
<path d="M33875 21960
L33864 21971
L33832 21982
L33810 21982
L33777 21971
L33756 21949
L33745 21927
L33734 21884
L33734 21851
L33745 21808
L33756 21786
L33777 21764
L33810 21754
L33832 21754
L33864 21764
L33875 21775
" />
<path d="M33918 22003
L34092 22003
" />
<path d="M34190 21754
L34233 21754
L34255 21764
L34277 21786
L34288 21830
L34288 21906
L34277 21949
L34255 21971
L34233 21982
L34190 21982
L34168 21971
L34146 21949
L34136 21906
L34136 21830
L34146 21786
L34168 21764
L34190 21754
" />
<path d="M34385 21754
L34385 21938
L34396 21960
L34407 21971
L34429 21982
L34472 21982
L34494 21971
L34505 21960
L34516 21938
L34516 21754
" />
<path d="M34592 21754
L34722 21754
" />
<path d="M34657 21982
L34657 21754
" />
<path d="M34744 22003
L34917 22003
" />
<path d="M35102 21982
L35026 21873
" />
<path d="M34972 21982
L34972 21754
L35058 21754
L35080 21764
L35091 21775
L35102 21797
L35102 21830
L35091 21851
L35080 21862
L35058 21873
L34972 21873
" />
<path d="M35200 21862
L35276 21862
" />
<path d="M35308 21982
L35200 21982
L35200 21754
L35308 21754
" />
<path d="M35525 21764
L35504 21754
L35471 21754
L35438 21764
L35417 21786
L35406 21808
L35395 21851
L35395 21884
L35406 21927
L35417 21949
L35438 21971
L35471 21982
L35493 21982
L35525 21971
L35536 21960
L35536 21884
L35493 21884
" />
<path d="M35753 21982
L35623 21982
" />
<path d="M35688 21982
L35688 21754
L35666 21786
L35645 21808
L35623 21819
" />
<g transform="rotate(-90 47755.9 24252)">
<text x="47755.9" y="24252"
textLength="1329.57" font-size="304" lengthAdjust="spacingAndGlyphs"
text-anchor="middle" opacity="0">C_OUT4</text>
</g>
<path d="M47723 24702
L47734 24713
L47745 24745
L47745 24767
L47734 24800
L47712 24821
L47690 24832
L47647 24843
L47614 24843
L47571 24832
L47549 24821
L47527 24800
L47517 24767
L47517 24745
L47527 24713
L47538 24702
" />
<path d="M47766 24659
L47766 24485
" />
<path d="M47517 24387
L47517 24344
L47527 24322
L47549 24300
L47593 24289
L47669 24289
L47712 24300
L47734 24322
L47745 24344
L47745 24387
L47734 24409
L47712 24431
L47669 24441
L47593 24441
L47549 24431
L47527 24409
L47517 24387
" />
<path d="M47517 24192
L47701 24192
L47723 24181
L47734 24170
L47745 24148
L47745 24105
L47734 24083
L47723 24072
L47701 24061
L47517 24061
" />
<path d="M47517 23985
L47517 23855
" />
<path d="M47745 23920
L47517 23920
" />
<path d="M47593 23681
L47745 23681
" />
<path d="M47506 23736
L47669 23790
L47669 23649
" />
<g transform="rotate(-90 47795.3 26141.7)">
<text x="47795.3" y="26141.7"
textLength="1329.57" font-size="304" lengthAdjust="spacingAndGlyphs"
text-anchor="middle" opacity="0">C_OUT3</text>
</g>
<path d="M47762 26592
L47773 26603
L47784 26635
L47784 26657
L47773 26690
L47751 26711
L47730 26722
L47686 26733
L47654 26733
L47610 26722
L47588 26711
L47567 26690
L47556 26657
L47556 26635
L47567 26603
L47578 26592
" />
<path d="M47806 26548
L47806 26375
" />
<path d="M47556 26277
L47556 26234
L47567 26212
L47588 26190
L47632 26179
L47708 26179
L47751 26190
L47773 26212
L47784 26234
L47784 26277
L47773 26299
L47751 26320
L47708 26331
L47632 26331
L47588 26320
L47567 26299
L47556 26277
" />
<path d="M47556 26082
L47740 26082
L47762 26071
L47773 26060
L47784 26038
L47784 25995
L47773 25973
L47762 25962
L47740 25951
L47556 25951
" />
<path d="M47556 25875
L47556 25745
" />
<path d="M47784 25810
L47556 25810
" />
<path d="M47556 25691
L47556 25550
L47643 25626
L47643 25593
L47654 25571
L47664 25560
L47686 25550
L47740 25550
L47762 25560
L47773 25571
L47784 25593
L47784 25658
L47773 25680
L47762 25691
" />
<g transform="rotate(-90 41023.6 26023.6)">
<text x="41023.6" y="26023.6"
textLength="1329.57" font-size="304" lengthAdjust="spacingAndGlyphs"
text-anchor="middle" opacity="0">C_OUT2</text>
</g>
<path d="M40991 26474
L41001 26485
L41012 26517
L41012 26539
L41001 26571
L40980 26593
L40958 26604
L40915 26615
L40882 26615
L40839 26604
L40817 26593
L40795 26571
L40784 26539
L40784 26517
L40795 26485
L40806 26474
" />
<path d="M41034 26430
L41034 26257
" />
<path d="M40784 26159
L40784 26115
L40795 26094
L40817 26072
L40860 26061
L40936 26061
L40980 26072
L41001 26094
L41012 26115
L41012 26159
L41001 26181
L40980 26202
L40936 26213
L40860 26213
L40817 26202
L40795 26181
L40784 26159
" />
<path d="M40784 25963
L40969 25963
L40991 25953
L41001 25942
L41012 25920
L41012 25877
L41001 25855
L40991 25844
L40969 25833
L40784 25833
" />
<path d="M40784 25757
L40784 25627
" />
<path d="M41012 25692
L40784 25692
" />
<path d="M40806 25562
L40795 25551
L40784 25529
L40784 25475
L40795 25453
L40806 25442
L40828 25431
L40849 25431
L40882 25442
L41012 25573
L41012 25431
" />
<g transform="rotate(-90 41023.6 24094.5)">
<text x="41023.6" y="24094.5"
textLength="1329.57" font-size="304" lengthAdjust="spacingAndGlyphs"
text-anchor="middle" opacity="0">C_OUT1</text>
</g>
<path d="M40991 24545
L41001 24555
L41012 24588
L41012 24610
L41001 24642
L40980 24664
L40958 24675
L40915 24686
L40882 24686
L40839 24675
L40817 24664
L40795 24642
L40784 24610
L40784 24588
L40795 24555
L40806 24545
" />
<path d="M41034 24501
L41034 24327
" />
<path d="M40784 24230
L40784 24186
L40795 24165
L40817 24143
L40860 24132
L40936 24132
L40980 24143
L41001 24165
L41012 24186
L41012 24230
L41001 24251
L40980 24273
L40936 24284
L40860 24284
L40817 24273
L40795 24251
L40784 24230
" />
<path d="M40784 24034
L40969 24034
L40991 24023
L41001 24013
L41012 23991
L41012 23947
L41001 23926
L40991 23915
L40969 23904
L40784 23904
" />
<path d="M40784 23828
L40784 23698
" />
<path d="M41012 23763
L40784 23763
" />
<path d="M41012 23502
L41012 23633
" />
<path d="M41012 23567
L40784 23567
L40817 23589
L40839 23611
L40849 23633
" />
<g transform="rotate(-90 48346.5 22952.8)">
<text x="48346.5" y="22952.8"
textLength="2143.85" font-size="304" lengthAdjust="spacingAndGlyphs"
text-anchor="middle" opacity="0">C_DEC_VSS1</text>
</g>
<path d="M48313 23810
L48324 23821
L48335 23853
L48335 23875
L48324 23908
L48303 23929
L48281 23940
L48237 23951
L48205 23951
L48161 23940
L48140 23929
L48118 23908
L48107 23875
L48107 23853
L48118 23821
L48129 23810
" />
<path d="M48357 23767
L48357 23593
" />
<path d="M48335 23539
L48107 23539
L48107 23484
L48118 23452
L48140 23430
L48161 23419
L48205 23408
L48237 23408
L48281 23419
L48303 23430
L48324 23452
L48335 23484
L48335 23539
" />
<path d="M48216 23311
L48216 23235
" />
<path d="M48335 23202
L48335 23311
L48107 23311
L48107 23202
" />
<path d="M48313 22974
L48324 22985
L48335 23017
L48335 23039
L48324 23072
L48303 23093
L48281 23104
L48237 23115
L48205 23115
L48161 23104
L48140 23093
L48118 23072
L48107 23039
L48107 23017
L48118 22985
L48129 22974
" />
<path d="M48357 22931
L48357 22757
" />
<path d="M48107 22735
L48335 22659
L48107 22583
" />
<path d="M48324 22518
L48335 22485
L48335 22431
L48324 22409
L48313 22399
L48292 22388
L48270 22388
L48248 22399
L48237 22409
L48227 22431
L48216 22475
L48205 22496
L48194 22507
L48172 22518
L48151 22518
L48129 22507
L48118 22496
L48107 22475
L48107 22420
L48118 22388
" />
<path d="M48324 22301
L48335 22268
L48335 22214
L48324 22192
L48313 22181
L48292 22171
L48270 22171
L48248 22181
L48237 22192
L48227 22214
L48216 22257
L48205 22279
L48194 22290
L48172 22301
L48151 22301
L48129 22290
L48118 22279
L48107 22257
L48107 22203
L48118 22171
" />
<path d="M48335 21953
L48335 22084
" />
<path d="M48335 22019
L48107 22019
L48140 22040
L48161 22062
L48172 22084
" />
<g transform="rotate(-90 41956.7 27787.4)">
<text x="41956.7" y="27787.4"
textLength="1926.71" font-size="304" lengthAdjust="spacingAndGlyphs"
text-anchor="middle" opacity="0">C_DEC_VS1</text>
</g>
<path d="M41924 28536
L41934 28547
L41945 28579
L41945 28601
L41934 28634
L41913 28655
L41891 28666
L41848 28677
L41815 28677
L41772 28666
L41750 28655
L41728 28634
L41717 28601
L41717 28579
L41728 28547
L41739 28536
" />
<path d="M41967 28493
L41967 28319
" />
<path d="M41945 28265
L41717 28265
L41717 28210
L41728 28178
L41750 28156
L41772 28145
L41815 28134
L41848 28134
L41891 28145
L41913 28156
L41934 28178
L41945 28210
L41945 28265
" />
<path d="M41826 28037
L41826 27961
" />
<path d="M41945 27928
L41945 28037
L41717 28037
L41717 27928
" />
<path d="M41924 27700
L41934 27711
L41945 27743
L41945 27765
L41934 27798
L41913 27819
L41891 27830
L41848 27841
L41815 27841
L41772 27830
L41750 27819
L41728 27798
L41717 27765
L41717 27743
L41728 27711
L41739 27700
" />
<path d="M41967 27657
L41967 27483
" />
<path d="M41717 27461
L41945 27385
L41717 27309
" />
<path d="M41934 27244
L41945 27211
L41945 27157
L41934 27135
L41924 27125
L41902 27114
L41880 27114
L41858 27125
L41848 27135
L41837 27157
L41826 27201
L41815 27222
L41804 27233
L41782 27244
L41761 27244
L41739 27233
L41728 27222
L41717 27201
L41717 27146
L41728 27114
" />
<path d="M41945 26897
L41945 27027
" />
<path d="M41945 26962
L41717 26962
L41750 26983
L41772 27005
L41782 27027
" />
<g transform="rotate(-90 40433.1 26102.4)">
<text x="40433.1" y="26102.4"
textLength="1774.71" font-size="304" lengthAdjust="spacingAndGlyphs"
text-anchor="middle" opacity="0">C_COD_G1</text>
</g>
<path d="M40400 26775
L40411 26786
L40422 26818
L40422 26840
L40411 26873
L40389 26894
L40367 26905
L40324 26916
L40291 26916
L40248 26905
L40226 26894
L40205 26873
L40194 26840
L40194 26818
L40205 26786
L40215 26775
" />
<path d="M40443 26732
L40443 26558
" />
<path d="M40400 26373
L40411 26384
L40422 26417
L40422 26438
L40411 26471
L40389 26493
L40367 26504
L40324 26514
L40291 26514
L40248 26504
L40226 26493
L40205 26471
L40194 26438
L40194 26417
L40205 26384
L40215 26373
" />
<path d="M40194 26232
L40194 26189
L40205 26167
L40226 26145
L40270 26134
L40346 26134
L40389 26145
L40411 26167
L40422 26189
L40422 26232
L40411 26254
L40389 26276
L40346 26286
L40270 26286
L40226 26276
L40205 26254
L40194 26232
" />
<path d="M40422 26037
L40194 26037
L40194 25982
L40205 25950
L40226 25928
L40248 25917
L40291 25906
L40324 25906
L40367 25917
L40389 25928
L40411 25950
L40422 25982
L40422 26037
" />
<path d="M40443 25863
L40443 25689
" />
<path d="M40205 25516
L40194 25537
L40194 25570
L40205 25602
L40226 25624
L40248 25635
L40291 25646
L40324 25646
L40367 25635
L40389 25624
L40411 25602
L40422 25570
L40422 25548
L40411 25516
L40400 25505
L40324 25505
L40324 25548
" />
<path d="M40422 25288
L40422 25418
" />
<path d="M40422 25353
L40194 25353
L40226 25374
L40248 25396
L40259 25418
" />
<g transform="rotate(-90 48779.5 24094.5)">
<text x="48779.5" y="24094.5"
textLength="1774.71" font-size="304" lengthAdjust="spacingAndGlyphs"
text-anchor="middle" opacity="0">C_COD_D1</text>
</g>
<path d="M48746 24767
L48757 24778
L48768 24811
L48768 24832
L48757 24865
L48736 24887
L48714 24897
L48670 24908
L48638 24908
L48594 24897
L48573 24887
L48551 24865
L48540 24832
L48540 24811
L48551 24778
L48562 24767
" />
<path d="M48790 24724
L48790 24550
" />
<path d="M48746 24365
L48757 24376
L48768 24409
L48768 24431
L48757 24463
L48736 24485
L48714 24496
L48670 24507
L48638 24507
L48594 24496
L48573 24485
L48551 24463
L48540 24431
L48540 24409
L48551 24376
L48562 24365
" />
<path d="M48540 24224
L48540 24181
L48551 24159
L48573 24137
L48616 24127
L48692 24127
L48736 24137
L48757 24159
L48768 24181
L48768 24224
L48757 24246
L48736 24268
L48692 24279
L48616 24279
L48573 24268
L48551 24246
L48540 24224
" />
<path d="M48768 24029
L48540 24029
L48540 23975
L48551 23942
L48573 23920
L48594 23909
L48638 23899
L48670 23899
L48714 23909
L48736 23920
L48757 23942
L48768 23975
L48768 24029
" />
<path d="M48790 23855
L48790 23681
" />
<path d="M48768 23627
L48540 23627
L48540 23573
L48551 23540
L48573 23519
L48594 23508
L48638 23497
L48670 23497
L48714 23508
L48736 23519
L48757 23540
L48768 23573
L48768 23627
" />
<path d="M48768 23280
L48768 23410
" />
<path d="M48768 23345
L48540 23345
L48573 23367
L48594 23388
L48605 23410
" />
<text x="34893.7" y="25909.4"
textLength="1275.28" font-size="304" lengthAdjust="spacingAndGlyphs"
text-anchor="middle" opacity="0">C_BAT1</text>
<path d="M34470 25876
L34459 25887
L34426 25898
L34405 25898
L34372 25887
L34350 25866
L34339 25844
L34329 25800
L34329 25768
L34339 25724
L34350 25703
L34372 25681
L34405 25670
L34426 25670
L34459 25681
L34470 25692
" />
<path d="M34513 25920
L34687 25920
" />
<path d="M34817 25779
L34850 25790
L34861 25800
L34871 25822
L34871 25855
L34861 25876
L34850 25887
L34828 25898
L34741 25898
L34741 25670
L34817 25670
L34839 25681
L34850 25692
L34861 25714
L34861 25735
L34850 25757
L34839 25768
L34817 25779
L34741 25779
" />
<path d="M34958 25833
L35067 25833
" />
<path d="M34937 25898
L35013 25670
L35089 25898
" />
<path d="M35132 25670
L35262 25670
" />
<path d="M35197 25898
L35197 25670
" />
<path d="M35458 25898
L35327 25898
" />
<path d="M35393 25898
L35393 25670
L35371 25703
L35349 25724
L35327 25735
" />
</g>
<g style="fill:#008484; fill-opacity:0.0; 
stroke:#008484; stroke-width:38; stroke-opacity:1; 
stroke-linecap:round; stroke-linejoin:round;">
<text x="45551.2" y="22244.1"
textLength="1212.85" font-size="633.333" lengthAdjust="spacingAndGlyphs"
text-anchor="end" opacity="0">IC1</text>
<path d="M44486 22221
L44486 21746
" />
<path d="M44983 22176
L44961 22198
L44893 22221
L44847 22221
L44780 22198
L44734 22153
L44712 22108
L44689 22017
L44689 21950
L44712 21859
L44734 21814
L44780 21769
L44847 21746
L44893 21746
L44961 21769
L44983 21791
" />
<path d="M45436 22221
L45164 22221
" />
<path d="M45300 22221
L45300 21746
L45255 21814
L45209 21859
L45164 21882
" />
<g transform="rotate(-90 51102.4 25315)">
<text x="51102.4" y="25315"
textLength="4573.21" font-size="633.333" lengthAdjust="spacingAndGlyphs"
text-anchor="middle" opacity="0">CON_MOT_D1</text>
</g>
<path d="M51034 27192
L51057 27214
L51079 27282
L51079 27328
L51057 27395
L51011 27441
L50966 27463
L50876 27486
L50808 27486
L50717 27463
L50672 27441
L50627 27395
L50604 27328
L50604 27282
L50627 27214
L50649 27192
" />
<path d="M50604 26898
L50604 26807
L50627 26762
L50672 26717
L50763 26694
L50921 26694
L51011 26717
L51057 26762
L51079 26807
L51079 26898
L51057 26943
L51011 26988
L50921 27011
L50763 27011
L50672 26988
L50627 26943
L50604 26898
" />
<path d="M51079 26491
L50604 26491
L51079 26219
L50604 26219
" />
<path d="M51124 26106
L51124 25744
" />
<path d="M51079 25631
L50604 25631
L50944 25473
L50604 25314
L51079 25314
" />
<path d="M50604 24998
L50604 24907
L50627 24862
L50672 24817
L50763 24794
L50921 24794
L51011 24817
L51057 24862
L51079 24907
L51079 24998
L51057 25043
L51011 25088
L50921 25111
L50763 25111
L50672 25088
L50627 25043
L50604 24998
" />
<path d="M50604 24659
L50604 24387
" />
<path d="M51079 24523
L50604 24523
" />
<path d="M51124 24342
L51124 23980
" />
<path d="M51079 23867
L50604 23867
L50604 23754
L50627 23686
L50672 23641
L50717 23618
L50808 23595
L50876 23595
L50966 23618
L51011 23641
L51057 23686
L51079 23754
L51079 23867
" />
<path d="M51079 23143
L51079 23414
" />
<path d="M51079 23279
L50604 23279
L50672 23324
L50717 23369
L50740 23414
" />
<g >
</g>
</g>
<g style="fill:#000000; fill-opacity:0.0; 
stroke:#000000; stroke-width:38; stroke-opacity:1; 
stroke-linecap:round; stroke-linejoin:round;">
</g>
<g style="fill:#C2C200; fill-opacity:0.0; 
stroke:#C2C200; stroke-width:38; stroke-opacity:1; 
stroke-linecap:round; stroke-linejoin:round;">
</g>
<g style="fill:#C2C200; fill-opacity:0.0; 
stroke:#C2C200; stroke-width:19.685; stroke-opacity:1; 
stroke-linecap:round; stroke-linejoin:round;">
<path d="M31496 18307
L31496 32086
" />
<path d="M56102 18307
L31496 18307
" />
<path d="M56102 32086
L56102 18307
" />
<path d="M31496 32086
L56102 32086
" />
<g >
</g>
<g >
</g>
<g >
</g>
<g >
</g>
<g >
</g>
<g >
</g>
<g >
</g>
<g >
</g>
<g >
</g>
<g >
</g>
<g >
</g>
<g >
</g>
<g >
</g>
<g >
</g>
<g >
</g>
<g >
</g>
<g >
</g>
<g >
</g>
<g >
</g>
<g >
</g>
<g >
</g>
<g >
</g>
<g >
</g>
<g >
</g>
<g >
</g>
<g >
</g>
<g >
</g>
<g >
</g>
<g >
</g>
<g >
</g>
<g >
</g>
<g >
</g>
<g >
</g>
<g >
</g>
<g >
</g>
<g >
</g>
<g >
</g>
<g >
</g>
</g> 
</svg>
