G04 EAGLE Gerber RS-274X export*
G75*
%MOMM*%
%FSLAX34Y34*%
%LPD*%
%INBottom Copper*%
%IPPOS*%
%AMOC8*
5,1,8,0,0,1.08239X$1,22.5*%
G01*
%ADD10C,1.208000*%
%ADD11C,1.308000*%
%ADD12R,1.778000X1.778000*%
%ADD13C,0.203200*%
%ADD14C,0.609600*%
%ADD15C,0.756400*%

G36*
X410057Y6520D02*
X410057Y6520D01*
X410116Y6519D01*
X410197Y6540D01*
X410280Y6551D01*
X410334Y6575D01*
X410391Y6590D01*
X410463Y6633D01*
X410540Y6667D01*
X410585Y6705D01*
X410636Y6736D01*
X410693Y6797D01*
X410757Y6850D01*
X410790Y6900D01*
X410830Y6943D01*
X410868Y7018D01*
X410915Y7087D01*
X410933Y7143D01*
X410960Y7196D01*
X410971Y7264D01*
X411001Y7358D01*
X411004Y7459D01*
X411015Y7527D01*
X411015Y78985D01*
X621824Y78985D01*
X621882Y78993D01*
X621940Y78991D01*
X622022Y79013D01*
X622106Y79025D01*
X622159Y79049D01*
X622215Y79063D01*
X622288Y79106D01*
X622365Y79141D01*
X622410Y79179D01*
X622460Y79209D01*
X622518Y79270D01*
X622582Y79325D01*
X622614Y79373D01*
X622654Y79416D01*
X622693Y79491D01*
X622740Y79561D01*
X622757Y79617D01*
X622784Y79669D01*
X622795Y79737D01*
X622825Y79832D01*
X622828Y79932D01*
X622839Y80000D01*
X622839Y651824D01*
X622831Y651882D01*
X622833Y651940D01*
X622811Y652022D01*
X622799Y652106D01*
X622776Y652159D01*
X622761Y652215D01*
X622718Y652288D01*
X622683Y652365D01*
X622645Y652410D01*
X622616Y652460D01*
X622554Y652518D01*
X622500Y652582D01*
X622451Y652614D01*
X622408Y652654D01*
X622333Y652693D01*
X622263Y652740D01*
X622207Y652757D01*
X622155Y652784D01*
X622087Y652795D01*
X621992Y652825D01*
X621892Y652828D01*
X621824Y652839D01*
X263205Y652839D01*
X263176Y652835D01*
X263147Y652838D01*
X263036Y652815D01*
X262923Y652799D01*
X262897Y652787D01*
X262868Y652782D01*
X262767Y652730D01*
X262664Y652683D01*
X262642Y652664D01*
X262616Y652651D01*
X262533Y652573D01*
X262447Y652500D01*
X262431Y652475D01*
X262409Y652455D01*
X262352Y652357D01*
X262289Y652263D01*
X262281Y652235D01*
X262266Y652210D01*
X262238Y652100D01*
X262204Y651992D01*
X262203Y651963D01*
X262196Y651934D01*
X262199Y651821D01*
X262196Y651708D01*
X262204Y651679D01*
X262205Y651650D01*
X262240Y651542D01*
X262268Y651433D01*
X262283Y651407D01*
X262292Y651379D01*
X262338Y651316D01*
X262413Y651188D01*
X262459Y651145D01*
X262487Y651106D01*
X262838Y650755D01*
X281541Y632052D01*
X281541Y606948D01*
X272052Y597459D01*
X257473Y597459D01*
X257386Y597447D01*
X257299Y597444D01*
X257246Y597427D01*
X257191Y597419D01*
X257112Y597384D01*
X257028Y597357D01*
X256989Y597329D01*
X256932Y597303D01*
X256819Y597207D01*
X256755Y597162D01*
X249838Y590245D01*
X249786Y590175D01*
X249726Y590111D01*
X249700Y590062D01*
X249667Y590018D01*
X249636Y589936D01*
X249596Y589858D01*
X249588Y589811D01*
X249566Y589752D01*
X249554Y589604D01*
X249541Y589527D01*
X249541Y544473D01*
X249553Y544386D01*
X249556Y544299D01*
X249573Y544246D01*
X249581Y544191D01*
X249616Y544112D01*
X249643Y544028D01*
X249671Y543989D01*
X249697Y543932D01*
X249793Y543819D01*
X249838Y543755D01*
X351989Y441604D01*
X352059Y441552D01*
X352123Y441492D01*
X352172Y441466D01*
X352216Y441433D01*
X352298Y441402D01*
X352376Y441362D01*
X352423Y441354D01*
X352482Y441332D01*
X352630Y441320D01*
X352707Y441307D01*
X353056Y441307D01*
X355006Y440499D01*
X356499Y439006D01*
X356562Y438853D01*
X356577Y438828D01*
X356586Y438800D01*
X356649Y438706D01*
X356707Y438609D01*
X356728Y438588D01*
X356744Y438564D01*
X356831Y438491D01*
X356913Y438413D01*
X356939Y438400D01*
X356962Y438381D01*
X357066Y438335D01*
X357166Y438283D01*
X357195Y438278D01*
X357222Y438266D01*
X357334Y438250D01*
X357445Y438228D01*
X357474Y438231D01*
X357503Y438227D01*
X357616Y438243D01*
X357728Y438253D01*
X357755Y438263D01*
X357785Y438267D01*
X357888Y438314D01*
X357993Y438355D01*
X358017Y438372D01*
X358044Y438384D01*
X358130Y438458D01*
X358220Y438526D01*
X358238Y438550D01*
X358260Y438569D01*
X358302Y438635D01*
X358390Y438754D01*
X358412Y438813D01*
X358438Y438853D01*
X358501Y439006D01*
X359733Y440238D01*
X359768Y440285D01*
X359811Y440325D01*
X359853Y440398D01*
X359904Y440465D01*
X359925Y440520D01*
X359954Y440570D01*
X359975Y440652D01*
X360005Y440731D01*
X360010Y440789D01*
X360024Y440846D01*
X360022Y440930D01*
X360029Y441014D01*
X360017Y441071D01*
X360015Y441130D01*
X359990Y441210D01*
X359973Y441293D01*
X359946Y441345D01*
X359928Y441400D01*
X359888Y441456D01*
X359842Y441545D01*
X359773Y441618D01*
X359733Y441674D01*
X257245Y544162D01*
X255459Y545948D01*
X255459Y580923D01*
X255459Y580925D01*
X255459Y580926D01*
X255439Y581067D01*
X255419Y581204D01*
X255419Y581206D01*
X255419Y581208D01*
X255360Y581337D01*
X255303Y581464D01*
X255302Y581465D01*
X255301Y581467D01*
X255211Y581573D01*
X255120Y581681D01*
X255118Y581682D01*
X255117Y581683D01*
X255105Y581691D01*
X254883Y581838D01*
X254854Y581848D01*
X254833Y581861D01*
X254494Y582001D01*
X253001Y583494D01*
X252193Y585444D01*
X252193Y587556D01*
X253001Y589506D01*
X254494Y590999D01*
X256444Y591807D01*
X258556Y591807D01*
X260506Y590999D01*
X261999Y589506D01*
X262807Y587556D01*
X262807Y585444D01*
X261999Y583494D01*
X260838Y582333D01*
X260786Y582263D01*
X260726Y582200D01*
X260700Y582150D01*
X260667Y582106D01*
X260636Y582024D01*
X260596Y581946D01*
X260588Y581899D01*
X260566Y581840D01*
X260554Y581693D01*
X260541Y581615D01*
X260541Y548473D01*
X260553Y548386D01*
X260556Y548299D01*
X260573Y548246D01*
X260581Y548191D01*
X260616Y548112D01*
X260643Y548028D01*
X260671Y547989D01*
X260697Y547932D01*
X260793Y547819D01*
X260838Y547755D01*
X365541Y443052D01*
X365541Y441370D01*
X365541Y441368D01*
X365541Y441367D01*
X365561Y441224D01*
X365581Y441088D01*
X365581Y441087D01*
X365581Y441085D01*
X365640Y440956D01*
X365697Y440829D01*
X365698Y440828D01*
X365699Y440826D01*
X365789Y440720D01*
X365880Y440612D01*
X365882Y440611D01*
X365883Y440610D01*
X365895Y440602D01*
X365918Y440587D01*
X367499Y439006D01*
X368307Y437056D01*
X368307Y434944D01*
X367499Y432994D01*
X366006Y431501D01*
X364056Y430693D01*
X361944Y430693D01*
X359994Y431501D01*
X358501Y432994D01*
X358438Y433147D01*
X358423Y433172D01*
X358414Y433200D01*
X358351Y433294D01*
X358294Y433391D01*
X358272Y433412D01*
X358256Y433436D01*
X358169Y433509D01*
X358087Y433587D01*
X358061Y433600D01*
X358038Y433619D01*
X357935Y433665D01*
X357834Y433717D01*
X357805Y433722D01*
X357778Y433734D01*
X357666Y433750D01*
X357555Y433772D01*
X357526Y433769D01*
X357497Y433773D01*
X357385Y433757D01*
X357272Y433747D01*
X357245Y433737D01*
X357216Y433733D01*
X357112Y433686D01*
X357007Y433645D01*
X356983Y433628D01*
X356956Y433616D01*
X356870Y433542D01*
X356780Y433474D01*
X356762Y433450D01*
X356740Y433431D01*
X356698Y433365D01*
X356610Y433246D01*
X356588Y433188D01*
X356562Y433147D01*
X356499Y432994D01*
X355006Y431501D01*
X353056Y430693D01*
X350944Y430693D01*
X348994Y431501D01*
X347501Y432994D01*
X346693Y434944D01*
X346693Y437056D01*
X347212Y438308D01*
X347213Y438310D01*
X347213Y438311D01*
X347247Y438444D01*
X347283Y438584D01*
X347283Y438585D01*
X347283Y438587D01*
X347279Y438728D01*
X347275Y438868D01*
X347275Y438869D01*
X347274Y438871D01*
X347231Y439005D01*
X347188Y439139D01*
X347187Y439140D01*
X347187Y439141D01*
X347178Y439154D01*
X347030Y439375D01*
X347007Y439394D01*
X346992Y439415D01*
X249245Y537162D01*
X246245Y540162D01*
X244274Y542133D01*
X244250Y542151D01*
X244231Y542173D01*
X244137Y542236D01*
X244047Y542304D01*
X244019Y542314D01*
X243995Y542331D01*
X243887Y542365D01*
X243781Y542405D01*
X243752Y542408D01*
X243724Y542416D01*
X243610Y542419D01*
X243498Y542429D01*
X243469Y542423D01*
X243440Y542424D01*
X243330Y542395D01*
X243219Y542373D01*
X243193Y542359D01*
X243165Y542352D01*
X243067Y542294D01*
X242967Y542242D01*
X242945Y542222D01*
X242920Y542207D01*
X242843Y542124D01*
X242761Y542046D01*
X242746Y542021D01*
X242726Y541999D01*
X242674Y541898D01*
X242617Y541801D01*
X242610Y541772D01*
X242596Y541746D01*
X242583Y541669D01*
X242547Y541525D01*
X242549Y541463D01*
X242541Y541415D01*
X242541Y539473D01*
X242548Y539422D01*
X242547Y539402D01*
X242553Y539380D01*
X242556Y539299D01*
X242573Y539246D01*
X242581Y539191D01*
X242616Y539112D01*
X242643Y539028D01*
X242671Y538989D01*
X242697Y538932D01*
X242793Y538819D01*
X242838Y538755D01*
X280755Y500838D01*
X282541Y499052D01*
X282541Y443497D01*
X282545Y443467D01*
X282542Y443438D01*
X282565Y443327D01*
X282581Y443215D01*
X282593Y443188D01*
X282598Y443160D01*
X282651Y443059D01*
X282697Y442956D01*
X282716Y442933D01*
X282729Y442907D01*
X282807Y442825D01*
X282880Y442739D01*
X282905Y442722D01*
X282925Y442701D01*
X283023Y442644D01*
X283117Y442581D01*
X283145Y442572D01*
X283170Y442557D01*
X283280Y442529D01*
X283388Y442495D01*
X283418Y442495D01*
X283446Y442487D01*
X283559Y442491D01*
X283672Y442488D01*
X283701Y442495D01*
X283730Y442496D01*
X283838Y442531D01*
X283947Y442560D01*
X283973Y442575D01*
X284001Y442584D01*
X284065Y442629D01*
X284192Y442705D01*
X284235Y442751D01*
X284274Y442779D01*
X284994Y443499D01*
X286944Y444307D01*
X289056Y444307D01*
X291006Y443499D01*
X292568Y441937D01*
X292576Y441923D01*
X292578Y441922D01*
X292578Y441920D01*
X292683Y441822D01*
X292783Y441727D01*
X292785Y441727D01*
X292786Y441726D01*
X292911Y441661D01*
X293036Y441597D01*
X293037Y441597D01*
X293039Y441596D01*
X293054Y441594D01*
X293315Y441542D01*
X293345Y441545D01*
X293370Y441541D01*
X310052Y441541D01*
X311838Y439755D01*
X321326Y430267D01*
X321373Y430232D01*
X321413Y430189D01*
X321486Y430147D01*
X321553Y430096D01*
X321608Y430075D01*
X321659Y430046D01*
X321740Y430025D01*
X321819Y429995D01*
X321877Y429990D01*
X321934Y429976D01*
X322018Y429978D01*
X322102Y429971D01*
X322160Y429983D01*
X322218Y429985D01*
X322298Y430010D01*
X322381Y430027D01*
X322433Y430054D01*
X322489Y430072D01*
X322545Y430112D01*
X322633Y430158D01*
X322706Y430227D01*
X322762Y430267D01*
X323994Y431499D01*
X325944Y432307D01*
X328056Y432307D01*
X328537Y432107D01*
X328621Y432086D01*
X328701Y432055D01*
X328758Y432050D01*
X328813Y432036D01*
X328899Y432039D01*
X328984Y432032D01*
X329040Y432043D01*
X329097Y432044D01*
X329179Y432070D01*
X329263Y432087D01*
X329314Y432114D01*
X329368Y432131D01*
X329439Y432179D01*
X329515Y432218D01*
X329556Y432257D01*
X329604Y432289D01*
X329659Y432355D01*
X329721Y432414D01*
X329750Y432463D01*
X329787Y432507D01*
X329822Y432585D01*
X329865Y432659D01*
X329879Y432715D01*
X329902Y432767D01*
X329914Y432852D01*
X329935Y432935D01*
X329933Y432992D01*
X329941Y433048D01*
X329929Y433133D01*
X329926Y433219D01*
X329909Y433273D01*
X329901Y433330D01*
X329865Y433408D01*
X329839Y433490D01*
X329810Y433530D01*
X329784Y433589D01*
X329689Y433699D01*
X329644Y433763D01*
X294011Y469396D01*
X293941Y469448D01*
X293877Y469508D01*
X293828Y469534D01*
X293784Y469567D01*
X293702Y469598D01*
X293624Y469638D01*
X293577Y469646D01*
X293518Y469668D01*
X293370Y469680D01*
X293293Y469693D01*
X292944Y469693D01*
X290994Y470501D01*
X289501Y471994D01*
X288693Y473944D01*
X288693Y476056D01*
X289501Y478006D01*
X290994Y479499D01*
X292944Y480307D01*
X295056Y480307D01*
X297006Y479499D01*
X298499Y478006D01*
X299307Y476056D01*
X299307Y473944D01*
X298788Y472692D01*
X298787Y472690D01*
X298787Y472689D01*
X298752Y472551D01*
X298717Y472416D01*
X298717Y472415D01*
X298717Y472413D01*
X298721Y472272D01*
X298725Y472132D01*
X298725Y472131D01*
X298726Y472129D01*
X298769Y471995D01*
X298812Y471861D01*
X298813Y471860D01*
X298813Y471859D01*
X298822Y471846D01*
X298970Y471625D01*
X298993Y471606D01*
X299008Y471585D01*
X335755Y434838D01*
X337541Y433052D01*
X337541Y400497D01*
X337545Y400467D01*
X337542Y400438D01*
X337565Y400327D01*
X337581Y400215D01*
X337593Y400188D01*
X337598Y400160D01*
X337651Y400059D01*
X337697Y399956D01*
X337716Y399933D01*
X337729Y399907D01*
X337807Y399825D01*
X337880Y399739D01*
X337905Y399722D01*
X337925Y399701D01*
X338023Y399644D01*
X338117Y399581D01*
X338145Y399572D01*
X338170Y399557D01*
X338280Y399529D01*
X338388Y399495D01*
X338418Y399495D01*
X338446Y399487D01*
X338559Y399491D01*
X338672Y399488D01*
X338701Y399495D01*
X338730Y399496D01*
X338838Y399531D01*
X338947Y399560D01*
X338973Y399575D01*
X339001Y399584D01*
X339065Y399629D01*
X339192Y399705D01*
X339235Y399751D01*
X339274Y399779D01*
X339994Y400499D01*
X341944Y401307D01*
X344056Y401307D01*
X346006Y400499D01*
X347568Y398937D01*
X347576Y398923D01*
X347578Y398922D01*
X347578Y398920D01*
X347683Y398822D01*
X347783Y398727D01*
X347785Y398727D01*
X347786Y398726D01*
X347911Y398661D01*
X348036Y398597D01*
X348037Y398597D01*
X348039Y398596D01*
X348054Y398594D01*
X348315Y398542D01*
X348345Y398545D01*
X348370Y398541D01*
X365527Y398541D01*
X365614Y398553D01*
X365701Y398556D01*
X365754Y398573D01*
X365809Y398581D01*
X365888Y398616D01*
X365972Y398643D01*
X366011Y398671D01*
X366068Y398697D01*
X366181Y398793D01*
X366245Y398838D01*
X367992Y400585D01*
X367993Y400587D01*
X367994Y400587D01*
X368075Y400696D01*
X368163Y400812D01*
X368164Y400814D01*
X368165Y400815D01*
X368214Y400945D01*
X368264Y401078D01*
X368264Y401080D01*
X368265Y401081D01*
X368276Y401214D01*
X368288Y401361D01*
X368287Y401363D01*
X368288Y401365D01*
X368284Y401380D01*
X368232Y401640D01*
X368218Y401667D01*
X368212Y401692D01*
X367693Y402944D01*
X367693Y405056D01*
X368501Y407006D01*
X369994Y408499D01*
X371944Y409307D01*
X374056Y409307D01*
X376006Y408499D01*
X377499Y407006D01*
X377506Y406989D01*
X377550Y406915D01*
X377585Y406836D01*
X377622Y406793D01*
X377650Y406744D01*
X377713Y406685D01*
X377769Y406619D01*
X377816Y406588D01*
X377857Y406549D01*
X377934Y406509D01*
X378005Y406462D01*
X378059Y406444D01*
X378110Y406418D01*
X378194Y406402D01*
X378276Y406376D01*
X378333Y406374D01*
X378389Y406363D01*
X378474Y406371D01*
X378560Y406368D01*
X378615Y406383D01*
X378672Y406388D01*
X378752Y406419D01*
X378835Y406440D01*
X378884Y406469D01*
X378937Y406490D01*
X379006Y406542D01*
X379080Y406586D01*
X379119Y406627D01*
X379164Y406661D01*
X379216Y406730D01*
X379274Y406793D01*
X379300Y406844D01*
X379334Y406889D01*
X379365Y406969D01*
X379404Y407046D01*
X379412Y407095D01*
X379435Y407155D01*
X379446Y407300D01*
X379459Y407377D01*
X379459Y561052D01*
X395582Y577175D01*
X395583Y577177D01*
X395584Y577177D01*
X395669Y577291D01*
X395753Y577402D01*
X395754Y577404D01*
X395755Y577405D01*
X395804Y577537D01*
X395854Y577668D01*
X395854Y577670D01*
X395855Y577671D01*
X395866Y577810D01*
X395878Y577951D01*
X395877Y577953D01*
X395878Y577955D01*
X395874Y577969D01*
X395822Y578230D01*
X395808Y578257D01*
X395802Y578282D01*
X395539Y578918D01*
X395539Y581927D01*
X396690Y584708D01*
X398621Y586638D01*
X398630Y586651D01*
X398642Y586660D01*
X398716Y586765D01*
X398792Y586866D01*
X398797Y586880D01*
X398806Y586893D01*
X398848Y587013D01*
X398893Y587131D01*
X398894Y587147D01*
X398900Y587161D01*
X398906Y587288D01*
X398917Y587415D01*
X398914Y587430D01*
X398915Y587445D01*
X398886Y587569D01*
X398861Y587693D01*
X398854Y587707D01*
X398850Y587722D01*
X398788Y587833D01*
X398730Y587946D01*
X398719Y587957D01*
X398712Y587970D01*
X398661Y588018D01*
X398534Y588152D01*
X398494Y588175D01*
X398467Y588200D01*
X397633Y588758D01*
X396438Y589953D01*
X395499Y591358D01*
X394852Y592920D01*
X394703Y593673D01*
X402369Y593673D01*
X402427Y593681D01*
X402486Y593680D01*
X402567Y593701D01*
X402651Y593713D01*
X402704Y593737D01*
X402761Y593752D01*
X402833Y593795D01*
X402910Y593829D01*
X402955Y593867D01*
X403005Y593897D01*
X403063Y593959D01*
X403107Y593996D01*
X403108Y593995D01*
X403162Y593931D01*
X403211Y593898D01*
X403253Y593858D01*
X403329Y593820D01*
X403399Y593773D01*
X403455Y593755D01*
X403507Y593729D01*
X403575Y593717D01*
X403670Y593687D01*
X403770Y593685D01*
X403838Y593673D01*
X411504Y593673D01*
X411354Y592920D01*
X410708Y591358D01*
X409768Y589953D01*
X408573Y588758D01*
X407740Y588200D01*
X407728Y588190D01*
X407714Y588183D01*
X407622Y588096D01*
X407528Y588011D01*
X407519Y587998D01*
X407508Y587987D01*
X407444Y587878D01*
X407377Y587770D01*
X407372Y587755D01*
X407364Y587742D01*
X407333Y587619D01*
X407298Y587497D01*
X407298Y587481D01*
X407294Y587466D01*
X407298Y587340D01*
X407299Y587213D01*
X407303Y587198D01*
X407303Y587182D01*
X407342Y587062D01*
X407378Y586940D01*
X407386Y586926D01*
X407391Y586912D01*
X407431Y586856D01*
X407530Y586699D01*
X407564Y586668D01*
X407586Y586638D01*
X409516Y584708D01*
X410668Y581927D01*
X410668Y578918D01*
X409516Y576137D01*
X407389Y574010D01*
X407029Y573861D01*
X407004Y573846D01*
X406976Y573837D01*
X406882Y573774D01*
X406784Y573716D01*
X406764Y573695D01*
X406739Y573678D01*
X406667Y573592D01*
X406589Y573509D01*
X406575Y573483D01*
X406557Y573461D01*
X406511Y573357D01*
X406459Y573257D01*
X406453Y573228D01*
X406441Y573201D01*
X406426Y573089D01*
X406404Y572978D01*
X406406Y572948D01*
X406402Y572919D01*
X406418Y572807D01*
X406428Y572694D01*
X406439Y572667D01*
X406443Y572638D01*
X406490Y572535D01*
X406530Y572429D01*
X406548Y572406D01*
X406560Y572379D01*
X406633Y572293D01*
X406702Y572202D01*
X406725Y572185D01*
X406744Y572163D01*
X406811Y572121D01*
X406929Y572032D01*
X406988Y572010D01*
X407029Y571985D01*
X407389Y571836D01*
X409516Y569708D01*
X410668Y566927D01*
X410668Y563918D01*
X409516Y561137D01*
X407389Y559010D01*
X407029Y558861D01*
X407004Y558846D01*
X406976Y558837D01*
X406882Y558774D01*
X406784Y558716D01*
X406764Y558695D01*
X406739Y558678D01*
X406667Y558592D01*
X406589Y558509D01*
X406575Y558483D01*
X406557Y558461D01*
X406511Y558357D01*
X406459Y558257D01*
X406453Y558228D01*
X406441Y558201D01*
X406426Y558089D01*
X406404Y557978D01*
X406406Y557948D01*
X406402Y557919D01*
X406418Y557807D01*
X406428Y557694D01*
X406439Y557667D01*
X406443Y557638D01*
X406490Y557535D01*
X406530Y557429D01*
X406548Y557406D01*
X406560Y557379D01*
X406633Y557293D01*
X406702Y557202D01*
X406725Y557185D01*
X406744Y557163D01*
X406811Y557121D01*
X406929Y557032D01*
X406988Y557010D01*
X407029Y556985D01*
X407389Y556836D01*
X409516Y554708D01*
X410668Y551927D01*
X410668Y549346D01*
X410680Y549259D01*
X410683Y549172D01*
X410700Y549119D01*
X410708Y549064D01*
X410744Y548984D01*
X410771Y548901D01*
X410799Y548862D01*
X410824Y548805D01*
X410920Y548691D01*
X410966Y548628D01*
X430999Y528594D01*
X431001Y528593D01*
X431002Y528591D01*
X431120Y528503D01*
X431227Y528423D01*
X431228Y528422D01*
X431230Y528421D01*
X431363Y528371D01*
X431492Y528322D01*
X431494Y528321D01*
X431496Y528321D01*
X431639Y528309D01*
X431776Y528298D01*
X431777Y528298D01*
X431779Y528298D01*
X431796Y528302D01*
X431819Y528307D01*
X434056Y528307D01*
X436006Y527499D01*
X437499Y526006D01*
X438307Y524056D01*
X438307Y521944D01*
X437499Y519994D01*
X436006Y518501D01*
X434056Y517693D01*
X431944Y517693D01*
X429994Y518501D01*
X428501Y519994D01*
X427693Y521944D01*
X427693Y524153D01*
X427697Y524169D01*
X427697Y524171D01*
X427698Y524173D01*
X427693Y524312D01*
X427689Y524453D01*
X427689Y524455D01*
X427689Y524457D01*
X427646Y524589D01*
X427627Y524649D01*
X427618Y524681D01*
X427614Y524688D01*
X427603Y524724D01*
X427602Y524726D01*
X427601Y524727D01*
X427592Y524741D01*
X427514Y524856D01*
X427473Y524925D01*
X427459Y524938D01*
X427445Y524960D01*
X427421Y524980D01*
X427406Y525001D01*
X408582Y543825D01*
X408580Y543826D01*
X408579Y543828D01*
X408466Y543912D01*
X408354Y543996D01*
X408353Y543997D01*
X408352Y543998D01*
X408220Y544048D01*
X408089Y544097D01*
X408087Y544098D01*
X408086Y544098D01*
X407946Y544109D01*
X407805Y544121D01*
X407804Y544121D01*
X407802Y544121D01*
X407788Y544117D01*
X407527Y544065D01*
X407500Y544051D01*
X407475Y544045D01*
X407029Y543861D01*
X407004Y543846D01*
X406976Y543837D01*
X406882Y543774D01*
X406784Y543716D01*
X406764Y543695D01*
X406739Y543678D01*
X406667Y543592D01*
X406589Y543509D01*
X406575Y543483D01*
X406557Y543461D01*
X406511Y543357D01*
X406459Y543257D01*
X406453Y543228D01*
X406441Y543201D01*
X406426Y543089D01*
X406404Y542978D01*
X406406Y542948D01*
X406402Y542919D01*
X406418Y542807D01*
X406428Y542694D01*
X406439Y542667D01*
X406443Y542638D01*
X406490Y542535D01*
X406530Y542429D01*
X406548Y542406D01*
X406560Y542379D01*
X406633Y542293D01*
X406702Y542202D01*
X406725Y542185D01*
X406744Y542163D01*
X406811Y542121D01*
X406929Y542032D01*
X406988Y542010D01*
X407029Y541985D01*
X407389Y541836D01*
X409516Y539708D01*
X410668Y536927D01*
X410668Y533918D01*
X409516Y531137D01*
X407389Y529010D01*
X404608Y527858D01*
X401599Y527858D01*
X398818Y529010D01*
X396690Y531137D01*
X395539Y533918D01*
X395539Y536927D01*
X396690Y539708D01*
X398818Y541836D01*
X399178Y541985D01*
X399203Y541999D01*
X399231Y542008D01*
X399325Y542071D01*
X399423Y542129D01*
X399443Y542150D01*
X399467Y542167D01*
X399540Y542253D01*
X399618Y542336D01*
X399631Y542362D01*
X399650Y542384D01*
X399696Y542488D01*
X399748Y542588D01*
X399754Y542617D01*
X399766Y542644D01*
X399781Y542756D01*
X399803Y542867D01*
X399801Y542897D01*
X399805Y542926D01*
X399789Y543038D01*
X399779Y543151D01*
X399768Y543178D01*
X399764Y543207D01*
X399717Y543310D01*
X399677Y543416D01*
X399659Y543439D01*
X399647Y543466D01*
X399573Y543552D01*
X399505Y543643D01*
X399482Y543660D01*
X399463Y543683D01*
X399396Y543724D01*
X399277Y543813D01*
X399219Y543835D01*
X399178Y543861D01*
X398818Y544010D01*
X396690Y546137D01*
X395539Y548918D01*
X395539Y551927D01*
X395720Y552364D01*
X395741Y552448D01*
X395772Y552528D01*
X395776Y552585D01*
X395791Y552640D01*
X395788Y552725D01*
X395795Y552811D01*
X395784Y552867D01*
X395782Y552924D01*
X395756Y553006D01*
X395739Y553090D01*
X395713Y553140D01*
X395696Y553195D01*
X395648Y553266D01*
X395608Y553342D01*
X395569Y553383D01*
X395538Y553431D01*
X395472Y553486D01*
X395413Y553548D01*
X395364Y553577D01*
X395320Y553614D01*
X395241Y553649D01*
X395167Y553692D01*
X395112Y553706D01*
X395060Y553729D01*
X394975Y553741D01*
X394892Y553762D01*
X394835Y553760D01*
X394779Y553768D01*
X394694Y553756D01*
X394608Y553753D01*
X394553Y553736D01*
X394497Y553727D01*
X394419Y553692D01*
X394337Y553666D01*
X394297Y553637D01*
X394238Y553610D01*
X394128Y553516D01*
X394064Y553471D01*
X391838Y551245D01*
X391786Y551175D01*
X391726Y551111D01*
X391700Y551062D01*
X391667Y551018D01*
X391636Y550936D01*
X391596Y550858D01*
X391588Y550811D01*
X391566Y550752D01*
X391554Y550604D01*
X391541Y550527D01*
X391541Y449473D01*
X391553Y449386D01*
X391556Y449299D01*
X391573Y449246D01*
X391581Y449191D01*
X391616Y449112D01*
X391643Y449028D01*
X391671Y448989D01*
X391697Y448932D01*
X391793Y448819D01*
X391838Y448755D01*
X394999Y445594D01*
X395001Y445593D01*
X395002Y445591D01*
X395120Y445503D01*
X395227Y445423D01*
X395228Y445422D01*
X395230Y445421D01*
X395363Y445371D01*
X395492Y445322D01*
X395494Y445321D01*
X395496Y445321D01*
X395639Y445309D01*
X395776Y445298D01*
X395777Y445298D01*
X395779Y445298D01*
X395796Y445302D01*
X395819Y445307D01*
X398056Y445307D01*
X400006Y444499D01*
X401499Y443006D01*
X402307Y441056D01*
X402307Y438944D01*
X401499Y436994D01*
X400006Y435501D01*
X398056Y434693D01*
X395944Y434693D01*
X393994Y435501D01*
X392501Y436994D01*
X391693Y438944D01*
X391693Y441153D01*
X391697Y441169D01*
X391697Y441171D01*
X391698Y441173D01*
X391693Y441312D01*
X391689Y441453D01*
X391689Y441455D01*
X391689Y441457D01*
X391646Y441589D01*
X391603Y441724D01*
X391602Y441726D01*
X391601Y441727D01*
X391592Y441740D01*
X391445Y441960D01*
X391421Y441980D01*
X391406Y442001D01*
X388245Y445162D01*
X386274Y447133D01*
X386250Y447151D01*
X386231Y447173D01*
X386137Y447236D01*
X386047Y447304D01*
X386019Y447314D01*
X385995Y447331D01*
X385887Y447365D01*
X385781Y447405D01*
X385752Y447408D01*
X385724Y447416D01*
X385610Y447419D01*
X385498Y447429D01*
X385469Y447423D01*
X385440Y447424D01*
X385330Y447395D01*
X385219Y447373D01*
X385193Y447359D01*
X385165Y447352D01*
X385067Y447294D01*
X384967Y447242D01*
X384945Y447222D01*
X384920Y447207D01*
X384843Y447124D01*
X384761Y447046D01*
X384746Y447021D01*
X384726Y446999D01*
X384674Y446898D01*
X384617Y446801D01*
X384610Y446772D01*
X384596Y446746D01*
X384583Y446669D01*
X384547Y446525D01*
X384549Y446463D01*
X384541Y446415D01*
X384541Y379948D01*
X378052Y373459D01*
X351370Y373459D01*
X351368Y373459D01*
X351367Y373459D01*
X351226Y373439D01*
X351088Y373419D01*
X351087Y373419D01*
X351085Y373419D01*
X350956Y373360D01*
X350829Y373303D01*
X350828Y373302D01*
X350826Y373301D01*
X350720Y373211D01*
X350612Y373120D01*
X350611Y373118D01*
X350610Y373117D01*
X350602Y373105D01*
X350587Y373083D01*
X349457Y371952D01*
X349439Y371928D01*
X349417Y371909D01*
X349354Y371815D01*
X349286Y371725D01*
X349275Y371697D01*
X349259Y371673D01*
X349225Y371565D01*
X349185Y371459D01*
X349182Y371430D01*
X349173Y371402D01*
X349170Y371288D01*
X349161Y371176D01*
X349167Y371147D01*
X349166Y371118D01*
X349195Y371008D01*
X349217Y370897D01*
X349230Y370871D01*
X349238Y370843D01*
X349296Y370745D01*
X349348Y370645D01*
X349368Y370623D01*
X349383Y370598D01*
X349466Y370521D01*
X349544Y370439D01*
X349569Y370424D01*
X349590Y370404D01*
X349691Y370352D01*
X349789Y370295D01*
X349817Y370288D01*
X349844Y370274D01*
X349921Y370261D01*
X350064Y370225D01*
X350127Y370227D01*
X350175Y370219D01*
X379205Y370219D01*
X379292Y370231D01*
X379379Y370234D01*
X379432Y370251D01*
X379487Y370259D01*
X379566Y370294D01*
X379650Y370321D01*
X379689Y370349D01*
X379746Y370375D01*
X379859Y370471D01*
X379923Y370516D01*
X391162Y381755D01*
X391214Y381825D01*
X391274Y381889D01*
X391300Y381938D01*
X391333Y381982D01*
X391364Y382064D01*
X391404Y382142D01*
X391412Y382189D01*
X391434Y382248D01*
X391446Y382396D01*
X391459Y382473D01*
X391459Y402615D01*
X391447Y402702D01*
X391444Y402789D01*
X391427Y402842D01*
X391419Y402897D01*
X391384Y402977D01*
X391357Y403060D01*
X391329Y403099D01*
X391303Y403156D01*
X391207Y403270D01*
X391162Y403333D01*
X390501Y403994D01*
X389693Y405944D01*
X389693Y408056D01*
X390501Y410006D01*
X391994Y411499D01*
X393944Y412307D01*
X396056Y412307D01*
X398006Y411499D01*
X399499Y410006D01*
X400307Y408056D01*
X400307Y405944D01*
X399499Y403994D01*
X398006Y402501D01*
X397167Y402154D01*
X397166Y402153D01*
X397165Y402153D01*
X397042Y402080D01*
X396923Y402009D01*
X396922Y402008D01*
X396920Y402007D01*
X396822Y401903D01*
X396727Y401803D01*
X396727Y401801D01*
X396726Y401800D01*
X396661Y401674D01*
X396597Y401550D01*
X396597Y401548D01*
X396596Y401547D01*
X396594Y401532D01*
X396542Y401271D01*
X396545Y401241D01*
X396541Y401216D01*
X396541Y379948D01*
X394755Y378162D01*
X381867Y365274D01*
X381849Y365250D01*
X381827Y365231D01*
X381764Y365137D01*
X381696Y365047D01*
X381686Y365019D01*
X381669Y364995D01*
X381635Y364887D01*
X381595Y364781D01*
X381592Y364752D01*
X381584Y364724D01*
X381581Y364610D01*
X381571Y364498D01*
X381577Y364469D01*
X381576Y364440D01*
X381605Y364330D01*
X381627Y364219D01*
X381641Y364193D01*
X381648Y364165D01*
X381706Y364067D01*
X381758Y363967D01*
X381778Y363945D01*
X381793Y363920D01*
X381876Y363843D01*
X381954Y363761D01*
X381979Y363746D01*
X382001Y363726D01*
X382102Y363674D01*
X382199Y363617D01*
X382228Y363610D01*
X382254Y363596D01*
X382331Y363583D01*
X382475Y363547D01*
X382537Y363549D01*
X382585Y363541D01*
X391052Y363541D01*
X405116Y349478D01*
X405139Y349460D01*
X405158Y349438D01*
X405252Y349375D01*
X405343Y349307D01*
X405370Y349296D01*
X405395Y349280D01*
X405503Y349246D01*
X405608Y349205D01*
X405638Y349203D01*
X405666Y349194D01*
X405779Y349191D01*
X405892Y349182D01*
X405920Y349188D01*
X405950Y349187D01*
X406059Y349216D01*
X406170Y349238D01*
X406197Y349251D01*
X406225Y349259D01*
X406322Y349317D01*
X406423Y349369D01*
X406444Y349389D01*
X406469Y349404D01*
X406547Y349487D01*
X406629Y349565D01*
X406644Y349590D01*
X406664Y349611D01*
X406715Y349712D01*
X406773Y349810D01*
X406780Y349838D01*
X406793Y349864D01*
X406806Y349942D01*
X406843Y350085D01*
X406841Y350148D01*
X406849Y350195D01*
X406849Y351056D01*
X407657Y353006D01*
X409149Y354499D01*
X411100Y355307D01*
X413309Y355307D01*
X413324Y355303D01*
X413326Y355303D01*
X413328Y355302D01*
X413467Y355307D01*
X413609Y355311D01*
X413610Y355311D01*
X413612Y355311D01*
X413745Y355354D01*
X413879Y355397D01*
X413881Y355398D01*
X413883Y355399D01*
X413896Y355408D01*
X414116Y355555D01*
X414135Y355579D01*
X414156Y355594D01*
X416103Y357541D01*
X434052Y357541D01*
X438541Y353052D01*
X438541Y350370D01*
X438541Y350368D01*
X438541Y350367D01*
X438561Y350226D01*
X438581Y350088D01*
X438581Y350087D01*
X438581Y350085D01*
X438641Y349953D01*
X438697Y349829D01*
X438698Y349828D01*
X438699Y349826D01*
X438790Y349719D01*
X438880Y349612D01*
X438882Y349611D01*
X438883Y349610D01*
X438895Y349602D01*
X438918Y349587D01*
X440499Y348006D01*
X441307Y346056D01*
X441307Y343944D01*
X440499Y341994D01*
X439006Y340501D01*
X437056Y339693D01*
X434944Y339693D01*
X432994Y340501D01*
X431501Y341994D01*
X430693Y343944D01*
X430693Y346056D01*
X431501Y348006D01*
X433063Y349568D01*
X433077Y349576D01*
X433078Y349578D01*
X433080Y349578D01*
X433178Y349683D01*
X433273Y349783D01*
X433273Y349785D01*
X433274Y349786D01*
X433339Y349911D01*
X433403Y350036D01*
X433403Y350037D01*
X433404Y350039D01*
X433406Y350054D01*
X433458Y350315D01*
X433455Y350345D01*
X433459Y350370D01*
X433459Y350527D01*
X433447Y350614D01*
X433444Y350701D01*
X433427Y350754D01*
X433419Y350809D01*
X433384Y350888D01*
X433357Y350972D01*
X433329Y351011D01*
X433303Y351068D01*
X433207Y351181D01*
X433162Y351245D01*
X432245Y352162D01*
X432175Y352214D01*
X432111Y352274D01*
X432062Y352300D01*
X432018Y352333D01*
X431936Y352364D01*
X431858Y352404D01*
X431811Y352412D01*
X431752Y352434D01*
X431604Y352446D01*
X431527Y352459D01*
X418628Y352459D01*
X418542Y352447D01*
X418454Y352444D01*
X418402Y352427D01*
X418347Y352419D01*
X418267Y352384D01*
X418184Y352357D01*
X418145Y352329D01*
X418087Y352303D01*
X417974Y352207D01*
X417910Y352162D01*
X417749Y352001D01*
X417748Y351999D01*
X417747Y351998D01*
X417659Y351880D01*
X417578Y351773D01*
X417578Y351772D01*
X417576Y351770D01*
X417526Y351637D01*
X417477Y351508D01*
X417477Y351506D01*
X417476Y351504D01*
X417465Y351358D01*
X417453Y351224D01*
X417454Y351223D01*
X417454Y351221D01*
X417458Y351204D01*
X417462Y351181D01*
X417462Y348944D01*
X416654Y346994D01*
X415161Y345501D01*
X413211Y344693D01*
X412351Y344693D01*
X412322Y344689D01*
X412293Y344692D01*
X412182Y344669D01*
X412069Y344653D01*
X412043Y344641D01*
X412014Y344636D01*
X411913Y344584D01*
X411810Y344537D01*
X411788Y344518D01*
X411762Y344505D01*
X411680Y344427D01*
X411593Y344354D01*
X411577Y344329D01*
X411555Y344309D01*
X411498Y344211D01*
X411435Y344117D01*
X411427Y344089D01*
X411412Y344064D01*
X411384Y343954D01*
X411350Y343846D01*
X411349Y343816D01*
X411342Y343788D01*
X411345Y343675D01*
X411342Y343562D01*
X411350Y343533D01*
X411351Y343504D01*
X411386Y343396D01*
X411414Y343287D01*
X411429Y343261D01*
X411438Y343233D01*
X411484Y343170D01*
X411559Y343042D01*
X411605Y342999D01*
X411633Y342960D01*
X416541Y338052D01*
X416541Y311370D01*
X416541Y311368D01*
X416541Y311367D01*
X416561Y311226D01*
X416581Y311088D01*
X416581Y311087D01*
X416581Y311085D01*
X416640Y310956D01*
X416697Y310829D01*
X416698Y310828D01*
X416699Y310826D01*
X416789Y310720D01*
X416880Y310612D01*
X416882Y310611D01*
X416883Y310610D01*
X416895Y310602D01*
X416918Y310587D01*
X418499Y309006D01*
X419307Y307056D01*
X419307Y304944D01*
X418499Y302994D01*
X417006Y301501D01*
X415056Y300693D01*
X412944Y300693D01*
X410994Y301501D01*
X409501Y302994D01*
X408693Y304944D01*
X408693Y307056D01*
X409501Y309006D01*
X411063Y310568D01*
X411077Y310576D01*
X411078Y310578D01*
X411080Y310578D01*
X411178Y310683D01*
X411273Y310783D01*
X411273Y310785D01*
X411274Y310786D01*
X411339Y310911D01*
X411403Y311036D01*
X411403Y311037D01*
X411404Y311039D01*
X411406Y311054D01*
X411458Y311315D01*
X411455Y311345D01*
X411459Y311370D01*
X411459Y335527D01*
X411447Y335614D01*
X411444Y335701D01*
X411427Y335754D01*
X411419Y335809D01*
X411384Y335888D01*
X411357Y335972D01*
X411329Y336011D01*
X411303Y336068D01*
X411207Y336181D01*
X411162Y336245D01*
X389245Y358162D01*
X389175Y358214D01*
X389111Y358274D01*
X389062Y358300D01*
X389018Y358333D01*
X388936Y358364D01*
X388858Y358404D01*
X388811Y358412D01*
X388752Y358434D01*
X388604Y358446D01*
X388527Y358459D01*
X341585Y358459D01*
X341556Y358455D01*
X341527Y358458D01*
X341416Y358435D01*
X341303Y358419D01*
X341277Y358407D01*
X341248Y358402D01*
X341147Y358349D01*
X341044Y358303D01*
X341022Y358284D01*
X340996Y358271D01*
X340913Y358193D01*
X340827Y358120D01*
X340811Y358095D01*
X340789Y358075D01*
X340732Y357977D01*
X340669Y357883D01*
X340661Y357855D01*
X340646Y357830D01*
X340618Y357720D01*
X340584Y357612D01*
X340583Y357582D01*
X340576Y357554D01*
X340579Y357441D01*
X340576Y357328D01*
X340584Y357299D01*
X340585Y357270D01*
X340620Y357162D01*
X340648Y357053D01*
X340663Y357027D01*
X340672Y356999D01*
X340718Y356936D01*
X340793Y356808D01*
X340839Y356765D01*
X340867Y356726D01*
X342838Y354755D01*
X344999Y352594D01*
X345001Y352593D01*
X345002Y352591D01*
X345120Y352503D01*
X345227Y352423D01*
X345228Y352422D01*
X345230Y352421D01*
X345363Y352371D01*
X345492Y352322D01*
X345494Y352321D01*
X345496Y352321D01*
X345639Y352309D01*
X345776Y352298D01*
X345777Y352298D01*
X345779Y352298D01*
X345796Y352302D01*
X345819Y352307D01*
X348056Y352307D01*
X350006Y351499D01*
X351499Y350006D01*
X352307Y348056D01*
X352307Y345944D01*
X351499Y343994D01*
X350006Y342501D01*
X348056Y341693D01*
X345944Y341693D01*
X343994Y342501D01*
X342501Y343994D01*
X341693Y345944D01*
X341693Y348153D01*
X341697Y348169D01*
X341697Y348171D01*
X341698Y348173D01*
X341693Y348311D01*
X341689Y348453D01*
X341689Y348455D01*
X341689Y348457D01*
X341646Y348589D01*
X341603Y348724D01*
X341602Y348726D01*
X341601Y348727D01*
X341592Y348740D01*
X341445Y348960D01*
X341421Y348980D01*
X341406Y349001D01*
X339245Y351162D01*
X339175Y351214D01*
X339111Y351274D01*
X339062Y351300D01*
X339018Y351333D01*
X338936Y351364D01*
X338858Y351404D01*
X338811Y351412D01*
X338752Y351434D01*
X338604Y351446D01*
X338527Y351459D01*
X338497Y351459D01*
X338479Y351457D01*
X338469Y351458D01*
X338460Y351456D01*
X338438Y351458D01*
X338327Y351435D01*
X338215Y351419D01*
X338188Y351407D01*
X338160Y351402D01*
X338059Y351349D01*
X337956Y351303D01*
X337933Y351284D01*
X337907Y351271D01*
X337825Y351193D01*
X337739Y351120D01*
X337722Y351095D01*
X337701Y351075D01*
X337644Y350977D01*
X337581Y350883D01*
X337572Y350855D01*
X337557Y350830D01*
X337529Y350720D01*
X337495Y350612D01*
X337495Y350582D01*
X337487Y350554D01*
X337491Y350441D01*
X337488Y350328D01*
X337495Y350299D01*
X337496Y350270D01*
X337531Y350162D01*
X337560Y350053D01*
X337575Y350027D01*
X337584Y349999D01*
X337629Y349935D01*
X337705Y349808D01*
X337751Y349765D01*
X337779Y349726D01*
X338499Y349006D01*
X339307Y347056D01*
X339307Y344944D01*
X338499Y342994D01*
X337006Y341501D01*
X335056Y340693D01*
X332944Y340693D01*
X332399Y340919D01*
X332397Y340920D01*
X332396Y340920D01*
X332263Y340954D01*
X332123Y340990D01*
X332122Y340990D01*
X332120Y340991D01*
X331980Y340986D01*
X331839Y340982D01*
X331838Y340982D01*
X331836Y340982D01*
X331702Y340938D01*
X331569Y340895D01*
X331567Y340895D01*
X331566Y340894D01*
X331553Y340885D01*
X331332Y340737D01*
X331313Y340714D01*
X331292Y340699D01*
X297838Y307245D01*
X297786Y307175D01*
X297726Y307111D01*
X297700Y307062D01*
X297667Y307018D01*
X297636Y306936D01*
X297596Y306858D01*
X297588Y306811D01*
X297566Y306752D01*
X297554Y306604D01*
X297541Y306527D01*
X297541Y236948D01*
X201052Y140459D01*
X130948Y140459D01*
X120759Y150648D01*
X120759Y157970D01*
X120751Y158028D01*
X120753Y158086D01*
X120731Y158168D01*
X120719Y158252D01*
X120696Y158305D01*
X120681Y158361D01*
X120638Y158434D01*
X120603Y158511D01*
X120565Y158556D01*
X120536Y158606D01*
X120474Y158664D01*
X120420Y158728D01*
X120371Y158760D01*
X120328Y158800D01*
X120253Y158839D01*
X120183Y158886D01*
X120127Y158903D01*
X120075Y158930D01*
X120007Y158941D01*
X119912Y158971D01*
X119812Y158974D01*
X119744Y158985D01*
X113778Y158985D01*
X112885Y159878D01*
X112885Y178922D01*
X113778Y179815D01*
X132822Y179815D01*
X133715Y178922D01*
X133715Y159878D01*
X132822Y158985D01*
X126856Y158985D01*
X126798Y158977D01*
X126740Y158979D01*
X126658Y158957D01*
X126574Y158945D01*
X126521Y158922D01*
X126465Y158907D01*
X126392Y158864D01*
X126315Y158829D01*
X126270Y158791D01*
X126220Y158762D01*
X126162Y158700D01*
X126098Y158646D01*
X126066Y158597D01*
X126026Y158554D01*
X125987Y158479D01*
X125940Y158409D01*
X125923Y158353D01*
X125896Y158301D01*
X125885Y158233D01*
X125855Y158138D01*
X125852Y158038D01*
X125841Y157970D01*
X125841Y153173D01*
X125853Y153086D01*
X125856Y152999D01*
X125873Y152946D01*
X125881Y152891D01*
X125916Y152812D01*
X125943Y152728D01*
X125971Y152689D01*
X125997Y152632D01*
X126093Y152519D01*
X126138Y152455D01*
X132755Y145838D01*
X132825Y145786D01*
X132889Y145726D01*
X132938Y145700D01*
X132982Y145667D01*
X133064Y145636D01*
X133142Y145596D01*
X133189Y145588D01*
X133248Y145566D01*
X133396Y145554D01*
X133473Y145541D01*
X198527Y145541D01*
X198614Y145553D01*
X198701Y145556D01*
X198754Y145573D01*
X198809Y145581D01*
X198888Y145616D01*
X198972Y145643D01*
X199011Y145671D01*
X199068Y145697D01*
X199181Y145793D01*
X199245Y145838D01*
X292162Y238755D01*
X292214Y238825D01*
X292274Y238889D01*
X292300Y238938D01*
X292333Y238982D01*
X292364Y239064D01*
X292404Y239142D01*
X292412Y239189D01*
X292434Y239248D01*
X292446Y239396D01*
X292459Y239473D01*
X292459Y309052D01*
X294245Y310838D01*
X328396Y344989D01*
X328448Y345059D01*
X328508Y345123D01*
X328534Y345172D01*
X328567Y345216D01*
X328598Y345298D01*
X328638Y345376D01*
X328646Y345423D01*
X328668Y345482D01*
X328680Y345629D01*
X328693Y345707D01*
X328693Y347056D01*
X329501Y349006D01*
X330221Y349726D01*
X330239Y349750D01*
X330261Y349769D01*
X330324Y349863D01*
X330392Y349953D01*
X330403Y349981D01*
X330419Y350005D01*
X330453Y350113D01*
X330493Y350219D01*
X330496Y350248D01*
X330505Y350276D01*
X330508Y350390D01*
X330517Y350502D01*
X330511Y350531D01*
X330512Y350560D01*
X330483Y350670D01*
X330461Y350781D01*
X330448Y350807D01*
X330440Y350835D01*
X330382Y350933D01*
X330330Y351033D01*
X330310Y351055D01*
X330295Y351080D01*
X330212Y351157D01*
X330134Y351239D01*
X330109Y351254D01*
X330088Y351274D01*
X329987Y351326D01*
X329889Y351383D01*
X329861Y351390D01*
X329834Y351404D01*
X329757Y351417D01*
X329614Y351453D01*
X329551Y351451D01*
X329503Y351459D01*
X316473Y351459D01*
X316386Y351447D01*
X316299Y351444D01*
X316246Y351427D01*
X316191Y351419D01*
X316112Y351384D01*
X316028Y351357D01*
X315989Y351329D01*
X315932Y351303D01*
X315819Y351207D01*
X315755Y351162D01*
X279052Y314459D01*
X265948Y314459D01*
X242459Y337948D01*
X242459Y339503D01*
X242455Y339533D01*
X242458Y339562D01*
X242435Y339673D01*
X242419Y339785D01*
X242407Y339812D01*
X242402Y339840D01*
X242349Y339941D01*
X242303Y340044D01*
X242284Y340067D01*
X242271Y340093D01*
X242193Y340175D01*
X242120Y340261D01*
X242095Y340278D01*
X242075Y340299D01*
X241977Y340356D01*
X241883Y340419D01*
X241855Y340428D01*
X241830Y340443D01*
X241720Y340471D01*
X241612Y340505D01*
X241582Y340505D01*
X241554Y340513D01*
X241441Y340509D01*
X241328Y340512D01*
X241299Y340505D01*
X241270Y340504D01*
X241162Y340469D01*
X241053Y340440D01*
X241027Y340425D01*
X240999Y340416D01*
X240935Y340371D01*
X240808Y340295D01*
X240765Y340249D01*
X240726Y340221D01*
X239937Y339432D01*
X239923Y339424D01*
X239922Y339422D01*
X239920Y339422D01*
X239822Y339317D01*
X239727Y339217D01*
X239727Y339215D01*
X239726Y339214D01*
X239661Y339089D01*
X239597Y338964D01*
X239597Y338963D01*
X239596Y338961D01*
X239594Y338946D01*
X239542Y338685D01*
X239545Y338655D01*
X239541Y338630D01*
X239541Y283473D01*
X239553Y283386D01*
X239556Y283299D01*
X239573Y283246D01*
X239581Y283191D01*
X239616Y283112D01*
X239643Y283028D01*
X239671Y282989D01*
X239697Y282932D01*
X239793Y282819D01*
X239838Y282755D01*
X254585Y268008D01*
X254587Y268007D01*
X254587Y268006D01*
X254701Y267921D01*
X254812Y267837D01*
X254814Y267836D01*
X254815Y267835D01*
X254947Y267786D01*
X255078Y267736D01*
X255080Y267736D01*
X255081Y267735D01*
X255220Y267724D01*
X255361Y267712D01*
X255363Y267713D01*
X255365Y267712D01*
X255379Y267716D01*
X255640Y267768D01*
X255667Y267782D01*
X255692Y267788D01*
X256944Y268307D01*
X259056Y268307D01*
X261006Y267499D01*
X262499Y266006D01*
X263307Y264056D01*
X263307Y261944D01*
X262499Y259994D01*
X261006Y258501D01*
X259056Y257693D01*
X256944Y257693D01*
X254994Y258501D01*
X253501Y259994D01*
X252693Y261944D01*
X252693Y262293D01*
X252681Y262380D01*
X252678Y262467D01*
X252661Y262520D01*
X252653Y262575D01*
X252618Y262654D01*
X252591Y262738D01*
X252563Y262777D01*
X252537Y262834D01*
X252441Y262947D01*
X252396Y263011D01*
X234459Y280948D01*
X234459Y338630D01*
X234459Y338632D01*
X234459Y338633D01*
X234440Y338769D01*
X234419Y338912D01*
X234419Y338913D01*
X234419Y338915D01*
X234360Y339043D01*
X234303Y339171D01*
X234302Y339172D01*
X234301Y339174D01*
X234212Y339278D01*
X234120Y339388D01*
X234118Y339389D01*
X234117Y339390D01*
X234105Y339398D01*
X234082Y339413D01*
X232501Y340994D01*
X231938Y342354D01*
X231923Y342379D01*
X231914Y342407D01*
X231851Y342501D01*
X231793Y342599D01*
X231772Y342619D01*
X231756Y342643D01*
X231669Y342716D01*
X231587Y342794D01*
X231561Y342807D01*
X231538Y342826D01*
X231435Y342872D01*
X231334Y342924D01*
X231305Y342930D01*
X231278Y342941D01*
X231166Y342957D01*
X231055Y342979D01*
X231026Y342976D01*
X230997Y342980D01*
X230885Y342964D01*
X230772Y342954D01*
X230745Y342944D01*
X230716Y342940D01*
X230612Y342893D01*
X230507Y342852D01*
X230483Y342835D01*
X230456Y342823D01*
X230370Y342749D01*
X230280Y342681D01*
X230262Y342657D01*
X230240Y342638D01*
X230198Y342572D01*
X230110Y342453D01*
X230088Y342395D01*
X230062Y342354D01*
X229499Y340994D01*
X227937Y339432D01*
X227923Y339424D01*
X227922Y339422D01*
X227920Y339422D01*
X227822Y339317D01*
X227727Y339217D01*
X227727Y339215D01*
X227726Y339214D01*
X227661Y339089D01*
X227597Y338964D01*
X227597Y338963D01*
X227596Y338961D01*
X227594Y338946D01*
X227542Y338685D01*
X227545Y338655D01*
X227541Y338630D01*
X227541Y306948D01*
X175838Y255245D01*
X175786Y255175D01*
X175726Y255111D01*
X175700Y255062D01*
X175667Y255018D01*
X175636Y254936D01*
X175596Y254858D01*
X175588Y254811D01*
X175566Y254752D01*
X175554Y254604D01*
X175541Y254527D01*
X175541Y180830D01*
X175549Y180772D01*
X175547Y180714D01*
X175569Y180632D01*
X175581Y180548D01*
X175604Y180495D01*
X175619Y180439D01*
X175662Y180366D01*
X175697Y180289D01*
X175735Y180244D01*
X175764Y180194D01*
X175826Y180136D01*
X175880Y180072D01*
X175929Y180040D01*
X175972Y180000D01*
X176047Y179961D01*
X176117Y179914D01*
X176173Y179897D01*
X176225Y179870D01*
X176293Y179859D01*
X176388Y179829D01*
X176488Y179826D01*
X176556Y179815D01*
X183622Y179815D01*
X184515Y178922D01*
X184515Y159878D01*
X183622Y158985D01*
X164578Y158985D01*
X163685Y159878D01*
X163685Y178922D01*
X164578Y179815D01*
X169444Y179815D01*
X169502Y179823D01*
X169560Y179821D01*
X169642Y179843D01*
X169726Y179855D01*
X169779Y179878D01*
X169835Y179893D01*
X169908Y179936D01*
X169985Y179971D01*
X170030Y180009D01*
X170080Y180038D01*
X170138Y180100D01*
X170202Y180154D01*
X170234Y180203D01*
X170274Y180246D01*
X170313Y180321D01*
X170360Y180391D01*
X170377Y180447D01*
X170404Y180499D01*
X170415Y180567D01*
X170445Y180662D01*
X170448Y180762D01*
X170459Y180830D01*
X170459Y257052D01*
X222162Y308755D01*
X222214Y308825D01*
X222274Y308889D01*
X222300Y308938D01*
X222333Y308982D01*
X222364Y309064D01*
X222404Y309142D01*
X222412Y309189D01*
X222434Y309248D01*
X222446Y309396D01*
X222459Y309473D01*
X222459Y338630D01*
X222459Y338632D01*
X222459Y338633D01*
X222440Y338769D01*
X222419Y338912D01*
X222419Y338913D01*
X222419Y338915D01*
X222360Y339043D01*
X222303Y339171D01*
X222302Y339172D01*
X222301Y339174D01*
X222212Y339278D01*
X222120Y339388D01*
X222118Y339389D01*
X222117Y339390D01*
X222105Y339398D01*
X222082Y339413D01*
X220501Y340994D01*
X219693Y342944D01*
X219693Y343649D01*
X219689Y343678D01*
X219692Y343707D01*
X219669Y343818D01*
X219653Y343931D01*
X219641Y343957D01*
X219636Y343986D01*
X219584Y344087D01*
X219537Y344190D01*
X219518Y344212D01*
X219505Y344238D01*
X219427Y344321D01*
X219354Y344407D01*
X219329Y344423D01*
X219309Y344445D01*
X219211Y344502D01*
X219117Y344565D01*
X219089Y344573D01*
X219064Y344588D01*
X218954Y344616D01*
X218846Y344650D01*
X218816Y344651D01*
X218788Y344658D01*
X218675Y344655D01*
X218562Y344658D01*
X218533Y344650D01*
X218504Y344649D01*
X218396Y344614D01*
X218287Y344586D01*
X218261Y344571D01*
X218233Y344562D01*
X218170Y344516D01*
X218042Y344441D01*
X217999Y344395D01*
X217960Y344367D01*
X136052Y262459D01*
X133198Y262459D01*
X133197Y262459D01*
X133195Y262459D01*
X133056Y262439D01*
X132917Y262419D01*
X132915Y262419D01*
X132914Y262419D01*
X132788Y262362D01*
X132657Y262303D01*
X132656Y262302D01*
X132655Y262301D01*
X132548Y262210D01*
X132440Y262120D01*
X132440Y262118D01*
X132438Y262117D01*
X132430Y262104D01*
X132283Y261883D01*
X132274Y261854D01*
X132260Y261833D01*
X131499Y259994D01*
X130006Y258501D01*
X128056Y257693D01*
X125944Y257693D01*
X123994Y258501D01*
X122501Y259994D01*
X121693Y261944D01*
X121693Y264056D01*
X122501Y266006D01*
X123994Y267499D01*
X125944Y268307D01*
X128056Y268307D01*
X129718Y267618D01*
X129748Y267610D01*
X129776Y267596D01*
X129853Y267583D01*
X129994Y267547D01*
X130058Y267549D01*
X130107Y267541D01*
X133527Y267541D01*
X133614Y267553D01*
X133701Y267556D01*
X133754Y267573D01*
X133809Y267581D01*
X133888Y267616D01*
X133972Y267643D01*
X134011Y267671D01*
X134068Y267697D01*
X134181Y267793D01*
X134245Y267838D01*
X190644Y324237D01*
X190695Y324306D01*
X190755Y324368D01*
X190781Y324419D01*
X190815Y324464D01*
X190845Y324544D01*
X190885Y324621D01*
X190896Y324677D01*
X190916Y324730D01*
X190923Y324816D01*
X190940Y324900D01*
X190935Y324957D01*
X190940Y325013D01*
X190923Y325097D01*
X190915Y325183D01*
X190895Y325236D01*
X190884Y325292D01*
X190844Y325368D01*
X190813Y325448D01*
X190779Y325494D01*
X190753Y325544D01*
X190694Y325606D01*
X190642Y325675D01*
X190596Y325709D01*
X190557Y325750D01*
X190483Y325794D01*
X190414Y325845D01*
X190361Y325865D01*
X190312Y325894D01*
X190228Y325915D01*
X190148Y325946D01*
X190091Y325950D01*
X190036Y325964D01*
X189950Y325961D01*
X189865Y325968D01*
X189816Y325957D01*
X189752Y325955D01*
X189614Y325911D01*
X189537Y325893D01*
X189056Y325693D01*
X186944Y325693D01*
X184994Y326501D01*
X183501Y327994D01*
X182693Y329944D01*
X182693Y332153D01*
X182697Y332169D01*
X182697Y332171D01*
X182698Y332173D01*
X182693Y332312D01*
X182689Y332453D01*
X182689Y332455D01*
X182689Y332457D01*
X182646Y332589D01*
X182603Y332724D01*
X182602Y332726D01*
X182601Y332727D01*
X182592Y332740D01*
X182445Y332960D01*
X182421Y332980D01*
X182406Y333001D01*
X175459Y339948D01*
X175459Y350630D01*
X175459Y350632D01*
X175459Y350633D01*
X175439Y350770D01*
X175419Y350912D01*
X175419Y350913D01*
X175419Y350915D01*
X175360Y351044D01*
X175303Y351171D01*
X175302Y351172D01*
X175301Y351174D01*
X175211Y351280D01*
X175120Y351388D01*
X175118Y351389D01*
X175117Y351390D01*
X175105Y351398D01*
X175082Y351413D01*
X173501Y352994D01*
X172693Y354944D01*
X172693Y357056D01*
X173501Y359006D01*
X174994Y360499D01*
X176944Y361307D01*
X179056Y361307D01*
X181006Y360499D01*
X182499Y359006D01*
X183307Y357056D01*
X183307Y354944D01*
X182499Y352994D01*
X180937Y351432D01*
X180923Y351424D01*
X180922Y351422D01*
X180920Y351422D01*
X180822Y351317D01*
X180727Y351217D01*
X180727Y351215D01*
X180726Y351214D01*
X180661Y351089D01*
X180597Y350964D01*
X180597Y350963D01*
X180596Y350961D01*
X180594Y350946D01*
X180542Y350685D01*
X180545Y350655D01*
X180541Y350630D01*
X180541Y342473D01*
X180553Y342386D01*
X180556Y342299D01*
X180573Y342246D01*
X180581Y342191D01*
X180616Y342112D01*
X180643Y342028D01*
X180671Y341989D01*
X180697Y341932D01*
X180793Y341819D01*
X180838Y341755D01*
X185999Y336594D01*
X186001Y336593D01*
X186002Y336591D01*
X186120Y336503D01*
X186227Y336423D01*
X186228Y336422D01*
X186230Y336421D01*
X186363Y336371D01*
X186492Y336322D01*
X186494Y336321D01*
X186496Y336321D01*
X186639Y336309D01*
X186776Y336298D01*
X186777Y336298D01*
X186779Y336298D01*
X186796Y336302D01*
X186819Y336307D01*
X189056Y336307D01*
X191006Y335499D01*
X192499Y334006D01*
X193307Y332056D01*
X193307Y329944D01*
X193107Y329463D01*
X193086Y329379D01*
X193055Y329299D01*
X193050Y329242D01*
X193036Y329187D01*
X193039Y329101D01*
X193032Y329016D01*
X193043Y328960D01*
X193044Y328903D01*
X193070Y328821D01*
X193087Y328737D01*
X193114Y328686D01*
X193131Y328632D01*
X193179Y328561D01*
X193218Y328485D01*
X193257Y328444D01*
X193289Y328396D01*
X193355Y328341D01*
X193414Y328279D01*
X193463Y328250D01*
X193507Y328213D01*
X193585Y328178D01*
X193659Y328135D01*
X193715Y328121D01*
X193767Y328098D01*
X193852Y328086D01*
X193935Y328065D01*
X193992Y328067D01*
X194048Y328059D01*
X194133Y328071D01*
X194219Y328074D01*
X194273Y328091D01*
X194330Y328099D01*
X194408Y328135D01*
X194490Y328161D01*
X194530Y328190D01*
X194589Y328216D01*
X194699Y328311D01*
X194763Y328356D01*
X220162Y353755D01*
X221948Y355541D01*
X246052Y355541D01*
X247541Y354052D01*
X247541Y340473D01*
X247548Y340424D01*
X247547Y340413D01*
X247551Y340398D01*
X247553Y340386D01*
X247556Y340299D01*
X247573Y340246D01*
X247581Y340191D01*
X247616Y340112D01*
X247643Y340028D01*
X247671Y339989D01*
X247697Y339932D01*
X247793Y339819D01*
X247838Y339755D01*
X262960Y324633D01*
X262984Y324615D01*
X263003Y324593D01*
X263097Y324530D01*
X263187Y324462D01*
X263215Y324452D01*
X263239Y324435D01*
X263347Y324401D01*
X263453Y324361D01*
X263482Y324358D01*
X263510Y324350D01*
X263624Y324347D01*
X263736Y324337D01*
X263765Y324343D01*
X263794Y324342D01*
X263904Y324371D01*
X264015Y324393D01*
X264041Y324407D01*
X264069Y324414D01*
X264167Y324472D01*
X264267Y324524D01*
X264289Y324544D01*
X264314Y324559D01*
X264391Y324642D01*
X264473Y324720D01*
X264488Y324745D01*
X264508Y324767D01*
X264560Y324868D01*
X264617Y324965D01*
X264624Y324994D01*
X264638Y325020D01*
X264651Y325097D01*
X264687Y325241D01*
X264685Y325303D01*
X264693Y325351D01*
X264693Y327056D01*
X265501Y329006D01*
X266994Y330499D01*
X268944Y331307D01*
X271056Y331307D01*
X273006Y330499D01*
X274568Y328937D01*
X274576Y328923D01*
X274578Y328922D01*
X274578Y328920D01*
X274684Y328821D01*
X274783Y328727D01*
X274785Y328727D01*
X274786Y328726D01*
X274911Y328661D01*
X275036Y328597D01*
X275037Y328597D01*
X275039Y328596D01*
X275054Y328594D01*
X275315Y328542D01*
X275345Y328545D01*
X275370Y328541D01*
X276527Y328541D01*
X276614Y328553D01*
X276701Y328556D01*
X276754Y328573D01*
X276809Y328581D01*
X276888Y328616D01*
X276972Y328643D01*
X277011Y328671D01*
X277068Y328697D01*
X277181Y328793D01*
X277245Y328838D01*
X279689Y331282D01*
X279724Y331329D01*
X279767Y331369D01*
X279809Y331442D01*
X279860Y331509D01*
X279881Y331564D01*
X279910Y331614D01*
X279931Y331696D01*
X279961Y331775D01*
X279966Y331833D01*
X279980Y331890D01*
X279978Y331974D01*
X279985Y332058D01*
X279973Y332116D01*
X279971Y332174D01*
X279945Y332254D01*
X279929Y332337D01*
X279902Y332389D01*
X279884Y332445D01*
X279844Y332501D01*
X279798Y332589D01*
X279729Y332662D01*
X279689Y332718D01*
X252459Y359948D01*
X252459Y434623D01*
X252447Y434708D01*
X252445Y434794D01*
X252427Y434848D01*
X252419Y434904D01*
X252384Y434983D01*
X252358Y435065D01*
X252326Y435112D01*
X252303Y435164D01*
X252248Y435229D01*
X252200Y435301D01*
X252156Y435337D01*
X252120Y435381D01*
X252048Y435429D01*
X251982Y435484D01*
X251930Y435507D01*
X251883Y435538D01*
X251801Y435564D01*
X251722Y435599D01*
X251666Y435607D01*
X251612Y435624D01*
X251526Y435626D01*
X251441Y435638D01*
X251385Y435630D01*
X251328Y435631D01*
X251245Y435610D01*
X251159Y435597D01*
X251108Y435574D01*
X251053Y435560D01*
X250979Y435516D01*
X250900Y435480D01*
X250857Y435444D01*
X250808Y435414D01*
X250749Y435352D01*
X250684Y435296D01*
X250658Y435254D01*
X250614Y435207D01*
X250548Y435078D01*
X250506Y435011D01*
X250499Y434994D01*
X249006Y433501D01*
X247056Y432693D01*
X244944Y432693D01*
X242945Y433522D01*
X242833Y433550D01*
X242724Y433585D01*
X242696Y433586D01*
X242669Y433593D01*
X242555Y433589D01*
X242440Y433592D01*
X242413Y433585D01*
X242385Y433584D01*
X242276Y433549D01*
X242165Y433520D01*
X242141Y433506D01*
X242114Y433498D01*
X242019Y433434D01*
X241920Y433375D01*
X241901Y433355D01*
X241878Y433340D01*
X241804Y433252D01*
X241726Y433168D01*
X241713Y433143D01*
X241695Y433122D01*
X241649Y433017D01*
X241596Y432915D01*
X241592Y432890D01*
X241580Y432862D01*
X241543Y432598D01*
X241541Y432584D01*
X241541Y430385D01*
X241553Y430298D01*
X241556Y430211D01*
X241573Y430158D01*
X241581Y430103D01*
X241616Y430023D01*
X241643Y429940D01*
X241671Y429901D01*
X241697Y429844D01*
X241793Y429730D01*
X241838Y429667D01*
X242499Y429006D01*
X243307Y427056D01*
X243307Y424944D01*
X242499Y422994D01*
X241006Y421501D01*
X239056Y420693D01*
X236944Y420693D01*
X234994Y421501D01*
X233501Y422994D01*
X232693Y424944D01*
X232693Y427056D01*
X233501Y429006D01*
X234994Y430499D01*
X235833Y430846D01*
X235834Y430847D01*
X235835Y430847D01*
X235954Y430918D01*
X236077Y430991D01*
X236078Y430992D01*
X236080Y430993D01*
X236177Y431097D01*
X236273Y431197D01*
X236273Y431199D01*
X236274Y431200D01*
X236339Y431326D01*
X236403Y431450D01*
X236403Y431452D01*
X236404Y431453D01*
X236406Y431468D01*
X236458Y431729D01*
X236455Y431759D01*
X236459Y431784D01*
X236459Y442303D01*
X236443Y442417D01*
X236433Y442531D01*
X236423Y442557D01*
X236419Y442584D01*
X236372Y442689D01*
X236331Y442796D01*
X236315Y442818D01*
X236303Y442844D01*
X236229Y442931D01*
X236160Y443023D01*
X236137Y443040D01*
X236120Y443061D01*
X236024Y443124D01*
X235932Y443193D01*
X235906Y443203D01*
X235883Y443218D01*
X235773Y443253D01*
X235666Y443294D01*
X235638Y443296D01*
X235612Y443304D01*
X235497Y443307D01*
X235383Y443316D01*
X235358Y443311D01*
X235328Y443311D01*
X235071Y443244D01*
X235055Y443241D01*
X233734Y442693D01*
X231622Y442693D01*
X229672Y443501D01*
X228110Y445063D01*
X228102Y445077D01*
X228100Y445078D01*
X228100Y445080D01*
X227995Y445178D01*
X227895Y445273D01*
X227893Y445273D01*
X227892Y445274D01*
X227767Y445339D01*
X227642Y445403D01*
X227641Y445403D01*
X227639Y445404D01*
X227624Y445406D01*
X227363Y445458D01*
X227333Y445455D01*
X227308Y445459D01*
X219948Y445459D01*
X218245Y447162D01*
X216459Y448948D01*
X216459Y473527D01*
X216451Y473585D01*
X216453Y473643D01*
X216445Y473672D01*
X216444Y473701D01*
X216427Y473754D01*
X216419Y473809D01*
X216395Y473862D01*
X216381Y473918D01*
X216366Y473943D01*
X216357Y473972D01*
X216329Y474011D01*
X216303Y474068D01*
X216265Y474113D01*
X216236Y474163D01*
X216190Y474205D01*
X216162Y474245D01*
X211245Y479162D01*
X211175Y479214D01*
X211111Y479274D01*
X211062Y479300D01*
X211018Y479333D01*
X210936Y479364D01*
X210858Y479404D01*
X210811Y479412D01*
X210752Y479434D01*
X210604Y479446D01*
X210527Y479459D01*
X188473Y479459D01*
X188386Y479447D01*
X188299Y479444D01*
X188246Y479427D01*
X188191Y479419D01*
X188112Y479384D01*
X188028Y479357D01*
X187989Y479329D01*
X187932Y479303D01*
X187819Y479207D01*
X187755Y479162D01*
X184838Y476245D01*
X184830Y476234D01*
X184828Y476233D01*
X184824Y476226D01*
X184786Y476175D01*
X184726Y476111D01*
X184700Y476062D01*
X184667Y476018D01*
X184636Y475936D01*
X184596Y475858D01*
X184588Y475811D01*
X184566Y475752D01*
X184554Y475604D01*
X184541Y475527D01*
X184541Y461948D01*
X170052Y447459D01*
X124948Y447459D01*
X123162Y449245D01*
X119245Y453162D01*
X117459Y454948D01*
X117459Y564630D01*
X117459Y564632D01*
X117459Y564633D01*
X117439Y564774D01*
X117419Y564912D01*
X117419Y564913D01*
X117419Y564915D01*
X117360Y565044D01*
X117303Y565171D01*
X117302Y565172D01*
X117301Y565174D01*
X117211Y565280D01*
X117120Y565388D01*
X117118Y565389D01*
X117117Y565390D01*
X117105Y565398D01*
X117082Y565413D01*
X115501Y566994D01*
X114693Y568944D01*
X114693Y571056D01*
X115501Y573006D01*
X116994Y574499D01*
X118944Y575307D01*
X121056Y575307D01*
X123006Y574499D01*
X124499Y573006D01*
X125307Y571056D01*
X125307Y568944D01*
X124499Y566994D01*
X122937Y565432D01*
X122923Y565424D01*
X122922Y565422D01*
X122920Y565422D01*
X122822Y565317D01*
X122727Y565217D01*
X122727Y565215D01*
X122726Y565214D01*
X122661Y565089D01*
X122597Y564964D01*
X122597Y564963D01*
X122596Y564961D01*
X122594Y564946D01*
X122542Y564685D01*
X122545Y564655D01*
X122541Y564630D01*
X122541Y457473D01*
X122553Y457386D01*
X122556Y457299D01*
X122573Y457246D01*
X122581Y457191D01*
X122616Y457112D01*
X122643Y457028D01*
X122671Y456989D01*
X122697Y456932D01*
X122793Y456819D01*
X122838Y456755D01*
X126755Y452838D01*
X126825Y452786D01*
X126889Y452726D01*
X126938Y452700D01*
X126982Y452667D01*
X127064Y452636D01*
X127142Y452596D01*
X127189Y452588D01*
X127248Y452566D01*
X127396Y452554D01*
X127473Y452541D01*
X167527Y452541D01*
X167614Y452553D01*
X167701Y452556D01*
X167754Y452573D01*
X167809Y452581D01*
X167888Y452616D01*
X167972Y452643D01*
X168011Y452671D01*
X168068Y452697D01*
X168181Y452793D01*
X168245Y452838D01*
X179162Y463755D01*
X179214Y463825D01*
X179274Y463889D01*
X179300Y463938D01*
X179333Y463982D01*
X179364Y464064D01*
X179404Y464142D01*
X179412Y464189D01*
X179434Y464248D01*
X179446Y464396D01*
X179459Y464473D01*
X179459Y478052D01*
X185948Y484541D01*
X213052Y484541D01*
X214838Y482755D01*
X219755Y477838D01*
X221541Y476052D01*
X221541Y451556D01*
X221549Y451498D01*
X221547Y451440D01*
X221569Y451358D01*
X221581Y451274D01*
X221604Y451221D01*
X221619Y451165D01*
X221662Y451092D01*
X221697Y451015D01*
X221735Y450970D01*
X221764Y450920D01*
X221826Y450862D01*
X221880Y450798D01*
X221929Y450766D01*
X221972Y450726D01*
X222047Y450687D01*
X222117Y450640D01*
X222173Y450623D01*
X222225Y450596D01*
X222293Y450585D01*
X222388Y450555D01*
X222488Y450552D01*
X222556Y450541D01*
X227308Y450541D01*
X227310Y450541D01*
X227311Y450541D01*
X227452Y450561D01*
X227590Y450581D01*
X227591Y450581D01*
X227593Y450581D01*
X227722Y450640D01*
X227849Y450697D01*
X227850Y450698D01*
X227852Y450699D01*
X227958Y450789D01*
X228066Y450880D01*
X228067Y450882D01*
X228068Y450883D01*
X228076Y450895D01*
X228091Y450918D01*
X229672Y452499D01*
X231622Y453307D01*
X233734Y453307D01*
X235055Y452759D01*
X235167Y452731D01*
X235276Y452696D01*
X235304Y452695D01*
X235331Y452688D01*
X235445Y452692D01*
X235560Y452689D01*
X235587Y452696D01*
X235615Y452696D01*
X235724Y452731D01*
X235835Y452760D01*
X235859Y452775D01*
X235886Y452783D01*
X235981Y452847D01*
X236080Y452906D01*
X236099Y452926D01*
X236122Y452941D01*
X236196Y453029D01*
X236274Y453113D01*
X236287Y453138D01*
X236305Y453159D01*
X236351Y453264D01*
X236404Y453366D01*
X236408Y453391D01*
X236420Y453419D01*
X236457Y453682D01*
X236459Y453697D01*
X236459Y467527D01*
X236447Y467614D01*
X236444Y467701D01*
X236427Y467754D01*
X236419Y467809D01*
X236384Y467888D01*
X236357Y467972D01*
X236329Y468011D01*
X236303Y468068D01*
X236207Y468181D01*
X236162Y468245D01*
X219459Y484948D01*
X219459Y584293D01*
X219447Y584380D01*
X219444Y584467D01*
X219427Y584520D01*
X219419Y584575D01*
X219384Y584655D01*
X219357Y584738D01*
X219329Y584777D01*
X219303Y584834D01*
X219207Y584948D01*
X219162Y585011D01*
X218179Y585994D01*
X217371Y587944D01*
X217371Y590056D01*
X218179Y592006D01*
X219672Y593499D01*
X221622Y594307D01*
X223734Y594307D01*
X225684Y593499D01*
X227177Y592006D01*
X227985Y590056D01*
X227985Y587944D01*
X227177Y585994D01*
X225684Y584501D01*
X225167Y584287D01*
X225166Y584286D01*
X225165Y584286D01*
X225046Y584216D01*
X224923Y584143D01*
X224922Y584142D01*
X224920Y584141D01*
X224819Y584033D01*
X224727Y583936D01*
X224727Y583935D01*
X224726Y583933D01*
X224661Y583808D01*
X224597Y583683D01*
X224597Y583682D01*
X224596Y583680D01*
X224594Y583665D01*
X224542Y583404D01*
X224545Y583374D01*
X224541Y583349D01*
X224541Y487473D01*
X224553Y487386D01*
X224556Y487299D01*
X224573Y487246D01*
X224581Y487191D01*
X224616Y487112D01*
X224643Y487028D01*
X224671Y486989D01*
X224697Y486932D01*
X224793Y486819D01*
X224838Y486755D01*
X228726Y482867D01*
X228750Y482849D01*
X228769Y482827D01*
X228863Y482764D01*
X228953Y482696D01*
X228981Y482686D01*
X229005Y482669D01*
X229113Y482635D01*
X229219Y482595D01*
X229248Y482592D01*
X229276Y482584D01*
X229390Y482581D01*
X229502Y482571D01*
X229531Y482577D01*
X229560Y482576D01*
X229670Y482605D01*
X229781Y482627D01*
X229807Y482641D01*
X229835Y482648D01*
X229933Y482706D01*
X230033Y482758D01*
X230055Y482778D01*
X230080Y482793D01*
X230157Y482876D01*
X230239Y482954D01*
X230254Y482979D01*
X230274Y483001D01*
X230326Y483102D01*
X230383Y483199D01*
X230390Y483228D01*
X230404Y483254D01*
X230417Y483331D01*
X230453Y483475D01*
X230451Y483537D01*
X230459Y483585D01*
X230459Y535216D01*
X230459Y535217D01*
X230459Y535219D01*
X230439Y535356D01*
X230419Y535497D01*
X230419Y535499D01*
X230419Y535500D01*
X230362Y535625D01*
X230303Y535757D01*
X230302Y535758D01*
X230301Y535759D01*
X230210Y535867D01*
X230120Y535974D01*
X230118Y535975D01*
X230117Y535976D01*
X230104Y535984D01*
X229883Y536131D01*
X229854Y536141D01*
X229833Y536154D01*
X228994Y536501D01*
X227501Y537994D01*
X226693Y539944D01*
X226693Y542056D01*
X227501Y544006D01*
X228994Y545499D01*
X230944Y546307D01*
X233056Y546307D01*
X235006Y545499D01*
X235726Y544779D01*
X235750Y544761D01*
X235769Y544739D01*
X235863Y544676D01*
X235953Y544608D01*
X235981Y544597D01*
X236005Y544581D01*
X236113Y544547D01*
X236219Y544507D01*
X236248Y544504D01*
X236276Y544495D01*
X236390Y544492D01*
X236502Y544483D01*
X236531Y544489D01*
X236560Y544488D01*
X236670Y544517D01*
X236781Y544539D01*
X236807Y544552D01*
X236835Y544560D01*
X236933Y544618D01*
X237033Y544670D01*
X237055Y544690D01*
X237080Y544705D01*
X237157Y544788D01*
X237239Y544866D01*
X237254Y544891D01*
X237274Y544912D01*
X237326Y545013D01*
X237383Y545111D01*
X237390Y545139D01*
X237404Y545166D01*
X237417Y545243D01*
X237453Y545386D01*
X237451Y545449D01*
X237459Y545497D01*
X237459Y612052D01*
X248948Y623541D01*
X251630Y623541D01*
X251632Y623541D01*
X251633Y623541D01*
X251774Y623561D01*
X251912Y623581D01*
X251913Y623581D01*
X251915Y623581D01*
X252044Y623640D01*
X252171Y623697D01*
X252172Y623698D01*
X252174Y623699D01*
X252280Y623789D01*
X252388Y623880D01*
X252389Y623882D01*
X252390Y623883D01*
X252398Y623895D01*
X252413Y623918D01*
X253994Y625499D01*
X255944Y626307D01*
X258056Y626307D01*
X260006Y625499D01*
X261499Y624006D01*
X262307Y622056D01*
X262307Y619944D01*
X261499Y617994D01*
X260006Y616501D01*
X258056Y615693D01*
X255944Y615693D01*
X253994Y616501D01*
X252432Y618063D01*
X252424Y618077D01*
X252422Y618078D01*
X252422Y618080D01*
X252317Y618178D01*
X252217Y618273D01*
X252215Y618273D01*
X252214Y618274D01*
X252089Y618339D01*
X251964Y618403D01*
X251963Y618403D01*
X251961Y618404D01*
X251946Y618406D01*
X251685Y618458D01*
X251655Y618455D01*
X251630Y618459D01*
X251473Y618459D01*
X251386Y618447D01*
X251299Y618444D01*
X251246Y618427D01*
X251191Y618419D01*
X251112Y618384D01*
X251028Y618357D01*
X250989Y618329D01*
X250932Y618303D01*
X250819Y618207D01*
X250755Y618162D01*
X242838Y610245D01*
X242786Y610175D01*
X242726Y610111D01*
X242700Y610062D01*
X242667Y610018D01*
X242636Y609936D01*
X242596Y609858D01*
X242588Y609811D01*
X242566Y609752D01*
X242554Y609604D01*
X242541Y609527D01*
X242541Y592585D01*
X242545Y592556D01*
X242542Y592527D01*
X242565Y592416D01*
X242581Y592303D01*
X242593Y592277D01*
X242598Y592248D01*
X242650Y592147D01*
X242697Y592044D01*
X242716Y592022D01*
X242729Y591996D01*
X242807Y591914D01*
X242880Y591827D01*
X242905Y591811D01*
X242925Y591789D01*
X243023Y591732D01*
X243117Y591669D01*
X243145Y591661D01*
X243170Y591646D01*
X243280Y591618D01*
X243388Y591584D01*
X243418Y591583D01*
X243446Y591576D01*
X243559Y591579D01*
X243672Y591576D01*
X243701Y591584D01*
X243730Y591585D01*
X243838Y591620D01*
X243947Y591648D01*
X243973Y591663D01*
X244001Y591672D01*
X244064Y591718D01*
X244192Y591793D01*
X244235Y591839D01*
X244274Y591867D01*
X253162Y600755D01*
X254948Y602541D01*
X269527Y602541D01*
X269614Y602553D01*
X269701Y602556D01*
X269754Y602573D01*
X269809Y602581D01*
X269888Y602616D01*
X269972Y602643D01*
X270011Y602671D01*
X270068Y602697D01*
X270181Y602793D01*
X270245Y602838D01*
X276162Y608755D01*
X276214Y608825D01*
X276274Y608889D01*
X276300Y608938D01*
X276333Y608982D01*
X276364Y609064D01*
X276404Y609142D01*
X276412Y609189D01*
X276434Y609248D01*
X276446Y609396D01*
X276459Y609473D01*
X276459Y629527D01*
X276447Y629614D01*
X276444Y629701D01*
X276427Y629754D01*
X276419Y629809D01*
X276384Y629888D01*
X276357Y629972D01*
X276329Y630011D01*
X276303Y630068D01*
X276207Y630181D01*
X276162Y630245D01*
X259245Y647162D01*
X259175Y647214D01*
X259111Y647274D01*
X259062Y647300D01*
X259018Y647333D01*
X258936Y647364D01*
X258858Y647404D01*
X258811Y647412D01*
X258752Y647434D01*
X258604Y647446D01*
X258527Y647459D01*
X178473Y647459D01*
X178386Y647447D01*
X178299Y647444D01*
X178246Y647427D01*
X178191Y647419D01*
X178112Y647384D01*
X178028Y647357D01*
X177989Y647329D01*
X177932Y647303D01*
X177819Y647207D01*
X177755Y647162D01*
X122594Y592001D01*
X122593Y591999D01*
X122591Y591998D01*
X122579Y591981D01*
X122567Y591971D01*
X122531Y591917D01*
X122503Y591880D01*
X122423Y591773D01*
X122422Y591772D01*
X122421Y591770D01*
X122370Y591636D01*
X122322Y591508D01*
X122321Y591506D01*
X122321Y591504D01*
X122309Y591361D01*
X122298Y591224D01*
X122298Y591223D01*
X122298Y591221D01*
X122302Y591204D01*
X122307Y591181D01*
X122307Y588944D01*
X121499Y586994D01*
X120006Y585501D01*
X118056Y584693D01*
X115944Y584693D01*
X113994Y585501D01*
X112501Y586994D01*
X111693Y588944D01*
X111693Y591056D01*
X112501Y593006D01*
X113994Y594499D01*
X115944Y595307D01*
X118153Y595307D01*
X118169Y595303D01*
X118171Y595303D01*
X118173Y595302D01*
X118312Y595307D01*
X118453Y595311D01*
X118455Y595311D01*
X118457Y595311D01*
X118589Y595354D01*
X118724Y595397D01*
X118726Y595398D01*
X118727Y595399D01*
X118740Y595408D01*
X118960Y595555D01*
X118980Y595579D01*
X119001Y595594D01*
X174513Y651106D01*
X174531Y651130D01*
X174553Y651149D01*
X174616Y651243D01*
X174684Y651333D01*
X174694Y651361D01*
X174711Y651385D01*
X174745Y651493D01*
X174785Y651599D01*
X174788Y651628D01*
X174796Y651656D01*
X174799Y651770D01*
X174809Y651882D01*
X174803Y651911D01*
X174804Y651940D01*
X174775Y652050D01*
X174753Y652161D01*
X174739Y652187D01*
X174732Y652215D01*
X174674Y652313D01*
X174622Y652413D01*
X174602Y652435D01*
X174587Y652460D01*
X174504Y652537D01*
X174426Y652619D01*
X174401Y652634D01*
X174379Y652654D01*
X174278Y652706D01*
X174181Y652763D01*
X174152Y652770D01*
X174126Y652784D01*
X174049Y652797D01*
X173905Y652833D01*
X173843Y652831D01*
X173795Y652839D01*
X0Y652839D01*
X-58Y652831D01*
X-116Y652833D01*
X-198Y652811D01*
X-282Y652799D01*
X-335Y652776D01*
X-391Y652761D01*
X-464Y652718D01*
X-541Y652683D01*
X-586Y652645D01*
X-636Y652616D01*
X-694Y652554D01*
X-758Y652500D01*
X-790Y652451D01*
X-830Y652408D01*
X-869Y652333D01*
X-916Y652263D01*
X-933Y652207D01*
X-960Y652155D01*
X-971Y652087D01*
X-1001Y651992D01*
X-1004Y651892D01*
X-1015Y651824D01*
X-1015Y8173D01*
X-1007Y8116D01*
X-1009Y8058D01*
X-987Y7976D01*
X-975Y7891D01*
X-952Y7839D01*
X-937Y7783D01*
X-894Y7710D01*
X-859Y7632D01*
X-822Y7588D01*
X-793Y7538D01*
X-731Y7480D01*
X-676Y7415D01*
X-628Y7383D01*
X-586Y7343D01*
X-510Y7305D01*
X-439Y7257D01*
X-384Y7240D01*
X-333Y7214D01*
X-264Y7202D01*
X-168Y7172D01*
X-69Y7169D01*
X-2Y7158D01*
X409998Y6512D01*
X410057Y6520D01*
G37*
%LPC*%
G36*
X230944Y134693D02*
X230944Y134693D01*
X228994Y135501D01*
X227501Y136994D01*
X226693Y138944D01*
X226693Y141056D01*
X227501Y143006D01*
X228994Y144499D01*
X230944Y145307D01*
X233153Y145307D01*
X233169Y145303D01*
X233171Y145303D01*
X233173Y145302D01*
X233312Y145307D01*
X233453Y145311D01*
X233455Y145311D01*
X233457Y145311D01*
X233589Y145354D01*
X233724Y145397D01*
X233726Y145398D01*
X233727Y145399D01*
X233740Y145408D01*
X233960Y145555D01*
X233980Y145579D01*
X234001Y145594D01*
X239162Y150755D01*
X239214Y150825D01*
X239274Y150889D01*
X239300Y150938D01*
X239333Y150982D01*
X239364Y151064D01*
X239404Y151142D01*
X239412Y151189D01*
X239434Y151248D01*
X239446Y151396D01*
X239459Y151473D01*
X239459Y168052D01*
X302733Y231327D01*
X302786Y231396D01*
X302846Y231460D01*
X302871Y231510D01*
X302904Y231554D01*
X302935Y231635D01*
X302975Y231713D01*
X302983Y231761D01*
X303005Y231819D01*
X303018Y231967D01*
X303031Y232044D01*
X303031Y295366D01*
X303018Y295452D01*
X303016Y295540D01*
X302999Y295593D01*
X302991Y295647D01*
X302955Y295727D01*
X302928Y295811D01*
X302900Y295850D01*
X302875Y295907D01*
X302779Y296020D01*
X302733Y296084D01*
X302501Y296316D01*
X301693Y298266D01*
X301693Y300378D01*
X302501Y302328D01*
X303994Y303821D01*
X305944Y304629D01*
X308056Y304629D01*
X310006Y303821D01*
X311499Y302328D01*
X312307Y300378D01*
X312307Y298266D01*
X311499Y296316D01*
X310006Y294823D01*
X308739Y294298D01*
X308738Y294298D01*
X308736Y294297D01*
X308616Y294226D01*
X308494Y294154D01*
X308493Y294153D01*
X308492Y294152D01*
X308394Y294048D01*
X308299Y293947D01*
X308298Y293946D01*
X308297Y293945D01*
X308231Y293816D01*
X308169Y293694D01*
X308168Y293693D01*
X308168Y293691D01*
X308165Y293677D01*
X308114Y293415D01*
X308116Y293385D01*
X308112Y293360D01*
X308112Y229519D01*
X250356Y171763D01*
X250305Y171694D01*
X250245Y171632D01*
X250219Y171581D01*
X250185Y171536D01*
X250155Y171456D01*
X250115Y171379D01*
X250104Y171323D01*
X250084Y171270D01*
X250077Y171184D01*
X250060Y171100D01*
X250065Y171043D01*
X250060Y170987D01*
X250077Y170903D01*
X250085Y170817D01*
X250105Y170764D01*
X250116Y170708D01*
X250156Y170632D01*
X250187Y170552D01*
X250221Y170506D01*
X250247Y170456D01*
X250306Y170394D01*
X250358Y170325D01*
X250404Y170291D01*
X250443Y170250D01*
X250517Y170206D01*
X250586Y170155D01*
X250639Y170135D01*
X250688Y170106D01*
X250772Y170085D01*
X250852Y170054D01*
X250909Y170050D01*
X250964Y170036D01*
X251050Y170039D01*
X251135Y170032D01*
X251184Y170043D01*
X251248Y170045D01*
X251386Y170089D01*
X251463Y170107D01*
X251944Y170307D01*
X254056Y170307D01*
X256006Y169499D01*
X257568Y167937D01*
X257576Y167923D01*
X257578Y167922D01*
X257578Y167920D01*
X257683Y167822D01*
X257783Y167727D01*
X257785Y167727D01*
X257786Y167726D01*
X257911Y167661D01*
X258036Y167597D01*
X258037Y167597D01*
X258039Y167596D01*
X258054Y167594D01*
X258315Y167542D01*
X258345Y167545D01*
X258370Y167541D01*
X264527Y167541D01*
X264614Y167553D01*
X264701Y167556D01*
X264754Y167573D01*
X264809Y167581D01*
X264888Y167616D01*
X264972Y167643D01*
X265011Y167671D01*
X265068Y167697D01*
X265181Y167793D01*
X265245Y167838D01*
X317162Y219755D01*
X317214Y219825D01*
X317274Y219889D01*
X317300Y219938D01*
X317333Y219982D01*
X317364Y220064D01*
X317404Y220142D01*
X317412Y220189D01*
X317434Y220248D01*
X317446Y220396D01*
X317459Y220473D01*
X317459Y260052D01*
X341406Y283999D01*
X341407Y284001D01*
X341409Y284002D01*
X341417Y284013D01*
X341419Y284015D01*
X341427Y284026D01*
X341497Y284120D01*
X341577Y284227D01*
X341578Y284228D01*
X341579Y284230D01*
X341629Y284362D01*
X341678Y284492D01*
X341679Y284494D01*
X341679Y284496D01*
X341691Y284639D01*
X341702Y284776D01*
X341702Y284777D01*
X341702Y284779D01*
X341698Y284796D01*
X341693Y284819D01*
X341693Y287056D01*
X342501Y289006D01*
X343994Y290499D01*
X345944Y291307D01*
X348056Y291307D01*
X350006Y290499D01*
X350726Y289779D01*
X350750Y289761D01*
X350769Y289739D01*
X350863Y289676D01*
X350953Y289608D01*
X350981Y289597D01*
X351005Y289581D01*
X351113Y289547D01*
X351219Y289507D01*
X351248Y289504D01*
X351276Y289495D01*
X351390Y289492D01*
X351502Y289483D01*
X351531Y289489D01*
X351560Y289488D01*
X351670Y289517D01*
X351781Y289539D01*
X351807Y289552D01*
X351835Y289560D01*
X351933Y289618D01*
X352033Y289670D01*
X352055Y289690D01*
X352080Y289705D01*
X352157Y289788D01*
X352239Y289866D01*
X352254Y289891D01*
X352274Y289912D01*
X352326Y290013D01*
X352383Y290111D01*
X352390Y290139D01*
X352404Y290166D01*
X352417Y290243D01*
X352453Y290386D01*
X352451Y290449D01*
X352459Y290497D01*
X352459Y291527D01*
X352447Y291614D01*
X352444Y291701D01*
X352427Y291754D01*
X352419Y291809D01*
X352384Y291888D01*
X352357Y291972D01*
X352329Y292011D01*
X352303Y292068D01*
X352207Y292181D01*
X352162Y292245D01*
X348949Y295458D01*
X348879Y295511D01*
X348815Y295571D01*
X348765Y295596D01*
X348721Y295629D01*
X348640Y295660D01*
X348562Y295700D01*
X348514Y295708D01*
X348456Y295730D01*
X348308Y295743D01*
X348231Y295756D01*
X327248Y295756D01*
X327246Y295755D01*
X327245Y295756D01*
X327104Y295735D01*
X326966Y295716D01*
X326965Y295715D01*
X326963Y295715D01*
X326834Y295656D01*
X326707Y295600D01*
X326706Y295599D01*
X326704Y295598D01*
X326598Y295507D01*
X326490Y295416D01*
X326489Y295415D01*
X326488Y295414D01*
X326480Y295401D01*
X326465Y295379D01*
X324884Y293798D01*
X322934Y292990D01*
X320822Y292990D01*
X318872Y293798D01*
X317379Y295290D01*
X316571Y297241D01*
X316571Y299352D01*
X317379Y301302D01*
X318872Y302795D01*
X318935Y302821D01*
X318960Y302836D01*
X318988Y302845D01*
X319082Y302908D01*
X319180Y302966D01*
X319200Y302987D01*
X319224Y303003D01*
X319297Y303090D01*
X319375Y303172D01*
X319388Y303199D01*
X319407Y303221D01*
X319453Y303324D01*
X319505Y303425D01*
X319511Y303454D01*
X319523Y303481D01*
X319538Y303593D01*
X319560Y303704D01*
X319558Y303733D01*
X319562Y303762D01*
X319545Y303874D01*
X319536Y303987D01*
X319525Y304015D01*
X319521Y304044D01*
X319474Y304147D01*
X319434Y304253D01*
X319416Y304276D01*
X319404Y304303D01*
X319331Y304389D01*
X319262Y304479D01*
X319239Y304497D01*
X319220Y304519D01*
X319153Y304561D01*
X319034Y304650D01*
X318976Y304672D01*
X318935Y304697D01*
X316994Y305501D01*
X315501Y306994D01*
X314693Y308944D01*
X314693Y311056D01*
X315501Y313006D01*
X316994Y314499D01*
X318944Y315307D01*
X321056Y315307D01*
X323006Y314499D01*
X324568Y312937D01*
X324576Y312923D01*
X324578Y312922D01*
X324578Y312920D01*
X324683Y312822D01*
X324783Y312727D01*
X324785Y312727D01*
X324786Y312726D01*
X324911Y312661D01*
X325036Y312597D01*
X325037Y312597D01*
X325039Y312596D01*
X325054Y312594D01*
X325315Y312542D01*
X325345Y312545D01*
X325370Y312541D01*
X359052Y312541D01*
X364541Y307052D01*
X364541Y276377D01*
X364553Y276292D01*
X364555Y276206D01*
X364573Y276152D01*
X364581Y276096D01*
X364616Y276017D01*
X364642Y275935D01*
X364674Y275888D01*
X364697Y275836D01*
X364752Y275771D01*
X364800Y275699D01*
X364844Y275662D01*
X364880Y275619D01*
X364952Y275571D01*
X365018Y275516D01*
X365070Y275493D01*
X365117Y275462D01*
X365199Y275436D01*
X365278Y275401D01*
X365334Y275393D01*
X365388Y275376D01*
X365474Y275374D01*
X365559Y275362D01*
X365616Y275370D01*
X365672Y275368D01*
X365756Y275390D01*
X365841Y275403D01*
X365892Y275426D01*
X365947Y275440D01*
X366021Y275484D01*
X366100Y275520D01*
X366143Y275557D01*
X366192Y275586D01*
X366251Y275648D01*
X366316Y275704D01*
X366342Y275746D01*
X366386Y275793D01*
X366452Y275922D01*
X366494Y275989D01*
X366501Y276006D01*
X368063Y277568D01*
X368077Y277576D01*
X368078Y277578D01*
X368080Y277578D01*
X368178Y277683D01*
X368273Y277783D01*
X368273Y277785D01*
X368274Y277786D01*
X368339Y277911D01*
X368403Y278036D01*
X368403Y278037D01*
X368404Y278039D01*
X368406Y278054D01*
X368458Y278315D01*
X368455Y278345D01*
X368459Y278370D01*
X368459Y324630D01*
X368459Y324632D01*
X368459Y324633D01*
X368440Y324767D01*
X368419Y324912D01*
X368419Y324913D01*
X368419Y324915D01*
X368360Y325044D01*
X368303Y325171D01*
X368302Y325172D01*
X368301Y325174D01*
X368211Y325280D01*
X368120Y325388D01*
X368118Y325389D01*
X368117Y325390D01*
X368105Y325398D01*
X368082Y325413D01*
X366501Y326994D01*
X365693Y328944D01*
X365693Y331056D01*
X366501Y333006D01*
X367994Y334499D01*
X369944Y335307D01*
X372056Y335307D01*
X374006Y334499D01*
X375499Y333006D01*
X376307Y331056D01*
X376307Y328944D01*
X375499Y326994D01*
X373937Y325432D01*
X373923Y325424D01*
X373922Y325422D01*
X373920Y325422D01*
X373822Y325317D01*
X373727Y325217D01*
X373727Y325215D01*
X373726Y325214D01*
X373661Y325089D01*
X373597Y324964D01*
X373597Y324963D01*
X373596Y324961D01*
X373594Y324946D01*
X373542Y324685D01*
X373545Y324655D01*
X373541Y324630D01*
X373541Y278370D01*
X373541Y278368D01*
X373541Y278367D01*
X373561Y278226D01*
X373581Y278088D01*
X373581Y278087D01*
X373581Y278085D01*
X373640Y277956D01*
X373697Y277829D01*
X373698Y277828D01*
X373699Y277826D01*
X373789Y277720D01*
X373880Y277612D01*
X373882Y277611D01*
X373883Y277610D01*
X373895Y277602D01*
X373918Y277587D01*
X375499Y276006D01*
X376307Y274056D01*
X376307Y271944D01*
X375499Y269994D01*
X374006Y268501D01*
X372056Y267693D01*
X369944Y267693D01*
X367994Y268501D01*
X366501Y269994D01*
X366494Y270011D01*
X366450Y270085D01*
X366415Y270164D01*
X366378Y270207D01*
X366350Y270256D01*
X366287Y270315D01*
X366231Y270381D01*
X366184Y270412D01*
X366143Y270451D01*
X366066Y270491D01*
X365995Y270538D01*
X365941Y270556D01*
X365890Y270582D01*
X365806Y270598D01*
X365724Y270624D01*
X365667Y270626D01*
X365611Y270637D01*
X365526Y270629D01*
X365440Y270632D01*
X365385Y270617D01*
X365328Y270612D01*
X365248Y270581D01*
X365165Y270560D01*
X365116Y270531D01*
X365063Y270510D01*
X364994Y270458D01*
X364920Y270414D01*
X364881Y270373D01*
X364836Y270339D01*
X364784Y270270D01*
X364726Y270207D01*
X364700Y270156D01*
X364666Y270111D01*
X364635Y270031D01*
X364596Y269954D01*
X364588Y269905D01*
X364565Y269845D01*
X364554Y269700D01*
X364541Y269623D01*
X364541Y238948D01*
X316301Y190708D01*
X316300Y190706D01*
X316299Y190705D01*
X316208Y190584D01*
X316130Y190480D01*
X316129Y190479D01*
X316128Y190478D01*
X316078Y190344D01*
X316029Y190215D01*
X316029Y190213D01*
X316028Y190212D01*
X316017Y190073D01*
X316005Y189931D01*
X316005Y189930D01*
X316005Y189928D01*
X316009Y189914D01*
X316061Y189653D01*
X316075Y189626D01*
X316081Y189601D01*
X316307Y189056D01*
X316307Y186944D01*
X315499Y184994D01*
X314006Y183501D01*
X312056Y182693D01*
X309944Y182693D01*
X307994Y183501D01*
X306501Y184994D01*
X305693Y186944D01*
X305693Y189056D01*
X306501Y191006D01*
X307994Y192499D01*
X309944Y193307D01*
X311293Y193307D01*
X311380Y193319D01*
X311467Y193322D01*
X311520Y193339D01*
X311575Y193347D01*
X311654Y193382D01*
X311738Y193409D01*
X311777Y193437D01*
X311834Y193463D01*
X311947Y193559D01*
X312011Y193604D01*
X359162Y240755D01*
X359214Y240825D01*
X359274Y240889D01*
X359300Y240938D01*
X359333Y240982D01*
X359364Y241064D01*
X359404Y241142D01*
X359412Y241189D01*
X359434Y241248D01*
X359446Y241396D01*
X359459Y241473D01*
X359459Y261415D01*
X359455Y261444D01*
X359458Y261473D01*
X359435Y261584D01*
X359419Y261697D01*
X359407Y261723D01*
X359402Y261752D01*
X359349Y261853D01*
X359303Y261956D01*
X359284Y261978D01*
X359271Y262004D01*
X359193Y262087D01*
X359120Y262173D01*
X359095Y262189D01*
X359075Y262211D01*
X358977Y262268D01*
X358883Y262331D01*
X358855Y262339D01*
X358830Y262354D01*
X358720Y262382D01*
X358612Y262416D01*
X358582Y262417D01*
X358554Y262424D01*
X358441Y262421D01*
X358328Y262424D01*
X358299Y262416D01*
X358270Y262415D01*
X358162Y262380D01*
X358053Y262352D01*
X358027Y262337D01*
X357999Y262328D01*
X357936Y262282D01*
X357808Y262207D01*
X357765Y262161D01*
X357726Y262133D01*
X355755Y260162D01*
X336594Y241001D01*
X336593Y240999D01*
X336591Y240998D01*
X336502Y240879D01*
X336423Y240773D01*
X336422Y240772D01*
X336421Y240770D01*
X336371Y240637D01*
X336322Y240508D01*
X336321Y240506D01*
X336321Y240504D01*
X336309Y240359D01*
X336298Y240224D01*
X336298Y240223D01*
X336298Y240221D01*
X336302Y240204D01*
X336307Y240181D01*
X336307Y237944D01*
X335499Y235994D01*
X334006Y234501D01*
X332056Y233693D01*
X329944Y233693D01*
X327994Y234501D01*
X326501Y235994D01*
X325693Y237944D01*
X325693Y240056D01*
X326501Y242006D01*
X327994Y243499D01*
X329944Y244307D01*
X332153Y244307D01*
X332169Y244303D01*
X332171Y244303D01*
X332173Y244302D01*
X332312Y244307D01*
X332453Y244311D01*
X332455Y244311D01*
X332457Y244311D01*
X332589Y244354D01*
X332724Y244397D01*
X332726Y244398D01*
X332727Y244399D01*
X332740Y244408D01*
X332960Y244555D01*
X332980Y244579D01*
X333001Y244594D01*
X352162Y263755D01*
X352214Y263825D01*
X352274Y263889D01*
X352300Y263938D01*
X352333Y263982D01*
X352364Y264064D01*
X352404Y264142D01*
X352412Y264189D01*
X352434Y264248D01*
X352446Y264396D01*
X352459Y264473D01*
X352459Y281503D01*
X352455Y281533D01*
X352458Y281562D01*
X352435Y281673D01*
X352419Y281785D01*
X352407Y281812D01*
X352402Y281840D01*
X352349Y281941D01*
X352303Y282044D01*
X352284Y282067D01*
X352271Y282093D01*
X352193Y282175D01*
X352120Y282261D01*
X352095Y282278D01*
X352075Y282299D01*
X351977Y282356D01*
X351883Y282419D01*
X351855Y282428D01*
X351830Y282443D01*
X351720Y282471D01*
X351612Y282505D01*
X351582Y282505D01*
X351554Y282513D01*
X351441Y282509D01*
X351328Y282512D01*
X351299Y282505D01*
X351270Y282504D01*
X351162Y282469D01*
X351053Y282440D01*
X351027Y282425D01*
X350999Y282416D01*
X350935Y282371D01*
X350808Y282295D01*
X350765Y282249D01*
X350726Y282221D01*
X350006Y281501D01*
X348056Y280693D01*
X345847Y280693D01*
X345831Y280697D01*
X345829Y280697D01*
X345827Y280698D01*
X345688Y280693D01*
X345547Y280689D01*
X345545Y280689D01*
X345543Y280689D01*
X345411Y280646D01*
X345276Y280603D01*
X345274Y280602D01*
X345273Y280601D01*
X345260Y280592D01*
X345040Y280445D01*
X345020Y280421D01*
X344999Y280406D01*
X322838Y258245D01*
X322786Y258175D01*
X322726Y258111D01*
X322700Y258062D01*
X322667Y258018D01*
X322636Y257936D01*
X322596Y257858D01*
X322588Y257811D01*
X322566Y257752D01*
X322554Y257604D01*
X322541Y257527D01*
X322541Y217948D01*
X267052Y162459D01*
X258370Y162459D01*
X258368Y162459D01*
X258367Y162459D01*
X258226Y162439D01*
X258088Y162419D01*
X258087Y162419D01*
X258085Y162419D01*
X257956Y162360D01*
X257829Y162303D01*
X257828Y162302D01*
X257826Y162301D01*
X257720Y162211D01*
X257612Y162120D01*
X257611Y162118D01*
X257610Y162117D01*
X257602Y162105D01*
X257587Y162082D01*
X256006Y160501D01*
X254056Y159693D01*
X251944Y159693D01*
X249994Y160501D01*
X248501Y161994D01*
X247693Y163944D01*
X247693Y166056D01*
X247893Y166537D01*
X247914Y166621D01*
X247945Y166701D01*
X247948Y166732D01*
X247954Y166754D01*
X247955Y166778D01*
X247964Y166813D01*
X247961Y166899D01*
X247968Y166984D01*
X247961Y167021D01*
X247962Y167038D01*
X247957Y167056D01*
X247956Y167097D01*
X247930Y167179D01*
X247913Y167263D01*
X247893Y167301D01*
X247890Y167313D01*
X247883Y167324D01*
X247869Y167368D01*
X247821Y167439D01*
X247782Y167515D01*
X247749Y167550D01*
X247745Y167557D01*
X247738Y167564D01*
X247711Y167604D01*
X247645Y167659D01*
X247586Y167721D01*
X247543Y167747D01*
X247537Y167752D01*
X247531Y167755D01*
X247493Y167787D01*
X247415Y167822D01*
X247341Y167865D01*
X247291Y167878D01*
X247284Y167881D01*
X247279Y167882D01*
X247233Y167902D01*
X247148Y167914D01*
X247065Y167935D01*
X247008Y167933D01*
X246952Y167941D01*
X246867Y167929D01*
X246781Y167926D01*
X246727Y167909D01*
X246670Y167901D01*
X246592Y167865D01*
X246510Y167839D01*
X246470Y167810D01*
X246411Y167784D01*
X246301Y167689D01*
X246237Y167644D01*
X244838Y166245D01*
X244786Y166175D01*
X244726Y166111D01*
X244700Y166062D01*
X244667Y166018D01*
X244636Y165936D01*
X244596Y165858D01*
X244588Y165811D01*
X244566Y165752D01*
X244554Y165604D01*
X244541Y165527D01*
X244541Y148948D01*
X237594Y142001D01*
X237593Y141999D01*
X237591Y141998D01*
X237503Y141880D01*
X237423Y141773D01*
X237422Y141772D01*
X237421Y141770D01*
X237371Y141637D01*
X237322Y141508D01*
X237321Y141506D01*
X237321Y141504D01*
X237309Y141361D01*
X237298Y141224D01*
X237298Y141223D01*
X237298Y141221D01*
X237302Y141204D01*
X237307Y141181D01*
X237307Y138944D01*
X236499Y136994D01*
X235006Y135501D01*
X233056Y134693D01*
X230944Y134693D01*
G37*
%LPD*%
%LPC*%
G36*
X108948Y109459D02*
X108948Y109459D01*
X95359Y123048D01*
X95359Y157970D01*
X95351Y158028D01*
X95353Y158086D01*
X95331Y158168D01*
X95319Y158252D01*
X95296Y158305D01*
X95281Y158361D01*
X95238Y158434D01*
X95203Y158511D01*
X95165Y158556D01*
X95136Y158606D01*
X95074Y158664D01*
X95020Y158728D01*
X94971Y158760D01*
X94928Y158800D01*
X94853Y158839D01*
X94783Y158886D01*
X94727Y158903D01*
X94675Y158930D01*
X94607Y158941D01*
X94512Y158971D01*
X94412Y158974D01*
X94344Y158985D01*
X88378Y158985D01*
X87485Y159878D01*
X87485Y178922D01*
X88378Y179815D01*
X107422Y179815D01*
X108315Y178922D01*
X108315Y159878D01*
X107422Y158985D01*
X101456Y158985D01*
X101398Y158977D01*
X101340Y158979D01*
X101258Y158957D01*
X101174Y158945D01*
X101121Y158922D01*
X101065Y158907D01*
X100992Y158864D01*
X100915Y158829D01*
X100870Y158791D01*
X100820Y158762D01*
X100762Y158700D01*
X100698Y158646D01*
X100666Y158597D01*
X100626Y158554D01*
X100587Y158479D01*
X100540Y158409D01*
X100523Y158353D01*
X100496Y158301D01*
X100485Y158233D01*
X100455Y158138D01*
X100452Y158038D01*
X100441Y157970D01*
X100441Y125573D01*
X100453Y125486D01*
X100456Y125399D01*
X100473Y125346D01*
X100481Y125291D01*
X100516Y125212D01*
X100543Y125128D01*
X100571Y125089D01*
X100597Y125032D01*
X100693Y124919D01*
X100738Y124855D01*
X110755Y114838D01*
X110825Y114786D01*
X110889Y114726D01*
X110938Y114700D01*
X110982Y114667D01*
X111064Y114636D01*
X111142Y114596D01*
X111189Y114588D01*
X111248Y114566D01*
X111396Y114554D01*
X111473Y114541D01*
X250527Y114541D01*
X250614Y114553D01*
X250701Y114556D01*
X250754Y114573D01*
X250809Y114581D01*
X250888Y114616D01*
X250972Y114643D01*
X251011Y114671D01*
X251068Y114697D01*
X251181Y114793D01*
X251245Y114838D01*
X387495Y251088D01*
X387548Y251158D01*
X387608Y251222D01*
X387633Y251271D01*
X387666Y251316D01*
X387697Y251397D01*
X387737Y251475D01*
X387745Y251523D01*
X387767Y251581D01*
X387780Y251729D01*
X387793Y251806D01*
X387793Y277837D01*
X387788Y277866D01*
X387791Y277895D01*
X387769Y278006D01*
X387753Y278118D01*
X387741Y278145D01*
X387735Y278174D01*
X387683Y278274D01*
X387637Y278378D01*
X387618Y278400D01*
X387604Y278426D01*
X387526Y278508D01*
X387453Y278595D01*
X387428Y278611D01*
X387408Y278632D01*
X387311Y278689D01*
X387216Y278752D01*
X387188Y278761D01*
X387163Y278776D01*
X387053Y278804D01*
X386945Y278838D01*
X386916Y278839D01*
X386887Y278846D01*
X386774Y278842D01*
X386661Y278845D01*
X386633Y278838D01*
X386603Y278837D01*
X386495Y278802D01*
X386386Y278774D01*
X386361Y278759D01*
X386333Y278749D01*
X386269Y278704D01*
X386142Y278628D01*
X386099Y278583D01*
X386059Y278555D01*
X386006Y278501D01*
X384056Y277693D01*
X381944Y277693D01*
X379994Y278501D01*
X378501Y279994D01*
X377693Y281944D01*
X377693Y284056D01*
X378382Y285718D01*
X378390Y285748D01*
X378404Y285776D01*
X378417Y285853D01*
X378453Y285994D01*
X378451Y286058D01*
X378459Y286107D01*
X378459Y330052D01*
X379785Y331378D01*
X379786Y331379D01*
X379787Y331380D01*
X379876Y331499D01*
X379956Y331605D01*
X379956Y331607D01*
X379957Y331608D01*
X380008Y331742D01*
X380057Y331871D01*
X380057Y331873D01*
X380058Y331874D01*
X380069Y332016D01*
X380081Y332154D01*
X380080Y332156D01*
X380081Y332157D01*
X380077Y332173D01*
X380025Y332433D01*
X380011Y332460D01*
X380005Y332485D01*
X379193Y334444D01*
X379193Y336556D01*
X380001Y338506D01*
X381494Y339999D01*
X383444Y340807D01*
X385556Y340807D01*
X387506Y339999D01*
X388999Y338506D01*
X389807Y336556D01*
X389807Y334444D01*
X388999Y332494D01*
X387506Y331001D01*
X386136Y330434D01*
X386110Y330418D01*
X386080Y330409D01*
X386016Y330363D01*
X385891Y330289D01*
X385847Y330242D01*
X385807Y330214D01*
X383838Y328245D01*
X383786Y328175D01*
X383726Y328111D01*
X383700Y328062D01*
X383667Y328018D01*
X383636Y327936D01*
X383596Y327858D01*
X383588Y327811D01*
X383566Y327752D01*
X383554Y327604D01*
X383541Y327527D01*
X383541Y327377D01*
X383553Y327292D01*
X383555Y327206D01*
X383573Y327152D01*
X383581Y327096D01*
X383616Y327017D01*
X383642Y326935D01*
X383674Y326888D01*
X383697Y326836D01*
X383752Y326771D01*
X383800Y326699D01*
X383844Y326663D01*
X383880Y326619D01*
X383952Y326571D01*
X384018Y326516D01*
X384070Y326493D01*
X384117Y326462D01*
X384199Y326436D01*
X384278Y326401D01*
X384334Y326393D01*
X384388Y326376D01*
X384474Y326374D01*
X384559Y326362D01*
X384615Y326370D01*
X384672Y326369D01*
X384755Y326390D01*
X384841Y326403D01*
X384892Y326426D01*
X384947Y326440D01*
X385021Y326484D01*
X385100Y326520D01*
X385143Y326556D01*
X385192Y326586D01*
X385251Y326648D01*
X385316Y326704D01*
X385342Y326746D01*
X385386Y326793D01*
X385452Y326922D01*
X385494Y326989D01*
X385501Y327006D01*
X386994Y328499D01*
X388944Y329307D01*
X391056Y329307D01*
X393006Y328499D01*
X394499Y327006D01*
X395307Y325056D01*
X395307Y322944D01*
X394499Y320994D01*
X393171Y319667D01*
X393119Y319597D01*
X393059Y319533D01*
X393034Y319484D01*
X393001Y319439D01*
X392969Y319358D01*
X392930Y319280D01*
X392922Y319232D01*
X392899Y319174D01*
X392887Y319026D01*
X392874Y318949D01*
X392874Y249281D01*
X253052Y109459D01*
X108948Y109459D01*
G37*
%LPD*%
%LPC*%
G36*
X186352Y10071D02*
X186352Y10071D01*
X180803Y12091D01*
X180755Y12101D01*
X180719Y12118D01*
X180058Y12295D01*
X179819Y12433D01*
X179721Y12472D01*
X179658Y12508D01*
X176302Y13730D01*
X173565Y16026D01*
X173475Y16082D01*
X173420Y16127D01*
X173181Y16265D01*
X172697Y16749D01*
X172658Y16779D01*
X172632Y16809D01*
X168109Y20604D01*
X162761Y29867D01*
X161735Y35682D01*
X161720Y35729D01*
X161716Y35769D01*
X161539Y36429D01*
X161539Y36706D01*
X161524Y36811D01*
X161524Y36882D01*
X160904Y40400D01*
X161524Y43918D01*
X161527Y44024D01*
X161539Y44094D01*
X161539Y44371D01*
X161716Y45031D01*
X161722Y45081D01*
X161735Y45118D01*
X162761Y50933D01*
X168109Y60196D01*
X172632Y63991D01*
X172665Y64028D01*
X172697Y64051D01*
X173181Y64535D01*
X173420Y64673D01*
X173504Y64738D01*
X173565Y64774D01*
X176302Y67070D01*
X179658Y68292D01*
X179752Y68342D01*
X179819Y68367D01*
X180058Y68505D01*
X180719Y68682D01*
X180765Y68702D01*
X180803Y68709D01*
X186352Y70729D01*
X197048Y70729D01*
X202597Y68709D01*
X202645Y68699D01*
X202681Y68682D01*
X203342Y68505D01*
X203581Y68367D01*
X203679Y68327D01*
X203742Y68292D01*
X207098Y67070D01*
X209835Y64774D01*
X209924Y64718D01*
X209980Y64673D01*
X210219Y64535D01*
X210703Y64051D01*
X210742Y64021D01*
X210768Y63991D01*
X215291Y60196D01*
X220639Y50933D01*
X221665Y45118D01*
X221680Y45071D01*
X221684Y45031D01*
X221861Y44371D01*
X221861Y44094D01*
X221872Y44014D01*
X221871Y43960D01*
X221876Y43939D01*
X221876Y43918D01*
X222496Y40400D01*
X221876Y36882D01*
X221873Y36776D01*
X221861Y36706D01*
X221861Y36429D01*
X221684Y35769D01*
X221678Y35719D01*
X221665Y35682D01*
X220639Y29867D01*
X215291Y20604D01*
X210768Y16809D01*
X210735Y16772D01*
X210703Y16749D01*
X210219Y16265D01*
X209980Y16127D01*
X209896Y16062D01*
X209835Y16026D01*
X207098Y13730D01*
X203742Y12508D01*
X203648Y12458D01*
X203581Y12433D01*
X203342Y12295D01*
X202681Y12118D01*
X202635Y12098D01*
X202597Y12091D01*
X197048Y10071D01*
X186352Y10071D01*
G37*
%LPD*%
%LPC*%
G36*
X148699Y169399D02*
X148699Y169399D01*
X148699Y170416D01*
X148691Y170474D01*
X148692Y170532D01*
X148671Y170614D01*
X148659Y170697D01*
X148635Y170751D01*
X148621Y170807D01*
X148578Y170880D01*
X148543Y170957D01*
X148505Y171002D01*
X148475Y171052D01*
X148414Y171110D01*
X148359Y171174D01*
X148311Y171206D01*
X148268Y171246D01*
X148193Y171285D01*
X148123Y171331D01*
X148067Y171349D01*
X148015Y171376D01*
X147947Y171387D01*
X147852Y171417D01*
X147752Y171420D01*
X147684Y171431D01*
X137269Y171431D01*
X137269Y178624D01*
X137442Y179271D01*
X137777Y179850D01*
X138250Y180323D01*
X138669Y180565D01*
X138684Y180577D01*
X138702Y180585D01*
X138795Y180664D01*
X138892Y180740D01*
X138904Y180756D01*
X138919Y180769D01*
X138987Y180871D01*
X139059Y180970D01*
X139066Y180989D01*
X139076Y181005D01*
X139114Y181122D01*
X139155Y181238D01*
X139156Y181258D01*
X139162Y181276D01*
X139165Y181399D01*
X139173Y181522D01*
X139169Y181541D01*
X139170Y181560D01*
X139139Y181679D01*
X139112Y181799D01*
X139103Y181817D01*
X139098Y181835D01*
X139035Y181941D01*
X138976Y182049D01*
X138962Y182063D01*
X138952Y182080D01*
X138863Y182164D01*
X138777Y182251D01*
X138759Y182261D01*
X138745Y182274D01*
X138636Y182330D01*
X138529Y182390D01*
X138509Y182395D01*
X138492Y182404D01*
X138420Y182416D01*
X138252Y182455D01*
X138201Y182453D01*
X138161Y182459D01*
X34948Y182459D01*
X33001Y184406D01*
X32999Y184407D01*
X32998Y184409D01*
X32880Y184497D01*
X32773Y184577D01*
X32772Y184578D01*
X32770Y184579D01*
X32637Y184629D01*
X32508Y184678D01*
X32506Y184679D01*
X32504Y184679D01*
X32361Y184691D01*
X32224Y184702D01*
X32223Y184702D01*
X32221Y184702D01*
X32204Y184698D01*
X32181Y184693D01*
X29944Y184693D01*
X27994Y185501D01*
X26501Y186994D01*
X25693Y188944D01*
X25693Y191056D01*
X26501Y193006D01*
X27994Y194499D01*
X29944Y195307D01*
X32056Y195307D01*
X34006Y194499D01*
X35499Y193006D01*
X36307Y191056D01*
X36307Y188847D01*
X36303Y188831D01*
X36303Y188829D01*
X36302Y188827D01*
X36307Y188688D01*
X36311Y188547D01*
X36311Y188545D01*
X36311Y188543D01*
X36354Y188411D01*
X36397Y188276D01*
X36398Y188274D01*
X36399Y188273D01*
X36408Y188260D01*
X36555Y188040D01*
X36579Y188020D01*
X36594Y187999D01*
X36755Y187838D01*
X36825Y187786D01*
X36889Y187726D01*
X36938Y187700D01*
X36982Y187667D01*
X37064Y187636D01*
X37142Y187596D01*
X37189Y187588D01*
X37248Y187566D01*
X37396Y187554D01*
X37473Y187541D01*
X41415Y187541D01*
X41444Y187545D01*
X41473Y187542D01*
X41584Y187565D01*
X41697Y187581D01*
X41723Y187593D01*
X41752Y187598D01*
X41853Y187651D01*
X41956Y187697D01*
X41978Y187716D01*
X42004Y187729D01*
X42087Y187807D01*
X42173Y187880D01*
X42189Y187905D01*
X42211Y187925D01*
X42268Y188023D01*
X42331Y188117D01*
X42339Y188145D01*
X42354Y188170D01*
X42382Y188280D01*
X42416Y188388D01*
X42417Y188418D01*
X42424Y188446D01*
X42421Y188559D01*
X42424Y188672D01*
X42416Y188701D01*
X42415Y188730D01*
X42380Y188838D01*
X42352Y188947D01*
X42337Y188973D01*
X42328Y189001D01*
X42282Y189065D01*
X42207Y189192D01*
X42161Y189235D01*
X42133Y189274D01*
X41162Y190245D01*
X37459Y193948D01*
X37459Y244630D01*
X37459Y244632D01*
X37459Y244633D01*
X37439Y244773D01*
X37419Y244912D01*
X37419Y244913D01*
X37419Y244915D01*
X37360Y245044D01*
X37303Y245171D01*
X37302Y245172D01*
X37301Y245174D01*
X37211Y245280D01*
X37120Y245388D01*
X37118Y245389D01*
X37117Y245390D01*
X37105Y245398D01*
X37082Y245413D01*
X35501Y246994D01*
X34693Y248944D01*
X34693Y251056D01*
X35501Y253006D01*
X36994Y254499D01*
X38944Y255307D01*
X41056Y255307D01*
X43006Y254499D01*
X44499Y253006D01*
X45307Y251056D01*
X45307Y248944D01*
X44499Y246994D01*
X42937Y245432D01*
X42923Y245424D01*
X42922Y245422D01*
X42920Y245422D01*
X42822Y245317D01*
X42727Y245217D01*
X42727Y245215D01*
X42726Y245214D01*
X42661Y245089D01*
X42597Y244964D01*
X42597Y244963D01*
X42596Y244961D01*
X42594Y244946D01*
X42542Y244685D01*
X42545Y244655D01*
X42541Y244630D01*
X42541Y196473D01*
X42553Y196386D01*
X42556Y196299D01*
X42573Y196246D01*
X42581Y196191D01*
X42616Y196112D01*
X42643Y196028D01*
X42671Y195989D01*
X42697Y195932D01*
X42793Y195819D01*
X42838Y195755D01*
X44755Y193838D01*
X44825Y193786D01*
X44889Y193726D01*
X44938Y193700D01*
X44982Y193667D01*
X45064Y193636D01*
X45142Y193596D01*
X45189Y193588D01*
X45248Y193566D01*
X45396Y193554D01*
X45473Y193541D01*
X132216Y193541D01*
X132217Y193541D01*
X132219Y193541D01*
X132358Y193561D01*
X132497Y193581D01*
X132499Y193581D01*
X132500Y193581D01*
X132626Y193638D01*
X132757Y193697D01*
X132758Y193698D01*
X132759Y193699D01*
X132867Y193790D01*
X132974Y193880D01*
X132975Y193882D01*
X132976Y193883D01*
X132984Y193896D01*
X133131Y194117D01*
X133141Y194146D01*
X133154Y194167D01*
X133501Y195006D01*
X134994Y196499D01*
X136944Y197307D01*
X139056Y197307D01*
X141006Y196499D01*
X142499Y195006D01*
X143307Y193056D01*
X143307Y190944D01*
X142478Y188945D01*
X142450Y188833D01*
X142415Y188724D01*
X142414Y188696D01*
X142407Y188669D01*
X142411Y188555D01*
X142408Y188440D01*
X142415Y188413D01*
X142416Y188385D01*
X142451Y188276D01*
X142480Y188165D01*
X142494Y188141D01*
X142502Y188114D01*
X142566Y188019D01*
X142625Y187920D01*
X142645Y187901D01*
X142660Y187878D01*
X142748Y187804D01*
X142832Y187726D01*
X142857Y187713D01*
X142878Y187695D01*
X142983Y187649D01*
X143085Y187596D01*
X143110Y187592D01*
X143138Y187580D01*
X143402Y187543D01*
X143416Y187541D01*
X151527Y187541D01*
X151614Y187553D01*
X151701Y187556D01*
X151754Y187573D01*
X151809Y187581D01*
X151888Y187616D01*
X151972Y187643D01*
X152011Y187671D01*
X152068Y187697D01*
X152181Y187793D01*
X152245Y187838D01*
X161162Y196755D01*
X161214Y196825D01*
X161274Y196889D01*
X161300Y196938D01*
X161333Y196982D01*
X161364Y197064D01*
X161404Y197142D01*
X161412Y197189D01*
X161434Y197248D01*
X161446Y197396D01*
X161459Y197473D01*
X161459Y281052D01*
X180948Y300541D01*
X191630Y300541D01*
X191632Y300541D01*
X191633Y300541D01*
X191774Y300561D01*
X191912Y300581D01*
X191913Y300581D01*
X191915Y300581D01*
X192044Y300640D01*
X192171Y300697D01*
X192172Y300698D01*
X192174Y300699D01*
X192280Y300789D01*
X192388Y300880D01*
X192389Y300882D01*
X192390Y300883D01*
X192398Y300895D01*
X192413Y300918D01*
X193994Y302499D01*
X195944Y303307D01*
X198056Y303307D01*
X200006Y302499D01*
X201499Y301006D01*
X202307Y299056D01*
X202307Y296944D01*
X201499Y294994D01*
X200006Y293501D01*
X198056Y292693D01*
X195944Y292693D01*
X193994Y293501D01*
X192432Y295063D01*
X192424Y295077D01*
X192422Y295078D01*
X192422Y295080D01*
X192317Y295178D01*
X192217Y295273D01*
X192215Y295273D01*
X192214Y295274D01*
X192089Y295339D01*
X191964Y295403D01*
X191963Y295403D01*
X191961Y295404D01*
X191946Y295406D01*
X191685Y295458D01*
X191655Y295455D01*
X191630Y295459D01*
X183473Y295459D01*
X183386Y295447D01*
X183299Y295444D01*
X183246Y295427D01*
X183191Y295419D01*
X183112Y295384D01*
X183028Y295357D01*
X182989Y295329D01*
X182932Y295303D01*
X182819Y295207D01*
X182755Y295162D01*
X166838Y279245D01*
X166786Y279175D01*
X166726Y279111D01*
X166700Y279062D01*
X166667Y279018D01*
X166636Y278936D01*
X166596Y278858D01*
X166588Y278811D01*
X166566Y278752D01*
X166554Y278604D01*
X166541Y278527D01*
X166541Y194948D01*
X154157Y182564D01*
X154139Y182540D01*
X154117Y182521D01*
X154054Y182427D01*
X153986Y182337D01*
X153976Y182309D01*
X153959Y182285D01*
X153925Y182177D01*
X153885Y182071D01*
X153882Y182042D01*
X153874Y182014D01*
X153871Y181900D01*
X153861Y181788D01*
X153867Y181759D01*
X153866Y181730D01*
X153895Y181620D01*
X153917Y181509D01*
X153931Y181483D01*
X153938Y181455D01*
X153996Y181357D01*
X154048Y181257D01*
X154068Y181235D01*
X154083Y181210D01*
X154166Y181133D01*
X154244Y181051D01*
X154269Y181036D01*
X154291Y181016D01*
X154392Y180964D01*
X154489Y180907D01*
X154518Y180900D01*
X154544Y180886D01*
X154621Y180873D01*
X154765Y180837D01*
X154827Y180839D01*
X154875Y180831D01*
X157924Y180831D01*
X158571Y180658D01*
X159150Y180323D01*
X159623Y179850D01*
X159958Y179271D01*
X160131Y178624D01*
X160131Y171431D01*
X149716Y171431D01*
X149658Y171423D01*
X149600Y171425D01*
X149518Y171403D01*
X149435Y171391D01*
X149381Y171367D01*
X149325Y171353D01*
X149252Y171310D01*
X149175Y171275D01*
X149131Y171237D01*
X149080Y171207D01*
X149023Y171146D01*
X148958Y171091D01*
X148926Y171043D01*
X148886Y171000D01*
X148847Y170925D01*
X148801Y170855D01*
X148783Y170799D01*
X148756Y170747D01*
X148745Y170679D01*
X148715Y170584D01*
X148712Y170484D01*
X148701Y170416D01*
X148701Y169399D01*
X148699Y169399D01*
G37*
%LPD*%
%LPC*%
G36*
X445944Y285693D02*
X445944Y285693D01*
X443994Y286501D01*
X442501Y287994D01*
X441693Y289944D01*
X441693Y292056D01*
X442501Y294006D01*
X443994Y295499D01*
X445944Y296307D01*
X448153Y296307D01*
X448169Y296303D01*
X448171Y296303D01*
X448173Y296302D01*
X448312Y296307D01*
X448453Y296311D01*
X448455Y296311D01*
X448457Y296311D01*
X448588Y296354D01*
X448724Y296397D01*
X448726Y296398D01*
X448727Y296399D01*
X448740Y296408D01*
X448960Y296555D01*
X448980Y296579D01*
X449001Y296594D01*
X465162Y312755D01*
X465214Y312825D01*
X465274Y312889D01*
X465300Y312938D01*
X465333Y312982D01*
X465364Y313064D01*
X465404Y313142D01*
X465412Y313189D01*
X465434Y313248D01*
X465446Y313396D01*
X465459Y313473D01*
X465459Y417527D01*
X465447Y417614D01*
X465444Y417701D01*
X465427Y417754D01*
X465419Y417809D01*
X465384Y417888D01*
X465357Y417972D01*
X465329Y418011D01*
X465303Y418068D01*
X465207Y418181D01*
X465162Y418245D01*
X446459Y436948D01*
X446459Y461630D01*
X446459Y461632D01*
X446459Y461633D01*
X446439Y461774D01*
X446419Y461912D01*
X446419Y461913D01*
X446419Y461915D01*
X446360Y462044D01*
X446303Y462171D01*
X446302Y462172D01*
X446301Y462174D01*
X446211Y462280D01*
X446120Y462388D01*
X446118Y462389D01*
X446117Y462390D01*
X446105Y462398D01*
X446082Y462413D01*
X444501Y463994D01*
X443693Y465944D01*
X443693Y468056D01*
X444501Y470006D01*
X445994Y471499D01*
X447944Y472307D01*
X450056Y472307D01*
X452006Y471499D01*
X453499Y470006D01*
X454066Y468636D01*
X454082Y468610D01*
X454091Y468580D01*
X454137Y468516D01*
X454211Y468391D01*
X454258Y468347D01*
X454286Y468307D01*
X460755Y461838D01*
X460825Y461786D01*
X460889Y461726D01*
X460938Y461700D01*
X460982Y461667D01*
X461064Y461636D01*
X461142Y461596D01*
X461189Y461588D01*
X461248Y461566D01*
X461396Y461554D01*
X461473Y461541D01*
X479444Y461541D01*
X479502Y461549D01*
X479560Y461547D01*
X479642Y461569D01*
X479726Y461581D01*
X479779Y461604D01*
X479835Y461619D01*
X479908Y461662D01*
X479985Y461697D01*
X480030Y461735D01*
X480080Y461764D01*
X480138Y461826D01*
X480202Y461880D01*
X480234Y461929D01*
X480274Y461972D01*
X480313Y462047D01*
X480360Y462117D01*
X480377Y462173D01*
X480404Y462225D01*
X480415Y462293D01*
X480445Y462388D01*
X480448Y462488D01*
X480459Y462556D01*
X480459Y481052D01*
X485948Y486541D01*
X506216Y486541D01*
X506217Y486541D01*
X506219Y486541D01*
X506358Y486561D01*
X506497Y486581D01*
X506499Y486581D01*
X506500Y486581D01*
X506626Y486638D01*
X506757Y486697D01*
X506758Y486698D01*
X506759Y486699D01*
X506867Y486790D01*
X506974Y486880D01*
X506975Y486882D01*
X506976Y486883D01*
X506984Y486896D01*
X507131Y487117D01*
X507141Y487146D01*
X507154Y487167D01*
X507501Y488006D01*
X509063Y489568D01*
X509077Y489576D01*
X509078Y489578D01*
X509080Y489578D01*
X509178Y489683D01*
X509273Y489783D01*
X509273Y489785D01*
X509274Y489786D01*
X509339Y489911D01*
X509403Y490036D01*
X509403Y490037D01*
X509404Y490039D01*
X509406Y490054D01*
X509458Y490315D01*
X509455Y490345D01*
X509459Y490370D01*
X509459Y496527D01*
X509447Y496614D01*
X509444Y496701D01*
X509427Y496754D01*
X509419Y496809D01*
X509384Y496888D01*
X509357Y496972D01*
X509329Y497011D01*
X509303Y497068D01*
X509207Y497181D01*
X509162Y497245D01*
X508245Y498162D01*
X508175Y498214D01*
X508111Y498274D01*
X508062Y498300D01*
X508018Y498333D01*
X507936Y498364D01*
X507858Y498404D01*
X507811Y498412D01*
X507752Y498434D01*
X507604Y498446D01*
X507527Y498459D01*
X496948Y498459D01*
X493001Y502406D01*
X492999Y502407D01*
X492998Y502409D01*
X492880Y502497D01*
X492773Y502577D01*
X492772Y502578D01*
X492770Y502579D01*
X492637Y502629D01*
X492508Y502678D01*
X492506Y502679D01*
X492504Y502679D01*
X492361Y502691D01*
X492224Y502702D01*
X492223Y502702D01*
X492221Y502702D01*
X492204Y502698D01*
X492181Y502693D01*
X489944Y502693D01*
X487994Y503501D01*
X486501Y504994D01*
X485693Y506944D01*
X485693Y509056D01*
X486501Y511006D01*
X487994Y512499D01*
X489944Y513307D01*
X492056Y513307D01*
X494006Y512499D01*
X495499Y511006D01*
X496307Y509056D01*
X496307Y506847D01*
X496303Y506831D01*
X496303Y506829D01*
X496302Y506827D01*
X496307Y506688D01*
X496311Y506547D01*
X496311Y506545D01*
X496311Y506543D01*
X496354Y506411D01*
X496397Y506276D01*
X496398Y506274D01*
X496399Y506273D01*
X496408Y506260D01*
X496555Y506040D01*
X496579Y506020D01*
X496594Y505999D01*
X498755Y503838D01*
X498825Y503786D01*
X498889Y503726D01*
X498938Y503700D01*
X498982Y503667D01*
X499064Y503636D01*
X499142Y503596D01*
X499189Y503588D01*
X499248Y503566D01*
X499396Y503554D01*
X499473Y503541D01*
X510052Y503541D01*
X512755Y500838D01*
X514541Y499052D01*
X514541Y490370D01*
X514541Y490368D01*
X514541Y490367D01*
X514561Y490226D01*
X514581Y490088D01*
X514581Y490087D01*
X514581Y490085D01*
X514640Y489956D01*
X514697Y489829D01*
X514698Y489828D01*
X514699Y489826D01*
X514789Y489720D01*
X514880Y489612D01*
X514882Y489611D01*
X514883Y489610D01*
X514895Y489602D01*
X514918Y489587D01*
X516499Y488006D01*
X517307Y486056D01*
X517307Y483944D01*
X516499Y481994D01*
X515006Y480501D01*
X513056Y479693D01*
X510944Y479693D01*
X508994Y480501D01*
X508333Y481162D01*
X508263Y481214D01*
X508200Y481274D01*
X508150Y481300D01*
X508106Y481333D01*
X508024Y481364D01*
X507946Y481404D01*
X507899Y481412D01*
X507840Y481434D01*
X507693Y481446D01*
X507615Y481459D01*
X488473Y481459D01*
X488386Y481447D01*
X488299Y481444D01*
X488246Y481427D01*
X488191Y481419D01*
X488112Y481384D01*
X488028Y481357D01*
X487989Y481329D01*
X487932Y481303D01*
X487819Y481207D01*
X487755Y481162D01*
X485838Y479245D01*
X485786Y479175D01*
X485726Y479111D01*
X485700Y479062D01*
X485667Y479018D01*
X485636Y478936D01*
X485596Y478858D01*
X485588Y478811D01*
X485566Y478752D01*
X485554Y478604D01*
X485541Y478527D01*
X485541Y457948D01*
X484052Y456459D01*
X458948Y456459D01*
X453274Y462133D01*
X453250Y462151D01*
X453231Y462173D01*
X453137Y462236D01*
X453047Y462304D01*
X453019Y462314D01*
X452995Y462331D01*
X452887Y462365D01*
X452781Y462405D01*
X452752Y462408D01*
X452724Y462416D01*
X452610Y462419D01*
X452498Y462429D01*
X452469Y462423D01*
X452440Y462424D01*
X452330Y462395D01*
X452219Y462373D01*
X452193Y462359D01*
X452165Y462352D01*
X452067Y462294D01*
X451967Y462242D01*
X451945Y462222D01*
X451920Y462207D01*
X451843Y462124D01*
X451761Y462046D01*
X451746Y462021D01*
X451726Y461999D01*
X451674Y461898D01*
X451617Y461801D01*
X451610Y461772D01*
X451596Y461746D01*
X451583Y461669D01*
X451547Y461525D01*
X451549Y461463D01*
X451541Y461415D01*
X451541Y439473D01*
X451553Y439386D01*
X451556Y439299D01*
X451573Y439246D01*
X451581Y439191D01*
X451616Y439112D01*
X451643Y439028D01*
X451671Y438989D01*
X451697Y438932D01*
X451793Y438819D01*
X451838Y438755D01*
X470541Y420052D01*
X470541Y310948D01*
X452594Y293001D01*
X452593Y292999D01*
X452591Y292998D01*
X452502Y292879D01*
X452423Y292773D01*
X452422Y292772D01*
X452421Y292770D01*
X452371Y292637D01*
X452322Y292508D01*
X452321Y292506D01*
X452321Y292504D01*
X452309Y292358D01*
X452298Y292224D01*
X452298Y292223D01*
X452298Y292221D01*
X452302Y292204D01*
X452307Y292181D01*
X452307Y289944D01*
X451499Y287994D01*
X450006Y286501D01*
X448056Y285693D01*
X445944Y285693D01*
G37*
%LPD*%
%LPC*%
G36*
X92184Y202679D02*
X92184Y202679D01*
X86612Y204987D01*
X82347Y209252D01*
X80039Y214824D01*
X80039Y220856D01*
X82347Y226428D01*
X83202Y227282D01*
X83237Y227329D01*
X83279Y227369D01*
X83322Y227442D01*
X83373Y227509D01*
X83393Y227564D01*
X83423Y227614D01*
X83444Y227696D01*
X83474Y227775D01*
X83479Y227833D01*
X83493Y227890D01*
X83490Y227974D01*
X83497Y228058D01*
X83486Y228116D01*
X83484Y228174D01*
X83458Y228254D01*
X83441Y228337D01*
X83414Y228389D01*
X83396Y228445D01*
X83356Y228501D01*
X83310Y228589D01*
X83242Y228662D01*
X83202Y228718D01*
X82347Y229572D01*
X80039Y235144D01*
X80039Y241176D01*
X82347Y246748D01*
X86612Y251013D01*
X92184Y253321D01*
X98216Y253321D01*
X103788Y251013D01*
X108053Y246748D01*
X110361Y241176D01*
X110361Y235144D01*
X108053Y229572D01*
X107198Y228718D01*
X107163Y228671D01*
X107121Y228631D01*
X107078Y228558D01*
X107027Y228491D01*
X107007Y228436D01*
X106977Y228386D01*
X106956Y228304D01*
X106926Y228225D01*
X106921Y228167D01*
X106907Y228110D01*
X106910Y228026D01*
X106903Y227942D01*
X106914Y227884D01*
X106916Y227826D01*
X106942Y227746D01*
X106959Y227663D01*
X106986Y227611D01*
X107004Y227555D01*
X107044Y227499D01*
X107090Y227411D01*
X107158Y227338D01*
X107198Y227282D01*
X108053Y226428D01*
X110361Y220856D01*
X110361Y214824D01*
X108053Y209252D01*
X103788Y204987D01*
X98216Y202679D01*
X92184Y202679D01*
G37*
%LPD*%
%LPC*%
G36*
X76221Y529467D02*
X76221Y529467D01*
X73441Y530619D01*
X71313Y532747D01*
X70161Y535528D01*
X70161Y538537D01*
X71313Y541317D01*
X73441Y543445D01*
X73801Y543594D01*
X73826Y543609D01*
X73854Y543618D01*
X73948Y543681D01*
X74045Y543739D01*
X74066Y543760D01*
X74090Y543776D01*
X74163Y543863D01*
X74241Y543945D01*
X74254Y543971D01*
X74273Y543994D01*
X74319Y544097D01*
X74371Y544198D01*
X74376Y544227D01*
X74388Y544254D01*
X74404Y544366D01*
X74426Y544477D01*
X74423Y544506D01*
X74427Y544535D01*
X74411Y544647D01*
X74401Y544760D01*
X74391Y544788D01*
X74387Y544817D01*
X74340Y544920D01*
X74299Y545026D01*
X74282Y545049D01*
X74270Y545076D01*
X74196Y545162D01*
X74128Y545252D01*
X74104Y545270D01*
X74085Y545292D01*
X74019Y545334D01*
X73900Y545422D01*
X73842Y545445D01*
X73801Y545470D01*
X73441Y545619D01*
X71313Y547747D01*
X70161Y550528D01*
X70161Y553537D01*
X71313Y556317D01*
X73441Y558445D01*
X73801Y558594D01*
X73826Y558609D01*
X73854Y558618D01*
X73948Y558681D01*
X74045Y558739D01*
X74066Y558760D01*
X74090Y558776D01*
X74163Y558863D01*
X74241Y558945D01*
X74254Y558971D01*
X74273Y558994D01*
X74319Y559097D01*
X74371Y559198D01*
X74376Y559227D01*
X74388Y559254D01*
X74404Y559366D01*
X74426Y559477D01*
X74423Y559506D01*
X74427Y559535D01*
X74411Y559647D01*
X74401Y559760D01*
X74391Y559788D01*
X74387Y559817D01*
X74340Y559920D01*
X74299Y560026D01*
X74282Y560049D01*
X74270Y560076D01*
X74196Y560162D01*
X74128Y560252D01*
X74104Y560270D01*
X74085Y560292D01*
X74019Y560334D01*
X73900Y560422D01*
X73842Y560445D01*
X73801Y560470D01*
X73441Y560619D01*
X71313Y562747D01*
X70161Y565528D01*
X70161Y568537D01*
X71313Y571317D01*
X73441Y573445D01*
X73801Y573594D01*
X73826Y573609D01*
X73854Y573618D01*
X73948Y573681D01*
X74045Y573739D01*
X74066Y573760D01*
X74090Y573776D01*
X74163Y573863D01*
X74241Y573945D01*
X74254Y573971D01*
X74273Y573994D01*
X74319Y574097D01*
X74371Y574198D01*
X74376Y574227D01*
X74388Y574254D01*
X74404Y574366D01*
X74426Y574477D01*
X74423Y574506D01*
X74427Y574535D01*
X74411Y574647D01*
X74401Y574760D01*
X74391Y574788D01*
X74387Y574817D01*
X74340Y574920D01*
X74299Y575026D01*
X74282Y575049D01*
X74270Y575076D01*
X74196Y575162D01*
X74128Y575252D01*
X74104Y575270D01*
X74085Y575292D01*
X74019Y575334D01*
X73900Y575422D01*
X73842Y575445D01*
X73801Y575470D01*
X73441Y575619D01*
X71313Y577747D01*
X70161Y580528D01*
X70161Y583537D01*
X71313Y586317D01*
X73244Y588248D01*
X73253Y588260D01*
X73265Y588270D01*
X73339Y588374D01*
X73415Y588475D01*
X73420Y588490D01*
X73429Y588502D01*
X73471Y588622D01*
X73516Y588741D01*
X73517Y588756D01*
X73522Y588771D01*
X73529Y588898D01*
X73539Y589024D01*
X73536Y589039D01*
X73537Y589055D01*
X73508Y589178D01*
X73483Y589303D01*
X73476Y589317D01*
X73473Y589332D01*
X73411Y589443D01*
X73352Y589555D01*
X73342Y589566D01*
X73334Y589580D01*
X73284Y589627D01*
X73157Y589761D01*
X73117Y589785D01*
X73090Y589810D01*
X72256Y590367D01*
X71061Y591562D01*
X70122Y592968D01*
X69475Y594529D01*
X69325Y595283D01*
X76992Y595283D01*
X77050Y595291D01*
X77108Y595290D01*
X77190Y595311D01*
X77273Y595323D01*
X77327Y595347D01*
X77383Y595361D01*
X77456Y595404D01*
X77533Y595439D01*
X77577Y595477D01*
X77628Y595507D01*
X77685Y595568D01*
X77729Y595605D01*
X77730Y595605D01*
X77785Y595540D01*
X77833Y595508D01*
X77876Y595468D01*
X77951Y595429D01*
X78021Y595383D01*
X78077Y595365D01*
X78129Y595338D01*
X78197Y595327D01*
X78292Y595297D01*
X78392Y595294D01*
X78460Y595283D01*
X86127Y595283D01*
X85977Y594529D01*
X85330Y592968D01*
X84391Y591562D01*
X83196Y590367D01*
X82362Y589810D01*
X82351Y589800D01*
X82337Y589793D01*
X82245Y589705D01*
X82150Y589621D01*
X82142Y589608D01*
X82131Y589597D01*
X82067Y589487D01*
X81999Y589380D01*
X81995Y589365D01*
X81987Y589352D01*
X81956Y589229D01*
X81921Y589107D01*
X81921Y589091D01*
X81917Y589076D01*
X81921Y588949D01*
X81921Y588822D01*
X81926Y588807D01*
X81926Y588792D01*
X81965Y588671D01*
X82000Y588549D01*
X82009Y588536D01*
X82014Y588521D01*
X82053Y588466D01*
X82152Y588309D01*
X82187Y588278D01*
X82208Y588248D01*
X84139Y586317D01*
X85291Y583537D01*
X85291Y580528D01*
X84139Y577747D01*
X82011Y575619D01*
X81651Y575470D01*
X81626Y575455D01*
X81598Y575446D01*
X81504Y575383D01*
X81407Y575326D01*
X81386Y575304D01*
X81362Y575288D01*
X81289Y575201D01*
X81211Y575119D01*
X81198Y575093D01*
X81179Y575070D01*
X81133Y574967D01*
X81081Y574866D01*
X81076Y574837D01*
X81064Y574811D01*
X81048Y574699D01*
X81026Y574587D01*
X81029Y574558D01*
X81025Y574529D01*
X81041Y574417D01*
X81051Y574304D01*
X81061Y574277D01*
X81065Y574248D01*
X81112Y574144D01*
X81153Y574039D01*
X81170Y574015D01*
X81183Y573989D01*
X81256Y573902D01*
X81324Y573812D01*
X81348Y573795D01*
X81367Y573772D01*
X81433Y573731D01*
X81552Y573642D01*
X81611Y573620D01*
X81652Y573594D01*
X82011Y573445D01*
X84139Y571317D01*
X85291Y568537D01*
X85291Y565528D01*
X84139Y562747D01*
X82011Y560619D01*
X81651Y560470D01*
X81626Y560455D01*
X81598Y560446D01*
X81504Y560383D01*
X81407Y560326D01*
X81386Y560304D01*
X81362Y560288D01*
X81289Y560201D01*
X81211Y560119D01*
X81198Y560093D01*
X81179Y560070D01*
X81133Y559967D01*
X81081Y559866D01*
X81076Y559837D01*
X81064Y559811D01*
X81048Y559699D01*
X81026Y559587D01*
X81029Y559558D01*
X81025Y559529D01*
X81041Y559417D01*
X81051Y559304D01*
X81061Y559277D01*
X81065Y559248D01*
X81112Y559144D01*
X81153Y559039D01*
X81170Y559015D01*
X81183Y558989D01*
X81256Y558902D01*
X81324Y558812D01*
X81348Y558795D01*
X81367Y558772D01*
X81433Y558731D01*
X81552Y558642D01*
X81611Y558620D01*
X81652Y558594D01*
X82011Y558445D01*
X84139Y556317D01*
X85291Y553537D01*
X85291Y550528D01*
X84139Y547747D01*
X82011Y545619D01*
X81651Y545470D01*
X81626Y545455D01*
X81598Y545446D01*
X81504Y545383D01*
X81407Y545326D01*
X81386Y545304D01*
X81362Y545288D01*
X81289Y545201D01*
X81211Y545119D01*
X81198Y545093D01*
X81179Y545070D01*
X81133Y544967D01*
X81081Y544866D01*
X81076Y544837D01*
X81064Y544811D01*
X81048Y544699D01*
X81026Y544587D01*
X81029Y544558D01*
X81025Y544529D01*
X81041Y544417D01*
X81051Y544304D01*
X81061Y544277D01*
X81065Y544248D01*
X81112Y544144D01*
X81153Y544039D01*
X81170Y544015D01*
X81183Y543989D01*
X81256Y543902D01*
X81324Y543812D01*
X81348Y543795D01*
X81367Y543772D01*
X81433Y543731D01*
X81552Y543642D01*
X81611Y543620D01*
X81652Y543594D01*
X82011Y543445D01*
X83554Y541902D01*
X83624Y541850D01*
X83688Y541790D01*
X83737Y541765D01*
X83781Y541731D01*
X83863Y541700D01*
X83941Y541660D01*
X83988Y541652D01*
X84047Y541630D01*
X84195Y541618D01*
X84272Y541605D01*
X102412Y541605D01*
X102470Y541613D01*
X102528Y541612D01*
X102610Y541633D01*
X102694Y541645D01*
X102747Y541669D01*
X102803Y541683D01*
X102876Y541727D01*
X102953Y541761D01*
X102998Y541799D01*
X103048Y541829D01*
X103106Y541890D01*
X103170Y541945D01*
X103202Y541993D01*
X103242Y542036D01*
X103281Y542111D01*
X103328Y542181D01*
X103345Y542237D01*
X103372Y542289D01*
X103383Y542357D01*
X103413Y542452D01*
X103416Y542552D01*
X103427Y542620D01*
X103427Y552970D01*
X103423Y553001D01*
X103425Y553032D01*
X103408Y553109D01*
X103387Y553252D01*
X103361Y553311D01*
X103350Y553359D01*
X102693Y554944D01*
X102693Y557056D01*
X103501Y559006D01*
X104994Y560499D01*
X106944Y561307D01*
X109056Y561307D01*
X111006Y560499D01*
X112499Y559006D01*
X113307Y557056D01*
X113307Y554944D01*
X112650Y553359D01*
X112642Y553329D01*
X112628Y553302D01*
X112615Y553224D01*
X112579Y553084D01*
X112581Y553019D01*
X112573Y552970D01*
X112573Y535138D01*
X109894Y532459D01*
X84272Y532459D01*
X84185Y532447D01*
X84098Y532444D01*
X84045Y532427D01*
X83990Y532420D01*
X83911Y532384D01*
X83827Y532357D01*
X83788Y532329D01*
X83731Y532303D01*
X83618Y532208D01*
X83554Y532162D01*
X82011Y530619D01*
X79231Y529467D01*
X76221Y529467D01*
G37*
%LPD*%
%LPC*%
G36*
X107944Y287693D02*
X107944Y287693D01*
X105994Y288501D01*
X104501Y289994D01*
X103693Y291944D01*
X103693Y294056D01*
X104501Y296006D01*
X105994Y297499D01*
X107944Y298307D01*
X110056Y298307D01*
X112006Y297499D01*
X113499Y296006D01*
X114260Y294167D01*
X114261Y294166D01*
X114262Y294165D01*
X114334Y294042D01*
X114405Y293923D01*
X114406Y293922D01*
X114407Y293920D01*
X114511Y293823D01*
X114612Y293727D01*
X114613Y293727D01*
X114614Y293726D01*
X114743Y293660D01*
X114864Y293597D01*
X114866Y293597D01*
X114867Y293596D01*
X114882Y293594D01*
X115143Y293542D01*
X115174Y293545D01*
X115198Y293541D01*
X133527Y293541D01*
X133614Y293553D01*
X133701Y293556D01*
X133754Y293573D01*
X133809Y293581D01*
X133888Y293616D01*
X133972Y293643D01*
X134011Y293671D01*
X134068Y293697D01*
X134181Y293793D01*
X134245Y293838D01*
X143406Y302999D01*
X143407Y303001D01*
X143409Y303002D01*
X143492Y303114D01*
X143577Y303227D01*
X143578Y303228D01*
X143579Y303229D01*
X143628Y303360D01*
X143678Y303492D01*
X143679Y303494D01*
X143679Y303495D01*
X143691Y303640D01*
X143702Y303776D01*
X143702Y303777D01*
X143702Y303779D01*
X143698Y303794D01*
X143693Y303819D01*
X143693Y306056D01*
X144501Y308006D01*
X146063Y309568D01*
X146077Y309576D01*
X146078Y309578D01*
X146080Y309578D01*
X146175Y309680D01*
X146273Y309783D01*
X146273Y309785D01*
X146274Y309786D01*
X146339Y309911D01*
X146403Y310036D01*
X146403Y310037D01*
X146404Y310039D01*
X146406Y310054D01*
X146458Y310315D01*
X146455Y310345D01*
X146459Y310370D01*
X146459Y347052D01*
X211162Y411755D01*
X211214Y411825D01*
X211274Y411889D01*
X211300Y411938D01*
X211333Y411982D01*
X211364Y412064D01*
X211404Y412142D01*
X211412Y412189D01*
X211434Y412248D01*
X211446Y412396D01*
X211459Y412473D01*
X211459Y424630D01*
X211459Y424632D01*
X211459Y424633D01*
X211439Y424774D01*
X211419Y424912D01*
X211419Y424913D01*
X211419Y424915D01*
X211360Y425044D01*
X211303Y425171D01*
X211302Y425172D01*
X211301Y425174D01*
X211211Y425280D01*
X211120Y425388D01*
X211118Y425389D01*
X211117Y425390D01*
X211105Y425398D01*
X211082Y425413D01*
X209501Y426994D01*
X208693Y428944D01*
X208693Y431056D01*
X209501Y433006D01*
X210994Y434499D01*
X212944Y435307D01*
X215056Y435307D01*
X217006Y434499D01*
X218499Y433006D01*
X219307Y431056D01*
X219307Y428944D01*
X218499Y426994D01*
X216937Y425432D01*
X216923Y425424D01*
X216922Y425422D01*
X216920Y425422D01*
X216822Y425317D01*
X216727Y425217D01*
X216727Y425215D01*
X216726Y425214D01*
X216661Y425089D01*
X216597Y424964D01*
X216597Y424963D01*
X216596Y424961D01*
X216594Y424946D01*
X216542Y424685D01*
X216545Y424655D01*
X216541Y424630D01*
X216541Y409948D01*
X151838Y345245D01*
X151786Y345175D01*
X151726Y345111D01*
X151700Y345062D01*
X151667Y345018D01*
X151636Y344936D01*
X151596Y344858D01*
X151588Y344811D01*
X151566Y344752D01*
X151554Y344604D01*
X151541Y344527D01*
X151541Y310370D01*
X151541Y310368D01*
X151541Y310367D01*
X151561Y310226D01*
X151581Y310088D01*
X151581Y310087D01*
X151581Y310085D01*
X151640Y309955D01*
X151697Y309829D01*
X151698Y309828D01*
X151699Y309826D01*
X151789Y309720D01*
X151880Y309612D01*
X151882Y309611D01*
X151883Y309610D01*
X151895Y309602D01*
X151918Y309587D01*
X153499Y308006D01*
X154307Y306056D01*
X154307Y303944D01*
X153499Y301994D01*
X152006Y300501D01*
X150056Y299693D01*
X147846Y299693D01*
X147831Y299697D01*
X147829Y299697D01*
X147827Y299698D01*
X147687Y299693D01*
X147546Y299689D01*
X147545Y299689D01*
X147543Y299689D01*
X147413Y299647D01*
X147276Y299603D01*
X147274Y299602D01*
X147273Y299601D01*
X147261Y299593D01*
X147039Y299444D01*
X147020Y299421D01*
X146999Y299406D01*
X137838Y290245D01*
X136052Y288459D01*
X112107Y288459D01*
X112076Y288455D01*
X112045Y288457D01*
X111969Y288440D01*
X111825Y288419D01*
X111767Y288393D01*
X111718Y288382D01*
X110056Y287693D01*
X107944Y287693D01*
G37*
%LPD*%
%LPC*%
G36*
X519944Y122693D02*
X519944Y122693D01*
X517994Y123501D01*
X516432Y125063D01*
X516424Y125077D01*
X516422Y125078D01*
X516422Y125080D01*
X516317Y125178D01*
X516217Y125273D01*
X516215Y125273D01*
X516214Y125274D01*
X516089Y125339D01*
X515964Y125403D01*
X515963Y125403D01*
X515961Y125404D01*
X515946Y125406D01*
X515685Y125458D01*
X515655Y125455D01*
X515630Y125459D01*
X475448Y125459D01*
X434959Y165948D01*
X434959Y228130D01*
X434959Y228132D01*
X434959Y228133D01*
X434939Y228274D01*
X434919Y228412D01*
X434919Y228413D01*
X434919Y228415D01*
X434860Y228544D01*
X434803Y228671D01*
X434802Y228672D01*
X434801Y228674D01*
X434711Y228780D01*
X434620Y228888D01*
X434618Y228889D01*
X434617Y228890D01*
X434605Y228898D01*
X434582Y228913D01*
X433001Y230494D01*
X432193Y232444D01*
X432193Y234556D01*
X433001Y236506D01*
X434494Y237999D01*
X436444Y238807D01*
X438556Y238807D01*
X440506Y237999D01*
X441999Y236506D01*
X442807Y234556D01*
X442807Y232444D01*
X441999Y230494D01*
X440437Y228932D01*
X440423Y228924D01*
X440422Y228922D01*
X440420Y228922D01*
X440322Y228817D01*
X440227Y228717D01*
X440227Y228715D01*
X440226Y228714D01*
X440161Y228589D01*
X440097Y228464D01*
X440097Y228463D01*
X440096Y228461D01*
X440094Y228446D01*
X440042Y228185D01*
X440045Y228155D01*
X440041Y228130D01*
X440041Y168473D01*
X440053Y168386D01*
X440056Y168299D01*
X440073Y168246D01*
X440081Y168191D01*
X440116Y168112D01*
X440143Y168028D01*
X440171Y167989D01*
X440197Y167932D01*
X440293Y167819D01*
X440338Y167755D01*
X477255Y130838D01*
X477325Y130786D01*
X477389Y130726D01*
X477438Y130700D01*
X477482Y130667D01*
X477564Y130636D01*
X477642Y130596D01*
X477689Y130588D01*
X477748Y130566D01*
X477896Y130554D01*
X477973Y130541D01*
X515630Y130541D01*
X515632Y130541D01*
X515633Y130541D01*
X515774Y130561D01*
X515912Y130581D01*
X515913Y130581D01*
X515915Y130581D01*
X516044Y130640D01*
X516171Y130697D01*
X516172Y130698D01*
X516174Y130699D01*
X516280Y130789D01*
X516388Y130880D01*
X516389Y130882D01*
X516390Y130883D01*
X516398Y130895D01*
X516413Y130918D01*
X517994Y132499D01*
X519944Y133307D01*
X522056Y133307D01*
X524006Y132499D01*
X525499Y131006D01*
X526307Y129056D01*
X526307Y126944D01*
X525499Y124994D01*
X524006Y123501D01*
X522056Y122693D01*
X519944Y122693D01*
G37*
%LPD*%
%LPC*%
G36*
X268944Y554693D02*
X268944Y554693D01*
X266994Y555501D01*
X265501Y556994D01*
X264693Y558944D01*
X264693Y561056D01*
X265350Y562641D01*
X265358Y562671D01*
X265372Y562698D01*
X265385Y562776D01*
X265421Y562916D01*
X265419Y562981D01*
X265427Y563030D01*
X265427Y574894D01*
X274106Y583573D01*
X330970Y583573D01*
X331001Y583577D01*
X331032Y583575D01*
X331109Y583592D01*
X331252Y583613D01*
X331311Y583639D01*
X331359Y583650D01*
X332944Y584307D01*
X335056Y584307D01*
X337006Y583499D01*
X338499Y582006D01*
X339307Y580056D01*
X339307Y577944D01*
X338499Y575994D01*
X337006Y574501D01*
X335056Y573693D01*
X332944Y573693D01*
X331359Y574350D01*
X331329Y574358D01*
X331302Y574372D01*
X331224Y574385D01*
X331084Y574421D01*
X331019Y574419D01*
X330970Y574427D01*
X278315Y574427D01*
X278228Y574415D01*
X278141Y574412D01*
X278088Y574395D01*
X278033Y574387D01*
X277953Y574352D01*
X277870Y574325D01*
X277831Y574297D01*
X277774Y574271D01*
X277660Y574175D01*
X277597Y574130D01*
X274870Y571403D01*
X274818Y571333D01*
X274758Y571270D01*
X274732Y571220D01*
X274699Y571176D01*
X274668Y571094D01*
X274628Y571016D01*
X274620Y570969D01*
X274598Y570910D01*
X274586Y570763D01*
X274573Y570685D01*
X274573Y563030D01*
X274577Y562999D01*
X274575Y562968D01*
X274592Y562891D01*
X274613Y562748D01*
X274639Y562689D01*
X274650Y562641D01*
X275307Y561056D01*
X275307Y558944D01*
X274499Y556994D01*
X273006Y555501D01*
X271056Y554693D01*
X268944Y554693D01*
G37*
%LPD*%
%LPC*%
G36*
X53944Y289693D02*
X53944Y289693D01*
X51994Y290501D01*
X50501Y291994D01*
X49693Y293944D01*
X49693Y296056D01*
X50501Y298006D01*
X51994Y299499D01*
X53944Y300307D01*
X56056Y300307D01*
X58006Y299499D01*
X58667Y298838D01*
X58737Y298786D01*
X58800Y298726D01*
X58850Y298700D01*
X58894Y298667D01*
X58976Y298636D01*
X59054Y298596D01*
X59101Y298588D01*
X59160Y298566D01*
X59307Y298554D01*
X59385Y298541D01*
X87527Y298541D01*
X87614Y298553D01*
X87701Y298556D01*
X87754Y298573D01*
X87809Y298581D01*
X87888Y298616D01*
X87972Y298643D01*
X88011Y298671D01*
X88068Y298697D01*
X88181Y298793D01*
X88245Y298838D01*
X106162Y316755D01*
X106214Y316825D01*
X106274Y316889D01*
X106300Y316938D01*
X106333Y316982D01*
X106364Y317064D01*
X106404Y317142D01*
X106412Y317189D01*
X106434Y317248D01*
X106446Y317396D01*
X106459Y317473D01*
X106459Y373630D01*
X106459Y373632D01*
X106459Y373633D01*
X106439Y373774D01*
X106419Y373912D01*
X106419Y373913D01*
X106419Y373915D01*
X106360Y374044D01*
X106303Y374171D01*
X106302Y374172D01*
X106301Y374174D01*
X106211Y374280D01*
X106120Y374388D01*
X106118Y374389D01*
X106117Y374390D01*
X106105Y374398D01*
X106082Y374413D01*
X104501Y375994D01*
X103693Y377944D01*
X103693Y380056D01*
X104501Y382006D01*
X105994Y383499D01*
X107944Y384307D01*
X110056Y384307D01*
X112006Y383499D01*
X113499Y382006D01*
X114307Y380056D01*
X114307Y377944D01*
X113499Y375994D01*
X111937Y374432D01*
X111923Y374424D01*
X111922Y374422D01*
X111920Y374422D01*
X111822Y374317D01*
X111727Y374217D01*
X111727Y374215D01*
X111726Y374214D01*
X111661Y374088D01*
X111597Y373964D01*
X111597Y373963D01*
X111596Y373961D01*
X111594Y373946D01*
X111542Y373685D01*
X111545Y373655D01*
X111541Y373630D01*
X111541Y314948D01*
X91838Y295245D01*
X90052Y293459D01*
X60784Y293459D01*
X60783Y293459D01*
X60781Y293459D01*
X60642Y293439D01*
X60503Y293419D01*
X60501Y293419D01*
X60500Y293419D01*
X60374Y293362D01*
X60243Y293303D01*
X60242Y293302D01*
X60241Y293301D01*
X60133Y293210D01*
X60026Y293120D01*
X60025Y293118D01*
X60024Y293117D01*
X60016Y293104D01*
X59869Y292883D01*
X59859Y292854D01*
X59846Y292833D01*
X59499Y291994D01*
X58006Y290501D01*
X56056Y289693D01*
X53944Y289693D01*
G37*
%LPD*%
%LPC*%
G36*
X15984Y212839D02*
X15984Y212839D01*
X10412Y215147D01*
X6147Y219412D01*
X3839Y224984D01*
X3839Y231016D01*
X6147Y236588D01*
X10412Y240853D01*
X15984Y243161D01*
X22016Y243161D01*
X27588Y240853D01*
X31853Y236588D01*
X34161Y231016D01*
X34161Y224984D01*
X31853Y219412D01*
X27588Y215147D01*
X22016Y212839D01*
X15984Y212839D01*
G37*
%LPD*%
%LPC*%
G36*
X53284Y401939D02*
X53284Y401939D01*
X47895Y404171D01*
X43771Y408295D01*
X41539Y413684D01*
X41539Y419516D01*
X43771Y424905D01*
X47895Y429029D01*
X53284Y431261D01*
X59116Y431261D01*
X64505Y429029D01*
X68629Y424905D01*
X70861Y419516D01*
X70861Y413684D01*
X68629Y408295D01*
X64505Y404171D01*
X59116Y401939D01*
X53284Y401939D01*
G37*
%LPD*%
%LPC*%
G36*
X53284Y357939D02*
X53284Y357939D01*
X47895Y360171D01*
X43771Y364295D01*
X41539Y369684D01*
X41539Y375516D01*
X43771Y380905D01*
X47895Y385029D01*
X53284Y387261D01*
X59116Y387261D01*
X64505Y385029D01*
X68629Y380905D01*
X70861Y375516D01*
X70861Y369684D01*
X68629Y364295D01*
X64505Y360171D01*
X59116Y357939D01*
X53284Y357939D01*
G37*
%LPD*%
%LPC*%
G36*
X538944Y144693D02*
X538944Y144693D01*
X536994Y145501D01*
X535501Y146994D01*
X534693Y148944D01*
X534693Y151153D01*
X534697Y151169D01*
X534697Y151171D01*
X534698Y151173D01*
X534693Y151312D01*
X534689Y151453D01*
X534689Y151455D01*
X534689Y151457D01*
X534646Y151589D01*
X534603Y151724D01*
X534602Y151726D01*
X534601Y151727D01*
X534592Y151740D01*
X534445Y151960D01*
X534421Y151980D01*
X534406Y152001D01*
X506745Y179662D01*
X506675Y179714D01*
X506611Y179774D01*
X506562Y179800D01*
X506518Y179833D01*
X506436Y179864D01*
X506358Y179904D01*
X506311Y179912D01*
X506252Y179934D01*
X506104Y179946D01*
X506027Y179959D01*
X457870Y179959D01*
X457868Y179959D01*
X457867Y179959D01*
X457726Y179939D01*
X457588Y179919D01*
X457587Y179919D01*
X457585Y179919D01*
X457456Y179860D01*
X457329Y179803D01*
X457328Y179802D01*
X457326Y179801D01*
X457220Y179711D01*
X457112Y179620D01*
X457111Y179618D01*
X457110Y179617D01*
X457102Y179605D01*
X457087Y179582D01*
X455506Y178001D01*
X453556Y177193D01*
X451444Y177193D01*
X449494Y178001D01*
X448001Y179494D01*
X447193Y181444D01*
X447193Y183556D01*
X448001Y185506D01*
X449494Y186999D01*
X451444Y187807D01*
X453556Y187807D01*
X455506Y186999D01*
X457068Y185437D01*
X457076Y185423D01*
X457078Y185422D01*
X457078Y185420D01*
X457183Y185322D01*
X457283Y185227D01*
X457285Y185227D01*
X457286Y185226D01*
X457411Y185161D01*
X457536Y185097D01*
X457537Y185097D01*
X457539Y185096D01*
X457554Y185094D01*
X457815Y185042D01*
X457845Y185045D01*
X457870Y185041D01*
X508552Y185041D01*
X537999Y155594D01*
X538001Y155593D01*
X538002Y155591D01*
X538120Y155503D01*
X538227Y155423D01*
X538228Y155422D01*
X538230Y155421D01*
X538363Y155371D01*
X538492Y155322D01*
X538494Y155321D01*
X538496Y155321D01*
X538639Y155309D01*
X538776Y155298D01*
X538777Y155298D01*
X538779Y155298D01*
X538796Y155302D01*
X538819Y155307D01*
X541056Y155307D01*
X543006Y154499D01*
X544499Y153006D01*
X545307Y151056D01*
X545307Y148944D01*
X544499Y146994D01*
X543006Y145501D01*
X541056Y144693D01*
X538944Y144693D01*
G37*
%LPD*%
%LPC*%
G36*
X50944Y324693D02*
X50944Y324693D01*
X48994Y325501D01*
X47501Y326994D01*
X46693Y328944D01*
X46693Y331056D01*
X47501Y333006D01*
X49063Y334568D01*
X49077Y334576D01*
X49078Y334578D01*
X49080Y334578D01*
X49177Y334681D01*
X49273Y334783D01*
X49273Y334785D01*
X49274Y334786D01*
X49339Y334911D01*
X49403Y335036D01*
X49403Y335037D01*
X49404Y335039D01*
X49406Y335054D01*
X49458Y335315D01*
X49455Y335345D01*
X49459Y335370D01*
X49459Y341052D01*
X108233Y399826D01*
X108268Y399873D01*
X108311Y399913D01*
X108353Y399986D01*
X108404Y400053D01*
X108425Y400108D01*
X108454Y400159D01*
X108475Y400240D01*
X108505Y400319D01*
X108510Y400377D01*
X108524Y400434D01*
X108522Y400518D01*
X108529Y400602D01*
X108517Y400660D01*
X108515Y400718D01*
X108489Y400799D01*
X108473Y400881D01*
X108446Y400933D01*
X108428Y400989D01*
X108388Y401045D01*
X108342Y401133D01*
X108273Y401206D01*
X108233Y401262D01*
X107501Y401994D01*
X106693Y403944D01*
X106693Y406056D01*
X107501Y408006D01*
X108994Y409499D01*
X110944Y410307D01*
X113056Y410307D01*
X115006Y409499D01*
X116499Y408006D01*
X117307Y406056D01*
X117307Y403944D01*
X116499Y401994D01*
X114937Y400432D01*
X114923Y400424D01*
X114922Y400422D01*
X114920Y400422D01*
X114822Y400317D01*
X114727Y400217D01*
X114727Y400215D01*
X114726Y400214D01*
X114661Y400089D01*
X114597Y399964D01*
X114597Y399963D01*
X114596Y399961D01*
X114594Y399946D01*
X114542Y399685D01*
X114545Y399655D01*
X114541Y399630D01*
X114541Y398948D01*
X54838Y339245D01*
X54786Y339175D01*
X54726Y339111D01*
X54700Y339062D01*
X54667Y339018D01*
X54636Y338936D01*
X54596Y338858D01*
X54588Y338811D01*
X54566Y338752D01*
X54560Y338684D01*
X54555Y338667D01*
X54553Y338600D01*
X54541Y338527D01*
X54541Y335370D01*
X54541Y335368D01*
X54541Y335367D01*
X54561Y335226D01*
X54581Y335088D01*
X54581Y335087D01*
X54581Y335085D01*
X54640Y334956D01*
X54697Y334829D01*
X54698Y334828D01*
X54699Y334826D01*
X54793Y334715D01*
X54880Y334612D01*
X54882Y334611D01*
X54883Y334610D01*
X54895Y334602D01*
X54918Y334587D01*
X56499Y333006D01*
X57307Y331056D01*
X57307Y328944D01*
X56499Y326994D01*
X55006Y325501D01*
X53056Y324693D01*
X50944Y324693D01*
G37*
%LPD*%
%LPC*%
G36*
X12178Y158985D02*
X12178Y158985D01*
X11285Y159878D01*
X11285Y178922D01*
X12178Y179815D01*
X31222Y179815D01*
X32115Y178922D01*
X32115Y159878D01*
X31222Y158985D01*
X12178Y158985D01*
G37*
%LPD*%
%LPC*%
G36*
X37578Y158985D02*
X37578Y158985D01*
X36685Y159878D01*
X36685Y178922D01*
X37578Y179815D01*
X56622Y179815D01*
X57515Y178922D01*
X57515Y159878D01*
X56622Y158985D01*
X37578Y158985D01*
G37*
%LPD*%
%LPC*%
G36*
X62978Y158985D02*
X62978Y158985D01*
X62085Y159878D01*
X62085Y178922D01*
X62978Y179815D01*
X82022Y179815D01*
X82915Y178922D01*
X82915Y159878D01*
X82022Y158985D01*
X62978Y158985D01*
G37*
%LPD*%
%LPC*%
G36*
X189978Y158985D02*
X189978Y158985D01*
X189085Y159878D01*
X189085Y178922D01*
X189978Y179815D01*
X209022Y179815D01*
X209915Y178922D01*
X209915Y159878D01*
X209022Y158985D01*
X189978Y158985D01*
G37*
%LPD*%
%LPC*%
G36*
X519946Y617467D02*
X519946Y617467D01*
X516982Y618695D01*
X514713Y620964D01*
X513486Y623928D01*
X513486Y640216D01*
X514713Y643180D01*
X516982Y645449D01*
X519946Y646677D01*
X523155Y646677D01*
X526119Y645449D01*
X528387Y643180D01*
X529615Y640216D01*
X529615Y623928D01*
X528387Y620964D01*
X526119Y618695D01*
X523155Y617467D01*
X519946Y617467D01*
G37*
%LPD*%
%LPC*%
G36*
X173944Y425693D02*
X173944Y425693D01*
X171994Y426501D01*
X170501Y427994D01*
X169693Y429944D01*
X169693Y432056D01*
X170501Y434006D01*
X171994Y435499D01*
X173944Y436307D01*
X176153Y436307D01*
X176169Y436303D01*
X176171Y436303D01*
X176173Y436302D01*
X176312Y436307D01*
X176453Y436311D01*
X176455Y436311D01*
X176457Y436311D01*
X176589Y436354D01*
X176724Y436397D01*
X176726Y436398D01*
X176727Y436399D01*
X176741Y436408D01*
X176960Y436555D01*
X176980Y436579D01*
X177001Y436594D01*
X195733Y455326D01*
X195768Y455373D01*
X195811Y455413D01*
X195853Y455486D01*
X195904Y455553D01*
X195925Y455608D01*
X195954Y455659D01*
X195975Y455740D01*
X196005Y455819D01*
X196010Y455877D01*
X196024Y455934D01*
X196022Y456018D01*
X196029Y456102D01*
X196017Y456160D01*
X196015Y456218D01*
X195990Y456298D01*
X195973Y456381D01*
X195946Y456433D01*
X195928Y456489D01*
X195888Y456545D01*
X195842Y456633D01*
X195773Y456706D01*
X195733Y456762D01*
X195501Y456994D01*
X194693Y458944D01*
X194693Y461056D01*
X195501Y463006D01*
X196994Y464499D01*
X198944Y465307D01*
X201056Y465307D01*
X203006Y464499D01*
X204499Y463006D01*
X205307Y461056D01*
X205307Y458944D01*
X204499Y456994D01*
X202937Y455432D01*
X202923Y455424D01*
X202922Y455422D01*
X202920Y455422D01*
X202822Y455317D01*
X202727Y455217D01*
X202727Y455215D01*
X202726Y455214D01*
X202659Y455085D01*
X202640Y455047D01*
X180594Y433001D01*
X180593Y432999D01*
X180591Y432998D01*
X180503Y432880D01*
X180423Y432773D01*
X180422Y432772D01*
X180421Y432770D01*
X180371Y432637D01*
X180322Y432508D01*
X180321Y432506D01*
X180321Y432504D01*
X180309Y432360D01*
X180298Y432224D01*
X180298Y432223D01*
X180298Y432221D01*
X180302Y432204D01*
X180307Y432181D01*
X180307Y429944D01*
X179499Y427994D01*
X178006Y426501D01*
X176056Y425693D01*
X173944Y425693D01*
G37*
%LPD*%
%LPC*%
G36*
X437944Y317693D02*
X437944Y317693D01*
X435994Y318501D01*
X434501Y319994D01*
X433693Y321944D01*
X433693Y324056D01*
X434501Y326006D01*
X435994Y327499D01*
X437944Y328307D01*
X440056Y328307D01*
X441308Y327788D01*
X441310Y327787D01*
X441311Y327787D01*
X441444Y327753D01*
X441584Y327717D01*
X441585Y327717D01*
X441587Y327717D01*
X441728Y327721D01*
X441868Y327725D01*
X441869Y327725D01*
X441871Y327726D01*
X442005Y327769D01*
X442139Y327812D01*
X442140Y327813D01*
X442141Y327813D01*
X442154Y327822D01*
X442375Y327970D01*
X442394Y327993D01*
X442415Y328008D01*
X449162Y334755D01*
X449173Y334770D01*
X449182Y334777D01*
X449207Y334815D01*
X449214Y334825D01*
X449274Y334889D01*
X449300Y334938D01*
X449333Y334982D01*
X449364Y335064D01*
X449404Y335142D01*
X449412Y335189D01*
X449434Y335248D01*
X449446Y335396D01*
X449459Y335473D01*
X449459Y346630D01*
X449459Y346632D01*
X449459Y346633D01*
X449451Y346688D01*
X449453Y346737D01*
X449434Y346808D01*
X449419Y346912D01*
X449419Y346913D01*
X449419Y346915D01*
X449389Y346979D01*
X449381Y347012D01*
X449355Y347056D01*
X449303Y347171D01*
X449302Y347172D01*
X449301Y347174D01*
X449246Y347239D01*
X449236Y347256D01*
X449213Y347278D01*
X449211Y347280D01*
X449120Y347388D01*
X449118Y347389D01*
X449117Y347390D01*
X449105Y347398D01*
X449082Y347413D01*
X447501Y348994D01*
X446693Y350944D01*
X446693Y353056D01*
X447501Y355006D01*
X448994Y356499D01*
X450944Y357307D01*
X453056Y357307D01*
X455006Y356499D01*
X456499Y355006D01*
X457307Y353056D01*
X457307Y350944D01*
X456499Y348994D01*
X454937Y347432D01*
X454923Y347424D01*
X454922Y347422D01*
X454920Y347422D01*
X454822Y347317D01*
X454819Y347314D01*
X454798Y347296D01*
X454788Y347281D01*
X454727Y347217D01*
X454727Y347215D01*
X454726Y347214D01*
X454667Y347099D01*
X454640Y347060D01*
X454631Y347030D01*
X454597Y346964D01*
X454597Y346963D01*
X454596Y346961D01*
X454594Y346946D01*
X454576Y346855D01*
X454555Y346789D01*
X454554Y346742D01*
X454542Y346685D01*
X454545Y346655D01*
X454541Y346630D01*
X454541Y332948D01*
X444604Y323011D01*
X444552Y322941D01*
X444492Y322877D01*
X444466Y322828D01*
X444433Y322784D01*
X444402Y322702D01*
X444362Y322624D01*
X444354Y322577D01*
X444332Y322518D01*
X444325Y322437D01*
X444321Y322423D01*
X444319Y322368D01*
X444307Y322293D01*
X444307Y321944D01*
X443499Y319994D01*
X442006Y318501D01*
X440056Y317693D01*
X437944Y317693D01*
G37*
%LPD*%
%LPC*%
G36*
X494944Y324693D02*
X494944Y324693D01*
X492994Y325501D01*
X491501Y326994D01*
X490693Y328944D01*
X490693Y331056D01*
X491382Y332718D01*
X491390Y332748D01*
X491404Y332776D01*
X491417Y332853D01*
X491453Y332994D01*
X491451Y333058D01*
X491459Y333107D01*
X491459Y358630D01*
X491459Y358632D01*
X491459Y358634D01*
X491440Y358767D01*
X491419Y358912D01*
X491419Y358914D01*
X491418Y358916D01*
X491361Y359041D01*
X491303Y359171D01*
X491302Y359173D01*
X491301Y359175D01*
X491211Y359279D01*
X491120Y359388D01*
X491118Y359389D01*
X491116Y359391D01*
X491100Y359401D01*
X491082Y359413D01*
X489501Y360994D01*
X488693Y362944D01*
X488693Y365056D01*
X489501Y367006D01*
X490994Y368499D01*
X492944Y369307D01*
X495056Y369307D01*
X497006Y368499D01*
X498499Y367006D01*
X499307Y365056D01*
X499307Y362944D01*
X498499Y360994D01*
X496937Y359432D01*
X496924Y359424D01*
X496922Y359423D01*
X496920Y359422D01*
X496822Y359317D01*
X496728Y359218D01*
X496727Y359216D01*
X496726Y359214D01*
X496660Y359085D01*
X496598Y358965D01*
X496597Y358963D01*
X496596Y358961D01*
X496593Y358942D01*
X496542Y358686D01*
X496545Y358655D01*
X496541Y358630D01*
X496541Y336198D01*
X496541Y336197D01*
X496541Y336195D01*
X496561Y336056D01*
X496581Y335917D01*
X496581Y335915D01*
X496581Y335914D01*
X496638Y335788D01*
X496697Y335657D01*
X496698Y335656D01*
X496699Y335655D01*
X496790Y335548D01*
X496880Y335440D01*
X496882Y335440D01*
X496883Y335438D01*
X496896Y335430D01*
X497117Y335283D01*
X497146Y335274D01*
X497167Y335260D01*
X499006Y334499D01*
X500499Y333006D01*
X501307Y331056D01*
X501307Y328944D01*
X500499Y326994D01*
X499006Y325501D01*
X497056Y324693D01*
X494944Y324693D01*
G37*
%LPD*%
%LPC*%
G36*
X77722Y598460D02*
X77722Y598460D01*
X77667Y598524D01*
X77619Y598557D01*
X77576Y598597D01*
X77501Y598635D01*
X77431Y598682D01*
X77375Y598699D01*
X77323Y598726D01*
X77255Y598737D01*
X77160Y598768D01*
X77060Y598770D01*
X76992Y598781D01*
X69325Y598781D01*
X69475Y599535D01*
X70122Y601097D01*
X71061Y602502D01*
X72256Y603697D01*
X73090Y604254D01*
X73101Y604265D01*
X73115Y604272D01*
X73207Y604359D01*
X73302Y604444D01*
X73310Y604457D01*
X73321Y604468D01*
X73385Y604577D01*
X73453Y604685D01*
X73457Y604700D01*
X73465Y604713D01*
X73496Y604836D01*
X73531Y604958D01*
X73531Y604973D01*
X73535Y604988D01*
X73531Y605115D01*
X73531Y605242D01*
X73527Y605257D01*
X73526Y605273D01*
X73487Y605393D01*
X73452Y605515D01*
X73443Y605528D01*
X73439Y605543D01*
X73399Y605599D01*
X73300Y605756D01*
X73265Y605786D01*
X73244Y605816D01*
X71313Y607747D01*
X70161Y610528D01*
X70161Y613537D01*
X71313Y616317D01*
X73441Y618445D01*
X76221Y619597D01*
X79231Y619597D01*
X82011Y618445D01*
X84139Y616317D01*
X85291Y613537D01*
X85291Y610528D01*
X84139Y607747D01*
X82208Y605816D01*
X82199Y605804D01*
X82187Y605794D01*
X82113Y605690D01*
X82037Y605589D01*
X82032Y605575D01*
X82023Y605562D01*
X81981Y605442D01*
X81936Y605324D01*
X81935Y605308D01*
X81930Y605293D01*
X81923Y605167D01*
X81913Y605040D01*
X81916Y605025D01*
X81915Y605010D01*
X81944Y604886D01*
X81969Y604762D01*
X81976Y604748D01*
X81979Y604733D01*
X82041Y604622D01*
X82100Y604509D01*
X82110Y604498D01*
X82118Y604484D01*
X82168Y604437D01*
X82295Y604303D01*
X82335Y604280D01*
X82362Y604254D01*
X83196Y603697D01*
X84391Y602502D01*
X85330Y601097D01*
X85977Y599535D01*
X86127Y598781D01*
X78460Y598781D01*
X78402Y598773D01*
X78344Y598775D01*
X78262Y598753D01*
X78179Y598742D01*
X78125Y598718D01*
X78069Y598703D01*
X77996Y598660D01*
X77919Y598625D01*
X77875Y598588D01*
X77824Y598558D01*
X77767Y598496D01*
X77723Y598459D01*
X77722Y598460D01*
G37*
%LPD*%
%LPC*%
G36*
X403099Y596850D02*
X403099Y596850D01*
X403045Y596914D01*
X402996Y596947D01*
X402953Y596987D01*
X402878Y597025D01*
X402808Y597072D01*
X402752Y597090D01*
X402700Y597116D01*
X402632Y597128D01*
X402537Y597158D01*
X402437Y597160D01*
X402369Y597172D01*
X394703Y597172D01*
X394852Y597926D01*
X395499Y599487D01*
X396438Y600893D01*
X397633Y602088D01*
X398467Y602645D01*
X398479Y602655D01*
X398492Y602662D01*
X398584Y602749D01*
X398618Y602780D01*
X398646Y602803D01*
X398648Y602807D01*
X398679Y602834D01*
X398687Y602847D01*
X398699Y602858D01*
X398763Y602968D01*
X398830Y603075D01*
X398835Y603090D01*
X398842Y603103D01*
X398874Y603226D01*
X398909Y603348D01*
X398909Y603364D01*
X398912Y603379D01*
X398908Y603505D01*
X398908Y603633D01*
X398904Y603647D01*
X398903Y603663D01*
X398864Y603784D01*
X398829Y603906D01*
X398821Y603919D01*
X398816Y603933D01*
X398776Y603989D01*
X398677Y604146D01*
X398642Y604177D01*
X398621Y604207D01*
X396690Y606137D01*
X395539Y608918D01*
X395539Y611927D01*
X396690Y614708D01*
X398818Y616836D01*
X401599Y617987D01*
X404608Y617987D01*
X407389Y616836D01*
X409516Y614708D01*
X410668Y611927D01*
X410668Y608918D01*
X409516Y606137D01*
X407586Y604207D01*
X407577Y604194D01*
X407564Y604185D01*
X407491Y604080D01*
X407415Y603980D01*
X407409Y603965D01*
X407400Y603952D01*
X407359Y603832D01*
X407314Y603714D01*
X407312Y603698D01*
X407307Y603684D01*
X407301Y603557D01*
X407290Y603431D01*
X407293Y603415D01*
X407292Y603400D01*
X407321Y603276D01*
X407346Y603152D01*
X407353Y603138D01*
X407357Y603123D01*
X407418Y603012D01*
X407477Y602900D01*
X407488Y602888D01*
X407495Y602875D01*
X407525Y602847D01*
X407527Y602843D01*
X407560Y602813D01*
X407673Y602693D01*
X407709Y602672D01*
X407734Y602649D01*
X407737Y602647D01*
X407740Y602645D01*
X408573Y602088D01*
X409768Y600893D01*
X410708Y599487D01*
X411354Y597926D01*
X411504Y597172D01*
X403838Y597172D01*
X403780Y597164D01*
X403721Y597165D01*
X403640Y597144D01*
X403556Y597132D01*
X403503Y597108D01*
X403446Y597093D01*
X403374Y597050D01*
X403297Y597016D01*
X403252Y596978D01*
X403202Y596948D01*
X403144Y596887D01*
X403100Y596849D01*
X403099Y596850D01*
G37*
%LPD*%
%LPC*%
G36*
X150731Y157969D02*
X150731Y157969D01*
X150731Y167369D01*
X160131Y167369D01*
X160131Y160176D01*
X159958Y159529D01*
X159623Y158950D01*
X159150Y158477D01*
X158571Y158142D01*
X157924Y157969D01*
X150731Y157969D01*
G37*
%LPD*%
%LPC*%
G36*
X139476Y157969D02*
X139476Y157969D01*
X138829Y158142D01*
X138250Y158477D01*
X137777Y158950D01*
X137442Y159529D01*
X137269Y160176D01*
X137269Y167369D01*
X146669Y167369D01*
X146669Y157969D01*
X139476Y157969D01*
G37*
%LPD*%
%LPC*%
G36*
X543550Y634071D02*
X543550Y634071D01*
X543550Y647473D01*
X544199Y647344D01*
X545852Y646659D01*
X547339Y645665D01*
X548604Y644401D01*
X549598Y642913D01*
X550282Y641261D01*
X550631Y639506D01*
X550631Y634071D01*
X543550Y634071D01*
G37*
%LPD*%
%LPC*%
G36*
X543550Y630073D02*
X543550Y630073D01*
X550631Y630073D01*
X550631Y624638D01*
X550282Y622883D01*
X549598Y621231D01*
X548604Y619743D01*
X547339Y618479D01*
X545852Y617485D01*
X544199Y616800D01*
X543550Y616671D01*
X543550Y630073D01*
G37*
%LPD*%
%LPC*%
G36*
X532470Y634071D02*
X532470Y634071D01*
X532470Y639506D01*
X532819Y641261D01*
X533503Y642913D01*
X534497Y644401D01*
X535762Y645665D01*
X537249Y646659D01*
X538902Y647344D01*
X539551Y647473D01*
X539551Y634071D01*
X532470Y634071D01*
G37*
%LPD*%
%LPC*%
G36*
X538902Y616800D02*
X538902Y616800D01*
X537249Y617485D01*
X535762Y618479D01*
X534497Y619743D01*
X533503Y621231D01*
X532819Y622883D01*
X532470Y624638D01*
X532470Y630073D01*
X539551Y630073D01*
X539551Y616671D01*
X538902Y616800D01*
G37*
%LPD*%
D10*
X403103Y535423D03*
X403103Y550423D03*
X403103Y565423D03*
X403103Y580423D03*
X403103Y595423D03*
X403103Y610423D03*
X77726Y537032D03*
X77726Y552032D03*
X77726Y567032D03*
X77726Y582032D03*
X77726Y597032D03*
X77726Y612032D03*
D11*
X541550Y625532D02*
X541550Y638612D01*
X521550Y638612D02*
X521550Y625532D01*
D12*
X21700Y169400D03*
X47100Y169400D03*
X72500Y169400D03*
X97900Y169400D03*
X123300Y169400D03*
X148700Y169400D03*
X174100Y169400D03*
X199500Y169400D03*
D13*
X433000Y523000D02*
X406000Y550000D01*
X403964Y550000D01*
D14*
X403103Y550423D01*
D15*
X433000Y523000D03*
X270000Y560000D03*
D14*
X270000Y573000D02*
X276000Y579000D01*
X270000Y573000D02*
X270000Y560000D01*
D15*
X334000Y579000D03*
D14*
X276000Y579000D01*
D13*
X511000Y484000D02*
X512000Y485000D01*
X511000Y484000D02*
X487000Y484000D01*
X483000Y480000D01*
X483000Y459000D01*
X460000Y459000D01*
X452000Y467000D01*
X449000Y467000D01*
X468000Y312000D02*
X447000Y291000D01*
X449000Y438000D02*
X449000Y467000D01*
X449000Y438000D02*
X468000Y419000D01*
X468000Y312000D01*
D15*
X449000Y467000D03*
X512000Y485000D03*
X447000Y291000D03*
X491000Y508000D03*
D13*
X498000Y501000D01*
X509000Y501000D01*
X512000Y498000D01*
X512000Y485000D01*
D15*
X320000Y310000D03*
D13*
X358000Y310000D01*
X362000Y306000D01*
X362000Y240000D01*
X312000Y190000D01*
X311000Y190000D01*
X311000Y188000D01*
D15*
X311000Y188000D03*
X452500Y182500D03*
D13*
X507500Y182500D01*
D15*
X540000Y150000D03*
D13*
X507500Y182500D01*
D15*
X321878Y298296D03*
X331000Y239000D03*
X437500Y233500D03*
D13*
X437500Y167000D02*
X476500Y128000D01*
X437500Y167000D02*
X437500Y233500D01*
X476500Y128000D02*
X521000Y128000D01*
D15*
X521000Y128000D03*
D13*
X349704Y298296D02*
X321878Y298296D01*
X355000Y263000D02*
X331000Y239000D01*
X355000Y293000D02*
X349704Y298296D01*
X355000Y293000D02*
X355000Y263000D01*
X284000Y332000D02*
X278000Y326000D01*
X270000Y326000D01*
X284000Y332000D02*
X303000Y351000D01*
X303000Y355000D01*
X255000Y481000D02*
X242000Y494000D01*
X242000Y493000D01*
X255000Y481000D02*
X255000Y361000D01*
X284000Y332000D01*
D15*
X303000Y355000D03*
X270000Y326000D03*
X242000Y493000D03*
X363000Y436000D03*
D13*
X363000Y442000D01*
X258000Y547000D01*
X258000Y586000D02*
X257500Y586500D01*
X258000Y586000D02*
X258000Y547000D01*
D15*
X257500Y586500D03*
D13*
X273000Y388000D02*
X270000Y385000D01*
X273000Y492000D02*
X266000Y499000D01*
X273000Y492000D02*
X273000Y388000D01*
D15*
X270000Y385000D03*
X266000Y499000D03*
X352000Y436000D03*
D13*
X351000Y435000D01*
X350667Y439333D01*
X250000Y540000D01*
X247556Y542444D01*
D15*
X117000Y590000D03*
D13*
X260000Y650000D02*
X279000Y631000D01*
X260000Y650000D02*
X177000Y650000D01*
X279000Y631000D02*
X279000Y608000D01*
X177000Y650000D02*
X117000Y590000D01*
X247000Y543000D02*
X247556Y542444D01*
X247000Y543000D02*
X247000Y591000D01*
X271000Y600000D02*
X279000Y608000D01*
X256000Y600000D02*
X247000Y591000D01*
X256000Y600000D02*
X271000Y600000D01*
D15*
X120000Y570000D03*
D13*
X120000Y456000D01*
X219000Y450000D02*
X219000Y475000D01*
D15*
X232678Y448000D03*
X288000Y439000D03*
D13*
X309000Y439000D02*
X321000Y427000D01*
X309000Y439000D02*
X288000Y439000D01*
D15*
X327000Y427000D03*
D13*
X321000Y427000D01*
X232678Y448000D02*
X221000Y448000D01*
X219000Y450000D01*
X219000Y475000D02*
X212000Y482000D01*
X182000Y477000D02*
X182000Y463000D01*
X182000Y477000D02*
X187000Y482000D01*
X212000Y482000D01*
X182000Y463000D02*
X169000Y450000D01*
X126000Y450000D02*
X120000Y456000D01*
X126000Y450000D02*
X169000Y450000D01*
X377000Y376000D02*
X382000Y381000D01*
X377000Y376000D02*
X346000Y376000D01*
X382000Y381000D02*
X382000Y560000D01*
X402423Y580423D02*
X403103Y580423D01*
X402423Y580423D02*
X382000Y560000D01*
D15*
X346000Y376000D03*
D13*
X397000Y440000D02*
X389000Y448000D01*
X389000Y552000D01*
X401423Y564423D01*
X402103Y564423D02*
X403103Y565423D01*
X402103Y564423D02*
X401423Y564423D01*
D15*
X397000Y440000D03*
D13*
X173000Y256000D02*
X173000Y170500D01*
X174100Y169400D01*
X225000Y308000D02*
X225000Y344000D01*
X225000Y308000D02*
X173000Y256000D01*
D15*
X225000Y344000D03*
D13*
X390333Y320333D02*
X390333Y250333D01*
X390000Y320000D02*
X390333Y320333D01*
X390000Y320000D02*
X390000Y324000D01*
D15*
X390000Y324000D03*
D13*
X97900Y169400D02*
X97900Y124100D01*
X110000Y112000D01*
X252000Y112000D01*
X390333Y250333D01*
X333000Y345000D02*
X334000Y346000D01*
X333000Y345000D02*
X332000Y345000D01*
X295000Y308000D01*
X295000Y238000D01*
D15*
X334000Y346000D03*
D13*
X123300Y169400D02*
X123300Y151700D01*
X132000Y143000D01*
X200000Y143000D01*
X295000Y238000D01*
D15*
X347000Y286000D03*
D13*
X320000Y259000D01*
X320000Y219000D01*
D15*
X253000Y165000D03*
D13*
X266000Y165000D02*
X320000Y219000D01*
X266000Y165000D02*
X253000Y165000D01*
D15*
X238000Y426000D03*
D13*
X239000Y427000D02*
X239000Y469000D01*
X239000Y427000D02*
X238000Y426000D01*
X239000Y469000D02*
X222000Y486000D01*
X222000Y588322D02*
X222678Y589000D01*
X222000Y588322D02*
X222000Y486000D01*
D15*
X222678Y589000D03*
X246000Y438000D03*
D13*
X246000Y472000D01*
X233000Y485000D02*
X233000Y540000D01*
X232000Y541000D01*
D15*
X232000Y541000D03*
D13*
X233000Y485000D02*
X246000Y472000D01*
X262000Y490000D02*
X253000Y499000D01*
X262000Y490000D02*
X262000Y409000D01*
X264000Y407000D01*
D15*
X264000Y407000D03*
X253000Y499000D03*
X283000Y415000D03*
D13*
X280000Y418000D02*
X280000Y498000D01*
X280000Y418000D02*
X283000Y415000D01*
D15*
X257000Y621000D03*
D13*
X250000Y621000D02*
X240000Y611000D01*
X250000Y621000D02*
X257000Y621000D01*
X240000Y538000D02*
X280000Y498000D01*
X240000Y538000D02*
X240000Y611000D01*
D15*
X307000Y299322D03*
D13*
X305571Y299322D01*
X305571Y230571D01*
X242000Y167000D02*
X242000Y150000D01*
X232000Y140000D01*
D15*
X232000Y140000D03*
D13*
X242000Y167000D02*
X305571Y230571D01*
D14*
X108000Y537032D02*
X77726Y537032D01*
X108000Y537032D02*
X108000Y556000D01*
D15*
X108000Y556000D03*
X31000Y190000D03*
D13*
X36000Y185000D01*
X164000Y196000D02*
X164000Y280000D01*
X182000Y298000D01*
X197000Y298000D01*
D15*
X197000Y298000D03*
D13*
X153000Y185000D02*
X36000Y185000D01*
X153000Y185000D02*
X164000Y196000D01*
D15*
X436000Y345000D03*
D13*
X436000Y352000D01*
X433000Y355000D01*
X417155Y355000D02*
X412155Y350000D01*
D15*
X412155Y350000D03*
D13*
X417155Y355000D02*
X433000Y355000D01*
D15*
X52000Y330000D03*
X112000Y405000D03*
D13*
X112000Y400000D01*
X52000Y340000D01*
X52000Y330000D01*
X56000Y296000D02*
X89000Y296000D01*
X56000Y296000D02*
X55000Y295000D01*
D15*
X55000Y295000D03*
X109000Y379000D03*
D13*
X109000Y316000D01*
X89000Y296000D01*
X135000Y291000D02*
X149000Y305000D01*
X135000Y291000D02*
X111000Y291000D01*
X109000Y293000D01*
X214000Y411000D02*
X214000Y430000D01*
X214000Y411000D02*
X149000Y346000D01*
X149000Y305000D01*
D15*
X149000Y305000D03*
X109000Y293000D03*
X214000Y430000D03*
D13*
X294000Y473000D02*
X335000Y432000D01*
X294000Y473000D02*
X294000Y475000D01*
X335000Y432000D02*
X335000Y388000D01*
X337000Y386000D02*
X352000Y386000D01*
X337000Y386000D02*
X335000Y388000D01*
D15*
X294000Y475000D03*
X352000Y386000D03*
D13*
X200000Y456000D02*
X175000Y431000D01*
X200000Y456000D02*
X200000Y460000D01*
D15*
X200000Y460000D03*
X175000Y431000D03*
X247000Y370000D03*
D13*
X214000Y370000D01*
D15*
X211000Y373000D03*
D13*
X214000Y370000D01*
D15*
X54000Y199000D03*
D13*
X106000Y199000D01*
X109000Y202000D01*
X109000Y205000D01*
X110000Y206000D01*
D15*
X110000Y206000D03*
X543000Y318000D03*
X510000Y343000D03*
X405000Y298000D03*
D13*
X410000Y293000D01*
X429000Y293000D01*
X430000Y292000D01*
D15*
X430000Y292000D03*
D13*
X510000Y343000D02*
X516000Y343000D01*
X541000Y318000D01*
X543000Y318000D01*
D15*
X343000Y396000D03*
D13*
X367000Y396000D01*
D15*
X373000Y404000D03*
D13*
X373000Y402000D01*
X367000Y396000D01*
D15*
X317000Y389000D03*
D13*
X317000Y376000D01*
X325322Y367678D02*
X380678Y367678D01*
X394000Y406000D02*
X395000Y407000D01*
D15*
X395000Y407000D03*
D13*
X325322Y367678D02*
X317000Y376000D01*
X380678Y367678D02*
X394000Y381000D01*
X394000Y406000D01*
D15*
X40000Y250000D03*
X494000Y364000D03*
X496000Y330000D03*
X299500Y387500D03*
D13*
X299500Y378500D01*
X317000Y361000D01*
X414000Y337000D02*
X414000Y306000D01*
D15*
X414000Y306000D03*
D13*
X390000Y361000D02*
X317000Y361000D01*
X390000Y361000D02*
X414000Y337000D01*
D15*
X138000Y192000D03*
D13*
X494000Y332000D02*
X494000Y364000D01*
X494000Y332000D02*
X496000Y330000D01*
X44000Y191000D02*
X40000Y195000D01*
X44000Y191000D02*
X138000Y191000D01*
X138000Y192000D01*
X40000Y195000D02*
X40000Y250000D01*
X237000Y282000D02*
X237000Y344000D01*
X256000Y263000D02*
X258000Y263000D01*
X256000Y263000D02*
X237000Y282000D01*
D15*
X237000Y344000D03*
X258000Y263000D03*
X188000Y331000D03*
D13*
X178000Y341000D02*
X178000Y356000D01*
X178000Y341000D02*
X188000Y331000D01*
D15*
X178000Y356000D03*
D13*
X452000Y352000D02*
X452000Y334000D01*
X443000Y325000D01*
X441000Y325000D02*
X439000Y323000D01*
X441000Y325000D02*
X443000Y325000D01*
D15*
X452000Y352000D03*
X439000Y323000D03*
X383000Y283000D03*
D13*
X381000Y283000D02*
X381000Y329000D01*
X381000Y283000D02*
X383000Y283000D01*
X384500Y332500D02*
X384500Y335500D01*
X384500Y332500D02*
X381000Y329000D01*
D15*
X384500Y335500D03*
D13*
X135000Y265000D02*
X129000Y265000D01*
X127000Y263000D01*
X135000Y265000D02*
X223000Y353000D01*
X245000Y353000D01*
X245000Y339000D01*
X267000Y317000D01*
X278000Y317000D01*
X315000Y354000D01*
X340000Y354000D02*
X347000Y347000D01*
X340000Y354000D02*
X315000Y354000D01*
D15*
X127000Y263000D03*
X347000Y347000D03*
D13*
X371000Y330000D02*
X371000Y273000D01*
D15*
X371000Y273000D03*
X371000Y330000D03*
M02*
