G04 EAGLE Gerber RS-274X export*
G75*
%MOMM*%
%FSLAX34Y34*%
%LPD*%
%INSoldermask Bottom*%
%IPPOS*%
%AMOC8*
5,1,8,0,0,1.08239X$1,22.5*%
G01*
%ADD10C,1.411200*%
%ADD11C,1.511200*%
%ADD12R,1.981200X1.981200*%
%ADD13C,4.203200*%
%ADD14C,1.103200*%
%ADD15C,1.203200*%
%ADD16C,0.959600*%


D10*
X403103Y535423D03*
X403103Y550423D03*
X403103Y565423D03*
X403103Y580423D03*
X403103Y595423D03*
X403103Y610423D03*
X77726Y537032D03*
X77726Y552032D03*
X77726Y567032D03*
X77726Y582032D03*
X77726Y597032D03*
X77726Y612032D03*
D11*
X541550Y625532D02*
X541550Y638612D01*
X521550Y638612D02*
X521550Y625532D01*
D12*
X21700Y169400D03*
X47100Y169400D03*
X72500Y169400D03*
X97900Y169400D03*
X123300Y169400D03*
X148700Y169400D03*
X174100Y169400D03*
X199500Y169400D03*
D13*
X191700Y40400D03*
D14*
X56200Y416600D03*
X56200Y372600D03*
D15*
X19000Y228000D03*
X95200Y217840D03*
X95200Y238160D03*
D16*
X433000Y523000D03*
X270000Y560000D03*
X334000Y579000D03*
X449000Y467000D03*
X512000Y485000D03*
X447000Y291000D03*
X491000Y508000D03*
X320000Y310000D03*
X311000Y188000D03*
X452500Y182500D03*
X540000Y150000D03*
X321878Y298296D03*
X331000Y239000D03*
X437500Y233500D03*
X521000Y128000D03*
X303000Y355000D03*
X270000Y326000D03*
X242000Y493000D03*
X363000Y436000D03*
X257500Y586500D03*
X270000Y385000D03*
X266000Y499000D03*
X352000Y436000D03*
X117000Y590000D03*
X120000Y570000D03*
X232678Y448000D03*
X288000Y439000D03*
X327000Y427000D03*
X346000Y376000D03*
X397000Y440000D03*
X225000Y344000D03*
X390000Y324000D03*
X334000Y346000D03*
X347000Y286000D03*
X253000Y165000D03*
X238000Y426000D03*
X222678Y589000D03*
X246000Y438000D03*
X232000Y541000D03*
X264000Y407000D03*
X253000Y499000D03*
X283000Y415000D03*
X257000Y621000D03*
X307000Y299322D03*
X232000Y140000D03*
X108000Y556000D03*
X31000Y190000D03*
X197000Y298000D03*
X436000Y345000D03*
X412155Y350000D03*
X52000Y330000D03*
X112000Y405000D03*
X55000Y295000D03*
X109000Y379000D03*
X149000Y305000D03*
X109000Y293000D03*
X214000Y430000D03*
X294000Y475000D03*
X352000Y386000D03*
X200000Y460000D03*
X175000Y431000D03*
X247000Y370000D03*
X211000Y373000D03*
X54000Y199000D03*
X110000Y206000D03*
X543000Y318000D03*
X510000Y343000D03*
X405000Y298000D03*
X430000Y292000D03*
X343000Y396000D03*
X373000Y404000D03*
X317000Y389000D03*
X395000Y407000D03*
X40000Y250000D03*
X494000Y364000D03*
X496000Y330000D03*
X299500Y387500D03*
X414000Y306000D03*
X138000Y192000D03*
X237000Y344000D03*
X258000Y263000D03*
X188000Y331000D03*
X178000Y356000D03*
X452000Y352000D03*
X439000Y323000D03*
X383000Y283000D03*
X384500Y335500D03*
X127000Y263000D03*
X347000Y347000D03*
X371000Y273000D03*
X371000Y330000D03*
M02*
